<?xml version="1.0" encoding="UTF-8" standalone="no"?>
<!-- Created with Inkscape (http://www.inkscape.org/) -->

<svg
   xmlns:dc="http://purl.org/dc/elements/1.1/"
   xmlns:cc="http://creativecommons.org/ns#"
   xmlns:rdf="http://www.w3.org/1999/02/22-rdf-syntax-ns#"
   xmlns:svg="http://www.w3.org/2000/svg"
   xmlns="http://www.w3.org/2000/svg"
   xmlns:xlink="http://www.w3.org/1999/xlink"
   xmlns:sodipodi="http://sodipodi.sourceforge.net/DTD/sodipodi-0.dtd"
   xmlns:inkscape="http://www.inkscape.org/namespaces/inkscape"
   width="228.25005"
   height="262.56256"
   id="svg2"
   version="1.1"
   inkscape:version="0.48.4 r9939"
   inkscape:export-filename="shogi-king.png"
   inkscape:export-xdpi="300.16"
   inkscape:export-ydpi="300.16"
   sodipodi:docname="bishop.svg">
  <defs
     id="defs4">
    <marker
       inkscape:stockid="TriangleOutL"
       orient="auto"
       refY="0"
       refX="0"
       id="TriangleOutL"
       style="overflow:visible">
      <path
         id="path4284"
         d="m 5.77,0 -8.65,5 0,-10 8.65,5 z"
         style="fill-rule:evenodd;stroke:#000000;stroke-width:1pt"
         transform="scale(0.8,0.8)"
         inkscape:connector-curvature="0" />
    </marker>
    <marker
       inkscape:stockid="Arrow2Mstart"
       orient="auto"
       refY="0"
       refX="0"
       id="Arrow2Mstart"
       style="overflow:visible">
      <path
         id="path4166"
         style="fill-rule:evenodd;stroke-width:0.625;stroke-linejoin:round"
         d="M 8.7185878,4.0337352 -2.2072895,0.01601326 8.7185884,-4.0017078 c -1.7454984,2.3720609 -1.7354408,5.6174519 -6e-7,8.035443 z"
         transform="scale(0.6,0.6)"
         inkscape:connector-curvature="0" />
    </marker>
    <marker
       inkscape:stockid="Arrow2Lend"
       orient="auto"
       refY="0"
       refX="0"
       id="Arrow2Lend"
       style="overflow:visible">
      <path
         id="path4163"
         style="fill-rule:evenodd;stroke-width:0.625;stroke-linejoin:round"
         d="M 8.7185878,4.0337352 -2.2072895,0.01601326 8.7185884,-4.0017078 c -1.7454984,2.3720609 -1.7354408,5.6174519 -6e-7,8.035443 z"
         transform="matrix(-1.1,0,0,-1.1,-1.1,0)"
         inkscape:connector-curvature="0" />
    </marker>
    <marker
       inkscape:stockid="Arrow2Lstart"
       orient="auto"
       refY="0"
       refX="0"
       id="Arrow2Lstart"
       style="overflow:visible">
      <path
         id="path4160"
         style="fill-rule:evenodd;stroke-width:0.625;stroke-linejoin:round"
         d="M 8.7185878,4.0337352 -2.2072895,0.01601326 8.7185884,-4.0017078 c -1.7454984,2.3720609 -1.7354408,5.6174519 -6e-7,8.035443 z"
         transform="matrix(1.1,0,0,1.1,1.1,0)"
         inkscape:connector-curvature="0" />
    </marker>
    <marker
       inkscape:stockid="TriangleInL"
       orient="auto"
       refY="0"
       refX="0"
       id="TriangleInL"
       style="overflow:visible">
      <path
         id="path4275"
         d="m 5.77,0 -8.65,5 0,-10 8.65,5 z"
         style="fill-rule:evenodd;stroke:#000000;stroke-width:1pt"
         transform="scale(-0.8,-0.8)"
         inkscape:connector-curvature="0" />
    </marker>
    <marker
       inkscape:stockid="Arrow1Lstart"
       orient="auto"
       refY="0"
       refX="0"
       id="Arrow1Lstart"
       style="overflow:visible">
      <path
         id="path4482"
         d="M 0,0 5,-5 -12.5,0 5,5 0,0 z"
         style="fill-rule:evenodd;stroke:#000000;stroke-width:1pt"
         transform="matrix(0.8,0,0,0.8,10,0)"
         inkscape:connector-curvature="0" />
    </marker>
  </defs>
  <sodipodi:namedview
     id="base"
     pagecolor="#ffffff"
     bordercolor="#666666"
     borderopacity="1.0"
     inkscape:pageopacity="0.0"
     inkscape:pageshadow="2"
     inkscape:zoom="0.35"
     inkscape:cx="-770.30602"
     inkscape:cy="746.85916"
     inkscape:document-units="px"
     inkscape:current-layer="layer1"
     showgrid="false"
     inkscape:window-width="1920"
     inkscape:window-height="1056"
     inkscape:window-x="1280"
     inkscape:window-y="24"
     inkscape:window-maximized="1"
     showguides="true"
     inkscape:guide-bbox="true"
     inkscape:object-paths="true"
     inkscape:snap-nodes="true"
     fit-margin-top="0"
     fit-margin-left="0"
     fit-margin-right="0"
     fit-margin-bottom="0" />
  <metadata
     id="metadata7">
    <rdf:RDF>
      <cc:Work
         rdf:about="">
        <dc:format>image/svg+xml</dc:format>
        <dc:type
           rdf:resource="http://purl.org/dc/dcmitype/StillImage" />
        <dc:title />
      </cc:Work>
    </rdf:RDF>
  </metadata>
  <g
     inkscape:label="Layer 1"
     inkscape:groupmode="layer"
     id="layer1"
     transform="translate(-277.58924,-738.53183)">
    <path
       style="fill:#ffffff;fill-opacity:1;stroke:#000000;stroke-width:10;stroke-linecap:round;stroke-linejoin:round;stroke-miterlimit:4;stroke-opacity:1;stroke-dasharray:none"
       d="m 296.65177,996.0944 190.12499,0 c 4.125,0 7.5,-0.6563 10.125,-1.9687 2.625,-1.3126 3.93752,-3.4688 3.93752,-6.4688 0,-19.12504 -12.93752,-87.37507 -38.81252,-204.75007 -1.5,-6 -3.58593,-10.7578 -6.2578,-14.2734 -2.67187,-3.51567 -7.71093,-6.44537 -15.1172,-8.7891 l -48.9375,-16.3125 -48.9375,16.3125 c -7.40627,2.34373 -12.44533,5.27343 -15.11719,8.7891 -2.67187,3.5156 -4.7578,8.4609 -6.2578,14.8359 -25.875,117 -38.81253,185.06253 -38.81253,204.18757 0,3 1.31253,5.1562 3.93753,6.4688 2.625,1.3124 6,1.9687 10.125,1.9687 z"
       id="path5952"
       inkscape:connector-curvature="0" />
    <use
       height="100.5"
       width="100.5"
       id="use3189"
       transform="matrix(-4,0,0,-4,42,80)"
       y="0"
       x="0"
       xlink:href="#lance" />
    <use
       height="100.5"
       width="100.5"
       id="use3189-0"
       transform="matrix(-4,0,0,-4,42,80)"
       y="0"
       x="0"
       xlink:href="#lance" />
    <use
       height="100.5"
       width="100.5"
       id="use3189-9"
       transform="matrix(-4,0,0,-4,42,80)"
       y="0"
       x="0"
       xlink:href="#lance" />
    <path
       style="font-size:72px;font-style:normal;font-variant:normal;font-weight:300;font-stretch:normal;line-height:100%;letter-spacing:0px;word-spacing:0px;fill:#000000;fill-opacity:1;stroke:none;font-family:Hiragino Kaku Gothic Pro;-inkscape-font-specification:Hiragino Kaku Gothic Pro Light"
       d="m 382.72869,760.60177 a 0.89583068,0.89583068 0 0 0 -0.75579,0.6998 c -0.3353,1.39711 -1.32986,3.24137 -3.55497,6.10224 a 0.89583068,0.89583068 0 0 0 -0.028,0 c -4.04301,5.43278 -9.69967,10.35006 -15.98338,13.96796 a 0.89583068,0.89583068 0 0 0 -0.13996,1.42759 c 1.53454,1.40667 1.63557,1.5664 2.46328,2.96714 a 0.89583068,0.89583068 0 0 0 1.25964,0.30791 c 2.02427,-1.26517 3.37511,-2.33655 5.03854,-3.63895 0.0345,0.88146 0.0839,1.6283 0.0839,3.05112 0,8.73157 -0.5712,15.68858 -1.62353,19.65032 -1.25935,4.72255 -3.01451,7.64586 -7.27789,12.03652 a 0.89583068,0.89583068 0 0 0 0.25192,1.42759 c 1.97531,1.01951 2.74193,1.51028 3.63895,2.4073 a 0.89583068,0.89583068 0 0 0 1.28763,-0.028 c 4.35455,-4.92254 6.92353,-9.78854 8.22962,-15.89941 l 34.15013,0 0,8.92942 c 0,0.42264 -0.0799,0.67258 -0.13996,0.78377 -0.0509,0.0942 -0.0884,0.11318 -0.16795,0.13996 0.0584,-0.0146 -0.38983,0.0734 -0.78377,0.11197 -0.39395,0.0386 -0.83983,0.056 -1.0637,0.056 -1.98914,0 -5.53384,-0.24078 -8.34158,-0.55984 a 0.89583068,0.89583068 0 0 0 -0.92374,1.23164 c 0.68395,1.55445 0.84602,2.28945 1.0357,3.8069 a 0.89583068,0.89583068 0 0 0 0.83976,0.78377 c 2.78061,0.12933 4.91538,0.19595 6.29818,0.19595 3.33599,0 5.52736,-0.18294 7.08195,-1.11968 0.7773,-0.46837 1.37736,-1.16954 1.70751,-1.98742 0.33015,-0.81789 0.41988,-1.73453 0.41988,-2.79919 l 0,-30.90307 c 0,-2.43504 0.0619,-3.80445 0.25193,-5.51441 a 0.89583068,0.89583068 0 0 0 -1.00771,-0.97972 c -1.21479,0.18222 -2.72443,0.25193 -5.09453,0.25193 l -11.28074,0 c 1.38006,-1.48832 2.77728,-3.03346 4.05883,-4.75862 1.74608,-2.32813 1.67896,-2.32279 2.43529,-3.07911 a 0.89583068,0.89583068 0 0 0 0,-1.25964 l -2.26734,-2.21136 a 0.89583068,0.89583068 0 0 0 -0.75578,-0.22394 c -1.53967,0.24635 -3.18381,0.30792 -5.8783,0.30792 l -9.93713,0 c 0.18591,-0.26753 0.41076,-0.55931 0.6998,-0.97972 a 0.89583068,0.89583068 0 0 0 0.028,-0.056 c 0.56236,-0.93727 0.71886,-1.09745 1.31562,-1.95943 a 0.89583068,0.89583068 0 0 0 -0.50385,-1.3716 l -4.70264,-1.28763 a 0.89583068,0.89583068 0 0 0 -0.3639,-0.028 z m -0.55984,11.02881 14.21989,0 c -1.44541,2.04503 -3.19357,4.19788 -4.8426,5.87831 l -13.38013,0 -0.13996,0 -0.19595,0 c -0.39357,-6e-5 -0.72872,-0.0254 -1.0357,-0.028 1.85937,-1.79146 3.47606,-3.4961 5.37445,-5.85031 z m -5.12252,11.22476 12.90427,0 0,5.34646 -12.90427,0 0,-1.03571 0,-4.31075 z m 18.64261,0 14.07993,0 0,5.34646 -14.07993,0 0,-5.34646 z m -18.83855,10.74889 13.10021,0 0,6.01826 -13.54809,0 c 0.21237,-2.0645 0.34678,-3.80578 0.44788,-6.01826 z m 18.83855,0 14.07993,0 0,6.01826 -14.07993,0 0,-6.01826 z m -18.27872,32.38664 a 0.89583068,0.89583068 0 0 0 -0.0839,0.028 0.89583068,0.89583068 0 0 0 -0.22393,0.056 0.89583068,0.89583068 0 0 0 -0.028,0.028 0.89583068,0.89583068 0 0 0 -0.028,0.028 0.89583068,0.89583068 0 0 0 -0.028,0 0.89583068,0.89583068 0 0 0 -0.056,0.028 0.89583068,0.89583068 0 0 0 -0.11196,0.11197 0.89583068,0.89583068 0 0 0 -0.028,0.028 0.89583068,0.89583068 0 0 0 -0.028,0.028 0.89583068,0.89583068 0 0 0 -0.028,0.028 0.89583068,0.89583068 0 0 0 -0.028,0.056 0.89583068,0.89583068 0 0 0 -0.028,0.028 0.89583068,0.89583068 0 0 0 0,0.056 0.89583068,0.89583068 0 0 0 -0.028,0.028 0.89583068,0.89583068 0 0 0 0,0.028 0.89583068,0.89583068 0 0 0 -0.028,0.056 c -0.97946,2.24366 -2.49684,4.37229 -5.65437,7.52983 -2.53957,2.60306 -4.79513,4.42019 -8.36958,6.71806 a 0.89583068,0.89583068 0 0 0 -0.056,1.45557 c 1.17498,0.92763 1.77723,1.59144 2.71521,2.96715 a 0.89583068,0.89583068 0 0 0 1.25964,0.22393 c 5.86803,-4.23802 10.572,-8.82391 14.49981,-14.1919 0.5852,-0.78028 0.67039,-0.89432 1.09168,-1.31562 a 0.89583068,0.89583068 0 0 0 -0.16795,-1.39959 l -3.86288,-2.37931 -0.028,-0.028 a 0.89583068,0.89583068 0 0 0 -0.11197,-0.056 0.89583068,0.89583068 0 0 0 -0.028,-0.028 0.89583068,0.89583068 0 0 0 -0.13996,-0.056 0.89583068,0.89583068 0 0 0 -0.028,-0.028 0.89583068,0.89583068 0 0 0 -0.056,0 0.89583068,0.89583068 0 0 0 -0.028,0 0.89583068,0.89583068 0 0 0 -0.056,0 0.89583068,0.89583068 0 0 0 -0.056,-0.028 0.89583068,0.89583068 0 0 0 -0.028,0 0.89583068,0.89583068 0 0 0 -0.056,0 0.89583068,0.89583068 0 0 0 -0.0839,0 z m 8.87344,3.55498 a 0.89583068,0.89583068 0 0 0 -0.83976,0.89574 l 0,4.31075 a 0.89583068,0.89583068 0 0 0 0,0.16795 l 0,0.028 a 0.89583068,0.89583068 0 0 0 0,0.11197 0.89583068,0.89583068 0 0 0 0,0.028 0.89583068,0.89583068 0 0 0 0,0.056 0.89583068,0.89583068 0 0 0 0,0.028 0.89583068,0.89583068 0 0 0 0.028,0.056 0.89583068,0.89583068 0 0 0 0.028,0.056 0.89583068,0.89583068 0 0 0 0,0.028 0.89583068,0.89583068 0 0 0 0.028,0.028 0.89583068,0.89583068 0 0 0 0.028,0.056 0.89583068,0.89583068 0 0 0 0.028,0.056 0.89583068,0.89583068 0 0 0 0,0.028 0.89583068,0.89583068 0 0 0 0.028,0.028 0.89583068,0.89583068 0 0 0 0.028,0.028 0.89583068,0.89583068 0 0 0 0.028,0.028 0.89583068,0.89583068 0 0 0 0.028,0.056 0.89583068,0.89583068 0 0 0 0.028,0 0.89583068,0.89583068 0 0 0 0.056,0.056 0.89583068,0.89583068 0 0 0 0.028,0 0.89583068,0.89583068 0 0 0 0.028,0.056 0.89583068,0.89583068 0 0 0 0.028,0 0.89583068,0.89583068 0 0 0 0.056,0.028 0.89583068,0.89583068 0 0 0 0.028,0.028 0.89583068,0.89583068 0 0 0 0.056,0.028 0.89583068,0.89583068 0 0 0 0.11196,0.028 0.89583068,0.89583068 0 0 0 0.056,0 0.89583068,0.89583068 0 0 0 0.056,0 0.89583068,0.89583068 0 0 0 0.028,0.028 0.89583068,0.89583068 0 0 0 0.056,0 0.89583068,0.89583068 0 0 0 0.028,0 0.89583068,0.89583068 0 0 0 0.19594,-0.028 0.89583068,0.89583068 0 0 0 0.028,0 c 1.86275,-0.24307 3.98734,-0.3639 6.49412,-0.3639 l 18.05478,0 c 2.54987,0 4.63384,0.11213 6.52212,0.3639 a 0.89583068,0.89583068 0 0 0 1.00771,-0.89574 l 0,-4.5067 a 0.89583068,0.89583068 0 0 0 -1.0357,-0.89574 c -1.75852,0.25122 -3.61847,0.39189 -6.49413,0.39189 l -18.05478,0 c -2.87566,0 -4.89546,-0.11462 -6.5781,-0.3639 a 0.89583068,0.89583068 0 0 0 -0.19594,-0.028 z m -7.38987,10.07708 a 0.89583068,0.89583068 0 0 0 -0.6718,0.55984 c -0.61366,1.65688 -1.55454,3.40478 -2.99514,5.34646 -3.82048,5.15765 -7.84636,9.12368 -12.7923,12.48439 a 0.89583068,0.89583068 0 0 0 -0.13996,1.3716 c 0.96592,0.96592 1.6053,1.88878 2.35132,3.44301 a 0.89583068,0.89583068 0 0 0 1.34361,0.30791 c 2.42534,-1.88088 4.13402,-3.53351 5.85031,-5.48642 -0.0603,1.73555 -0.13996,3.38874 -0.13996,5.29047 l 0,14.38785 0,0.056 a 0.89583068,0.89583068 0 0 0 0,0.11197 c -0.004,3.32434 -0.12112,5.94079 -0.41987,7.6138 a 0.89583068,0.89583068 0 0 0 0.86774,1.06369 l 5.09453,0 a 0.89583068,0.89583068 0 0 0 0.89574,-1.06369 c -0.30378,-1.70118 -0.44787,-4.26525 -0.44787,-7.72577 l 0,-25.78055 c 1.65522,-1.96336 2.87134,-3.47061 4.1708,-5.57039 0.0115,-0.0176 0.0167,-0.0108 0.028,-0.028 0.93973,-1.44157 1.09766,-1.74996 1.84747,-2.68722 a 0.89583068,0.89583068 0 0 0 -0.25193,-1.34361 l -4.00284,-2.23935 a 0.89583068,0.89583068 0 0 0 -0.58783,-0.11197 z m 4.75863,6.10224 a 0.89583068,0.89583068 0 0 0 -0.86775,0.89574 l 0,4.53469 a 0.89583068,0.89583068 0 0 0 1.06369,0.86775 c 1.4364,-0.2394 3.9922,-0.3639 6.99798,-0.3639 l 13.828,0 0,27.04019 c 0,0.26275 -0.04,0.40808 -0.056,0.44787 -0.0159,0.0398 0.0187,0.002 -0.028,0.028 -0.0934,0.0523 -0.67424,0.16795 -1.7355,0.16795 -2.58596,0 -5.33,-0.24274 -8.9854,-0.75578 a 0.89583068,0.89583068 0 0 0 -0.95172,1.20365 c 0.55545,1.41953 0.79088,2.4644 0.97971,4.22678 a 0.89583068,0.89583068 0 0 0 0.83976,0.78377 c 2.79084,0.19471 5.8206,0.3359 7.92171,0.3359 2.89539,0 4.87505,-0.22631 6.27019,-1.23164 1.39514,-1.00533 1.84747,-2.72283 1.84747,-4.89858 l 0,-27.3481 2.77119,0 c 2.94072,0 5.29107,0.11851 6.88601,0.36389 a 0.89583068,0.89583068 0 0 0 1.0357,-0.86774 l 0,-4.53469 a 0.89583068,0.89583068 0 0 0 -1.0357,-0.86775 c -1.37755,0.23957 -3.67625,0.36389 -6.94199,0.36389 l -22.64545,0 c -3.0708,0 -5.55761,-0.12383 -6.99798,-0.36389 a 0.89583068,0.89583068 0 0 0 -0.19595,-0.028 z"
       id="path5718"
       inkscape:connector-curvature="0" />
    <path
       style="font-size:medium;font-style:normal;font-variant:normal;font-weight:normal;font-stretch:normal;text-indent:0;text-align:start;text-decoration:none;line-height:normal;letter-spacing:normal;word-spacing:normal;text-transform:none;direction:ltr;block-progression:tb;writing-mode:lr-tb;text-anchor:start;baseline-shift:baseline;color:#000000;fill:#000000;fill-opacity:1;fill-rule:evenodd;stroke:none;stroke-width:3.2pt;marker:none;visibility:visible;display:inline;overflow:visible;enable-background:accumulate;font-family:Sans;-inkscape-font-specification:Sans"
       d="m 350.42556,892.87632 0.61152,2.33692 5.61291,21.6217 0.61152,2.35872 1.72537,-1.70352 3.97489,-3.93122 20.83546,21.14122 -21.11938,20.83544 -3.93121,-3.97489 -1.70353,-1.7254 -0.6552,2.33692 -5.91867,21.53433 -0.63336,2.33682 2.33689,-0.6115 21.62169,-5.61285 2.3369,-0.61152 -1.68169,-1.72541 -3.90939,-3.9749 21.11938,-20.83544 20.81361,21.1194 -3.9749,3.93122 -1.72537,1.70353 2.33689,0.6552 21.55618,5.91867 2.33689,0.6334 -0.61152,-2.337 -5.61291,-21.62166 -0.61152,-2.33686 -1.72537,1.68166 -3.97489,3.9094 -20.83546,-21.1194 21.11938,-20.83545 3.93121,3.99677 1.70353,1.72533 0.6552,-2.33685 5.91867,-21.55621 0.63336,-2.33686 -2.33689,0.61153 -21.62169,5.61286 -2.35874,0.61153 1.70353,1.7254 3.93122,3.9749 -21.11937,20.83545 -20.83545,-21.1194 3.9749,-3.90935 1.72537,-1.70353 -2.33689,-0.6552 -21.55618,-5.94051 -2.33689,-0.63339 z"
       id="path4481"
       inkscape:connector-curvature="0" />
  </g>
</svg>
