<!-- Created with Inkscape (http://www.inkscape.org/) -->
<svg xmlns:rdf="http://www.w3.org/1999/02/22-rdf-syntax-ns#" xmlns="http://www.w3.org/2000/svg" height="262.56" width="228.25" version="1.1" xmlns:cc="http://creativecommons.org/ns#" xmlns:xlink="http://www.w3.org/1999/xlink" xmlns:dc="http://purl.org/dc/elements/1.1/">
<defs></defs>
<metadata>
<rdf:RDF>
<cc:Work rdf:about="">
<dc:format>image/svg+xml</dc:format>
<dc:type rdf:resource="http://purl.org/dc/dcmitype/StillImage"/>
<dc:title/>
</cc:Work>
</rdf:RDF>
</metadata>
<g transform="translate(-277.58924,-738.53183)">
<path stroke-linejoin="round" d="m296.65,996.09,190.12,0c4.125,0,7.5-0.6563,10.125-1.9687,2.625-1.3126,3.9375-3.4688,3.9375-6.4688,0-19.125-12.938-87.375-38.813-204.75-1.5-6-3.5859-10.758-6.2578-14.273-2.6719-3.5157-7.7109-6.4454-15.117-8.7891l-48.938-16.312-48.938,16.312c-7.4063,2.3437-12.445,5.2734-15.117,8.7891-2.6719,3.5156-4.7578,8.4609-6.2578,14.836-25.875,117-38.813,185.06-38.813,204.19,0,3,1.3125,5.1562,3.9375,6.4688,2.625,1.3124,6,1.9687,10.125,1.9687z" stroke="#000" stroke-linecap="round" stroke-miterlimit="4" stroke-dasharray="none" stroke-width="10" fill="#FFF"/>
<use xlink:href="#lance" transform="matrix(-4,0,0,-4,42,80)" height="100.5" width="100.5" y="0" x="0"/>
<use xlink:href="#lance" transform="matrix(-4,0,0,-4,42,80)" height="100.5" width="100.5" y="0" x="0"/>
<use xlink:href="#lance" transform="matrix(-4,0,0,-4,42,80)" height="100.5" width="100.5" y="0" x="0"/>
<path fill="#000" d="m382.73,760.6a0.89583,0.89583,0,0,0,-0.75579,0.6998c-0.3353,1.3971-1.3299,3.2414-3.555,6.1022a0.89583,0.89583,0,0,0,-0.028,0c-4.043,5.4328-9.6997,10.35-15.983,13.968a0.89583,0.89583,0,0,0,-0.13996,1.4276c1.5345,1.4067,1.6356,1.5664,2.4633,2.9671a0.89583,0.89583,0,0,0,1.2596,0.30791c2.0243-1.2652,3.3751-2.3366,5.0385-3.639,0.0345,0.88146,0.0839,1.6283,0.0839,3.0511,0,8.7316-0.5712,15.689-1.6235,19.65-1.2594,4.7226-3.0145,7.6459-7.2779,12.037a0.89583,0.89583,0,0,0,0.25192,1.4276c1.9753,1.0195,2.7419,1.5103,3.639,2.4073a0.89583,0.89583,0,0,0,1.2876,-0.028c4.3546-4.9225,6.9235-9.7885,8.2296-15.899h34.15v8.9294c0,0.42264-0.0799,0.67258-0.13996,0.78377-0.0509,0.0942-0.0884,0.11318-0.16795,0.13996,0.0584-0.0146-0.38983,0.0734-0.78377,0.11197-0.39395,0.0386-0.83983,0.056-1.0637,0.056-1.9891,0-5.5338-0.24078-8.3416-0.55984a0.89583,0.89583,0,0,0,-0.92374,1.2316c0.68395,1.5544,0.84602,2.2894,1.0357,3.8069a0.89583,0.89583,0,0,0,0.83976,0.78377c2.7806,0.12933,4.9154,0.19595,6.2982,0.19595,3.336,0,5.5274-0.18294,7.082-1.1197,0.7773-0.46837,1.3774-1.1695,1.7075-1.9874,0.33015-0.81789,0.41988-1.7345,0.41988-2.7992v-30.903c0-2.435,0.0619-3.8044,0.25193-5.5144a0.89583,0.89583,0,0,0,-1.0077,-0.97972c-1.2148,0.18222-2.7244,0.25193-5.0945,0.25193h-11.281c1.3801-1.4883,2.7773-3.0335,4.0588-4.7586,1.7461-2.3281,1.679-2.3228,2.4353-3.0791a0.89583,0.89583,0,0,0,0,-1.2596l-2.2673-2.2114a0.89583,0.89583,0,0,0,-0.75578,-0.22394c-1.5397,0.24635-3.1838,0.30792-5.8783,0.30792h-9.9371c0.18591-0.26753,0.41076-0.55931,0.6998-0.97972a0.89583,0.89583,0,0,0,0.028,-0.056c0.56236-0.93727,0.71886-1.0974,1.3156-1.9594a0.89583,0.89583,0,0,0,-0.50385,-1.3716l-4.7026-1.2876a0.89583,0.89583,0,0,0,-0.3639,-0.028zm-0.55984,11.029,14.22,0c-1.4454,2.045-3.1936,4.1979-4.8426,5.8783h-13.38-0.13996-0.19595c-0.39357-0.00006-0.72872-0.0254-1.0357-0.028,1.8594-1.7915,3.4761-3.4961,5.3744-5.8503zm-5.1225,11.225,12.904,0,0,5.3465-12.904,0,0-1.0357,0-4.3108zm18.643,0,14.08,0,0,5.3465-14.08,0,0-5.3465zm-18.839,10.749,13.1,0,0,6.0183-13.548,0c0.21237-2.0645,0.34678-3.8058,0.44788-6.0183zm18.839,0,14.08,0,0,6.0183-14.08,0,0-6.0183zm-18.279,32.387a0.89583,0.89583,0,0,0,-0.0839,0.028,0.89583,0.89583,0,0,0,-0.22393,0.056,0.89583,0.89583,0,0,0,-0.028,0.028,0.89583,0.89583,0,0,0,-0.028,0.028,0.89583,0.89583,0,0,0,-0.028,0,0.89583,0.89583,0,0,0,-0.056,0.028,0.89583,0.89583,0,0,0,-0.11196,0.11197,0.89583,0.89583,0,0,0,-0.028,0.028,0.89583,0.89583,0,0,0,-0.028,0.028,0.89583,0.89583,0,0,0,-0.028,0.028,0.89583,0.89583,0,0,0,-0.028,0.056,0.89583,0.89583,0,0,0,-0.028,0.028,0.89583,0.89583,0,0,0,0,0.056,0.89583,0.89583,0,0,0,-0.028,0.028,0.89583,0.89583,0,0,0,0,0.028,0.89583,0.89583,0,0,0,-0.028,0.056c-0.97946,2.2437-2.4968,4.3723-5.6544,7.5298-2.5396,2.6031-4.7951,4.4202-8.3696,6.7181a0.89583,0.89583,0,0,0,-0.056,1.4556c1.175,0.92763,1.7772,1.5914,2.7152,2.9672a0.89583,0.89583,0,0,0,1.2596,0.22393c5.868-4.238,10.572-8.8239,14.5-14.192,0.5852-0.78028,0.67039-0.89432,1.0917-1.3156a0.89583,0.89583,0,0,0,-0.16795,-1.3996l-3.8629-2.3793-0.028-0.028a0.89583,0.89583,0,0,0,-0.11197,-0.056,0.89583,0.89583,0,0,0,-0.028,-0.028,0.89583,0.89583,0,0,0,-0.13996,-0.056,0.89583,0.89583,0,0,0,-0.028,-0.028,0.89583,0.89583,0,0,0,-0.056,0,0.89583,0.89583,0,0,0,-0.028,0,0.89583,0.89583,0,0,0,-0.056,0,0.89583,0.89583,0,0,0,-0.056,-0.028,0.89583,0.89583,0,0,0,-0.028,0,0.89583,0.89583,0,0,0,-0.056,0,0.89583,0.89583,0,0,0,-0.0839,0zm8.8734,3.555a0.89583,0.89583,0,0,0,-0.83976,0.89574v4.3108a0.89583,0.89583,0,0,0,0,0.16795v0.028a0.89583,0.89583,0,0,0,0,0.11197,0.89583,0.89583,0,0,0,0,0.028,0.89583,0.89583,0,0,0,0,0.056,0.89583,0.89583,0,0,0,0,0.028,0.89583,0.89583,0,0,0,0.028,0.056,0.89583,0.89583,0,0,0,0.028,0.056,0.89583,0.89583,0,0,0,0,0.028,0.89583,0.89583,0,0,0,0.028,0.028,0.89583,0.89583,0,0,0,0.028,0.056,0.89583,0.89583,0,0,0,0.028,0.056,0.89583,0.89583,0,0,0,0,0.028,0.89583,0.89583,0,0,0,0.028,0.028,0.89583,0.89583,0,0,0,0.028,0.028,0.89583,0.89583,0,0,0,0.028,0.028,0.89583,0.89583,0,0,0,0.028,0.056,0.89583,0.89583,0,0,0,0.028,0,0.89583,0.89583,0,0,0,0.056,0.056,0.89583,0.89583,0,0,0,0.028,0,0.89583,0.89583,0,0,0,0.028,0.056,0.89583,0.89583,0,0,0,0.028,0,0.89583,0.89583,0,0,0,0.056,0.028,0.89583,0.89583,0,0,0,0.028,0.028,0.89583,0.89583,0,0,0,0.056,0.028,0.89583,0.89583,0,0,0,0.11196,0.028,0.89583,0.89583,0,0,0,0.056,0,0.89583,0.89583,0,0,0,0.056,0,0.89583,0.89583,0,0,0,0.028,0.028,0.89583,0.89583,0,0,0,0.056,0,0.89583,0.89583,0,0,0,0.028,0,0.89583,0.89583,0,0,0,0.19594,-0.028,0.89583,0.89583,0,0,0,0.028,0c1.8628-0.24307,3.9873-0.3639,6.4941-0.3639h18.055c2.5499,0,4.6338,0.11213,6.5221,0.3639a0.89583,0.89583,0,0,0,1.0077,-0.89574v-4.5067a0.89583,0.89583,0,0,0,-1.0357,-0.89574c-1.7585,0.25122-3.6185,0.39189-6.4941,0.39189h-18.055c-2.8757,0-4.8955-0.11462-6.5781-0.3639a0.89583,0.89583,0,0,0,-0.19594,-0.028zm-7.3899,10.077a0.89583,0.89583,0,0,0,-0.6718,0.55984c-0.61366,1.6569-1.5545,3.4048-2.9951,5.3465-3.8205,5.1576-7.8464,9.1237-12.792,12.484a0.89583,0.89583,0,0,0,-0.13996,1.3716c0.96592,0.96592,1.6053,1.8888,2.3513,3.443a0.89583,0.89583,0,0,0,1.3436,0.30791c2.4253-1.8809,4.134-3.5335,5.8503-5.4864-0.0603,1.7356-0.13996,3.3887-0.13996,5.2905v14.388,0.056a0.89583,0.89583,0,0,0,0,0.11197c-0.004,3.3243-0.12112,5.9408-0.41987,7.6138a0.89583,0.89583,0,0,0,0.86774,1.0637h5.0945a0.89583,0.89583,0,0,0,0.89574,-1.0637c-0.30378-1.7012-0.44787-4.2652-0.44787-7.7258v-25.781c1.6552-1.9634,2.8713-3.4706,4.1708-5.5704,0.0115-0.0176,0.0167-0.0108,0.028-0.028,0.93973-1.4416,1.0977-1.75,1.8475-2.6872a0.89583,0.89583,0,0,0,-0.25193,-1.3436l-4.0028-2.2394a0.89583,0.89583,0,0,0,-0.58783,-0.11197zm4.7586,6.1022a0.89583,0.89583,0,0,0,-0.86775,0.89574v4.5347a0.89583,0.89583,0,0,0,1.0637,0.86775c1.4364-0.2394,3.9922-0.3639,6.998-0.3639h13.828v27.04c0,0.26275-0.04,0.40808-0.056,0.44787-0.0159,0.0398,0.0187,0.002-0.028,0.028-0.0934,0.0523-0.67424,0.16795-1.7355,0.16795-2.586,0-5.33-0.24274-8.9854-0.75578a0.89583,0.89583,0,0,0,-0.95172,1.2036c0.55545,1.4195,0.79088,2.4644,0.97971,4.2268a0.89583,0.89583,0,0,0,0.83976,0.78377c2.7908,0.19471,5.8206,0.3359,7.9217,0.3359,2.8954,0,4.875-0.22631,6.2702-1.2316,1.3951-1.0053,1.8475-2.7228,1.8475-4.8986v-27.348h2.7712c2.9407,0,5.2911,0.11851,6.886,0.36389a0.89583,0.89583,0,0,0,1.0357,-0.86774v-4.5347a0.89583,0.89583,0,0,0,-1.0357,-0.86775c-1.3776,0.23957-3.6762,0.36389-6.942,0.36389h-22.645c-3.0708,0-5.5576-0.12383-6.998-0.36389a0.89583,0.89583,0,0,0,-0.19595,-0.028z"/>
<path fill-rule="evenodd" style="baseline-shift:baseline;block-progression:tb;color:#000000;direction:ltr;text-indent:0;text-align:start;enable-background:accumulate;text-transform:none;" fill="#000" d="m350.43,892.88,0.61152,2.3369,5.6129,21.622,0.61152,2.3587,1.7254-1.7035,3.9749-3.9312,20.835,21.141-21.119,20.835-3.9312-3.9749-1.7035-1.7254-0.6552,2.3369-5.9187,21.534-0.63336,2.3368,2.3369-0.6115,21.622-5.6128,2.3369-0.61152-1.6817-1.7254-3.9094-3.9749,21.119-20.835,20.814,21.119-3.9749,3.9312-1.7254,1.7035,2.3369,0.6552,21.556,5.9187,2.3369,0.6334-0.61152-2.337-5.6129-21.622-0.61152-2.3369-1.7254,1.6817-3.9749,3.9094-20.835-21.119,21.119-20.835,3.9312,3.9968,1.7035,1.7253,0.6552-2.3368,5.9187-21.556,0.63336-2.3369-2.3369,0.61153-21.622,5.6129-2.3587,0.61153,1.7035,1.7254,3.9312,3.9749-21.119,20.835-20.835-21.119,3.9749-3.9094,1.7254-1.7035-2.3369-0.6552-21.556-5.9405-2.3369-0.63339z"/>
</g>
</svg>
