<?xml version="1.0" encoding="UTF-8" standalone="no"?>
<!-- Created with Inkscape (http://www.inkscape.org/) -->

<svg
   xmlns:dc="http://purl.org/dc/elements/1.1/"
   xmlns:cc="http://creativecommons.org/ns#"
   xmlns:rdf="http://www.w3.org/1999/02/22-rdf-syntax-ns#"
   xmlns:svg="http://www.w3.org/2000/svg"
   xmlns="http://www.w3.org/2000/svg"
   xmlns:xlink="http://www.w3.org/1999/xlink"
   xmlns:sodipodi="http://sodipodi.sourceforge.net/DTD/sodipodi-0.dtd"
   xmlns:inkscape="http://www.inkscape.org/namespaces/inkscape"
   width="253.12505"
   height="281.25006"
   id="svg2"
   version="1.1"
   inkscape:version="0.48.4 r9939"
   inkscape:export-filename="shogi-king.png"
   inkscape:export-xdpi="300.16"
   inkscape:export-ydpi="300.16"
   sodipodi:docname="bishop.svg">
  <defs
     id="defs4">
    <marker
       inkscape:stockid="TriangleOutL"
       orient="auto"
       refY="0"
       refX="0"
       id="TriangleOutL"
       style="overflow:visible">
      <path
         id="path4284"
         d="m 5.77,0 -8.65,5 0,-10 8.65,5 z"
         style="fill-rule:evenodd;stroke:#000000;stroke-width:1pt"
         transform="scale(0.8,0.8)"
         inkscape:connector-curvature="0" />
    </marker>
    <marker
       inkscape:stockid="Arrow2Mstart"
       orient="auto"
       refY="0"
       refX="0"
       id="Arrow2Mstart"
       style="overflow:visible">
      <path
         id="path4166"
         style="fill-rule:evenodd;stroke-width:0.625;stroke-linejoin:round"
         d="M 8.7185878,4.0337352 -2.2072895,0.01601326 8.7185884,-4.0017078 c -1.7454984,2.3720609 -1.7354408,5.6174519 -6e-7,8.035443 z"
         transform="scale(0.6,0.6)"
         inkscape:connector-curvature="0" />
    </marker>
    <marker
       inkscape:stockid="Arrow2Lend"
       orient="auto"
       refY="0"
       refX="0"
       id="Arrow2Lend"
       style="overflow:visible">
      <path
         id="path4163"
         style="fill-rule:evenodd;stroke-width:0.625;stroke-linejoin:round"
         d="M 8.7185878,4.0337352 -2.2072895,0.01601326 8.7185884,-4.0017078 c -1.7454984,2.3720609 -1.7354408,5.6174519 -6e-7,8.035443 z"
         transform="matrix(-1.1,0,0,-1.1,-1.1,0)"
         inkscape:connector-curvature="0" />
    </marker>
    <marker
       inkscape:stockid="Arrow2Lstart"
       orient="auto"
       refY="0"
       refX="0"
       id="Arrow2Lstart"
       style="overflow:visible">
      <path
         id="path4160"
         style="fill-rule:evenodd;stroke-width:0.625;stroke-linejoin:round"
         d="M 8.7185878,4.0337352 -2.2072895,0.01601326 8.7185884,-4.0017078 c -1.7454984,2.3720609 -1.7354408,5.6174519 -6e-7,8.035443 z"
         transform="matrix(1.1,0,0,1.1,1.1,0)"
         inkscape:connector-curvature="0" />
    </marker>
    <marker
       inkscape:stockid="TriangleInL"
       orient="auto"
       refY="0"
       refX="0"
       id="TriangleInL"
       style="overflow:visible">
      <path
         id="path4275"
         d="m 5.77,0 -8.65,5 0,-10 8.65,5 z"
         style="fill-rule:evenodd;stroke:#000000;stroke-width:1pt"
         transform="scale(-0.8,-0.8)"
         inkscape:connector-curvature="0" />
    </marker>
    <marker
       inkscape:stockid="Arrow1Lstart"
       orient="auto"
       refY="0"
       refX="0"
       id="Arrow1Lstart"
       style="overflow:visible">
      <path
         id="path4482"
         d="M 0,0 5,-5 -12.5,0 5,5 0,0 z"
         style="fill-rule:evenodd;stroke:#000000;stroke-width:1pt"
         transform="matrix(0.8,0,0,0.8,10,0)"
         inkscape:connector-curvature="0" />
    </marker>
  </defs>
  <sodipodi:namedview
     id="base"
     pagecolor="#ffffff"
     bordercolor="#666666"
     borderopacity="1.0"
     inkscape:pageopacity="0.0"
     inkscape:pageshadow="2"
     inkscape:zoom="0.49497475"
     inkscape:cx="-147.26276"
     inkscape:cy="691.76696"
     inkscape:document-units="px"
     inkscape:current-layer="layer1"
     showgrid="false"
     inkscape:window-width="1920"
     inkscape:window-height="1056"
     inkscape:window-x="1280"
     inkscape:window-y="24"
     inkscape:window-maximized="1"
     showguides="true"
     inkscape:guide-bbox="true"
     fit-margin-top="0"
     fit-margin-left="0"
     fit-margin-right="0"
     fit-margin-bottom="0" />
  <metadata
     id="metadata7">
    <rdf:RDF>
      <cc:Work
         rdf:about="">
        <dc:format>image/svg+xml</dc:format>
        <dc:type
           rdf:resource="http://purl.org/dc/dcmitype/StillImage" />
        <dc:title />
      </cc:Work>
    </rdf:RDF>
  </metadata>
  <g
     inkscape:label="Layer 1"
     inkscape:groupmode="layer"
     id="layer1"
     transform="translate(-265.15174,-730.59433)">
    <use
       height="100.5"
       width="100.5"
       id="use3189"
       transform="matrix(-4,0,0,-4,42,80)"
       y="0"
       x="0"
       xlink:href="#lance" />
    <use
       height="100.5"
       width="100.5"
       id="use3189-0"
       transform="matrix(-4,0,0,-4,42,80)"
       y="0"
       x="0"
       xlink:href="#lance" />
    <use
       height="100.5"
       width="100.5"
       id="use3189-9"
       transform="matrix(-4,0,0,-4,42,80)"
       y="0"
       x="0"
       xlink:href="#lance" />
    <g
       id="g5962"
       transform="translate(-20.000015,-20)">
      <g
         transform="matrix(0.89574111,0,0,0.89574111,-143.04552,454.48017)"
         id="g5926">
        <path
           style="font-size:medium;font-style:normal;font-variant:normal;font-weight:normal;font-stretch:normal;text-indent:0;text-align:start;text-decoration:none;line-height:normal;letter-spacing:normal;word-spacing:normal;text-transform:none;direction:ltr;block-progression:tb;writing-mode:lr-tb;text-anchor:start;baseline-shift:baseline;color:#000000;fill:#000000;fill-opacity:1;fill-rule:evenodd;stroke:none;stroke-width:1.6pt;marker:none;visibility:visible;display:inline;overflow:visible;enable-background:accumulate;font-family:Sans;-inkscape-font-specification:Sans"
           d="m 576.91244,530.00471 0.36266,1.37292 3.31573,12.82256 0.36266,1.39883 1.03617,-1.01026 2.35727,-2.33138 30.30788,30.74824 -30.74825,30.30787 -2.33137,-2.38318 -1.01026,-1.01026 -0.38856,1.37292 -3.49707,12.79666 -0.38856,1.37292 1.37292,-0.36265 12.84847,-3.31574 1.37291,-0.36266 -1.01026,-1.03617 -2.30546,-2.35727 30.72234,-30.30787 30.30787,30.74824 -2.35728,2.33138 -1.03616,1.01026 1.39881,0.36266 12.77076,3.52296 1.37292,0.38856 -0.33675,-1.39882 -3.34163,-12.82256 -0.36267,-1.39883 -1.03616,1.01026 -2.35728,2.33138 -30.30788,-30.72234 30.74825,-30.30788 2.33137,2.35729 1.01027,1.01026 0.38856,-1.37292 3.52297,-12.77076 0.36266,-1.39882 -1.37292,0.36265 -12.82257,3.34164 -1.39882,0.36266 1.01026,1.01027 2.30547,2.35727 -30.72234,30.30787 -30.30787,-30.72233 2.35727,-2.33138 1.03617,-1.01026 -1.39882,-0.38857 -12.77076,-3.52297 -1.37292,-0.36265 z"
           id="path5532"
           inkscape:connector-curvature="0" />
        <path
           style="font-size:72px;font-style:normal;font-variant:normal;font-weight:300;font-stretch:normal;line-height:100%;letter-spacing:0px;word-spacing:0px;fill:#000000;fill-opacity:1;stroke:none;font-family:Hiragino Kaku Gothic Pro;-inkscape-font-specification:Hiragino Kaku Gothic Pro Light"
           d="m 609.29906,364.0802 a 1.0001,1.0001 0 0 0 -0.84375,0.78125 c -0.37433,1.55972 -1.48465,3.61865 -3.96875,6.8125 a 1.0001,1.0001 0 0 0 -0.0313,0 c -4.51359,6.06513 -10.82865,11.55475 -17.84375,15.59375 a 1.0001,1.0001 0 0 0 -0.15625,1.59375 c 1.71316,1.5704 1.82595,1.74872 2.75,3.3125 a 1.0001,1.0001 0 0 0 1.40625,0.34375 c 2.25988,-1.41243 3.76795,-2.60851 5.625,-4.0625 0.0385,0.98405 0.0937,1.81782 0.0937,3.40625 0,9.74787 -0.63769,17.51464 -1.8125,21.9375 -1.40593,5.27223 -3.36538,8.53579 -8.125,13.4375 a 1.0001,1.0001 0 0 0 0.28125,1.59375 c 2.20522,1.13818 3.06107,1.68607 4.0625,2.6875 a 1.0001,1.0001 0 0 0 1.4375,-0.0313 c 4.86139,-5.49549 7.72939,-10.92786 9.1875,-17.75 l 38.125,0 0,9.96875 c 0,0.47183 -0.0892,0.75086 -0.15625,0.875 -0.0568,0.10515 -0.0987,0.12635 -0.1875,0.15625 0.0652,-0.0163 -0.4352,0.0819 -0.875,0.125 -0.4398,0.0431 -0.93758,0.0625 -1.1875,0.0625 -2.22067,0 -6.17795,-0.2688 -9.3125,-0.625 a 1.0001,1.0001 0 0 0 -1.03125,1.375 c 0.76356,1.73538 0.94449,2.55593 1.15625,4.25 a 1.0001,1.0001 0 0 0 0.9375,0.875 c 3.10426,0.14438 5.4875,0.21875 7.03125,0.21875 3.72428,0 6.17071,-0.20423 7.90625,-1.25 0.86777,-0.52289 1.53767,-1.30567 1.90625,-2.21875 0.36858,-0.91308 0.46875,-1.93642 0.46875,-3.125 l 0,-34.5 c 0,-2.71846 0.0691,-4.24726 0.28125,-6.15625 a 1.0001,1.0001 0 0 0 -1.125,-1.09375 c -1.35618,0.20343 -3.04153,0.28125 -5.6875,0.28125 l -12.59375,0 c 1.54069,-1.66155 3.10054,-3.38654 4.53125,-5.3125 1.94932,-2.59911 1.87439,-2.59314 2.71875,-3.4375 a 1.0001,1.0001 0 0 0 0,-1.40625 l -2.53125,-2.46875 a 1.0001,1.0001 0 0 0 -0.84375,-0.25 c -1.71887,0.27502 -3.55438,0.34375 -6.5625,0.34375 l -11.09375,0 c 0.20755,-0.29866 0.45857,-0.6244 0.78125,-1.09375 a 1.0001,1.0001 0 0 0 0.0313,-0.0625 c 0.62781,-1.04637 0.80253,-1.22519 1.46875,-2.1875 a 1.0001,1.0001 0 0 0 -0.5625,-1.53125 l -5.25,-1.4375 a 1.0001,1.0001 0 0 0 -0.40625,-0.0313 z m -0.625,12.3125 15.875,0 c -1.61365,2.28305 -3.56528,4.68648 -5.40625,6.5625 l -14.9375,0 -0.15625,0 -0.21875,0 c -0.43938,-6e-5 -0.81354,-0.0283 -1.15625,-0.0313 2.07579,-1.99997 3.88065,-3.90302 6,-6.53125 z m -5.71875,12.53125 14.40625,0 0,5.96875 -14.40625,0 0,-1.15625 0,-4.8125 z m 20.8125,0 15.71875,0 0,5.96875 -15.71875,0 0,-5.96875 z m -21.03125,12 14.625,0 0,6.71875 -15.125,0 c 0.23708,-2.3048 0.38714,-4.24875 0.5,-6.71875 z m 21.03125,0 15.71875,0 0,6.71875 -15.71875,0 0,-6.71875 z m -20.40625,36.15625 a 1.0001,1.0001 0 0 0 -0.0937,0.0313 1.0001,1.0001 0 0 0 -0.25,0.0625 1.0001,1.0001 0 0 0 -0.0313,0.0313 1.0001,1.0001 0 0 0 -0.0313,0.0313 1.0001,1.0001 0 0 0 -0.0313,0 1.0001,1.0001 0 0 0 -0.0625,0.0313 1.0001,1.0001 0 0 0 -0.125,0.125 1.0001,1.0001 0 0 0 -0.0313,0.0313 1.0001,1.0001 0 0 0 -0.0313,0.0313 1.0001,1.0001 0 0 0 -0.0313,0.0313 1.0001,1.0001 0 0 0 -0.0313,0.0625 1.0001,1.0001 0 0 0 -0.0313,0.0313 1.0001,1.0001 0 0 0 0,0.0625 1.0001,1.0001 0 0 0 -0.0313,0.0313 1.0001,1.0001 0 0 0 0,0.0313 1.0001,1.0001 0 0 0 -0.0313,0.0625 c -1.09346,2.5048 -2.78746,4.8812 -6.3125,8.40625 -2.83516,2.90604 -5.35326,4.93468 -9.34375,7.5 a 1.0001,1.0001 0 0 0 -0.0625,1.625 c 1.31174,1.03559 1.98409,1.77667 3.03125,3.3125 a 1.0001,1.0001 0 0 0 1.40625,0.25 c 6.55103,-4.7313 11.80252,-9.85096 16.1875,-15.84375 0.65332,-0.87111 0.74842,-0.99842 1.21875,-1.46875 a 1.0001,1.0001 0 0 0 -0.1875,-1.5625 l -4.3125,-2.65625 -0.0313,-0.0313 a 1.0001,1.0001 0 0 0 -0.125,-0.0625 1.0001,1.0001 0 0 0 -0.0313,-0.0313 1.0001,1.0001 0 0 0 -0.15625,-0.0625 1.0001,1.0001 0 0 0 -0.0313,-0.0313 1.0001,1.0001 0 0 0 -0.0625,0 1.0001,1.0001 0 0 0 -0.0313,0 1.0001,1.0001 0 0 0 -0.0625,0 1.0001,1.0001 0 0 0 -0.0625,-0.0313 1.0001,1.0001 0 0 0 -0.0313,0 1.0001,1.0001 0 0 0 -0.0625,0 1.0001,1.0001 0 0 0 -0.0937,0 z m 9.90625,3.96875 a 1.0001,1.0001 0 0 0 -0.9375,1 l 0,4.8125 a 1.0001,1.0001 0 0 0 0,0.1875 l 0,0.0313 a 1.0001,1.0001 0 0 0 0,0.125 1.0001,1.0001 0 0 0 0,0.0313 1.0001,1.0001 0 0 0 0,0.0625 1.0001,1.0001 0 0 0 0,0.0313 1.0001,1.0001 0 0 0 0.0313,0.0625 1.0001,1.0001 0 0 0 0.0313,0.0625 1.0001,1.0001 0 0 0 0,0.0313 1.0001,1.0001 0 0 0 0.0313,0.0313 1.0001,1.0001 0 0 0 0.0313,0.0625 1.0001,1.0001 0 0 0 0.0313,0.0625 1.0001,1.0001 0 0 0 0,0.0313 1.0001,1.0001 0 0 0 0.0313,0.0313 1.0001,1.0001 0 0 0 0.0313,0.0313 1.0001,1.0001 0 0 0 0.0313,0.0313 1.0001,1.0001 0 0 0 0.0313,0.0625 1.0001,1.0001 0 0 0 0.0313,0 1.0001,1.0001 0 0 0 0.0625,0.0625 1.0001,1.0001 0 0 0 0.0313,0 1.0001,1.0001 0 0 0 0.0313,0.0625 1.0001,1.0001 0 0 0 0.0313,0 1.0001,1.0001 0 0 0 0.0625,0.0313 1.0001,1.0001 0 0 0 0.0313,0.0313 1.0001,1.0001 0 0 0 0.0625,0.0313 1.0001,1.0001 0 0 0 0.125,0.0313 1.0001,1.0001 0 0 0 0.0625,0 1.0001,1.0001 0 0 0 0.0625,0 1.0001,1.0001 0 0 0 0.0313,0.0313 1.0001,1.0001 0 0 0 0.0625,0 1.0001,1.0001 0 0 0 0.0313,0 1.0001,1.0001 0 0 0 0.21875,-0.0313 1.0001,1.0001 0 0 0 0.0313,0 c 2.07956,-0.27136 4.45144,-0.40625 7.25,-0.40625 l 20.15625,0 c 2.84666,0 5.17319,0.12518 7.28125,0.40625 a 1.0001,1.0001 0 0 0 1.125,-1 l 0,-5.03125 a 1.0001,1.0001 0 0 0 -1.15625,-1 c -1.9632,0.28046 -4.03964,0.4375 -7.25,0.4375 l -20.15625,0 c -3.21037,0 -5.46527,-0.12795 -7.34375,-0.40625 a 1.0001,1.0001 0 0 0 -0.21875,-0.0313 z m -8.25,11.25 a 1.0001,1.0001 0 0 0 -0.75,0.625 c -0.68509,1.84973 -1.73548,3.80107 -3.34375,5.96875 -4.26517,5.75797 -8.75963,10.18562 -14.28125,13.9375 a 1.0001,1.0001 0 0 0 -0.15625,1.53125 c 1.07834,1.07835 1.79214,2.10862 2.625,3.84375 a 1.0001,1.0001 0 0 0 1.5,0.34375 c 2.70763,-2.0998 4.61519,-3.94479 6.53125,-6.125 -0.0673,1.93755 -0.15625,3.78317 -0.15625,5.90625 l 0,16.0625 0,0.0625 a 1.0001,1.0001 0 0 0 0,0.125 c -0.004,3.71128 -0.13522,6.63226 -0.46875,8.5 a 1.0001,1.0001 0 0 0 0.96875,1.1875 l 5.6875,0 a 1.0001,1.0001 0 0 0 1,-1.1875 c -0.33914,-1.89918 -0.5,-4.7617 -0.5,-8.625 l 0,-28.78125 c 1.84787,-2.19188 3.20554,-3.87457 4.65625,-6.21875 0.0128,-0.0196 0.0186,-0.012 0.0313,-0.0313 1.04911,-1.60937 1.22542,-1.95365 2.0625,-3 a 1.0001,1.0001 0 0 0 -0.28125,-1.5 l -4.46875,-2.5 a 1.0001,1.0001 0 0 0 -0.65625,-0.125 z m 5.3125,6.8125 a 1.0001,1.0001 0 0 0 -0.96875,1 l 0,5.0625 a 1.0001,1.0001 0 0 0 1.1875,0.96875 c 1.60358,-0.26726 4.45687,-0.40625 7.8125,-0.40625 l 15.4375,0 0,30.1875 c 0,0.29333 -0.0447,0.45558 -0.0625,0.5 -0.0178,0.0444 0.0209,0.002 -0.0313,0.0313 -0.10426,0.0584 -0.75272,0.1875 -1.9375,0.1875 -2.88696,0 -5.95038,-0.27099 -10.03125,-0.84375 a 1.0001,1.0001 0 0 0 -1.0625,1.34375 c 0.62011,1.58476 0.88294,2.75124 1.09375,4.71875 a 1.0001,1.0001 0 0 0 0.9375,0.875 c 3.11568,0.21737 6.49808,0.375 8.84375,0.375 3.23239,0 5.44247,-0.25266 7,-1.375 1.55753,-1.12234 2.0625,-3.03975 2.0625,-5.46875 l 0,-30.53125 3.09375,0 c 3.283,0 5.90691,0.13231 7.6875,0.40625 a 1.0001,1.0001 0 0 0 1.15625,-0.96875 l 0,-5.0625 a 1.0001,1.0001 0 0 0 -1.15625,-0.96875 c -1.53789,0.26746 -4.10415,0.40625 -7.75,0.40625 l -25.28125,0 c -3.42822,0 -6.20448,-0.13824 -7.8125,-0.40625 a 1.0001,1.0001 0 0 0 -0.21875,-0.0313 z"
           id="path5718"
           inkscape:connector-curvature="0" />
      </g>
      <path
         style="stroke:none"
         inkscape:connector-curvature="0"
         d="m 316.65179,1031.8444 c -11.625,0 -19.78123,-2.3438 -24.46873,-7.0313 -4.6875,-4.6875 -7.0313,-10.4062 -7.0313,-17.1562 0,-21.75007 13.4063,-91.87507 40.21873,-210.37507 2.06253,-8.81253 6.0938,-15.25783 12.0938,-19.3359 6,-4.07813 12.93749,-7.19533 20.81249,-9.3516 l 53.4375,-18 53.4375,18 c 7.875,2.15627 14.8125,5.27347 20.8125,9.3516 6,4.07807 10.03127,10.52337 12.0938,19.3359 26.81242,118.5 40.21872,188.625 40.21872,210.37507 0,6.75 -2.3438,12.4687 -7.0313,17.1562 -4.6875,4.6875 -12.84372,7.0313 -24.46872,7.0313 z m 0,-15.75 190.12499,0 c 4.125,0 7.5,-0.6563 10.125,-1.9687 2.625,-1.3126 3.93752,-3.4688 3.93752,-6.4688 0,-19.12504 -12.93752,-87.37507 -38.81252,-204.75007 -1.5,-6 -3.58593,-10.7578 -6.2578,-14.2734 -2.67187,-3.51567 -7.71093,-6.44537 -15.1172,-8.7891 l -48.9375,-16.3125 -48.9375,16.3125 c -7.40627,2.34373 -12.44533,5.27343 -15.11719,8.7891 -2.67187,3.5156 -4.7578,8.4609 -6.2578,14.8359 -25.875,117 -38.81253,185.06253 -38.81253,204.18757 0,3 1.31253,5.1562 3.93753,6.4688 2.625,1.3124 6,1.9687 10.125,1.9687 z"
         id="path5952"
         sodipodi:nodetypes="scscscccscscsssscscscccscscs" />
    </g>
  </g>
</svg>
