<!-- Created with Inkscape (http://www.inkscape.org/) -->
<svg xmlns:rdf="http://www.w3.org/1999/02/22-rdf-syntax-ns#" xmlns="http://www.w3.org/2000/svg" height="262.56" width="228.25" version="1.1" xmlns:cc="http://creativecommons.org/ns#" xmlns:xlink="http://www.w3.org/1999/xlink" xmlns:dc="http://purl.org/dc/elements/1.1/">
<defs></defs>
<metadata>
<rdf:RDF>
<cc:Work rdf:about="">
<dc:format>image/svg+xml</dc:format>
<dc:type rdf:resource="http://purl.org/dc/dcmitype/StillImage"/>
<dc:title/>
</cc:Work>
</rdf:RDF>
</metadata>
<g transform="translate(-17.58926,-738.53183)">
<path stroke-linejoin="round" d="m36.652,996.09,190.12,0c4.125,0,7.5-0.6563,10.125-1.9687,2.625-1.3126,3.9375-3.4688,3.9375-6.4688,0-19.125-12.938-87.375-38.813-204.75-1.5-6-3.5859-10.758-6.2578-14.273-2.6719-3.5157-7.7109-6.4454-15.117-8.7891l-48.938-16.312-48.938,16.312c-7.4063,2.3437-12.445,5.2734-15.117,8.7891-2.6719,3.5156-4.7578,8.4609-6.2578,14.836-25.875,117-38.813,185.06-38.813,204.19,0,3,1.3125,5.1562,3.9375,6.4688,2.625,1.3124,6,1.9687,10.125,1.9687z" stroke="#000" stroke-linecap="round" stroke-miterlimit="4" stroke-dasharray="none" stroke-width="10" fill="#FFF"/>
<use xlink:href="#lance" transform="matrix(-4,0,0,-4,42,80)" height="100.5" width="100.5" y="0" x="0"/>
<use xlink:href="#lance" transform="matrix(-4,0,0,-4,42,80)" height="100.5" width="100.5" y="0" x="0"/>
<use xlink:href="#lance" transform="matrix(-4,0,0,-4,42,80)" height="100.5" width="100.5" y="0" x="0"/>
<path fill="#000" d="m128.72,760.6a0.89583,0.89583,0,0,0,-0.6998,0.41988c-5.1559,8.4256-14.319,15.349-26.76,20.07a0.89583,0.89583,0,0,0,-0.3359,1.4556c1.4634,1.5906,1.7483,2.0206,2.5752,3.611a0.89583,0.89583,0,0,0,1.1477,0.41988c4.2235-1.7693,7.095-3.3363,10.497-5.5144v2.2953a0.89583,0.89583,0,0,0,1.0077,0.89574c1.6834-0.2494,3.2486-0.30791,5.8783-0.30791h6.0742v6.97h-15.815c-2.6803,0-4.4218-0.13983-6.1862-0.39189a0.89583,0.89583,0,0,0,-1.0357,0.89574v4.5067a0.89583,0.89583,0,0,0,1.0357,0.89574c1.7556-0.2508,3.7109-0.36389,6.1302-0.36389h15.871v15.228h-16.711c-2.9407,0-5.1613-0.13873-7.2499-0.39189a0.89583,0.89583,0,0,0,-1.0077,0.89574v4.6467a0.89583,0.89583,0,0,0,1.0077,0.89574c2.4762-0.31746,4.7653-0.44787,7.2499-0.44787h40.616c2.6151,0,4.9021,0.10656,6.97,0.41988a0.89583,0.89583,0,0,0,1.0357,-0.86775v-4.6467a0.89583,0.89583,0,0,0,-1.0077,-0.89574c-1.9544,0.25219-4.1034,0.39189-6.914,0.39189h-7.7538c2.7507-4.0103,3.9324-6.0098,6.858-11.925a0.89583,0.89583,0,0,0,-0.44787,-1.2316l-3.8629-1.5955a0.89583,0.89583,0,0,0,-0.11197,-0.056l-0.056-0.028a0.89583,0.89583,0,0,0,-0.028,0,0.89583,0.89583,0,0,0,-0.056,-0.028,0.89583,0.89583,0,0,0,-0.028,0,0.89583,0.89583,0,0,0,-0.056,-0.028,0.89583,0.89583,0,0,0,-0.028,0,0.89583,0.89583,0,0,0,-0.13996,-0.028,0.89583,0.89583,0,0,0,-0.36389,0.056,0.89583,0.89583,0,0,0,-0.028,0.028,0.89583,0.89583,0,0,0,-0.028,0,0.89583,0.89583,0,0,0,-0.13995,0.0839,0.89583,0.89583,0,0,0,-0.028,0.028,0.89583,0.89583,0,0,0,-0.028,0.028,0.89583,0.89583,0,0,0,-0.056,0.028,0.89583,0.89583,0,0,0,-0.028,0.028,0.89583,0.89583,0,0,0,-0.028,0.028,0.89583,0.89583,0,0,0,-0.028,0.028,0.89583,0.89583,0,0,0,-0.028,0.056,0.89583,0.89583,0,0,0,-0.028,0.028,0.89583,0.89583,0,0,0,0,0.056,0.89583,0.89583,0,0,0,-0.028,0.028,0.89583,0.89583,0,0,0,-0.028,0.056,0.89583,0.89583,0,0,0,-0.028,0.028,0.89583,0.89583,0,0,0,0,0.028,0.89583,0.89583,0,0,0,-0.028,0.056c-1.7771,4.8729-3.6295,8.4385-6.2702,11.897a0.89583,0.89583,0,0,0,0.36389,1.3716l2.3793,0.97971h-7.8657v-15.228h17.103c2.6151,0,4.3812,0.11106,6.2142,0.36389a0.89583,0.89583,0,0,0,1.0077,-0.89574v-4.5067a0.89583,0.89583,0,0,0,-1.0077,-0.89574c-1.7703,0.2529-3.4036,0.39189-6.2142,0.39189h-17.103v-6.97h6.998c2.6945,0,4.1772,0.0591,5.7943,0.30791a0.89583,0.89583,0,0,0,1.0077,-0.89574v-2.4353c4.0099,2.4759,6.8524,3.9991,11.365,5.8503a0.89583,0.89583,0,0,0,1.1477,-0.44787c0.68722-1.4369,1.4122-2.6484,2.4633-3.9469a0.89583,0.89583,0,0,0,-0.41987,-1.4276c-6.5-2.1667-11.221-4.6264-16.571-8.5095-0.006-0.004-0.0215,0.004-0.028,0-5.2841-3.8859-8.6682-7.3342-11.309-11.421a0.89583,0.89583,0,0,0,-0.75579,-0.41988h-4.9546a0.89583,0.89583,0,0,0,-0.0839,0zm2.6312,5.9343c3.5322,4.505,7.6922,8.2519,12.904,11.925-0.96072,0.0535-1.6398,0.13996-3.1911,0.13996h-18.951-0.0839a0.89583,0.89583,0,0,0,-0.056,0c-0.091,0-0.10725,0.00018-0.19595,0-1.232-0.003-1.8588-0.0963-2.7152-0.13996,5.0702-3.655,8.884-7.3339,12.288-11.925zm-15.368,30.119a0.89583,0.89583,0,0,0,-0.19594,0.0839l-3.471,1.5955h-0.028a0.89583,0.89583,0,0,0,-0.0839,0.028,0.89583,0.89583,0,0,0,-0.25193,0.13996,0.89583,0.89583,0,0,0,-0.056,0.028,0.89583,0.89583,0,0,0,-0.028,0.028,0.89583,0.89583,0,0,0,-0.056,0.028,0.89583,0.89583,0,0,0,-0.056,0.0839,0.89583,0.89583,0,0,0,-0.028,0.056,0.89583,0.89583,0,0,0,-0.028,0.056,0.89583,0.89583,0,0,0,-0.028,0.028,0.89583,0.89583,0,0,0,0,0.028,0.89583,0.89583,0,0,0,-0.028,0.056,0.89583,0.89583,0,0,0,-0.028,0.028,0.89583,0.89583,0,0,0,0,0.056,0.89583,0.89583,0,0,0,-0.028,0.028,0.89583,0.89583,0,0,0,0,0.056,0.89583,0.89583,0,0,0,0,0.028,0.89583,0.89583,0,0,0,0,0.056,0.89583,0.89583,0,0,0,0,0.19595,0.89583,0.89583,0,0,0,0,0.028,0.89583,0.89583,0,0,0,0,0.056,0.89583,0.89583,0,0,0,0,0.028,0.89583,0.89583,0,0,0,0.028,0.056,0.89583,0.89583,0,0,0,0,0.028,0.89583,0.89583,0,0,0,0.056,0.056,0.89583,0.89583,0,0,0,0,0.028,0.89583,0.89583,0,0,0,0.028,0.056,0.89583,0.89583,0,0,0,0,0.028,0.89583,0.89583,0,0,0,0.028,0.028,0.89583,0.89583,0,0,0,0.0839,0.11197c2.2978,3.438,3.8518,6.7486,5.4304,11.169a0.89583,0.89583,0,0,0,1.1757,0.53185l3.7509-1.4836a0.89583,0.89583,0,0,0,0.50386,-1.1757c-1.9429-4.922-3.3546-7.9016-5.7663-11.813a0.89583,0.89583,0,0,0,-0.92373,-0.41988zm39.245,27.6a0.89583,0.89583,0,0,0,-0.11197,0.028,0.89583,0.89583,0,0,0,-0.056,0,0.89583,0.89583,0,0,0,-0.0839,0.056,0.89583,0.89583,0,0,0,-0.13996,0.0839c-2.2505,1.3188-7.3812,2.735-13.548,3.7509-6.2153,1.0239-13.52,1.6995-20.238,1.7635a0.89583,0.89583,0,0,0,-0.78377,1.3156c0.8197,1.5133,1.1066,2.2148,1.4836,3.7229a0.89583,0.89583,0,0,0,0.89574,0.67181c6.0857-0.32371,11.347-0.82543,16.151-1.5396,6.4795-1.0367,13.642-2.5359,18.055-3.9189v0.028c1.3544-0.38696,1.379-0.42234,1.9594-0.61582a0.89583,0.89583,0,0,0,0.39189,-1.4276l-3.0511-3.471v-0.028a0.89583,0.89583,0,0,0,-0.11197,-0.11197,0.89583,0.89583,0,0,0,-0.22393,-0.19594,0.89583,0.89583,0,0,0,-0.13996,-0.056,0.89583,0.89583,0,0,0,-0.028,-0.028,0.89583,0.89583,0,0,0,-0.056,0,0.89583,0.89583,0,0,0,-0.028,0,0.89583,0.89583,0,0,0,-0.13996,-0.028,0.89583,0.89583,0,0,0,-0.028,0,0.89583,0.89583,0,0,0,-0.056,0,0.89583,0.89583,0,0,0,-0.028,0,0.89583,0.89583,0,0,0,-0.0839,0zm-41.792,0.25193a0.89583,0.89583,0,0,0,-0.81177,1.0077c0.25384,1.9038,0.39189,3.5899,0.39189,6.2702v24.129c-4.0292,2.7732-9.6959,5.6852-11.981,6.2982a0.89583,0.89583,0,0,0,-0.58783,1.2316l1.8475,4.3108a0.89583,0.89583,0,0,0,1.3436,0.3639c0.62888-0.44023,1.1794-0.79291,2.0434-1.2876,0.007-0.004,0.0207,0.004,0.028,0,2.6152-1.4174,5.1321-3.0176,7.3059-4.4787v14.192c0,3.0058-0.14134,5.1535-0.39189,6.97a0.89583,0.89583,0,0,0,0.89574,1.0357h4.8426a0.89583,0.89583,0,0,0,0.86775,-1.0357c-0.30761-1.8456-0.36389-4.0163-0.36389-6.97v-44.759c0-2.7593,0.0563-4.3832,0.30791-6.2702a0.89583,0.89583,0,0,0,-0.89575,-1.0077h-4.7586a0.89583,0.89583,0,0,0,-0.0839,0zm41.008,8.3976a0.89583,0.89583,0,0,0,-0.6998,0.58783c-2.2966,6.1881-4.5042,9.9541-9.4333,15.843a0.89583,0.89583,0,0,0,0.30791,1.3996l2.3513,1.0917c0.12564,1.0597,0.17429,2.1791,0.22393,3.639h-20.014c-2.6945,0-4.227-0.054-5.9623-0.36389a0.89583,0.89583,0,0,0,-1.0637,0.86775v4.5347a0.89583,0.89583,0,0,0,1.0357,0.86775c1.6154-0.24853,3.571-0.3639,5.9903-0.3639h20.07v16.179c0,0.52078-0.0319,0.51738-0.19595,0.61583-0.16409,0.0984-0.72565,0.25192-1.7355,0.25192-2.6376,0-5.7673-0.3361-9.2653-1.0357a0.89583,0.89583,0,0,0,-1.0077,1.2036c0.5632,1.5019,0.73351,2.248,0.92374,4.0868a0.89583,0.89583,0,0,0,0.81176,0.81177c3.4992,0.324,5.9917,0.44787,8.5375,0.44787,2.6506,0,4.525-0.26439,5.8783-1.2036,1.3534-0.93927,1.9034-2.5306,1.9034-4.4507v-16.907h1.1757c2.4846,0,4.4896,0.11353,6.2422,0.3639a0.89583,0.89583,0,0,0,1.0357,-0.86775v-4.5347a0.89583,0.89583,0,0,0,-1.0357,-0.86775c-1.7585,0.25122-3.6271,0.36389-6.2422,0.36389h-1.1197c0.0197-1.694,0.0398-2.8053,0.19594-4.0028a0.89583,0.89583,0,0,0,-0.89574,-1.0357h-1.9594c3.317-4.3124,5.3119-7.4142,8.9574-14.416a0.89583,0.89583,0,0,0,-0.41988,-1.2316l-4.0868-1.7915a0.89583,0.89583,0,0,0,-0.50385,-0.0839zm-48.258,0.83976a0.89583,0.89583,0,0,0,-0.13996,0.056l-3.527,1.3436h-0.028a0.89583,0.89583,0,0,0,-0.27992,0.11196,0.89583,0.89583,0,0,0,-0.056,0.028,0.89583,0.89583,0,0,0,-0.056,0,0.89583,0.89583,0,0,0,-0.028,0.028,0.89583,0.89583,0,0,0,-0.0839,0.0839,0.89583,0.89583,0,0,0,-0.056,0.056,0.89583,0.89583,0,0,0,-0.056,0.056,0.89583,0.89583,0,0,0,0,0.028,0.89583,0.89583,0,0,0,-0.056,0.056,0.89583,0.89583,0,0,0,0,0.028,0.89583,0.89583,0,0,0,-0.028,0.056,0.89583,0.89583,0,0,0,-0.028,0.0839,0.89583,0.89583,0,0,0,-0.028,0.0839,0.89583,0.89583,0,0,0,0,0.028,0.89583,0.89583,0,0,0,-0.028,0.056,0.89583,0.89583,0,0,0,0,0.028,0.89583,0.89583,0,0,0,0,0.056,0.89583,0.89583,0,0,0,0,0.028,0.89583,0.89583,0,0,0,0,0.056,0.89583,0.89583,0,0,0,0,0.028,0.89583,0.89583,0,0,0,0.028,0.16795,0.89583,0.89583,0,0,0,0.028,0.0839,0.89583,0.89583,0,0,0,0.028,0.056,0.89583,0.89583,0,0,0,0.056,0.11197c2.0051,4.4052,3.0676,7.7671,4.3388,13.996a0.89583,0.89583,0,0,0,1.1757,0.6718l3.7509-1.3436a0.89583,0.89583,0,0,0,0.55984,-1.0637c-1.2319-5.1869-2.405-9.0564-4.4787-14.5a0.89583,0.89583,0,0,0,-1.0077,-0.55984zm31.407,1.1477a0.89583,0.89583,0,0,0,-0.19595,0.056l-3.6669,1.2876a0.89583,0.89583,0,0,0,-0.47586,1.2876c2.2979,4.0851,3.4541,6.9308,4.9266,11.925a0.89583,0.89583,0,0,0,1.1757,0.58783l3.555-1.3436a0.89583,0.89583,0,0,0,0.22394,-0.0839,0.89583,0.89583,0,0,0,0.19594,-0.0839,0.89583,0.89583,0,0,0,0,-0.028,0.89583,0.89583,0,0,0,0.056,-0.028,0.89583,0.89583,0,0,0,0.028,-0.028,0.89583,0.89583,0,0,0,0.056,-0.028,0.89583,0.89583,0,0,0,0,-0.028,0.89583,0.89583,0,0,0,0.056,-0.056,0.89583,0.89583,0,0,0,0,-0.028,0.89583,0.89583,0,0,0,0,-0.028,0.89583,0.89583,0,0,0,0.056,-0.056,0.89583,0.89583,0,0,0,0.028,-0.028,0.89583,0.89583,0,0,0,0,-0.028,0.89583,0.89583,0,0,0,0.028,-0.028,0.89583,0.89583,0,0,0,0.028,-0.13996,0.89583,0.89583,0,0,0,0.028,-0.0839,0.89583,0.89583,0,0,0,0,-0.11196,0.89583,0.89583,0,0,0,0,-0.056,0.89583,0.89583,0,0,0,0,-0.028,0.89583,0.89583,0,0,0,-0.028,-0.13996,0.89583,0.89583,0,0,0,0,-0.028,0.89583,0.89583,0,0,0,-0.028,-0.028,0.89583,0.89583,0,0,0,-0.0839,-0.22393c-1.6452-4.9062-2.9558-8.0229-5.0665-11.925a0.89583,0.89583,0,0,0,-0.89574,-0.47586zm-11.897,1.8755a0.89583,0.89583,0,0,0,-0.19595,0.056l-3.527,1.3716a0.89583,0.89583,0,0,0,-0.44787,1.2876c2.5526,4.0842,3.67,6.6236,5.4024,11.757a0.89583,0.89583,0,0,0,1.2036,0.53185l3.499-1.5955,0.19594-0.0839a0.89583,0.89583,0,0,0,0.056,-0.028,0.89583,0.89583,0,0,0,0.056,-0.028,0.89583,0.89583,0,0,0,0.13996,-0.11197,0.89583,0.89583,0,0,0,0.0839,-0.11197,0.89583,0.89583,0,0,0,0.028,-0.028,0.89583,0.89583,0,0,0,0.028,-0.056,0.89583,0.89583,0,0,0,0.056,-0.0839,0.89583,0.89583,0,0,0,0.028,-0.056,0.89583,0.89583,0,0,0,0,-0.056,0.89583,0.89583,0,0,0,0.028,-0.028,0.89583,0.89583,0,0,0,0,-0.056,0.89583,0.89583,0,0,0,0,-0.028,0.89583,0.89583,0,0,0,0,-0.056,0.89583,0.89583,0,0,0,0,-0.19594,0.89583,0.89583,0,0,0,0,-0.028,0.89583,0.89583,0,0,0,0,-0.056,0.89583,0.89583,0,0,0,0,-0.028,0.89583,0.89583,0,0,0,-0.028,-0.056,0.89583,0.89583,0,0,0,0,-0.028,0.89583,0.89583,0,0,0,-0.028,-0.028,0.89583,0.89583,0,0,0,-0.056,-0.13996,0.89583,0.89583,0,0,0,-0.056,-0.0839c-1.8949-4.7123-3.4004-7.8029-5.5704-11.505a0.89583,0.89583,0,0,0,-0.89574,-0.44787zm4.3108,24.381a0.89583,0.89583,0,0,0,-0.39189,0.16795l-3.0231,2.2674a0.89583,0.89583,0,0,0,-0.0839,1.3716c3.7762,3.5202,5.8884,5.9438,8.7615,10.413a0.89583,0.89583,0,0,0,1.2876,0.22394l3.359-2.5473,0.0839-0.056a0.89583,0.89583,0,0,0,0.11197,-0.11197,0.89583,0.89583,0,0,0,0.13996,-0.13996,0.89583,0.89583,0,0,0,0.028,-0.056,0.89583,0.89583,0,0,0,0.056,-0.0839,0.89583,0.89583,0,0,0,0.056,-0.16796,0.89583,0.89583,0,0,0,0,-0.0839,0.89583,0.89583,0,0,0,0.028,-0.0839,0.89583,0.89583,0,0,0,0,-0.028,0.89583,0.89583,0,0,0,0,-0.056,0.89583,0.89583,0,0,0,-0.028,-0.11197,0.89583,0.89583,0,0,0,-0.056,-0.16795,0.89583,0.89583,0,0,0,-0.028,-0.0839,0.89583,0.89583,0,0,0,-0.056,-0.0839,0.89583,0.89583,0,0,0,-0.028,-0.028c-0.004-0.006,0.004-0.0218,0-0.028a0.89583,0.89583,0,0,0,-0.19594,-0.19595c-2.9066-3.7669-5.3966-6.462-9.2653-10.077a0.89583,0.89583,0,0,0,-0.75578,-0.25193z"/>
<path fill-rule="nonzero" style="baseline-shift:baseline;block-progression:tb;color:#000000;direction:ltr;text-indent:0;text-align:start;enable-background:accumulate;text-transform:none;" fill="#000" d="m126.12,898.41,0,1.3978,0,21.818-12.711-12.733-0.98281-1.0046-0.98279,1.0046-5.9405,5.9405-1.0046,0.98284,1.0046,0.98277,12.383,12.362-21.119,0-1.3978,0,0,1.3978,0,8.3866,0,1.3978,1.3978,0,29.353,0,0,29.353,0,1.3978,1.3978,0,8.3866,0,1.3978,0,0-1.3978,0-29.353,29.353,0,1.3978,0,0-1.3978,0-8.3866,0-1.3978-1.3978,0-21.054,0,12.187-12.187,0.9828-0.98277-0.9828-0.98284-5.9187-5.9405-0.98281-1.0046-0.9828,1.0046-12.602,12.602,0-21.862,0-1.3978-1.3978,0-8.3866,0-1.3978,0z"/>
</g>
</svg>
