<?xml version="1.0" encoding="UTF-8" standalone="no"?>
<!-- Created with Inkscape (http://www.inkscape.org/) -->

<svg
   xmlns:dc="http://purl.org/dc/elements/1.1/"
   xmlns:cc="http://creativecommons.org/ns#"
   xmlns:rdf="http://www.w3.org/1999/02/22-rdf-syntax-ns#"
   xmlns:svg="http://www.w3.org/2000/svg"
   xmlns="http://www.w3.org/2000/svg"
   xmlns:xlink="http://www.w3.org/1999/xlink"
   xmlns:sodipodi="http://sodipodi.sourceforge.net/DTD/sodipodi-0.dtd"
   xmlns:inkscape="http://www.inkscape.org/namespaces/inkscape"
   width="253.12505"
   height="281.25006"
   id="svg2"
   version="1.1"
   inkscape:version="0.48.4 r9939"
   inkscape:export-filename="shogi-king.png"
   inkscape:export-xdpi="300.16"
   inkscape:export-ydpi="300.16"
   sodipodi:docname="gold-general.svg">
  <defs
     id="defs4">
    <marker
       inkscape:stockid="TriangleOutL"
       orient="auto"
       refY="0"
       refX="0"
       id="TriangleOutL"
       style="overflow:visible">
      <path
         id="path4284"
         d="m 5.77,0 -8.65,5 0,-10 8.65,5 z"
         style="fill-rule:evenodd;stroke:#000000;stroke-width:1pt"
         transform="scale(0.8,0.8)"
         inkscape:connector-curvature="0" />
    </marker>
    <marker
       inkscape:stockid="Arrow2Mstart"
       orient="auto"
       refY="0"
       refX="0"
       id="Arrow2Mstart"
       style="overflow:visible">
      <path
         id="path4166"
         style="fill-rule:evenodd;stroke-width:0.625;stroke-linejoin:round"
         d="M 8.7185878,4.0337352 -2.2072895,0.01601326 8.7185884,-4.0017078 c -1.7454984,2.3720609 -1.7354408,5.6174519 -6e-7,8.035443 z"
         transform="scale(0.6,0.6)"
         inkscape:connector-curvature="0" />
    </marker>
    <marker
       inkscape:stockid="Arrow2Lend"
       orient="auto"
       refY="0"
       refX="0"
       id="Arrow2Lend"
       style="overflow:visible">
      <path
         id="path4163"
         style="fill-rule:evenodd;stroke-width:0.625;stroke-linejoin:round"
         d="M 8.7185878,4.0337352 -2.2072895,0.01601326 8.7185884,-4.0017078 c -1.7454984,2.3720609 -1.7354408,5.6174519 -6e-7,8.035443 z"
         transform="matrix(-1.1,0,0,-1.1,-1.1,0)"
         inkscape:connector-curvature="0" />
    </marker>
    <marker
       inkscape:stockid="Arrow2Lstart"
       orient="auto"
       refY="0"
       refX="0"
       id="Arrow2Lstart"
       style="overflow:visible">
      <path
         id="path4160"
         style="fill-rule:evenodd;stroke-width:0.625;stroke-linejoin:round"
         d="M 8.7185878,4.0337352 -2.2072895,0.01601326 8.7185884,-4.0017078 c -1.7454984,2.3720609 -1.7354408,5.6174519 -6e-7,8.035443 z"
         transform="matrix(1.1,0,0,1.1,1.1,0)"
         inkscape:connector-curvature="0" />
    </marker>
    <marker
       inkscape:stockid="TriangleInL"
       orient="auto"
       refY="0"
       refX="0"
       id="TriangleInL"
       style="overflow:visible">
      <path
         id="path4275"
         d="m 5.77,0 -8.65,5 0,-10 8.65,5 z"
         style="fill-rule:evenodd;stroke:#000000;stroke-width:1pt"
         transform="scale(-0.8,-0.8)"
         inkscape:connector-curvature="0" />
    </marker>
    <marker
       inkscape:stockid="Arrow1Lstart"
       orient="auto"
       refY="0"
       refX="0"
       id="Arrow1Lstart"
       style="overflow:visible">
      <path
         id="path4482"
         d="M 0,0 5,-5 -12.5,0 5,5 0,0 z"
         style="fill-rule:evenodd;stroke:#000000;stroke-width:1pt"
         transform="matrix(0.8,0,0,0.8,10,0)"
         inkscape:connector-curvature="0" />
    </marker>
  </defs>
  <sodipodi:namedview
     id="base"
     pagecolor="#ffffff"
     bordercolor="#666666"
     borderopacity="1.0"
     inkscape:pageopacity="0.0"
     inkscape:pageshadow="2"
     inkscape:zoom="0.49497475"
     inkscape:cx="112.73723"
     inkscape:cy="691.76696"
     inkscape:document-units="px"
     inkscape:current-layer="layer1"
     showgrid="false"
     inkscape:window-width="1920"
     inkscape:window-height="1056"
     inkscape:window-x="1280"
     inkscape:window-y="24"
     inkscape:window-maximized="1"
     showguides="true"
     inkscape:guide-bbox="true"
     fit-margin-top="0"
     fit-margin-left="0"
     fit-margin-right="0"
     fit-margin-bottom="0" />
  <metadata
     id="metadata7">
    <rdf:RDF>
      <cc:Work
         rdf:about="">
        <dc:format>image/svg+xml</dc:format>
        <dc:type
           rdf:resource="http://purl.org/dc/dcmitype/StillImage" />
        <dc:title />
      </cc:Work>
    </rdf:RDF>
  </metadata>
  <g
     inkscape:label="Layer 1"
     inkscape:groupmode="layer"
     id="layer1"
     transform="translate(-5.15176,-730.59433)">
    <use
       height="100.5"
       width="100.5"
       id="use3189"
       transform="matrix(-4,0,0,-4,42,80)"
       y="0"
       x="0"
       xlink:href="#lance" />
    <use
       height="100.5"
       width="100.5"
       id="use3189-0"
       transform="matrix(-4,0,0,-4,42,80)"
       y="0"
       x="0"
       xlink:href="#lance" />
    <use
       height="100.5"
       width="100.5"
       id="use3189-9"
       transform="matrix(-4,0,0,-4,42,80)"
       y="0"
       x="0"
       xlink:href="#lance" />
    <g
       id="g5956"
       transform="translate(-20,-20)">
      <g
         transform="matrix(0.89574111,0,0,0.89574111,-272.81629,452.59798)"
         id="g5922">
        <path
           style="font-size:medium;font-style:normal;font-variant:normal;font-weight:normal;font-stretch:normal;text-indent:0;text-align:start;text-decoration:none;line-height:normal;letter-spacing:normal;word-spacing:normal;text-transform:none;direction:ltr;block-progression:tb;writing-mode:lr-tb;text-anchor:start;baseline-shift:baseline;color:#000000;fill:#000000;fill-opacity:1;stroke:none;stroke-width:8;marker:none;visibility:visible;display:inline;overflow:visible;enable-background:accumulate;font-family:Sans;-inkscape-font-specification:Sans"
           d="m 470.62765,531.59782 0,33.85674 -20.72333,-20.72333 -4.68866,4.68866 20.30887,20.30886 -33.02781,0 0,6.63147 38.13093,0 0,38.13093 6.63146,0 0,-38.13093 38.13094,0 0,-6.63147 -32.9501,0 20.10163,-20.10163 -4.68865,-4.68866 -20.59382,20.59382 0,-33.93446 -6.63146,0 z"
           id="path5142"
           inkscape:connector-curvature="0" />
        <path
           style="font-size:72px;font-style:normal;font-variant:normal;font-weight:300;font-stretch:normal;line-height:100%;letter-spacing:0px;word-spacing:0px;fill:#000000;fill-opacity:1;stroke:none;font-family:Hiragino Kaku Gothic Pro;-inkscape-font-specification:Hiragino Kaku Gothic Pro Light"
           d="m 470.60608,366.17395 a 1.0001,1.0001 0 0 0 -0.78125,0.46875 c -5.75607,9.40625 -15.98583,17.13548 -29.875,22.40625 a 1.0001,1.0001 0 0 0 -0.375,1.625 c 1.6337,1.77577 1.95178,2.25584 2.875,4.03125 a 1.0001,1.0001 0 0 0 1.28125,0.46875 c 4.71514,-1.97527 7.92077,-3.72458 11.71875,-6.15625 l 0,2.5625 a 1.0001,1.0001 0 0 0 1.125,1 c 1.87937,-0.27843 3.62676,-0.34375 6.5625,-0.34375 l 6.78125,0 0,7.78125 -17.65625,0 c -2.99225,0 -4.93646,-0.1561 -6.90625,-0.4375 a 1.0001,1.0001 0 0 0 -1.15625,1 l 0,5.03125 a 1.0001,1.0001 0 0 0 1.15625,1 c 1.95989,-0.27999 4.14284,-0.40625 6.84375,-0.40625 l 17.71875,0 0,17 -18.65625,0 c -3.28301,0 -5.76208,-0.15487 -8.09375,-0.4375 a 1.0001,1.0001 0 0 0 -1.125,1 l 0,5.1875 a 1.0001,1.0001 0 0 0 1.125,1 c 2.76436,-0.35441 5.31994,-0.5 8.09375,-0.5 l 45.34375,0 c 2.91947,0 5.4727,0.11897 7.78125,0.46875 a 1.0001,1.0001 0 0 0 1.15625,-0.96875 l 0,-5.1875 a 1.0001,1.0001 0 0 0 -1.125,-1 c -2.18192,0.28154 -4.58106,0.4375 -7.71875,0.4375 l -8.65625,0 c 3.07087,-4.47709 4.39013,-6.70928 7.65625,-13.3125 a 1.0001,1.0001 0 0 0 -0.5,-1.375 l -4.3125,-1.78125 a 1.0001,1.0001 0 0 0 -0.125,-0.0625 l -0.0625,-0.0313 a 1.0001,1.0001 0 0 0 -0.0313,0 1.0001,1.0001 0 0 0 -0.0625,-0.0313 1.0001,1.0001 0 0 0 -0.0313,0 1.0001,1.0001 0 0 0 -0.0625,-0.0313 1.0001,1.0001 0 0 0 -0.0313,0 1.0001,1.0001 0 0 0 -0.15625,-0.0313 1.0001,1.0001 0 0 0 -0.40625,0.0625 1.0001,1.0001 0 0 0 -0.0313,0.0313 1.0001,1.0001 0 0 0 -0.0313,0 1.0001,1.0001 0 0 0 -0.15625,0.0937 1.0001,1.0001 0 0 0 -0.0313,0.0313 1.0001,1.0001 0 0 0 -0.0313,0.0313 1.0001,1.0001 0 0 0 -0.0625,0.0313 1.0001,1.0001 0 0 0 -0.0313,0.0313 1.0001,1.0001 0 0 0 -0.0313,0.0313 1.0001,1.0001 0 0 0 -0.0313,0.0313 1.0001,1.0001 0 0 0 -0.0313,0.0625 1.0001,1.0001 0 0 0 -0.0313,0.0313 1.0001,1.0001 0 0 0 0,0.0625 1.0001,1.0001 0 0 0 -0.0313,0.0313 1.0001,1.0001 0 0 0 -0.0313,0.0625 1.0001,1.0001 0 0 0 -0.0313,0.0313 1.0001,1.0001 0 0 0 0,0.0313 1.0001,1.0001 0 0 0 -0.0313,0.0625 c -1.98396,5.44012 -4.05193,9.42067 -7,13.28125 a 1.0001,1.0001 0 0 0 0.40625,1.53125 l 2.65625,1.09375 -8.78125,0 0,-17 19.09375,0 c 2.91947,0 4.89111,0.12399 6.9375,0.40625 a 1.0001,1.0001 0 0 0 1.125,-1 l 0,-5.03125 a 1.0001,1.0001 0 0 0 -1.125,-1 c -1.9764,0.28234 -3.79981,0.4375 -6.9375,0.4375 l -19.09375,0 0,-7.78125 7.8125,0 c 3.00812,0 4.6634,0.066 6.46875,0.34375 a 1.0001,1.0001 0 0 0 1.125,-1 l 0,-2.71875 c 4.47666,2.76409 7.64995,4.46456 12.6875,6.53125 a 1.0001,1.0001 0 0 0 1.28125,-0.5 c 0.76721,-1.60418 1.57656,-2.95671 2.75,-4.40625 a 1.0001,1.0001 0 0 0 -0.46875,-1.59375 c -7.25656,-2.41885 -12.52652,-5.1649 -18.5,-9.5 -0.007,-0.005 -0.024,0.005 -0.0313,0 -5.89917,-4.33818 -9.67712,-8.18781 -12.625,-12.75 a 1.0001,1.0001 0 0 0 -0.84375,-0.46875 l -5.53125,0 a 1.0001,1.0001 0 0 0 -0.0937,0 z m 2.9375,6.625 c 3.94332,5.02939 8.58751,9.21242 14.40625,13.3125 -1.07255,0.0597 -1.83068,0.15625 -3.5625,0.15625 l -21.15625,0 -0.0937,0 a 1.0001,1.0001 0 0 0 -0.0625,0 c -0.10153,0 -0.11973,2e-4 -0.21875,0 -1.37544,-0.003 -2.07515,-0.10749 -3.03125,-0.15625 5.66039,-4.08043 9.91804,-8.18749 13.71875,-13.3125 z m -17.15625,33.625 a 1.0001,1.0001 0 0 0 -0.21875,0.0937 l -3.875,1.78125 -0.0313,0 a 1.0001,1.0001 0 0 0 -0.0937,0.0313 1.0001,1.0001 0 0 0 -0.28125,0.15625 1.0001,1.0001 0 0 0 -0.0625,0.0313 1.0001,1.0001 0 0 0 -0.0313,0.0313 1.0001,1.0001 0 0 0 -0.0625,0.0313 1.0001,1.0001 0 0 0 -0.0625,0.0937 1.0001,1.0001 0 0 0 -0.0313,0.0625 1.0001,1.0001 0 0 0 -0.0313,0.0625 1.0001,1.0001 0 0 0 -0.0313,0.0313 1.0001,1.0001 0 0 0 0,0.0313 1.0001,1.0001 0 0 0 -0.0313,0.0625 1.0001,1.0001 0 0 0 -0.0313,0.0313 1.0001,1.0001 0 0 0 0,0.0625 1.0001,1.0001 0 0 0 -0.0313,0.0313 1.0001,1.0001 0 0 0 0,0.0625 1.0001,1.0001 0 0 0 0,0.0313 1.0001,1.0001 0 0 0 0,0.0625 1.0001,1.0001 0 0 0 0,0.21875 1.0001,1.0001 0 0 0 0,0.0313 1.0001,1.0001 0 0 0 0,0.0625 1.0001,1.0001 0 0 0 0,0.0313 1.0001,1.0001 0 0 0 0.0313,0.0625 1.0001,1.0001 0 0 0 0,0.0313 1.0001,1.0001 0 0 0 0.0625,0.0625 1.0001,1.0001 0 0 0 0,0.0313 1.0001,1.0001 0 0 0 0.0313,0.0625 1.0001,1.0001 0 0 0 0,0.0313 1.0001,1.0001 0 0 0 0.0313,0.0313 1.0001,1.0001 0 0 0 0.0937,0.125 c 2.5652,3.83817 4.30011,7.53407 6.0625,12.46875 a 1.0001,1.0001 0 0 0 1.3125,0.59375 l 4.1875,-1.65625 a 1.0001,1.0001 0 0 0 0.5625,-1.3125 c -2.16902,-5.49485 -3.74499,-8.82126 -6.4375,-13.1875 a 1.0001,1.0001 0 0 0 -1.03125,-0.46875 z m 43.8125,30.8125 a 1.0001,1.0001 0 0 0 -0.125,0.0313 1.0001,1.0001 0 0 0 -0.0625,0 1.0001,1.0001 0 0 0 -0.0937,0.0625 1.0001,1.0001 0 0 0 -0.15625,0.0937 c -2.51241,1.47225 -8.24038,3.05335 -15.125,4.1875 -6.93868,1.14305 -15.09354,1.89732 -22.59375,1.96875 a 1.0001,1.0001 0 0 0 -0.875,1.46875 c 0.91511,1.68945 1.23535,2.47264 1.65625,4.15625 a 1.0001,1.0001 0 0 0 1,0.75 c 6.79406,-0.36139 12.66802,-0.92151 18.03125,-1.71875 7.23362,-1.15738 15.23031,-2.83105 20.15625,-4.375 l 0,0.0313 c 1.51199,-0.432 1.5395,-0.4715 2.1875,-0.6875 a 1.0001,1.0001 0 0 0 0.4375,-1.59375 l -3.40625,-3.875 0,-0.0313 a 1.0001,1.0001 0 0 0 -0.125,-0.125 1.0001,1.0001 0 0 0 -0.25,-0.21875 1.0001,1.0001 0 0 0 -0.15625,-0.0625 1.0001,1.0001 0 0 0 -0.0313,-0.0313 1.0001,1.0001 0 0 0 -0.0625,0 1.0001,1.0001 0 0 0 -0.0313,0 1.0001,1.0001 0 0 0 -0.15625,-0.0313 1.0001,1.0001 0 0 0 -0.0313,0 1.0001,1.0001 0 0 0 -0.0625,0 1.0001,1.0001 0 0 0 -0.0313,0 1.0001,1.0001 0 0 0 -0.0937,0 z m -46.65625,0.28125 a 1.0001,1.0001 0 0 0 -0.90625,1.125 c 0.28338,2.12537 0.4375,4.00775 0.4375,7 l 0,26.9375 c -4.49812,3.09604 -10.82445,6.34695 -13.375,7.03125 a 1.0001,1.0001 0 0 0 -0.65625,1.375 l 2.0625,4.8125 a 1.0001,1.0001 0 0 0 1.5,0.40625 c 0.70208,-0.49146 1.31668,-0.88519 2.28125,-1.4375 0.008,-0.004 0.0231,0.004 0.0313,0 2.91961,-1.5824 5.72946,-3.36878 8.15625,-5 l 0,15.84375 c 0,3.35562 -0.15779,5.75336 -0.4375,7.78125 a 1.0001,1.0001 0 0 0 1,1.15625 l 5.40625,0 a 1.0001,1.0001 0 0 0 0.96875,-1.15625 c -0.34341,-2.06047 -0.40625,-4.48375 -0.40625,-7.78125 l 0,-49.96875 c 0,-3.0805 0.0629,-4.89338 0.34375,-7 a 1.0001,1.0001 0 0 0 -1,-1.125 l -5.3125,0 a 1.0001,1.0001 0 0 0 -0.0937,0 z m 45.78125,9.375 a 1.0001,1.0001 0 0 0 -0.78125,0.65625 c -2.56392,6.90832 -5.02843,11.11269 -10.53125,17.6875 a 1.0001,1.0001 0 0 0 0.34375,1.5625 l 2.625,1.21875 c 0.14027,1.183 0.19458,2.43275 0.25,4.0625 l -22.34375,0 c -3.00813,0 -4.71895,-0.0603 -6.65625,-0.40625 a 1.0001,1.0001 0 0 0 -1.1875,0.96875 l 0,5.0625 a 1.0001,1.0001 0 0 0 1.15625,0.96875 c 1.80343,-0.27745 3.98659,-0.40625 6.6875,-0.40625 l 22.40625,0 0,18.0625 c 0,0.58139 -0.0356,0.57759 -0.21875,0.6875 -0.18319,0.10991 -0.81011,0.28125 -1.9375,0.28125 -2.94463,0 -6.43862,-0.37522 -10.34375,-1.15625 a 1.0001,1.0001 0 0 0 -1.125,1.34375 c 0.62875,1.6767 0.81888,2.50961 1.03125,4.5625 a 1.0001,1.0001 0 0 0 0.90625,0.90625 c 3.9065,0.36171 6.68906,0.5 9.53125,0.5 2.95916,0 5.05162,-0.29516 6.5625,-1.34375 1.51088,-1.04859 2.125,-2.82512 2.125,-4.96875 l 0,-18.875 1.3125,0 c 2.7738,0 5.01215,0.12674 6.96875,0.40625 a 1.0001,1.0001 0 0 0 1.15625,-0.96875 l 0,-5.0625 a 1.0001,1.0001 0 0 0 -1.15625,-0.96875 c -1.9632,0.28046 -4.04928,0.40625 -6.96875,0.40625 l -1.25,0 c 0.022,-1.89116 0.0444,-3.1318 0.21875,-4.46875 a 1.0001,1.0001 0 0 0 -1,-1.15625 l -2.1875,0 c 3.70307,-4.81435 5.93021,-8.27718 10,-16.09375 a 1.0001,1.0001 0 0 0 -0.46875,-1.375 l -4.5625,-2 a 1.0001,1.0001 0 0 0 -0.5625,-0.0937 z m -53.875,0.9375 a 1.0001,1.0001 0 0 0 -0.15625,0.0625 l -3.9375,1.5 -0.0313,0 a 1.0001,1.0001 0 0 0 -0.3125,0.125 1.0001,1.0001 0 0 0 -0.0625,0.0313 1.0001,1.0001 0 0 0 -0.0625,0 1.0001,1.0001 0 0 0 -0.0313,0.0313 1.0001,1.0001 0 0 0 -0.0937,0.0937 1.0001,1.0001 0 0 0 -0.0625,0.0625 1.0001,1.0001 0 0 0 -0.0625,0.0625 1.0001,1.0001 0 0 0 0,0.0313 1.0001,1.0001 0 0 0 -0.0625,0.0625 1.0001,1.0001 0 0 0 0,0.0313 1.0001,1.0001 0 0 0 -0.0313,0.0625 1.0001,1.0001 0 0 0 -0.0313,0.0937 1.0001,1.0001 0 0 0 -0.0313,0.0937 1.0001,1.0001 0 0 0 0,0.0313 1.0001,1.0001 0 0 0 -0.0313,0.0625 1.0001,1.0001 0 0 0 0,0.0313 1.0001,1.0001 0 0 0 0,0.0625 1.0001,1.0001 0 0 0 0,0.0313 1.0001,1.0001 0 0 0 0,0.0625 1.0001,1.0001 0 0 0 0,0.0313 1.0001,1.0001 0 0 0 0.0313,0.1875 1.0001,1.0001 0 0 0 0.0313,0.0937 1.0001,1.0001 0 0 0 0.0313,0.0625 1.0001,1.0001 0 0 0 0.0625,0.125 c 2.2385,4.91796 3.42459,8.67112 4.84375,15.625 a 1.0001,1.0001 0 0 0 1.3125,0.75 l 4.1875,-1.5 a 1.0001,1.0001 0 0 0 0.625,-1.1875 c -1.37527,-5.7906 -2.68497,-10.11052 -5,-16.1875 a 1.0001,1.0001 0 0 0 -1.125,-0.625 z m 35.0625,1.28125 a 1.0001,1.0001 0 0 0 -0.21875,0.0625 l -4.09375,1.4375 a 1.0001,1.0001 0 0 0 -0.53125,1.4375 c 2.56532,4.56058 3.85609,7.7375 5.5,13.3125 a 1.0001,1.0001 0 0 0 1.3125,0.65625 l 3.96875,-1.5 a 1.0001,1.0001 0 0 0 0.25,-0.0937 1.0001,1.0001 0 0 0 0.21875,-0.0937 1.0001,1.0001 0 0 0 0,-0.0313 1.0001,1.0001 0 0 0 0.0625,-0.0313 1.0001,1.0001 0 0 0 0.0313,-0.0313 1.0001,1.0001 0 0 0 0.0625,-0.0313 1.0001,1.0001 0 0 0 0,-0.0313 1.0001,1.0001 0 0 0 0.0625,-0.0625 1.0001,1.0001 0 0 0 0,-0.0313 1.0001,1.0001 0 0 0 0,-0.0313 1.0001,1.0001 0 0 0 0.0625,-0.0625 1.0001,1.0001 0 0 0 0.0313,-0.0313 1.0001,1.0001 0 0 0 0,-0.0313 1.0001,1.0001 0 0 0 0.0313,-0.0313 1.0001,1.0001 0 0 0 0.0313,-0.15625 1.0001,1.0001 0 0 0 0.0313,-0.0937 1.0001,1.0001 0 0 0 0,-0.125 1.0001,1.0001 0 0 0 0,-0.0625 1.0001,1.0001 0 0 0 0,-0.0313 1.0001,1.0001 0 0 0 -0.0313,-0.15625 1.0001,1.0001 0 0 0 0,-0.0313 1.0001,1.0001 0 0 0 -0.0313,-0.0313 1.0001,1.0001 0 0 0 -0.0937,-0.25 c -1.83666,-5.47719 -3.29983,-8.95669 -5.65625,-13.3125 a 1.0001,1.0001 0 0 0 -1,-0.53125 z m -13.28125,2.09375 a 1.0001,1.0001 0 0 0 -0.21875,0.0625 l -3.9375,1.53125 a 1.0001,1.0001 0 0 0 -0.5,1.4375 c 2.84972,4.55956 4.09721,7.39451 6.03125,13.125 a 1.0001,1.0001 0 0 0 1.34375,0.59375 l 3.90625,-1.78125 0.21875,-0.0937 a 1.0001,1.0001 0 0 0 0.0625,-0.0313 1.0001,1.0001 0 0 0 0.0625,-0.0313 1.0001,1.0001 0 0 0 0.15625,-0.125 1.0001,1.0001 0 0 0 0.0937,-0.125 1.0001,1.0001 0 0 0 0.0313,-0.0313 1.0001,1.0001 0 0 0 0.0313,-0.0625 1.0001,1.0001 0 0 0 0.0625,-0.0937 1.0001,1.0001 0 0 0 0.0313,-0.0625 1.0001,1.0001 0 0 0 0,-0.0625 1.0001,1.0001 0 0 0 0.0313,-0.0313 1.0001,1.0001 0 0 0 0,-0.0625 1.0001,1.0001 0 0 0 0,-0.0313 1.0001,1.0001 0 0 0 0,-0.0625 1.0001,1.0001 0 0 0 0,-0.21875 1.0001,1.0001 0 0 0 0,-0.0313 1.0001,1.0001 0 0 0 0,-0.0625 1.0001,1.0001 0 0 0 0,-0.0313 1.0001,1.0001 0 0 0 -0.0313,-0.0625 1.0001,1.0001 0 0 0 0,-0.0313 1.0001,1.0001 0 0 0 -0.0313,-0.0313 1.0001,1.0001 0 0 0 -0.0625,-0.15625 1.0001,1.0001 0 0 0 -0.0625,-0.0937 c -2.11541,-5.26075 -3.79615,-8.71107 -6.21875,-12.84375 a 1.0001,1.0001 0 0 0 -1,-0.5 z m 4.8125,27.21875 a 1.0001,1.0001 0 0 0 -0.4375,0.1875 l -3.375,2.53125 a 1.0001,1.0001 0 0 0 -0.0937,1.53125 c 4.21569,3.92988 6.57379,6.63561 9.78125,11.625 a 1.0001,1.0001 0 0 0 1.4375,0.25 l 3.75,-2.84375 0.0937,-0.0625 a 1.0001,1.0001 0 0 0 0.125,-0.125 1.0001,1.0001 0 0 0 0.15625,-0.15625 1.0001,1.0001 0 0 0 0.0313,-0.0625 1.0001,1.0001 0 0 0 0.0625,-0.0937 1.0001,1.0001 0 0 0 0.0625,-0.1875 1.0001,1.0001 0 0 0 0,-0.0937 1.0001,1.0001 0 0 0 0.0313,-0.0937 1.0001,1.0001 0 0 0 0,-0.0313 1.0001,1.0001 0 0 0 0,-0.0625 1.0001,1.0001 0 0 0 -0.0313,-0.125 1.0001,1.0001 0 0 0 -0.0625,-0.1875 1.0001,1.0001 0 0 0 -0.0313,-0.0937 1.0001,1.0001 0 0 0 -0.0625,-0.0937 1.0001,1.0001 0 0 0 -0.0313,-0.0313 c -0.005,-0.007 0.005,-0.0243 0,-0.0313 a 1.0001,1.0001 0 0 0 -0.21875,-0.21875 c -3.24485,-4.20533 -6.02469,-7.21416 -10.34375,-11.25 a 1.0001,1.0001 0 0 0 -0.84375,-0.28125 z"
           id="path5713"
           inkscape:connector-curvature="0" />
      </g>
      <path
         sodipodi:nodetypes="scscscccscscsssscscscccscscs"
         id="path5954"
         d="m 56.65179,1031.8444 c -11.625,0 -19.78123,-2.3438 -24.46873,-7.0313 -4.6875,-4.6875 -7.0313,-10.4062 -7.0313,-17.1562 0,-21.75007 13.4063,-91.87507 40.21873,-210.37507 2.06253,-8.81253 6.0938,-15.25783 12.0938,-19.3359 6,-4.07813 12.93749,-7.19533 20.81249,-9.3516 l 53.4375,-18 53.4375,18 c 7.875,2.15627 14.8125,5.27347 20.8125,9.3516 6,4.07807 10.03127,10.52337 12.0938,19.3359 26.81242,118.5 40.21872,188.625 40.21872,210.37507 0,6.75 -2.3438,12.4687 -7.0313,17.1562 -4.6875,4.6875 -12.84372,7.0313 -24.46872,7.0313 z m 0,-15.75 190.12499,0 c 4.125,0 7.5,-0.6563 10.125,-1.9687 2.625,-1.3126 3.93752,-3.4688 3.93752,-6.4688 0,-19.12504 -12.93752,-87.37507 -38.81252,-204.75007 -1.5,-6 -3.58593,-10.7578 -6.2578,-14.2734 -2.67187,-3.51567 -7.71093,-6.44537 -15.1172,-8.7891 l -48.9375,-16.3125 -48.9375,16.3125 c -7.40627,2.34373 -12.44533,5.27343 -15.11719,8.7891 -2.67187,3.5156 -4.7578,8.4609 -6.2578,14.8359 -25.875,117 -38.81253,185.06253 -38.81253,204.18757 0,3 1.31253,5.1562 3.93753,6.4688 2.625,1.3124 6,1.9687 10.125,1.9687 z"
         inkscape:connector-curvature="0"
         style="stroke:none" />
    </g>
  </g>
</svg>
