<?xml version="1.0" encoding="UTF-8" standalone="no"?>
<!-- Created with Inkscape (http://www.inkscape.org/) -->

<svg
   xmlns:dc="http://purl.org/dc/elements/1.1/"
   xmlns:cc="http://creativecommons.org/ns#"
   xmlns:rdf="http://www.w3.org/1999/02/22-rdf-syntax-ns#"
   xmlns:svg="http://www.w3.org/2000/svg"
   xmlns="http://www.w3.org/2000/svg"
   xmlns:xlink="http://www.w3.org/1999/xlink"
   xmlns:sodipodi="http://sodipodi.sourceforge.net/DTD/sodipodi-0.dtd"
   xmlns:inkscape="http://www.inkscape.org/namespaces/inkscape"
   width="228.25005"
   height="262.56256"
   id="svg2"
   version="1.1"
   inkscape:version="0.48.4 r9939"
   inkscape:export-filename="shogi-king.png"
   inkscape:export-xdpi="300.16"
   inkscape:export-ydpi="300.16"
   sodipodi:docname="golden-general.svg">
  <defs
     id="defs4">
    <marker
       inkscape:stockid="TriangleOutL"
       orient="auto"
       refY="0"
       refX="0"
       id="TriangleOutL"
       style="overflow:visible">
      <path
         id="path4284"
         d="m 5.77,0 -8.65,5 0,-10 8.65,5 z"
         style="fill-rule:evenodd;stroke:#000000;stroke-width:1pt"
         transform="scale(0.8,0.8)"
         inkscape:connector-curvature="0" />
    </marker>
    <marker
       inkscape:stockid="Arrow2Mstart"
       orient="auto"
       refY="0"
       refX="0"
       id="Arrow2Mstart"
       style="overflow:visible">
      <path
         id="path4166"
         style="fill-rule:evenodd;stroke-width:0.625;stroke-linejoin:round"
         d="M 8.7185878,4.0337352 -2.2072895,0.01601326 8.7185884,-4.0017078 c -1.7454984,2.3720609 -1.7354408,5.6174519 -6e-7,8.035443 z"
         transform="scale(0.6,0.6)"
         inkscape:connector-curvature="0" />
    </marker>
    <marker
       inkscape:stockid="Arrow2Lend"
       orient="auto"
       refY="0"
       refX="0"
       id="Arrow2Lend"
       style="overflow:visible">
      <path
         id="path4163"
         style="fill-rule:evenodd;stroke-width:0.625;stroke-linejoin:round"
         d="M 8.7185878,4.0337352 -2.2072895,0.01601326 8.7185884,-4.0017078 c -1.7454984,2.3720609 -1.7354408,5.6174519 -6e-7,8.035443 z"
         transform="matrix(-1.1,0,0,-1.1,-1.1,0)"
         inkscape:connector-curvature="0" />
    </marker>
    <marker
       inkscape:stockid="Arrow2Lstart"
       orient="auto"
       refY="0"
       refX="0"
       id="Arrow2Lstart"
       style="overflow:visible">
      <path
         id="path4160"
         style="fill-rule:evenodd;stroke-width:0.625;stroke-linejoin:round"
         d="M 8.7185878,4.0337352 -2.2072895,0.01601326 8.7185884,-4.0017078 c -1.7454984,2.3720609 -1.7354408,5.6174519 -6e-7,8.035443 z"
         transform="matrix(1.1,0,0,1.1,1.1,0)"
         inkscape:connector-curvature="0" />
    </marker>
    <marker
       inkscape:stockid="TriangleInL"
       orient="auto"
       refY="0"
       refX="0"
       id="TriangleInL"
       style="overflow:visible">
      <path
         id="path4275"
         d="m 5.77,0 -8.65,5 0,-10 8.65,5 z"
         style="fill-rule:evenodd;stroke:#000000;stroke-width:1pt"
         transform="scale(-0.8,-0.8)"
         inkscape:connector-curvature="0" />
    </marker>
    <marker
       inkscape:stockid="Arrow1Lstart"
       orient="auto"
       refY="0"
       refX="0"
       id="Arrow1Lstart"
       style="overflow:visible">
      <path
         id="path4482"
         d="M 0,0 5,-5 -12.5,0 5,5 0,0 z"
         style="fill-rule:evenodd;stroke:#000000;stroke-width:1pt"
         transform="matrix(0.8,0,0,0.8,10,0)"
         inkscape:connector-curvature="0" />
    </marker>
  </defs>
  <sodipodi:namedview
     id="base"
     pagecolor="#ffffff"
     bordercolor="#666666"
     borderopacity="1.0"
     inkscape:pageopacity="0.0"
     inkscape:pageshadow="2"
     inkscape:zoom="0.7"
     inkscape:cx="377.07008"
     inkscape:cy="381.76323"
     inkscape:document-units="px"
     inkscape:current-layer="layer1"
     showgrid="false"
     inkscape:window-width="1920"
     inkscape:window-height="1056"
     inkscape:window-x="1280"
     inkscape:window-y="24"
     inkscape:window-maximized="1"
     showguides="true"
     inkscape:guide-bbox="true"
     inkscape:object-paths="true"
     inkscape:snap-nodes="true"
     fit-margin-top="0"
     fit-margin-left="0"
     fit-margin-right="0"
     fit-margin-bottom="0" />
  <metadata
     id="metadata7">
    <rdf:RDF>
      <cc:Work
         rdf:about="">
        <dc:format>image/svg+xml</dc:format>
        <dc:type
           rdf:resource="http://purl.org/dc/dcmitype/StillImage" />
        <dc:title />
      </cc:Work>
    </rdf:RDF>
  </metadata>
  <g
     inkscape:label="Layer 1"
     inkscape:groupmode="layer"
     id="layer1"
     transform="translate(-17.58926,-738.53183)">
    <path
       style="fill:#ffffff;fill-opacity:1;stroke:#000000;stroke-width:10;stroke-linecap:round;stroke-linejoin:round;stroke-miterlimit:4;stroke-opacity:1;stroke-dasharray:none"
       d="m 36.65179,996.0944 190.12499,0 c 4.125,0 7.5,-0.6563 10.125,-1.9687 2.625,-1.3126 3.93752,-3.4688 3.93752,-6.4688 0,-19.12504 -12.93752,-87.37507 -38.81252,-204.75007 -1.5,-6 -3.58593,-10.7578 -6.2578,-14.2734 -2.67187,-3.51567 -7.71093,-6.44537 -15.1172,-8.7891 l -48.9375,-16.3125 -48.9375,16.3125 c -7.40627,2.34373 -12.44533,5.27343 -15.11719,8.7891 -2.67187,3.5156 -4.7578,8.4609 -6.2578,14.8359 -25.875,117 -38.81253,185.06253 -38.81253,204.18757 0,3 1.31253,5.1562 3.93753,6.4688 2.625,1.3124 6,1.9687 10.125,1.9687 z"
       id="path5954"
       inkscape:connector-curvature="0" />
    <use
       height="100.5"
       width="100.5"
       id="use3189"
       transform="matrix(-4,0,0,-4,42,80)"
       y="0"
       x="0"
       xlink:href="#lance" />
    <use
       height="100.5"
       width="100.5"
       id="use3189-0"
       transform="matrix(-4,0,0,-4,42,80)"
       y="0"
       x="0"
       xlink:href="#lance" />
    <use
       height="100.5"
       width="100.5"
       id="use3189-9"
       transform="matrix(-4,0,0,-4,42,80)"
       y="0"
       x="0"
       xlink:href="#lance" />
    <path
       style="font-size:72px;font-style:normal;font-variant:normal;font-weight:300;font-stretch:normal;line-height:100%;letter-spacing:0px;word-spacing:0px;fill:#000000;fill-opacity:1;stroke:none;font-family:Hiragino Kaku Gothic Pro;-inkscape-font-specification:Hiragino Kaku Gothic Pro Light"
       d="m 128.72492,760.59504 a 0.89583068,0.89583068 0 0 0 -0.6998,0.41988 c -5.15594,8.42556 -14.31916,15.34895 -26.76026,20.0702 a 0.89583068,0.89583068 0 0 0 -0.3359,1.45558 c 1.46337,1.59063 1.74829,2.02065 2.57525,3.61095 a 0.89583068,0.89583068 0 0 0 1.14767,0.41988 c 4.22354,-1.76933 7.09496,-3.33626 10.49697,-5.5144 l 0,2.29533 a 0.89583068,0.89583068 0 0 0 1.00771,0.89574 c 1.68342,-0.2494 3.24863,-0.30791 5.8783,-0.30791 l 6.07424,0 0,6.96999 -15.81543,0 c -2.68028,0 -4.42179,-0.13983 -6.18621,-0.39189 a 0.89583068,0.89583068 0 0 0 -1.0357,0.89574 l 0,4.5067 a 0.89583068,0.89583068 0 0 0 1.0357,0.89574 c 1.75555,-0.2508 3.71091,-0.36389 6.13023,-0.36389 l 15.87141,0 0,15.2276 -16.71117,0 c -2.94073,0 -5.16133,-0.13873 -7.2499,-0.39189 a 0.89583068,0.89583068 0 0 0 -1.00771,0.89574 l 0,4.64666 a 0.89583068,0.89583068 0 0 0 1.00771,0.89574 c 2.47615,-0.31746 4.76528,-0.44787 7.2499,-0.44787 l 40.61626,0 c 2.61509,0 4.90212,0.10656 6.96999,0.41988 a 0.89583068,0.89583068 0 0 0 1.0357,-0.86775 l 0,-4.64666 a 0.89583068,0.89583068 0 0 0 -1.00771,-0.89574 c -1.95444,0.25219 -4.10345,0.39189 -6.914,0.39189 l -7.75376,0 c 2.7507,-4.01032 3.93242,-6.00978 6.85802,-11.92456 a 0.89583068,0.89583068 0 0 0 -0.44787,-1.23164 l -3.86289,-1.59554 a 0.89583068,0.89583068 0 0 0 -0.11197,-0.056 l -0.056,-0.028 a 0.89583068,0.89583068 0 0 0 -0.028,0 0.89583068,0.89583068 0 0 0 -0.056,-0.028 0.89583068,0.89583068 0 0 0 -0.028,0 0.89583068,0.89583068 0 0 0 -0.056,-0.028 0.89583068,0.89583068 0 0 0 -0.028,0 0.89583068,0.89583068 0 0 0 -0.13996,-0.028 0.89583068,0.89583068 0 0 0 -0.36389,0.056 0.89583068,0.89583068 0 0 0 -0.028,0.028 0.89583068,0.89583068 0 0 0 -0.028,0 0.89583068,0.89583068 0 0 0 -0.13995,0.0839 0.89583068,0.89583068 0 0 0 -0.028,0.028 0.89583068,0.89583068 0 0 0 -0.028,0.028 0.89583068,0.89583068 0 0 0 -0.056,0.028 0.89583068,0.89583068 0 0 0 -0.028,0.028 0.89583068,0.89583068 0 0 0 -0.028,0.028 0.89583068,0.89583068 0 0 0 -0.028,0.028 0.89583068,0.89583068 0 0 0 -0.028,0.056 0.89583068,0.89583068 0 0 0 -0.028,0.028 0.89583068,0.89583068 0 0 0 0,0.056 0.89583068,0.89583068 0 0 0 -0.028,0.028 0.89583068,0.89583068 0 0 0 -0.028,0.056 0.89583068,0.89583068 0 0 0 -0.028,0.028 0.89583068,0.89583068 0 0 0 0,0.028 0.89583068,0.89583068 0 0 0 -0.028,0.056 c -1.77712,4.87294 -3.62948,8.43848 -6.27019,11.89656 a 0.89583068,0.89583068 0 0 0 0.36389,1.37161 l 2.37932,0.97971 -7.86573,0 0,-15.22759 17.10306,0 c 2.61509,0 4.38117,0.11106 6.2142,0.36389 a 0.89583068,0.89583068 0 0 0 1.00771,-0.89574 l 0,-4.5067 a 0.89583068,0.89583068 0 0 0 -1.00771,-0.89574 c -1.77034,0.2529 -3.40364,0.39189 -6.2142,0.39189 l -17.10306,0 0,-6.96999 6.99798,0 c 2.69449,0 4.1772,0.0591 5.79432,0.30791 a 0.89583068,0.89583068 0 0 0 1.00771,-0.89574 l 0,-2.43529 c 4.00993,2.4759 6.85238,3.99909 11.36472,5.8503 a 0.89583068,0.89583068 0 0 0 1.14767,-0.44787 c 0.68722,-1.43693 1.41219,-2.64844 2.46328,-3.94686 a 0.89583068,0.89583068 0 0 0 -0.41987,-1.42758 c -6.5,-2.16667 -11.22052,-4.62642 -16.57122,-8.50954 -0.006,-0.004 -0.0215,0.004 -0.028,0 -5.28413,-3.88589 -8.6682,-7.33416 -11.30873,-11.4207 a 0.89583068,0.89583068 0 0 0 -0.75579,-0.41988 l -4.95456,0 a 0.89583068,0.89583068 0 0 0 -0.0839,0 z m 2.63124,5.93429 c 3.5322,4.50503 7.69219,8.25194 12.90427,11.92455 -0.96072,0.0535 -1.63981,0.13996 -3.19108,0.13996 l -18.95052,0 -0.0839,0 a 0.89583068,0.89583068 0 0 0 -0.056,0 c -0.091,0 -0.10725,1.8e-4 -0.19595,0 -1.23203,-0.003 -1.85879,-0.0963 -2.71521,-0.13996 5.07024,-3.65501 8.88399,-7.33387 12.28845,-11.92455 z m -15.36756,30.11929 a 0.89583068,0.89583068 0 0 0 -0.19594,0.0839 l -3.471,1.59554 -0.028,0 a 0.89583068,0.89583068 0 0 0 -0.0839,0.028 0.89583068,0.89583068 0 0 0 -0.25193,0.13996 0.89583068,0.89583068 0 0 0 -0.056,0.028 0.89583068,0.89583068 0 0 0 -0.028,0.028 0.89583068,0.89583068 0 0 0 -0.056,0.028 0.89583068,0.89583068 0 0 0 -0.056,0.0839 0.89583068,0.89583068 0 0 0 -0.028,0.056 0.89583068,0.89583068 0 0 0 -0.028,0.056 0.89583068,0.89583068 0 0 0 -0.028,0.028 0.89583068,0.89583068 0 0 0 0,0.028 0.89583068,0.89583068 0 0 0 -0.028,0.056 0.89583068,0.89583068 0 0 0 -0.028,0.028 0.89583068,0.89583068 0 0 0 0,0.056 0.89583068,0.89583068 0 0 0 -0.028,0.028 0.89583068,0.89583068 0 0 0 0,0.056 0.89583068,0.89583068 0 0 0 0,0.028 0.89583068,0.89583068 0 0 0 0,0.056 0.89583068,0.89583068 0 0 0 0,0.19595 0.89583068,0.89583068 0 0 0 0,0.028 0.89583068,0.89583068 0 0 0 0,0.056 0.89583068,0.89583068 0 0 0 0,0.028 0.89583068,0.89583068 0 0 0 0.028,0.056 0.89583068,0.89583068 0 0 0 0,0.028 0.89583068,0.89583068 0 0 0 0.056,0.056 0.89583068,0.89583068 0 0 0 0,0.028 0.89583068,0.89583068 0 0 0 0.028,0.056 0.89583068,0.89583068 0 0 0 0,0.028 0.89583068,0.89583068 0 0 0 0.028,0.028 0.89583068,0.89583068 0 0 0 0.0839,0.11197 c 2.29775,3.43801 3.85178,6.74858 5.43043,11.16877 a 0.89583068,0.89583068 0 0 0 1.17566,0.53185 l 3.75091,-1.48357 a 0.89583068,0.89583068 0 0 0 0.50386,-1.17566 c -1.94288,-4.92197 -3.35455,-7.90157 -5.76634,-11.81259 a 0.89583068,0.89583068 0 0 0 -0.92373,-0.41988 z m 39.24466,27.60002 a 0.89583068,0.89583068 0 0 0 -0.11197,0.028 0.89583068,0.89583068 0 0 0 -0.056,0 0.89583068,0.89583068 0 0 0 -0.0839,0.056 0.89583068,0.89583068 0 0 0 -0.13996,0.0839 c -2.25047,1.31876 -7.38125,2.73502 -13.54809,3.75092 -6.21526,1.02388 -13.5199,1.69951 -20.23815,1.76349 a 0.89583068,0.89583068 0 0 0 -0.78377,1.31562 c 0.8197,1.51331 1.10655,2.21485 1.48357,3.72292 a 0.89583068,0.89583068 0 0 0 0.89574,0.67181 c 6.08572,-0.32371 11.34727,-0.82543 16.15133,-1.53955 6.47946,-1.03672 13.64242,-2.53589 18.05479,-3.91887 l 0,0.028 c 1.35435,-0.38696 1.37899,-0.42234 1.95943,-0.61582 a 0.89583068,0.89583068 0 0 0 0.39189,-1.42758 l -3.05112,-3.471 0,-0.028 a 0.89583068,0.89583068 0 0 0 -0.11197,-0.11197 0.89583068,0.89583068 0 0 0 -0.22393,-0.19594 0.89583068,0.89583068 0 0 0 -0.13996,-0.056 0.89583068,0.89583068 0 0 0 -0.028,-0.028 0.89583068,0.89583068 0 0 0 -0.056,0 0.89583068,0.89583068 0 0 0 -0.028,0 0.89583068,0.89583068 0 0 0 -0.13996,-0.028 0.89583068,0.89583068 0 0 0 -0.028,0 0.89583068,0.89583068 0 0 0 -0.056,0 0.89583068,0.89583068 0 0 0 -0.028,0 0.89583068,0.89583068 0 0 0 -0.0839,0 z m -41.79192,0.25193 a 0.89583068,0.89583068 0 0 0 -0.81177,1.00771 c 0.25384,1.90378 0.39189,3.58991 0.39189,6.27019 l 0,24.12902 c -4.02915,2.77325 -9.6959,5.68523 -11.98054,6.29818 a 0.89583068,0.89583068 0 0 0 -0.58783,1.23165 l 1.84747,4.31075 a 0.89583068,0.89583068 0 0 0 1.34361,0.3639 c 0.62888,-0.44023 1.17941,-0.79291 2.04341,-1.28763 0.007,-0.004 0.0207,0.004 0.028,0 2.61521,-1.41742 5.13211,-3.01756 7.30589,-4.47871 l 0,14.1919 c 0,3.00577 -0.14134,5.15352 -0.39189,6.96999 a 0.89583068,0.89583068 0 0 0 0.89574,1.0357 l 4.8426,0 a 0.89583068,0.89583068 0 0 0 0.86775,-1.0357 c -0.30761,-1.84565 -0.36389,-4.01628 -0.36389,-6.96999 l 0,-44.75906 c 0,-2.75933 0.0563,-4.3832 0.30791,-6.27019 a 0.89583068,0.89583068 0 0 0 -0.89575,-1.00771 l -4.75862,0 a 0.89583068,0.89583068 0 0 0 -0.0839,0 z m 41.00815,8.39757 a 0.89583068,0.89583068 0 0 0 -0.6998,0.58783 c -2.29661,6.18807 -4.50417,9.9541 -9.43327,15.84342 a 0.89583068,0.89583068 0 0 0 0.30791,1.3996 l 2.35132,1.09168 c 0.12564,1.05967 0.17429,2.17912 0.22393,3.63895 l -20.01421,0 c -2.69451,0 -4.22696,-0.054 -5.96228,-0.36389 a 0.89583068,0.89583068 0 0 0 -1.06369,0.86775 l 0,4.53469 a 0.89583068,0.89583068 0 0 0 1.0357,0.86775 c 1.61541,-0.24853 3.57095,-0.3639 5.99027,-0.3639 l 20.0702,0 0,16.17932 c 0,0.52078 -0.0319,0.51738 -0.19595,0.61583 -0.16409,0.0984 -0.72565,0.25192 -1.7355,0.25192 -2.63762,0 -5.76733,-0.3361 -9.26532,-1.0357 a 0.89583068,0.89583068 0 0 0 -1.00771,1.20365 c 0.5632,1.50189 0.73351,2.24797 0.92374,4.08682 a 0.89583068,0.89583068 0 0 0 0.81176,0.81177 c 3.49922,0.324 5.99167,0.44787 8.53753,0.44787 2.65065,0 4.52495,-0.26439 5.87831,-1.20365 1.35335,-0.93927 1.90345,-2.53058 1.90345,-4.45072 l 0,-16.90711 1.17566,0 c 2.4846,0 4.48958,0.11353 6.24219,0.3639 a 0.89583068,0.89583068 0 0 0 1.0357,-0.86775 l 0,-4.53469 a 0.89583068,0.89583068 0 0 0 -1.0357,-0.86775 c -1.75852,0.25122 -3.6271,0.36389 -6.24219,0.36389 l -1.11968,0 c 0.0197,-1.69399 0.0398,-2.80528 0.19594,-4.00284 a 0.89583068,0.89583068 0 0 0 -0.89574,-1.0357 l -1.95943,0 c 3.31699,-4.31241 5.31193,-7.41421 8.95741,-14.41583 a 0.89583068,0.89583068 0 0 0 -0.41988,-1.23165 l -4.08682,-1.79148 a 0.89583068,0.89583068 0 0 0 -0.50385,-0.0839 z m -48.25805,0.83976 a 0.89583068,0.89583068 0 0 0 -0.13996,0.056 l -3.52698,1.34362 -0.028,0 a 0.89583068,0.89583068 0 0 0 -0.27992,0.11196 0.89583068,0.89583068 0 0 0 -0.056,0.028 0.89583068,0.89583068 0 0 0 -0.056,0 0.89583068,0.89583068 0 0 0 -0.028,0.028 0.89583068,0.89583068 0 0 0 -0.0839,0.0839 0.89583068,0.89583068 0 0 0 -0.056,0.056 0.89583068,0.89583068 0 0 0 -0.056,0.056 0.89583068,0.89583068 0 0 0 0,0.028 0.89583068,0.89583068 0 0 0 -0.056,0.056 0.89583068,0.89583068 0 0 0 0,0.028 0.89583068,0.89583068 0 0 0 -0.028,0.056 0.89583068,0.89583068 0 0 0 -0.028,0.0839 0.89583068,0.89583068 0 0 0 -0.028,0.0839 0.89583068,0.89583068 0 0 0 0,0.028 0.89583068,0.89583068 0 0 0 -0.028,0.056 0.89583068,0.89583068 0 0 0 0,0.028 0.89583068,0.89583068 0 0 0 0,0.056 0.89583068,0.89583068 0 0 0 0,0.028 0.89583068,0.89583068 0 0 0 0,0.056 0.89583068,0.89583068 0 0 0 0,0.028 0.89583068,0.89583068 0 0 0 0.028,0.16795 0.89583068,0.89583068 0 0 0 0.028,0.0839 0.89583068,0.89583068 0 0 0 0.028,0.056 0.89583068,0.89583068 0 0 0 0.056,0.11197 c 2.00512,4.40522 3.06755,7.76708 4.33875,13.99596 a 0.89583068,0.89583068 0 0 0 1.17566,0.6718 l 3.75091,-1.34361 a 0.89583068,0.89583068 0 0 0 0.55984,-1.06369 c -1.23189,-5.18688 -2.40504,-9.05641 -4.47871,-14.49981 a 0.89583068,0.89583068 0 0 0 -1.0077,-0.55984 z m 31.40692,1.14767 a 0.89583068,0.89583068 0 0 0 -0.19595,0.056 l -3.66694,1.28763 a 0.89583068,0.89583068 0 0 0 -0.47586,1.28763 c 2.29786,4.0851 3.45406,6.9308 4.92658,11.92455 a 0.89583068,0.89583068 0 0 0 1.17566,0.58783 l 3.55497,-1.34361 a 0.89583068,0.89583068 0 0 0 0.22394,-0.0839 0.89583068,0.89583068 0 0 0 0.19594,-0.0839 0.89583068,0.89583068 0 0 0 0,-0.028 0.89583068,0.89583068 0 0 0 0.056,-0.028 0.89583068,0.89583068 0 0 0 0.028,-0.028 0.89583068,0.89583068 0 0 0 0.056,-0.028 0.89583068,0.89583068 0 0 0 0,-0.028 0.89583068,0.89583068 0 0 0 0.056,-0.056 0.89583068,0.89583068 0 0 0 0,-0.028 0.89583068,0.89583068 0 0 0 0,-0.028 0.89583068,0.89583068 0 0 0 0.056,-0.056 0.89583068,0.89583068 0 0 0 0.028,-0.028 0.89583068,0.89583068 0 0 0 0,-0.028 0.89583068,0.89583068 0 0 0 0.028,-0.028 0.89583068,0.89583068 0 0 0 0.028,-0.13996 0.89583068,0.89583068 0 0 0 0.028,-0.0839 0.89583068,0.89583068 0 0 0 0,-0.11196 0.89583068,0.89583068 0 0 0 0,-0.056 0.89583068,0.89583068 0 0 0 0,-0.028 0.89583068,0.89583068 0 0 0 -0.028,-0.13996 0.89583068,0.89583068 0 0 0 0,-0.028 0.89583068,0.89583068 0 0 0 -0.028,-0.028 0.89583068,0.89583068 0 0 0 -0.0839,-0.22393 c -1.64517,-4.90615 -2.95579,-8.02288 -5.06653,-11.92456 a 0.89583068,0.89583068 0 0 0 -0.89574,-0.47586 z m -11.89656,1.87546 a 0.89583068,0.89583068 0 0 0 -0.19595,0.056 l -3.52698,1.3716 a 0.89583068,0.89583068 0 0 0 -0.44787,1.28763 c 2.55261,4.08419 3.67004,6.62357 5.40244,11.7566 a 0.89583068,0.89583068 0 0 0 1.20365,0.53185 l 3.49899,-1.59554 0.19594,-0.0839 a 0.89583068,0.89583068 0 0 0 0.056,-0.028 0.89583068,0.89583068 0 0 0 0.056,-0.028 0.89583068,0.89583068 0 0 0 0.13996,-0.11197 0.89583068,0.89583068 0 0 0 0.0839,-0.11197 0.89583068,0.89583068 0 0 0 0.028,-0.028 0.89583068,0.89583068 0 0 0 0.028,-0.056 0.89583068,0.89583068 0 0 0 0.056,-0.0839 0.89583068,0.89583068 0 0 0 0.028,-0.056 0.89583068,0.89583068 0 0 0 0,-0.056 0.89583068,0.89583068 0 0 0 0.028,-0.028 0.89583068,0.89583068 0 0 0 0,-0.056 0.89583068,0.89583068 0 0 0 0,-0.028 0.89583068,0.89583068 0 0 0 0,-0.056 0.89583068,0.89583068 0 0 0 0,-0.19594 0.89583068,0.89583068 0 0 0 0,-0.028 0.89583068,0.89583068 0 0 0 0,-0.056 0.89583068,0.89583068 0 0 0 0,-0.028 0.89583068,0.89583068 0 0 0 -0.028,-0.056 0.89583068,0.89583068 0 0 0 0,-0.028 0.89583068,0.89583068 0 0 0 -0.028,-0.028 0.89583068,0.89583068 0 0 0 -0.056,-0.13996 0.89583068,0.89583068 0 0 0 -0.056,-0.0839 c -1.89486,-4.71227 -3.40037,-7.80286 -5.57039,-11.50467 a 0.89583068,0.89583068 0 0 0 -0.89574,-0.44787 z m 4.31075,24.38095 a 0.89583068,0.89583068 0 0 0 -0.39189,0.16795 l -3.02312,2.26735 a 0.89583068,0.89583068 0 0 0 -0.0839,1.3716 c 3.77616,3.52015 5.88841,5.94379 8.76146,10.41299 a 0.89583068,0.89583068 0 0 0 1.28763,0.22394 l 3.35903,-2.54727 0.0839,-0.056 a 0.89583068,0.89583068 0 0 0 0.11197,-0.11197 0.89583068,0.89583068 0 0 0 0.13996,-0.13996 0.89583068,0.89583068 0 0 0 0.028,-0.056 0.89583068,0.89583068 0 0 0 0.056,-0.0839 0.89583068,0.89583068 0 0 0 0.056,-0.16796 0.89583068,0.89583068 0 0 0 0,-0.0839 0.89583068,0.89583068 0 0 0 0.028,-0.0839 0.89583068,0.89583068 0 0 0 0,-0.028 0.89583068,0.89583068 0 0 0 0,-0.056 0.89583068,0.89583068 0 0 0 -0.028,-0.11197 0.89583068,0.89583068 0 0 0 -0.056,-0.16795 0.89583068,0.89583068 0 0 0 -0.028,-0.0839 0.89583068,0.89583068 0 0 0 -0.056,-0.0839 0.89583068,0.89583068 0 0 0 -0.028,-0.028 c -0.004,-0.006 0.004,-0.0218 0,-0.028 a 0.89583068,0.89583068 0 0 0 -0.19594,-0.19595 c -2.90655,-3.76688 -5.39656,-6.46202 -9.26532,-10.07708 a 0.89583068,0.89583068 0 0 0 -0.75578,-0.25193 z"
       id="path5713"
       inkscape:connector-curvature="0" />
    <path
       style="font-size:medium;font-style:normal;font-variant:normal;font-weight:normal;font-stretch:normal;text-indent:0;text-align:start;text-decoration:none;line-height:normal;letter-spacing:normal;word-spacing:normal;text-transform:none;direction:ltr;block-progression:tb;writing-mode:lr-tb;text-anchor:start;baseline-shift:baseline;color:#000000;fill:#000000;fill-opacity:1;fill-rule:nonzero;stroke:none;stroke-width:4;marker:none;visibility:visible;display:inline;overflow:visible;enable-background:accumulate;font-family:Sans;-inkscape-font-specification:Sans"
       d="m 126.12322,898.41281 0,1.39777 0,21.81828 -12.71094,-12.7328 -0.98281,-1.00465 -0.98279,1.00465 -5.9405,5.9405 -1.00465,0.98284 1.00465,0.98277 12.38333,12.3615 -21.119379,0 -1.397766,0 0,1.39775 0,8.38661 0,1.39776 1.397766,0 29.353089,0 0,29.35309 0,1.39779 1.39776,0 8.3866,0 1.39776,0 0,-1.39779 0,-29.35309 29.35309,0 1.39776,0 0,-1.39776 0,-8.38661 0,-1.39775 -1.39776,0 -21.05385,0 12.18677,-12.18678 0.9828,-0.98277 -0.9828,-0.98284 -5.91866,-5.9405 -0.98281,-1.00465 -0.9828,1.00465 -12.60174,12.60176 0,-21.86196 0,-1.39777 -1.39776,0 -8.3866,0 -1.39776,0 z"
       id="path4497"
       inkscape:connector-curvature="0" />
  </g>
</svg>
