<?xml version="1.0" encoding="UTF-8" standalone="no"?>
<!-- Created with Inkscape (http://www.inkscape.org/) -->

<svg
   xmlns:dc="http://purl.org/dc/elements/1.1/"
   xmlns:cc="http://creativecommons.org/ns#"
   xmlns:rdf="http://www.w3.org/1999/02/22-rdf-syntax-ns#"
   xmlns:svg="http://www.w3.org/2000/svg"
   xmlns="http://www.w3.org/2000/svg"
   xmlns:xlink="http://www.w3.org/1999/xlink"
   xmlns:sodipodi="http://sodipodi.sourceforge.net/DTD/sodipodi-0.dtd"
   xmlns:inkscape="http://www.inkscape.org/namespaces/inkscape"
   width="253.12505"
   height="281.25006"
   id="svg2"
   version="1.1"
   inkscape:version="0.48.4 r9939"
   inkscape:export-filename="shogi-king.png"
   inkscape:export-xdpi="300.16"
   inkscape:export-ydpi="300.16"
   sodipodi:docname="king.svg">
  <defs
     id="defs4">
    <marker
       inkscape:stockid="TriangleOutL"
       orient="auto"
       refY="0"
       refX="0"
       id="TriangleOutL"
       style="overflow:visible">
      <path
         id="path4284"
         d="m 5.77,0 -8.65,5 0,-10 8.65,5 z"
         style="fill-rule:evenodd;stroke:#000000;stroke-width:1pt"
         transform="scale(0.8,0.8)"
         inkscape:connector-curvature="0" />
    </marker>
    <marker
       inkscape:stockid="Arrow2Mstart"
       orient="auto"
       refY="0"
       refX="0"
       id="Arrow2Mstart"
       style="overflow:visible">
      <path
         id="path4166"
         style="fill-rule:evenodd;stroke-width:0.625;stroke-linejoin:round"
         d="M 8.7185878,4.0337352 -2.2072895,0.01601326 8.7185884,-4.0017078 c -1.7454984,2.3720609 -1.7354408,5.6174519 -6e-7,8.035443 z"
         transform="scale(0.6,0.6)"
         inkscape:connector-curvature="0" />
    </marker>
    <marker
       inkscape:stockid="Arrow2Lend"
       orient="auto"
       refY="0"
       refX="0"
       id="Arrow2Lend"
       style="overflow:visible">
      <path
         id="path4163"
         style="fill-rule:evenodd;stroke-width:0.625;stroke-linejoin:round"
         d="M 8.7185878,4.0337352 -2.2072895,0.01601326 8.7185884,-4.0017078 c -1.7454984,2.3720609 -1.7354408,5.6174519 -6e-7,8.035443 z"
         transform="matrix(-1.1,0,0,-1.1,-1.1,0)"
         inkscape:connector-curvature="0" />
    </marker>
    <marker
       inkscape:stockid="Arrow2Lstart"
       orient="auto"
       refY="0"
       refX="0"
       id="Arrow2Lstart"
       style="overflow:visible">
      <path
         id="path4160"
         style="fill-rule:evenodd;stroke-width:0.625;stroke-linejoin:round"
         d="M 8.7185878,4.0337352 -2.2072895,0.01601326 8.7185884,-4.0017078 c -1.7454984,2.3720609 -1.7354408,5.6174519 -6e-7,8.035443 z"
         transform="matrix(1.1,0,0,1.1,1.1,0)"
         inkscape:connector-curvature="0" />
    </marker>
    <marker
       inkscape:stockid="TriangleInL"
       orient="auto"
       refY="0"
       refX="0"
       id="TriangleInL"
       style="overflow:visible">
      <path
         id="path4275"
         d="m 5.77,0 -8.65,5 0,-10 8.65,5 z"
         style="fill-rule:evenodd;stroke:#000000;stroke-width:1pt"
         transform="scale(-0.8,-0.8)"
         inkscape:connector-curvature="0" />
    </marker>
    <marker
       inkscape:stockid="Arrow1Lstart"
       orient="auto"
       refY="0"
       refX="0"
       id="Arrow1Lstart"
       style="overflow:visible">
      <path
         id="path4482"
         d="M 0,0 5,-5 -12.5,0 5,5 0,0 z"
         style="fill-rule:evenodd;stroke:#000000;stroke-width:1pt"
         transform="matrix(0.8,0,0,0.8,10,0)"
         inkscape:connector-curvature="0" />
    </marker>
  </defs>
  <sodipodi:namedview
     id="base"
     pagecolor="#ffffff"
     bordercolor="#666666"
     borderopacity="1.0"
     inkscape:pageopacity="0.0"
     inkscape:pageshadow="2"
     inkscape:zoom="0.49497475"
     inkscape:cx="-667.26275"
     inkscape:cy="691.76696"
     inkscape:document-units="px"
     inkscape:current-layer="layer1"
     showgrid="false"
     inkscape:window-width="1920"
     inkscape:window-height="1056"
     inkscape:window-x="1280"
     inkscape:window-y="24"
     inkscape:window-maximized="1"
     showguides="true"
     inkscape:guide-bbox="true"
     fit-margin-top="0"
     fit-margin-left="0"
     fit-margin-right="0"
     fit-margin-bottom="0" />
  <metadata
     id="metadata7">
    <rdf:RDF>
      <cc:Work
         rdf:about="">
        <dc:format>image/svg+xml</dc:format>
        <dc:type
           rdf:resource="http://purl.org/dc/dcmitype/StillImage" />
        <dc:title />
      </cc:Work>
    </rdf:RDF>
  </metadata>
  <g
     inkscape:label="Layer 1"
     inkscape:groupmode="layer"
     id="layer1"
     transform="translate(-785.15174,-730.59433)">
    <use
       height="100.5"
       width="100.5"
       id="use3189"
       transform="matrix(-4,0,0,-4,42,80)"
       y="0"
       x="0"
       xlink:href="#lance" />
    <use
       height="100.5"
       width="100.5"
       id="use3189-0"
       transform="matrix(-4,0,0,-4,42,80)"
       y="0"
       x="0"
       xlink:href="#lance" />
    <use
       height="100.5"
       width="100.5"
       id="use3189-9"
       transform="matrix(-4,0,0,-4,42,80)"
       y="0"
       x="0"
       xlink:href="#lance" />
    <g
       id="g5974"
       transform="translate(39.999985,-20)">
      <g
         transform="matrix(0.89574111,0,0,0.89574111,89.294081,451.63622)"
         id="g5934">
        <path
           style="font-size:medium;font-style:normal;font-variant:normal;font-weight:normal;font-stretch:normal;text-indent:0;text-align:start;text-decoration:none;line-height:normal;letter-spacing:normal;word-spacing:normal;text-transform:none;direction:ltr;block-progression:tb;writing-mode:lr-tb;text-anchor:start;baseline-shift:baseline;color:#000000;fill:#000000;fill-opacity:1;stroke:none;stroke-width:8;marker:none;visibility:visible;display:inline;overflow:visible;enable-background:accumulate;font-family:Sans;-inkscape-font-specification:Sans"
           d="m 870.1735,531.59782 0,33.85674 -20.72333,-20.72333 -4.68866,4.68866 20.30887,20.30886 -33.02781,0 0,6.63147 33.49409,0 -20.77515,20.77514 4.68866,4.71456 20.72333,-20.74924 0,33.39047 6.63143,0 0,-33.46818 20.59385,20.59381 4.68861,-4.68865 -20.56782,-20.56791 33.41629,0 0,-6.63147 -32.95011,0 20.10164,-20.10163 -4.68861,-4.68866 -20.59385,20.59382 0,-33.93446 -6.63143,0 z"
           id="path5154"
           inkscape:connector-curvature="0" />
        <path
           style="font-size:72px;font-style:normal;font-variant:normal;font-weight:300;font-stretch:normal;line-height:100%;letter-spacing:0px;word-spacing:0px;fill:#000000;fill-opacity:1;stroke:none;font-family:Hiragino Kaku Gothic Pro;-inkscape-font-specification:Hiragino Kaku Gothic Pro Light"
           d="m 844.52223,367.2677 a 1.0001,1.0001 0 0 0 -0.75,1 l 0,5.3125 a 1.0001,1.0001 0 0 0 1.09375,1 c 2.26329,-0.28291 4.53046,-0.4375 8.03125,-0.4375 l 16.5625,0 0,17.21875 -12.8125,0 c -3.64586,0 -5.74064,-0.12975 -7.46875,-0.40625 a 1.0001,1.0001 0 0 0 -1.1875,1 l 0,5.09375 a 1.0001,1.0001 0 0 0 1.125,1 c 2.03573,-0.21059 4.29624,-0.28125 7.59375,-0.28125 l 12.75,0 0,20.75 -18.9375,0 c -3.86331,0 -5.90395,-0.15313 -8.25,-0.4375 a 1.0001,1.0001 0 0 0 -1.09375,1 l 0,5.40625 a 1.0001,1.0001 0 0 0 1.125,1 c 2.39662,-0.35244 4.64542,-0.5 8.21875,-0.5 l 46.65624,0 c 3.4284,0 5.6459,0.15055 7.8126,0.5 a 1.0001,1.0001 0 0 0 1.1874,-1 l 0,-5.40625 a 1.0001,1.0001 0 0 0 -1.1562,-1 c -2.0341,0.28056 -4.2704,0.4375 -7.8438,0.4375 l -20.5937,0 0,-20.75 14.0313,0 c 3.3698,0 5.4908,0.0702 7.5312,0.28125 a 1.0001,1.0001 0 0 0 1.0938,-1 l 0,-5.09375 a 1.0001,1.0001 0 0 0 -1.125,-1 c -2.0495,0.28269 -3.9267,0.40625 -7.5,0.40625 l -14.0313,0 0,-17.21875 17.625,0 c 3.7184,0 5.9736,0.154 8.3125,0.4375 a 1.0001,1.0001 0 0 0 1.125,-1 l 0,-5.3125 a 1.0001,1.0001 0 0 0 -1.1562,-1 c -2.2438,0.35058 -4.4905,0.5 -8.2813,0.5 l -41.37504,0 c -3.64586,0 -5.89563,-0.15334 -7.90625,-0.5 a 1.0001,1.0001 0 0 0 -0.40625,0 z m 36.65624,66.59375 a 1.0001,1.0001 0 0 0 -0.7812,0.625 c -0.6122,1.5644 -1.1359,2.33027 -2.4062,3.8125 -3.62252,4.17966 -8.5289,7.48525 -14.59384,9.8125 a 1.0001,1.0001 0 0 0 -0.28125,0.1875 l 0,-4.53125 c 0,-3.94787 0.0636,-5.80614 0.40625,-7.65625 a 1.0001,1.0001 0 0 0 -0.96875,-1.1875 l -5.28125,0 a 1.0001,1.0001 0 0 0 -0.96875,1.1875 c 0.34261,1.85011 0.40625,3.70838 0.40625,7.65625 l 0,9.75 -6.78125,0 0,-9.875 c 0,-2.79091 0.0728,-3.95372 0.28125,-5.34375 a 1.0001,1.0001 0 0 0 -1,-1.125 l -4.8125,0 a 1.0001,1.0001 0 0 0 -1,1.15625 c 0.19921,1.19529 0.28125,2.81279 0.28125,5.53125 l 0,10.5 c 0,1.33291 -0.0527,2.62926 -0.125,4.21875 a 1.0001,1.0001 0 0 0 1.03125,1.03125 c 1.28781,-0.0715 2.86222,-0.15625 5,-0.15625 l 7.125,0 0,8.03125 -9.21875,0 c -3.00813,0 -4.52406,-0.0704 -6.28125,-0.28125 a 1.0001,1.0001 0 0 0 -1.125,1 l 0,4.53125 a 1.0001,1.0001 0 0 0 1.125,0.96875 c 1.35989,-0.16999 2.5618,-0.19444 4.15625,-0.21875 -0.0665,4.34479 -0.11797,6.39674 -0.4375,9.46875 -0.001,0.0101 10e-4,0.0211 0,0.0313 -0.78065,6.14786 -2.15771,10.04579 -4.9375,13.9375 a 1.0001,1.0001 0 0 0 0.28125,1.4375 c 1.38536,0.83121 1.87699,1.25076 3.21875,2.875 a 1.0001,1.0001 0 0 0 1.59375,-0.0937 c 3.30975,-5.1485 4.96735,-9.98916 5.84375,-16.78125 0.39862,-3.52117 0.51482,-6.07696 0.59375,-10.9375 l 5.1875,0 0,19.75 c 0,3.80342 -0.0587,5.66465 -0.40625,7.75 a 1.0001,1.0001 0 0 0 0.96875,1.15625 l 5.28125,0 a 1.0001,1.0001 0 0 0 0.96875,-1.15625 c -0.34181,-1.84576 -0.40625,-3.81185 -0.40625,-7.6875 l 0,-27.71875 c 0.89144,1.05352 1.54882,2.0324 2.1875,3.4375 a 1.0001,1.0001 0 0 0 0.125,0.25 1.0001,1.0001 0 0 0 -1.09375,1 l 0,4.8125 a 1.0001,1.0001 0 0 0 1.15625,1 c 1.9698,-0.2814 3.93458,-0.40625 6.78125,-0.40625 l 20.65624,0 0,18 c 0,0.59727 -0.022,0.58632 -0.1874,0.6875 -0.1657,0.10118 -0.8036,0.25 -1.9688,0.25 -1.8946,0 -4.2364,-0.13647 -7.2188,-0.5625 a 1.0001,1.0001 0 0 0 -1.0624,1.3125 c 0.6373,1.77068 0.8197,2.50265 1.0312,4.40625 a 1.0001,1.0001 0 0 0 0.9062,0.875 c 2.4584,0.14461 4.3626,0.21875 5.9063,0.21875 3.0994,0 5.2789,-0.30419 6.8437,-1.34375 1.5651,-1.03956 2.2188,-2.8503 2.2188,-5 l 0,-18.8125 c 2.5505,0.0111 4.6711,0.10549 6.625,0.375 a 1.0001,1.0001 0 0 0 1.1562,-1 l 0,-4.8125 a 1.0001,1.0001 0 0 0 -1.1562,-1 c -1.8052,0.26743 -3.9462,0.3951 -6.625,0.40625 l 0,-1.625 c 0,-2.86333 0.068,-4.22519 0.3438,-5.8125 a 1.0001,1.0001 0 0 0 -0.9688,-1.1875 l -5.1875,0 a 1.0001,1.0001 0 0 0 -1,1.1875 c 0.2769,1.66135 0.3437,3.09404 0.3437,5.8125 l 0,1.65625 -20.65624,0 c -2.27041,0 -3.61052,-0.1748 -5.09375,-0.34375 9.61159,-2.50197 16.60779,-5.53768 23.49999,-10.15625 5.6432,-3.81089 10.413,-8.48569 14.1563,-13.84375 0.5143,-0.73466 0.543,-0.85158 0.875,-1.25 a 1.0001,1.0001 0 0 0 -0.031,-1.3125 l -2.875,-3.15625 a 1.0001,1.0001 0 0 0 -0.9687,-0.3125 c -1.0985,0.25846 -2.3686,0.34375 -5.5937,0.34375 l -11.5938,0 c 0.2711,-0.36296 0.2208,-0.27352 0.8125,-1.0625 1.08,-1.44 1.0368,-1.40225 1.4687,-1.90625 a 1.0001,1.0001 0 0 0 -0.5312,-1.59375 l -4.8438,-1.15625 a 1.0001,1.0001 0 0 0 -0.375,-0.0313 z m -1.9687,11.4375 1.5937,0 -2.7812,2.40625 a 1.0001,1.0001 0 0 0 0.1875,1.65625 c 3.2498,1.65554 5.8139,3.39427 8.0937,5.3125 -1.4524,0.91182 -2.814,1.7414 -4.3437,2.5625 -2.2772,-2.25533 -5.0179,-4.47579 -7.87504,-6.3125 a 1.0001,1.0001 0 0 0 -1.0625,0 l -3.375,2.21875 -0.0313,0 a 1.0001,1.0001 0 0 0 -0.15625,0.0937 1.0001,1.0001 0 0 0 -0.0625,0.0625 1.0001,1.0001 0 0 0 -0.125,0.125 1.0001,1.0001 0 0 0 -0.125,0.1875 1.0001,1.0001 0 0 0 -0.0625,0.0625 1.0001,1.0001 0 0 0 0,0.0313 1.0001,1.0001 0 0 0 -0.0313,0.0625 1.0001,1.0001 0 0 0 0,0.0313 1.0001,1.0001 0 0 0 -0.0313,0.1875 1.0001,1.0001 0 0 0 0,0.0937 1.0001,1.0001 0 0 0 0,0.0937 1.0001,1.0001 0 0 0 0.0313,0.1875 1.0001,1.0001 0 0 0 0.0313,0.0937 1.0001,1.0001 0 0 0 0.0625,0.0937 1.0001,1.0001 0 0 0 0.0937,0.15625 1.0001,1.0001 0 0 0 0.0625,0.0937 1.0001,1.0001 0 0 0 0.0937,0.0625 1.0001,1.0001 0 0 0 0.0625,0.0625 1.0001,1.0001 0 0 0 0.0313,0 1.0001,1.0001 0 0 0 0.15625,0.0937 c 2.47743,1.39222 4.61312,3.00511 6.59384,4.8125 -4.0893,1.67657 -7.41754,2.70204 -12.75009,3.78125 a 1.0001,1.0001 0 0 0 -0.375,0.15625 l 0,-13.9375 c 1.2941,1.42946 1.76383,1.99641 2.28125,3.03125 a 1.0001,1.0001 0 0 0 1.3125,0.46875 c 5.57218,-2.68029 8.2827,-4.4642 12.50004,-8.03125 z m 3.2813,0 14.625,0 c -1.9834,2.33706 -3.6532,4.04111 -5.9688,5.90625 -2.3969,-2.08585 -5.3238,-4.13621 -8.6562,-5.90625 z m -7.71884,30.8125 a 1.0001,1.0001 0 0 0 -0.5,0.1875 l -3.53125,2.4375 a 1.0001,1.0001 0 0 0 -0.15625,1.53125 c 3.62921,3.84267 5.88374,6.89695 8.81254,11.96875 a 1.0001,1.0001 0 0 0 1.4375,0.3125 l 3.625,-2.6875 a 1.0001,1.0001 0 0 0 0.094,-0.0625 l 0.031,0 a 1.0001,1.0001 0 0 0 0.063,-0.0625 1.0001,1.0001 0 0 0 0.3125,-0.3125 1.0001,1.0001 0 0 0 0.031,-0.0625 1.0001,1.0001 0 0 0 0.031,-0.0625 1.0001,1.0001 0 0 0 0,-0.0313 1.0001,1.0001 0 0 0 0.031,-0.0625 1.0001,1.0001 0 0 0 0,-0.0313 1.0001,1.0001 0 0 0 0,-0.0625 1.0001,1.0001 0 0 0 0.031,-0.0313 1.0001,1.0001 0 0 0 0,-0.0625 1.0001,1.0001 0 0 0 0,-0.0625 1.0001,1.0001 0 0 0 0,-0.0625 1.0001,1.0001 0 0 0 0,-0.0313 1.0001,1.0001 0 0 0 -0.031,-0.15625 1.0001,1.0001 0 0 0 0,-0.0313 1.0001,1.0001 0 0 0 -0.031,-0.0625 1.0001,1.0001 0 0 0 0,-0.0313 1.0001,1.0001 0 0 0 -0.031,-0.0625 1.0001,1.0001 0 0 0 0,-0.0313 1.0001,1.0001 0 0 0 -0.063,-0.0625 1.0001,1.0001 0 0 0 0,-0.0313 1.0001,1.0001 0 0 0 -0.031,-0.0313 c -0.015,-0.0222 -0.016,-0.0404 -0.031,-0.0625 a 1.0001,1.0001 0 0 0 -0.125,-0.125 c -3.2446,-4.85193 -5.5152,-7.82329 -9.1563,-11.75 a 1.0001,1.0001 0 0 0 -0.81254,-0.3125 z"
           id="path5728"
           inkscape:connector-curvature="0" />
      </g>
      <path
         style="stroke:none"
         inkscape:connector-curvature="0"
         d="m 776.65179,1031.8444 c -11.625,0 -19.78123,-2.3438 -24.46873,-7.0313 -4.6875,-4.6875 -7.0313,-10.4062 -7.0313,-17.1562 0,-21.75007 13.4063,-91.87507 40.21873,-210.37507 2.06253,-8.81253 6.0938,-15.25783 12.0938,-19.3359 6,-4.07813 12.93749,-7.19533 20.81249,-9.3516 l 53.4375,-18 53.4375,18 c 7.875,2.15627 14.8125,5.27347 20.8125,9.3516 6,4.07807 10.03127,10.52337 12.0938,19.3359 26.81242,118.5 40.21872,188.625 40.21872,210.37507 0,6.75 -2.3438,12.4687 -7.0313,17.1562 -4.6875,4.6875 -12.84372,7.0313 -24.46872,7.0313 z m 0,-15.75 190.12499,0 c 4.125,0 7.5,-0.6563 10.125,-1.9687 2.625,-1.3126 3.93752,-3.4688 3.93752,-6.4688 0,-19.12504 -12.93752,-87.37507 -38.81252,-204.75007 -1.5,-6 -3.58593,-10.7578 -6.2578,-14.2734 -2.67187,-3.51567 -7.71093,-6.44537 -15.1172,-8.7891 l -48.9375,-16.3125 -48.9375,16.3125 c -7.40627,2.34373 -12.44533,5.27343 -15.11719,8.7891 -2.67187,3.5156 -4.7578,8.4609 -6.2578,14.8359 -25.875,117 -38.81253,185.06253 -38.81253,204.18757 0,3 1.31253,5.1562 3.93753,6.4688 2.625,1.3124 6,1.9687 10.125,1.9687 z"
         id="path5948"
         sodipodi:nodetypes="scscscccscscsssscscscccscscs" />
    </g>
  </g>
</svg>
