<!-- Created with Inkscape (http://www.inkscape.org/) -->
<svg xmlns:rdf="http://www.w3.org/1999/02/22-rdf-syntax-ns#" xmlns="http://www.w3.org/2000/svg" height="262.56" width="228.25" viewBox="0 0 228.25 262.56" version="1.1" xmlns:cc="http://creativecommons.org/ns#" xmlns:xlink="http://www.w3.org/1999/xlink" xmlns:dc="http://purl.org/dc/elements/1.1/">
<defs></defs>
<metadata>
<rdf:RDF>
<cc:Work rdf:about="">
<dc:format>image/svg+xml</dc:format>
<dc:type rdf:resource="http://purl.org/dc/dcmitype/StillImage"/>
<dc:title/>
</cc:Work>
</rdf:RDF>
</metadata>
<g transform="translate(-797.58924,-738.53183)">
<path stroke-linejoin="round" d="m816.65,996.09,190.13,0c4.125,0,7.5-0.6563,10.125-1.9687,2.625-1.3126,3.9375-3.4688,3.9375-6.4688,0-19.125-12.938-87.375-38.813-204.75-1.5-6-3.5859-10.758-6.2578-14.273-2.6719-3.5157-7.7109-6.4454-15.117-8.7891l-48.938-16.312-48.938,16.312c-7.4063,2.3437-12.445,5.2734-15.117,8.7891-2.6719,3.5156-4.7578,8.4609-6.2578,14.836-25.875,117-38.813,185.06-38.813,204.19,0,3,1.3125,5.1562,3.9375,6.4688,2.625,1.3124,6,1.9687,10.125,1.9687z" stroke="#000" stroke-linecap="round" stroke-miterlimit="4" stroke-dasharray="none" stroke-width="10" fill="#FFF"/>
<use xlink:href="#lance" transform="matrix(-4,0,0,-4,42,80)" height="100.5" width="100.5" y="0" x="0"/>
<use xlink:href="#lance" transform="matrix(-4,0,0,-4,42,80)" height="100.5" width="100.5" y="0" x="0"/>
<use xlink:href="#lance" transform="matrix(-4,0,0,-4,42,80)" height="100.5" width="100.5" y="0" x="0"/>
<path fill="#000" d="m885.77,760.61a0.89583,0.89583,0,0,0,-0.67181,0.89574v4.7586a0.89583,0.89583,0,0,0,0.97972,0.89574c2.0273-0.25341,4.0581-0.39188,7.1939-0.39188h14.836v15.424h-11.477c-3.2658,0-5.1421-0.11622-6.6901-0.3639a0.89583,0.89583,0,0,0,-1.0637,0.89575v4.5627a0.89583,0.89583,0,0,0,1.0077,0.89574c1.8235-0.18864,3.8483-0.25193,6.802-0.25193h11.421v18.587h-16.963c-3.4605,0-5.2884-0.13717-7.3899-0.39189a0.89583,0.89583,0,0,0,-0.97971,0.89574v4.8426a0.89583,0.89583,0,0,0,1.0077,0.89575c2.1468-0.3157,4.1611-0.44788,7.3619-0.44788h41.792c3.071,0,5.0573,0.13486,6.9981,0.44788a0.89583,0.89583,0,0,0,1.0636,-0.89575v-4.8426a0.89583,0.89583,0,0,0,-1.0357,-0.89574c-1.822,0.25131-3.8252,0.39189-7.026,0.39189h-18.447v-18.587h12.568c3.0185,0,4.9183,0.0629,6.746,0.25193a0.89583,0.89583,0,0,0,0.97976,-0.89574v-4.5627a0.89583,0.89583,0,0,0,-1.0077,-0.89575c-1.8358,0.25322-3.5173,0.3639-6.7181,0.3639h-12.568v-15.424h15.787c3.3307,0,5.3508,0.13794,7.4458,0.39188a0.89583,0.89583,0,0,0,1.0077,-0.89574v-4.7586a0.89583,0.89583,0,0,0,-1.0357,-0.89574c-2.0099,0.31403-4.0223,0.44787-7.4179,0.44787h-37.061c-3.2658,0-5.281-0.13736-7.082-0.44787a0.89583,0.89583,0,0,0,-0.36389,0zm32.834,59.651a0.89583,0.89583,0,0,0,-0.69975,0.55984c-0.54837,1.4013-1.0175,2.0873-2.1553,3.415-3.2448,3.7439-7.6397,6.7048-13.072,8.7895a0.89583,0.89583,0,0,0,-0.25192,0.16795v-4.0588c0-3.5363,0.057-5.2008,0.36389-6.858a0.89583,0.89583,0,0,0,-0.86775,-1.0637h-4.7306a0.89583,0.89583,0,0,0,-0.86775,1.0637c0.30689,1.6572,0.36389,3.3218,0.36389,6.858v8.7335h-6.0742v-8.8454c0-2.4999,0.0652-3.5415,0.25193-4.7866a0.89583,0.89583,0,0,0,-0.89574,-1.0077h-4.3108a0.89583,0.89583,0,0,0,-0.89574,1.0357c0.17844,1.0707,0.25193,2.5195,0.25193,4.9546v9.4053c0,1.1939-0.0472,2.3551-0.11197,3.7789a0.89583,0.89583,0,0,0,0.92373,0.92373c1.1536-0.064,2.5638-0.13996,4.4787-0.13996h6.3822v7.1939h-8.2576c-2.6945,0-4.0524-0.0631-5.6264-0.25193a0.89583,0.89583,0,0,0,-1.0077,0.89575v4.0588a0.89583,0.89583,0,0,0,1.0077,0.86775c1.2181-0.15227,2.2947-0.17417,3.7229-0.19594-0.0596,3.8918-0.10567,5.7298-0.39189,8.4816-0.00089,0.009,0.0009,0.0189,0,0.028-0.69926,5.5069-1.9328,8.9984-4.4227,12.484a0.89583,0.89583,0,0,0,0.25193,1.2876c1.2409,0.74455,1.6813,1.1204,2.8832,2.5753a0.89583,0.89583,0,0,0,1.4276,-0.0839c2.9647-4.6117,4.4495-8.9477,5.2345-15.032,0.35706-3.154,0.46115-5.4434,0.53185-9.7972h4.6466v17.691c0,3.4069-0.0526,5.0741-0.36389,6.942a0.89583,0.89583,0,0,0,0.86775,1.0357h4.7306a0.89583,0.89583,0,0,0,0.86775,-1.0357c-0.30617-1.6533-0.36389-3.4144-0.36389-6.886v-24.829c0.7985,0.94368,1.3873,1.8205,1.9594,3.0791a0.89583,0.89583,0,0,0,0.11197,0.22394,0.89583,0.89583,0,0,0,-0.97972,0.89574v4.3108a0.89583,0.89583,0,0,0,1.0357,0.89574c1.7644-0.25206,3.5244-0.36389,6.0742-0.36389h18.503v16.123c0,0.535-0.0197,0.52519-0.16786,0.61582-0.14843,0.0906-0.71982,0.22393-1.7635,0.22393-1.6971,0-3.7947-0.12224-6.4662-0.50385a0.89583,0.89583,0,0,0,-0.95164,1.1757c0.57086,1.5861,0.73424,2.2417,0.92369,3.9469a0.89583,0.89583,0,0,0,0.81172,0.78377c2.2021,0.12954,3.9078,0.19595,5.2905,0.19595,2.7763,0,4.7285-0.27248,6.1302-1.2037,1.4019-0.93117,1.9875-2.5531,1.9875-4.4787v-16.851c2.2846,0.01,4.1841,0.0945,5.9343,0.3359a0.89583,0.89583,0,0,0,1.0357,-0.89574v-4.3108a0.89583,0.89583,0,0,0,-1.0357,-0.89574c-1.617,0.23954-3.5348,0.3539-5.9343,0.36389v-1.4556c0-2.5648,0.0609-3.7847,0.30795-5.2065a0.89583,0.89583,0,0,0,-0.86779,-1.0637h-4.6467a0.89583,0.89583,0,0,0,-0.89574,1.0637c0.24803,1.4881,0.30787,2.7715,0.30787,5.2065v1.4836h-18.503c-2.0337,0-3.2341-0.15657-4.5627-0.30791,8.6095-2.2411,14.876-4.9603,21.05-9.0974,5.0548-3.4136,9.3274-7.601,12.68-12.4,0.46068-0.65807,0.48639-0.7628,0.78377-1.1197a0.89583,0.89583,0,0,0,-0.0278,-1.1757l-2.5753-2.8272a0.89583,0.89583,0,0,0,-0.8677,-0.27992c-0.98397,0.23151-2.1217,0.30791-5.0105,0.30791h-10.385c0.24283-0.32512,0.19778-0.24501,0.72779-0.95173,0.9674-1.2899,0.9287-1.256,1.3156-1.7075a0.89583,0.89583,0,0,0,-0.47582,-1.4276l-4.3388-1.0357a0.89583,0.89583,0,0,0,-0.3359,-0.028zm-1.7634,10.245,1.4275,0-2.4912,2.1554a0.89583,0.89583,0,0,0,0.16795,1.4836c2.911,1.4829,5.2078,3.0404,7.2499,4.7586-1.301,0.81675-2.5206,1.5598-3.8908,2.2953-2.0398-2.0202-4.4947-4.0092-7.054-5.6544a0.89583,0.89583,0,0,0,-0.95173,0l-3.0231,1.9874h-0.028a0.89583,0.89583,0,0,0,-0.13996,0.0839,0.89583,0.89583,0,0,0,-0.056,0.056,0.89583,0.89583,0,0,0,-0.11197,0.11197,0.89583,0.89583,0,0,0,-0.11197,0.16795,0.89583,0.89583,0,0,0,-0.056,0.056,0.89583,0.89583,0,0,0,0,0.028,0.89583,0.89583,0,0,0,-0.028,0.056,0.89583,0.89583,0,0,0,0,0.028,0.89583,0.89583,0,0,0,-0.028,0.16795,0.89583,0.89583,0,0,0,0,0.0839,0.89583,0.89583,0,0,0,0,0.0839,0.89583,0.89583,0,0,0,0.028,0.16795,0.89583,0.89583,0,0,0,0.028,0.0839,0.89583,0.89583,0,0,0,0.056,0.0839,0.89583,0.89583,0,0,0,0.0839,0.13996,0.89583,0.89583,0,0,0,0.056,0.0839,0.89583,0.89583,0,0,0,0.0839,0.056,0.89583,0.89583,0,0,0,0.056,0.056,0.89583,0.89583,0,0,0,0.028,0,0.89583,0.89583,0,0,0,0.13996,0.0839c2.2191,1.2471,4.1322,2.6918,5.9064,4.3108-3.663,1.5018-6.6442,2.4203-11.421,3.387a0.89583,0.89583,0,0,0,-0.3359,0.13996v-12.484c1.1592,1.2804,1.5799,1.7883,2.0434,2.7152a0.89583,0.89583,0,0,0,1.1757,0.41988c4.9912-2.4008,7.4192-3.9988,11.197-7.1939zm2.9392,0,13.1,0c-1.7766,2.0934-3.2723,3.6198-5.3465,5.2905-2.147-1.8684-4.7687-3.705-7.7537-5.2905zm-6.9141,27.6a0.89583,0.89583,0,0,0,-0.44787,0.16795l-3.1631,2.1834a0.89583,0.89583,0,0,0,-0.13996,1.3716c3.2508,3.442,5.2703,6.1779,7.8938,10.721a0.89583,0.89583,0,0,0,1.2876,0.27992l3.2471-2.4073a0.89583,0.89583,0,0,0,0.0842,-0.056h0.0278a0.89583,0.89583,0,0,0,0.0564,-0.056,0.89583,0.89583,0,0,0,0.27991,-0.27992,0.89583,0.89583,0,0,0,0.0278,-0.056,0.89583,0.89583,0,0,0,0.0278,-0.056,0.89583,0.89583,0,0,0,0,-0.028,0.89583,0.89583,0,0,0,0.0278,-0.056,0.89583,0.89583,0,0,0,0,-0.028,0.89583,0.89583,0,0,0,0,-0.056,0.89583,0.89583,0,0,0,0.0278,-0.028,0.89583,0.89583,0,0,0,0,-0.056,0.89583,0.89583,0,0,0,0,-0.056,0.89583,0.89583,0,0,0,0,-0.056,0.89583,0.89583,0,0,0,0,-0.028,0.89583,0.89583,0,0,0,-0.0278,-0.13996,0.89583,0.89583,0,0,0,0,-0.028,0.89583,0.89583,0,0,0,-0.0278,-0.056,0.89583,0.89583,0,0,0,0,-0.028,0.89583,0.89583,0,0,0,-0.0278,-0.056,0.89583,0.89583,0,0,0,0,-0.028,0.89583,0.89583,0,0,0,-0.0564,-0.056,0.89583,0.89583,0,0,0,0,-0.028,0.89583,0.89583,0,0,0,-0.0278,-0.028c-0.0134-0.0199-0.0143-0.0362-0.0278-0.056a0.89583,0.89583,0,0,0,-0.11196,-0.11197c-2.9063-4.3461-4.9402-7.0076-8.2017-10.525a0.89583,0.89583,0,0,0,-0.72782,-0.27991z"/>
<path fill-rule="nonzero" style="baseline-shift:baseline;block-progression:tb;color:#000000;direction:ltr;text-indent:0;text-align:start;enable-background:accumulate;text-transform:none;" fill="#000" d="m906.12,898.41,0,1.3978,0,21.818-12.711-12.733-0.9828-1.0046-0.98281,1.0046-5.9405,5.9405-1.0046,0.98284,1.0046,0.98277,12.383,12.362-21.119,0-1.3978,0,0,1.3978,0,8.3866,0,1.3978,1.3978,0,21.512,0-12.776,12.755-1.0046,0.98284,1.0046,0.98277,5.9405,5.9405,0.98281,1.0046,0.9828-1.0046,12.711-12.733,0,21.425,0,1.3978,1.3978,0,8.3866,0,1.3978,0,0-1.3978,0-21.469,12.602,12.602,0.98284,1.0046,0.98277-1.0046,5.9187-5.9405,0.98277-0.98278-0.98277-0.98283-12.58-12.58,21.447,0,1.3978,0,0-1.3978,0-8.3866,0-1.3978-1.3978,0-21.054,0,12.187-12.187,0.98277-0.98277-0.98277-0.98284-5.9187-5.9405-0.98277-1.0046-0.98284,1.0046-12.602,12.602,0-21.862,0-1.3978-1.3978,0-8.3865,0-1.3978,0z"/>
</g>
</svg>
