<?xml version="1.0" encoding="UTF-8" standalone="no"?>
<!-- Created with Inkscape (http://www.inkscape.org/) -->

<svg
   xmlns:dc="http://purl.org/dc/elements/1.1/"
   xmlns:cc="http://creativecommons.org/ns#"
   xmlns:rdf="http://www.w3.org/1999/02/22-rdf-syntax-ns#"
   xmlns:svg="http://www.w3.org/2000/svg"
   xmlns="http://www.w3.org/2000/svg"
   xmlns:xlink="http://www.w3.org/1999/xlink"
   xmlns:sodipodi="http://sodipodi.sourceforge.net/DTD/sodipodi-0.dtd"
   xmlns:inkscape="http://www.inkscape.org/namespaces/inkscape"
   width="228.25006"
   height="262.56256"
   id="svg2"
   version="1.1"
   inkscape:version="0.48.4 r9939"
   inkscape:export-filename="shogi-king.png"
   inkscape:export-xdpi="300.16"
   inkscape:export-ydpi="300.16"
   sodipodi:docname="king.svg">
  <defs
     id="defs4">
    <marker
       inkscape:stockid="TriangleOutL"
       orient="auto"
       refY="0"
       refX="0"
       id="TriangleOutL"
       style="overflow:visible">
      <path
         id="path4284"
         d="m 5.77,0 -8.65,5 0,-10 8.65,5 z"
         style="fill-rule:evenodd;stroke:#000000;stroke-width:1pt"
         transform="scale(0.8,0.8)"
         inkscape:connector-curvature="0" />
    </marker>
    <marker
       inkscape:stockid="Arrow2Mstart"
       orient="auto"
       refY="0"
       refX="0"
       id="Arrow2Mstart"
       style="overflow:visible">
      <path
         id="path4166"
         style="fill-rule:evenodd;stroke-width:0.625;stroke-linejoin:round"
         d="M 8.7185878,4.0337352 -2.2072895,0.01601326 8.7185884,-4.0017078 c -1.7454984,2.3720609 -1.7354408,5.6174519 -6e-7,8.035443 z"
         transform="scale(0.6,0.6)"
         inkscape:connector-curvature="0" />
    </marker>
    <marker
       inkscape:stockid="Arrow2Lend"
       orient="auto"
       refY="0"
       refX="0"
       id="Arrow2Lend"
       style="overflow:visible">
      <path
         id="path4163"
         style="fill-rule:evenodd;stroke-width:0.625;stroke-linejoin:round"
         d="M 8.7185878,4.0337352 -2.2072895,0.01601326 8.7185884,-4.0017078 c -1.7454984,2.3720609 -1.7354408,5.6174519 -6e-7,8.035443 z"
         transform="matrix(-1.1,0,0,-1.1,-1.1,0)"
         inkscape:connector-curvature="0" />
    </marker>
    <marker
       inkscape:stockid="Arrow2Lstart"
       orient="auto"
       refY="0"
       refX="0"
       id="Arrow2Lstart"
       style="overflow:visible">
      <path
         id="path4160"
         style="fill-rule:evenodd;stroke-width:0.625;stroke-linejoin:round"
         d="M 8.7185878,4.0337352 -2.2072895,0.01601326 8.7185884,-4.0017078 c -1.7454984,2.3720609 -1.7354408,5.6174519 -6e-7,8.035443 z"
         transform="matrix(1.1,0,0,1.1,1.1,0)"
         inkscape:connector-curvature="0" />
    </marker>
    <marker
       inkscape:stockid="TriangleInL"
       orient="auto"
       refY="0"
       refX="0"
       id="TriangleInL"
       style="overflow:visible">
      <path
         id="path4275"
         d="m 5.77,0 -8.65,5 0,-10 8.65,5 z"
         style="fill-rule:evenodd;stroke:#000000;stroke-width:1pt"
         transform="scale(-0.8,-0.8)"
         inkscape:connector-curvature="0" />
    </marker>
    <marker
       inkscape:stockid="Arrow1Lstart"
       orient="auto"
       refY="0"
       refX="0"
       id="Arrow1Lstart"
       style="overflow:visible">
      <path
         id="path4482"
         d="M 0,0 5,-5 -12.5,0 5,5 0,0 z"
         style="fill-rule:evenodd;stroke:#000000;stroke-width:1pt"
         transform="matrix(0.8,0,0,0.8,10,0)"
         inkscape:connector-curvature="0" />
    </marker>
  </defs>
  <sodipodi:namedview
     id="base"
     pagecolor="#ffffff"
     bordercolor="#666666"
     borderopacity="1.0"
     inkscape:pageopacity="0.0"
     inkscape:pageshadow="2"
     inkscape:zoom="0.7"
     inkscape:cx="-402.9299"
     inkscape:cy="226.81756"
     inkscape:document-units="px"
     inkscape:current-layer="layer1"
     showgrid="false"
     inkscape:window-width="1920"
     inkscape:window-height="1056"
     inkscape:window-x="1280"
     inkscape:window-y="24"
     inkscape:window-maximized="1"
     showguides="true"
     inkscape:guide-bbox="true"
     inkscape:object-paths="true"
     inkscape:snap-nodes="true"
     fit-margin-top="0"
     fit-margin-left="0"
     fit-margin-right="0"
     fit-margin-bottom="0" />
  <metadata
     id="metadata7">
    <rdf:RDF>
      <cc:Work
         rdf:about="">
        <dc:format>image/svg+xml</dc:format>
        <dc:type
           rdf:resource="http://purl.org/dc/dcmitype/StillImage" />
        <dc:title />
      </cc:Work>
    </rdf:RDF>
  </metadata>
  <g
     inkscape:label="Layer 1"
     inkscape:groupmode="layer"
     id="layer1"
     transform="translate(-797.58924,-738.53183)">
    <path
       style="fill:#ffffff;fill-opacity:1;stroke:#000000;stroke-width:10;stroke-linecap:round;stroke-linejoin:round;stroke-miterlimit:4;stroke-opacity:1;stroke-dasharray:none"
       d="m 816.65178,996.0944 190.12502,0 c 4.125,0 7.5,-0.6563 10.125,-1.9687 2.625,-1.3126 3.9375,-3.4688 3.9375,-6.4688 0,-19.12504 -12.9375,-87.37507 -38.81253,-204.75007 -1.5,-6 -3.58593,-10.7578 -6.2578,-14.2734 -2.67187,-3.51567 -7.71093,-6.44537 -15.1172,-8.7891 l -48.9375,-16.3125 -48.9375,16.3125 c -7.40627,2.34373 -12.44533,5.27343 -15.11719,8.7891 -2.67188,3.5156 -4.7578,8.4609 -6.2578,14.8359 -25.875,117 -38.81254,185.06253 -38.81254,204.18757 0,3 1.31254,5.1562 3.93754,6.4688 2.625,1.3124 6,1.9687 10.125,1.9687 z"
       id="path5948"
       inkscape:connector-curvature="0" />
    <use
       height="100.5"
       width="100.5"
       id="use3189"
       transform="matrix(-4,0,0,-4,42,80)"
       y="0"
       x="0"
       xlink:href="#lance" />
    <use
       height="100.5"
       width="100.5"
       id="use3189-0"
       transform="matrix(-4,0,0,-4,42,80)"
       y="0"
       x="0"
       xlink:href="#lance" />
    <use
       height="100.5"
       width="100.5"
       id="use3189-9"
       transform="matrix(-4,0,0,-4,42,80)"
       y="0"
       x="0"
       xlink:href="#lance" />
    <path
       style="font-size:72px;font-style:normal;font-variant:normal;font-weight:300;font-stretch:normal;line-height:100%;letter-spacing:0px;word-spacing:0px;fill:#000000;fill-opacity:1;stroke:none;font-family:Hiragino Kaku Gothic Pro;-inkscape-font-specification:Hiragino Kaku Gothic Pro Light"
       d="m 885.76735,760.613 a 0.89583068,0.89583068 0 0 0 -0.67181,0.89574 l 0,4.75862 a 0.89583068,0.89583068 0 0 0 0.97972,0.89574 c 2.02732,-0.25341 4.05812,-0.39188 7.19392,-0.39188 l 14.83571,0 0,15.42354 -11.47668,0 c -3.26575,0 -5.14213,-0.11622 -6.69007,-0.3639 a 0.89583068,0.89583068 0 0 0 -1.06369,0.89575 l 0,4.56268 a 0.89583068,0.89583068 0 0 0 1.00771,0.89574 c 1.82349,-0.18864 3.84832,-0.25193 6.80203,-0.25193 l 11.4207,0 0,18.58663 -16.96309,0 c -3.46053,0 -5.28841,-0.13717 -7.38987,-0.39189 a 0.89583068,0.89583068 0 0 0 -0.97971,0.89574 l 0,4.8426 a 0.89583068,0.89583068 0 0 0 1.0077,0.89575 c 2.14676,-0.3157 4.1611,-0.44788 7.36188,-0.44788 l 41.79191,0 c 3.07096,0 5.05726,0.13486 6.99807,0.44788 a 0.89583068,0.89583068 0 0 0 1.0636,-0.89575 l 0,-4.8426 a 0.89583068,0.89583068 0 0 0 -1.03566,-0.89574 c -1.82202,0.25131 -3.82517,0.39189 -7.02601,0.39189 l -18.44663,0 0,-18.58663 12.56842,0 c 3.01847,0 4.91833,0.0629 6.746,0.25193 a 0.89583068,0.89583068 0 0 0 0.97976,-0.89574 l 0,-4.56268 a 0.89583068,0.89583068 0 0 0 -1.0077,-0.89575 c -1.83583,0.25322 -3.51731,0.3639 -6.71806,0.3639 l -12.56842,0 0,-15.42354 15.78744,0 c 3.33073,0 5.3508,0.13794 7.44585,0.39188 a 0.89583068,0.89583068 0 0 0 1.00771,-0.89574 l 0,-4.75862 a 0.89583068,0.89583068 0 0 0 -1.03566,-0.89574 c -2.00986,0.31403 -4.02232,0.44787 -7.4179,0.44787 l -37.06132,0 c -3.26575,0 -5.28096,-0.13736 -7.08196,-0.44787 a 0.89583068,0.89583068 0 0 0 -0.36389,0 z m 32.8345,59.65076 a 0.89583068,0.89583068 0 0 0 -0.69975,0.55984 c -0.54837,1.40129 -1.01747,2.08731 -2.15533,3.41501 -3.24484,3.74389 -7.63969,6.70484 -13.07231,8.78946 a 0.89583068,0.89583068 0 0 0 -0.25192,0.16795 l 0,-4.05883 c 0,-3.53627 0.057,-5.2008 0.36389,-6.85802 a 0.89583068,0.89583068 0 0 0 -0.86775,-1.06369 l -4.73063,0 a 0.89583068,0.89583068 0 0 0 -0.86775,1.06369 c 0.30689,1.65722 0.36389,3.32175 0.36389,6.85802 l 0,8.73348 -6.07424,0 0,-8.84545 c 0,-2.49993 0.0652,-3.54151 0.25193,-4.78661 a 0.89583068,0.89583068 0 0 0 -0.89574,-1.00771 l -4.31076,0 a 0.89583068,0.89583068 0 0 0 -0.89574,1.0357 c 0.17844,1.07067 0.25193,2.51953 0.25193,4.95457 l 0,9.40528 c 0,1.19394 -0.0472,2.35514 -0.11197,3.77891 a 0.89583068,0.89583068 0 0 0 0.92373,0.92373 c 1.15355,-0.064 2.56381,-0.13996 4.47871,-0.13996 l 6.38215,0 0,7.19392 -8.25761,0 c -2.6945,0 -4.05239,-0.0631 -5.62637,-0.25193 a 0.89583068,0.89583068 0 0 0 -1.00771,0.89575 l 0,4.05882 a 0.89583068,0.89583068 0 0 0 1.00771,0.86775 c 1.21811,-0.15227 2.29471,-0.17417 3.72292,-0.19594 -0.0596,3.89181 -0.10567,5.72982 -0.39189,8.48155 -8.9e-4,0.009 9e-4,0.0189 0,0.028 -0.69926,5.50689 -1.93275,8.99843 -4.42272,12.4844 a 0.89583068,0.89583068 0 0 0 0.25193,1.28762 c 1.24092,0.74455 1.6813,1.12036 2.88317,2.57526 a 0.89583068,0.89583068 0 0 0 1.42758,-0.0839 c 2.96468,-4.61173 4.44946,-8.9477 5.23449,-15.03166 0.35706,-3.15405 0.46115,-5.44338 0.53185,-9.79717 l 4.64665,0 0,17.69089 c 0,3.40688 -0.0526,5.07406 -0.36389,6.94199 a 0.89583068,0.89583068 0 0 0 0.86775,1.03571 l 4.73063,0 a 0.89583068,0.89583068 0 0 0 0.86775,-1.03571 c -0.30617,-1.65332 -0.36389,-3.41443 -0.36389,-6.88601 l 0,-24.82882 c 0.7985,0.94368 1.38734,1.82051 1.95943,3.07911 a 0.89583068,0.89583068 0 0 0 0.11197,0.22394 0.89583068,0.89583068 0 0 0 -0.97972,0.89574 l 0,4.31075 a 0.89583068,0.89583068 0 0 0 1.0357,0.89574 c 1.76443,-0.25206 3.52437,-0.36389 6.07425,-0.36389 l 18.50264,0 0,16.12334 c 0,0.535 -0.0197,0.52519 -0.16786,0.61582 -0.14843,0.0906 -0.71982,0.22393 -1.76354,0.22393 -1.69707,0 -3.79472,-0.12224 -6.46617,-0.50385 a 0.89583068,0.89583068 0 0 0 -0.95164,1.17566 c 0.57086,1.58607 0.73424,2.24173 0.92369,3.94686 a 0.89583068,0.89583068 0 0 0 0.81172,0.78377 c 2.20209,0.12954 3.90776,0.19595 5.29052,0.19595 2.77626,0 4.72852,-0.27248 6.13018,-1.20366 1.40192,-0.93117 1.98747,-2.55313 1.98747,-4.4787 l 0,-16.85113 c 2.28459,0.01 4.1841,0.0945 5.93428,0.3359 a 0.89583068,0.89583068 0 0 0 1.03566,-0.89574 l 0,-4.31075 a 0.89583068,0.89583068 0 0 0 -1.03566,-0.89574 c -1.61699,0.23954 -3.53477,0.3539 -5.93428,0.36389 l 0,-1.45558 c 0,-2.5648 0.0609,-3.78467 0.30795,-5.20649 a 0.89583068,0.89583068 0 0 0 -0.86779,-1.0637 l -4.64666,0 a 0.89583068,0.89583068 0 0 0 -0.89574,1.0637 c 0.24803,1.48814 0.30787,2.77146 0.30787,5.20649 l 0,1.48357 -18.50264,0 c -2.0337,0 -3.2341,-0.15657 -4.56269,-0.30791 8.6095,-2.24112 14.87628,-4.96033 21.04991,-9.09737 5.05485,-3.41357 9.32735,-7.60098 12.68038,-12.40041 0.46068,-0.65807 0.48639,-0.7628 0.78377,-1.11968 a 0.89583068,0.89583068 0 0 0 -0.0278,-1.17566 l -2.57526,-2.82718 a 0.89583068,0.89583068 0 0 0 -0.8677,-0.27992 c -0.98397,0.23151 -2.12166,0.30791 -5.01051,0.30791 l -10.38504,0 c 0.24283,-0.32512 0.19778,-0.24501 0.72779,-0.95173 0.9674,-1.28986 0.9287,-1.25605 1.31557,-1.7075 a 0.89583068,0.89583068 0 0 0 -0.47582,-1.42759 l -4.33879,-1.0357 a 0.89583068,0.89583068 0 0 0 -0.3359,-0.028 z m -1.76344,10.24504 1.42754,0 -2.49124,2.15537 a 0.89583068,0.89583068 0 0 0 0.16795,1.48357 c 2.91098,1.48294 5.20775,3.04039 7.24986,4.75863 -1.30097,0.81675 -2.52061,1.55984 -3.89083,2.29534 -2.03978,-2.0202 -4.49474,-4.00915 -7.05399,-5.65437 a 0.89583068,0.89583068 0 0 0 -0.95173,0 l -3.02312,1.98743 -0.028,0 a 0.89583068,0.89583068 0 0 0 -0.13996,0.0839 0.89583068,0.89583068 0 0 0 -0.056,0.056 0.89583068,0.89583068 0 0 0 -0.11197,0.11197 0.89583068,0.89583068 0 0 0 -0.11197,0.16795 0.89583068,0.89583068 0 0 0 -0.056,0.056 0.89583068,0.89583068 0 0 0 0,0.028 0.89583068,0.89583068 0 0 0 -0.028,0.056 0.89583068,0.89583068 0 0 0 0,0.028 0.89583068,0.89583068 0 0 0 -0.028,0.16795 0.89583068,0.89583068 0 0 0 0,0.0839 0.89583068,0.89583068 0 0 0 0,0.0839 0.89583068,0.89583068 0 0 0 0.028,0.16795 0.89583068,0.89583068 0 0 0 0.028,0.0839 0.89583068,0.89583068 0 0 0 0.056,0.0839 0.89583068,0.89583068 0 0 0 0.0839,0.13996 0.89583068,0.89583068 0 0 0 0.056,0.0839 0.89583068,0.89583068 0 0 0 0.0839,0.056 0.89583068,0.89583068 0 0 0 0.056,0.056 0.89583068,0.89583068 0 0 0 0.028,0 0.89583068,0.89583068 0 0 0 0.13996,0.0839 c 2.21913,1.24706 4.13216,2.6918 5.90637,4.31075 -3.66296,1.50177 -6.6442,2.42033 -11.42078,3.38702 a 0.89583068,0.89583068 0 0 0 -0.3359,0.13996 l 0,-12.48439 c 1.15917,1.28042 1.57993,1.78827 2.04341,2.71521 a 0.89583068,0.89583068 0 0 0 1.17566,0.41988 c 4.99123,-2.40084 7.41915,-3.99876 11.1968,-7.19392 z m 2.93919,0 13.10021,0 c -1.77661,2.0934 -3.27232,3.61978 -5.3465,5.29047 -2.147,-1.86838 -4.76874,-3.70498 -7.75371,-5.29047 z m -6.91408,27.60002 a 0.89583068,0.89583068 0 0 0 -0.44787,0.16795 l -3.16309,2.18337 a 0.89583068,0.89583068 0 0 0 -0.13996,1.3716 c 3.25083,3.44204 5.27031,6.17788 7.89376,10.7209 a 0.89583068,0.89583068 0 0 0 1.28762,0.27992 l 3.24707,-2.4073 a 0.89583068,0.89583068 0 0 0 0.0842,-0.056 l 0.0278,0 a 0.89583068,0.89583068 0 0 0 0.0564,-0.056 0.89583068,0.89583068 0 0 0 0.27991,-0.27992 0.89583068,0.89583068 0 0 0 0.0278,-0.056 0.89583068,0.89583068 0 0 0 0.0278,-0.056 0.89583068,0.89583068 0 0 0 0,-0.028 0.89583068,0.89583068 0 0 0 0.0278,-0.056 0.89583068,0.89583068 0 0 0 0,-0.028 0.89583068,0.89583068 0 0 0 0,-0.056 0.89583068,0.89583068 0 0 0 0.0278,-0.028 0.89583068,0.89583068 0 0 0 0,-0.056 0.89583068,0.89583068 0 0 0 0,-0.056 0.89583068,0.89583068 0 0 0 0,-0.056 0.89583068,0.89583068 0 0 0 0,-0.028 0.89583068,0.89583068 0 0 0 -0.0278,-0.13996 0.89583068,0.89583068 0 0 0 0,-0.028 0.89583068,0.89583068 0 0 0 -0.0278,-0.056 0.89583068,0.89583068 0 0 0 0,-0.028 0.89583068,0.89583068 0 0 0 -0.0278,-0.056 0.89583068,0.89583068 0 0 0 0,-0.028 0.89583068,0.89583068 0 0 0 -0.0564,-0.056 0.89583068,0.89583068 0 0 0 0,-0.028 0.89583068,0.89583068 0 0 0 -0.0278,-0.028 c -0.0134,-0.0199 -0.0143,-0.0362 -0.0278,-0.056 a 0.89583068,0.89583068 0 0 0 -0.11196,-0.11197 c -2.90632,-4.34607 -4.94019,-7.00764 -8.20168,-10.52496 a 0.89583068,0.89583068 0 0 0 -0.72782,-0.27991 z"
       id="path5728"
       inkscape:connector-curvature="0" />
    <path
       style="font-size:medium;font-style:normal;font-variant:normal;font-weight:normal;font-stretch:normal;text-indent:0;text-align:start;text-decoration:none;line-height:normal;letter-spacing:normal;word-spacing:normal;text-transform:none;direction:ltr;block-progression:tb;writing-mode:lr-tb;text-anchor:start;baseline-shift:baseline;color:#000000;fill:#000000;fill-opacity:1;fill-rule:nonzero;stroke:none;stroke-width:4;marker:none;visibility:visible;display:inline;overflow:visible;enable-background:accumulate;font-family:Sans;-inkscape-font-specification:Sans"
       d="m 906.12319,898.41281 0,1.39777 0,21.81828 -12.7109,-12.7328 -0.9828,-1.00465 -0.98281,1.00465 -5.94051,5.9405 -1.00464,0.98284 1.00464,0.98277 12.38334,12.3615 -21.11938,0 -1.39776,0 0,1.39775 0,8.38661 0,1.39776 1.39776,0 21.5125,0 -12.77646,12.75462 -1.00464,0.98284 1.00464,0.98277 5.94051,5.9405 0.98281,1.00464 0.9828,-1.00464 12.7109,-12.73274 0,21.4251 0,1.3978 1.39777,0 8.38659,0 1.39777,0 0,-1.3978 0,-21.46878 12.60177,12.6017 0.98284,1.00464 0.98277,-1.00464 5.9187,-5.9405 0.98277,-0.98278 -0.98277,-0.98283 -12.5799,-12.5799 21.44691,0 1.39776,0 0,-1.39776 0,-8.3866 0,-1.39776 -1.39776,0 -21.05386,0 12.18685,-12.18678 0.98277,-0.98277 -0.98277,-0.98284 -5.9187,-5.9405 -0.98277,-1.00465 -0.98284,1.00465 -12.60177,12.60176 0,-21.86196 0,-1.39777 -1.39777,0 -8.38653,0 -1.39776,0 z"
       id="path4506"
       inkscape:connector-curvature="0" />
  </g>
</svg>
