<?xml version="1.0" encoding="UTF-8" standalone="no"?>
<!-- Created with Inkscape (http://www.inkscape.org/) -->

<svg
   xmlns:dc="http://purl.org/dc/elements/1.1/"
   xmlns:cc="http://creativecommons.org/ns#"
   xmlns:rdf="http://www.w3.org/1999/02/22-rdf-syntax-ns#"
   xmlns:svg="http://www.w3.org/2000/svg"
   xmlns="http://www.w3.org/2000/svg"
   xmlns:xlink="http://www.w3.org/1999/xlink"
   xmlns:sodipodi="http://sodipodi.sourceforge.net/DTD/sodipodi-0.dtd"
   xmlns:inkscape="http://www.inkscape.org/namespaces/inkscape"
   width="228.25002"
   height="262.56253"
   id="svg2"
   version="1.1"
   inkscape:version="0.48.4 r9939"
   inkscape:export-filename="shogi-king.png"
   inkscape:export-xdpi="300.16"
   inkscape:export-ydpi="300.16"
   sodipodi:docname="knight.svg">
  <defs
     id="defs4">
    <marker
       inkscape:stockid="TriangleOutL"
       orient="auto"
       refY="0"
       refX="0"
       id="TriangleOutL"
       style="overflow:visible">
      <path
         id="path4284"
         d="m 5.77,0 -8.65,5 0,-10 8.65,5 z"
         style="fill-rule:evenodd;stroke:#000000;stroke-width:1pt"
         transform="scale(0.8,0.8)"
         inkscape:connector-curvature="0" />
    </marker>
    <marker
       inkscape:stockid="Arrow2Mstart"
       orient="auto"
       refY="0"
       refX="0"
       id="Arrow2Mstart"
       style="overflow:visible">
      <path
         id="path4166"
         style="fill-rule:evenodd;stroke-width:0.625;stroke-linejoin:round"
         d="M 8.7185878,4.0337352 -2.2072895,0.01601326 8.7185884,-4.0017078 c -1.7454984,2.3720609 -1.7354408,5.6174519 -6e-7,8.035443 z"
         transform="scale(0.6,0.6)"
         inkscape:connector-curvature="0" />
    </marker>
    <marker
       inkscape:stockid="Arrow2Lend"
       orient="auto"
       refY="0"
       refX="0"
       id="Arrow2Lend"
       style="overflow:visible">
      <path
         id="path4163"
         style="fill-rule:evenodd;stroke-width:0.625;stroke-linejoin:round"
         d="M 8.7185878,4.0337352 -2.2072895,0.01601326 8.7185884,-4.0017078 c -1.7454984,2.3720609 -1.7354408,5.6174519 -6e-7,8.035443 z"
         transform="matrix(-1.1,0,0,-1.1,-1.1,0)"
         inkscape:connector-curvature="0" />
    </marker>
    <marker
       inkscape:stockid="Arrow2Lstart"
       orient="auto"
       refY="0"
       refX="0"
       id="Arrow2Lstart"
       style="overflow:visible">
      <path
         id="path4160"
         style="fill-rule:evenodd;stroke-width:0.625;stroke-linejoin:round"
         d="M 8.7185878,4.0337352 -2.2072895,0.01601326 8.7185884,-4.0017078 c -1.7454984,2.3720609 -1.7354408,5.6174519 -6e-7,8.035443 z"
         transform="matrix(1.1,0,0,1.1,1.1,0)"
         inkscape:connector-curvature="0" />
    </marker>
    <marker
       inkscape:stockid="TriangleInL"
       orient="auto"
       refY="0"
       refX="0"
       id="TriangleInL"
       style="overflow:visible">
      <path
         id="path4275"
         d="m 5.77,0 -8.65,5 0,-10 8.65,5 z"
         style="fill-rule:evenodd;stroke:#000000;stroke-width:1pt"
         transform="scale(-0.8,-0.8)"
         inkscape:connector-curvature="0" />
    </marker>
    <marker
       inkscape:stockid="Arrow1Lstart"
       orient="auto"
       refY="0"
       refX="0"
       id="Arrow1Lstart"
       style="overflow:visible">
      <path
         id="path4482"
         d="M 0,0 5,-5 -12.5,0 5,5 0,0 z"
         style="fill-rule:evenodd;stroke:#000000;stroke-width:1pt"
         transform="matrix(0.8,0,0,0.8,10,0)"
         inkscape:connector-curvature="0" />
    </marker>
  </defs>
  <sodipodi:namedview
     id="base"
     pagecolor="#ffffff"
     bordercolor="#666666"
     borderopacity="1.0"
     inkscape:pageopacity="0.0"
     inkscape:pageshadow="2"
     inkscape:zoom="0.7"
     inkscape:cx="-142.92989"
     inkscape:cy="-107.65201"
     inkscape:document-units="px"
     inkscape:current-layer="layer1"
     showgrid="false"
     inkscape:window-width="1920"
     inkscape:window-height="1056"
     inkscape:window-x="1280"
     inkscape:window-y="24"
     inkscape:window-maximized="1"
     showguides="true"
     inkscape:guide-bbox="true"
     inkscape:object-paths="true"
     inkscape:snap-nodes="true"
     fit-margin-top="0"
     fit-margin-left="0"
     fit-margin-right="0"
     fit-margin-bottom="0" />
  <metadata
     id="metadata7">
    <rdf:RDF>
      <cc:Work
         rdf:about="">
        <dc:format>image/svg+xml</dc:format>
        <dc:type
           rdf:resource="http://purl.org/dc/dcmitype/StillImage" />
        <dc:title />
      </cc:Work>
    </rdf:RDF>
  </metadata>
  <g
     inkscape:label="Layer 1"
     inkscape:groupmode="layer"
     id="layer1"
     transform="translate(-537.58923,-358.53183)">
    <path
       style="fill:#ffffff;fill-opacity:1;stroke:#000000;stroke-width:10;stroke-linecap:round;stroke-linejoin:round;stroke-miterlimit:4;stroke-opacity:1;stroke-dasharray:none"
       d="m 556.65176,616.09436 190.12499,0 c 4.125,0 7.5,-0.6563 10.125,-1.9687 2.625,-1.3126 3.9375,-3.4688 3.9375,-6.4688 0,-19.125 -12.9375,-87.37503 -38.8125,-204.75003 -1.5,-6 -3.58593,-10.7578 -6.2578,-14.2734 -2.67187,-3.51567 -7.71093,-6.44537 -15.1172,-8.7891 l -48.9375,-16.3125 -48.9375,16.3125 c -7.40627,2.34373 -12.44533,5.27343 -15.11719,8.7891 -2.67187,3.5156 -4.7578,8.4609 -6.2578,14.8359 -25.875,117 -38.81253,185.06253 -38.81253,204.18753 0,3 1.31253,5.1562 3.93753,6.4688 2.625,1.3124 6,1.9687 10.125,1.9687 z"
       id="path5944"
       inkscape:connector-curvature="0" />
    <use
       height="100.5"
       width="100.5"
       id="use3189"
       transform="matrix(-4,0,0,-4,42,80)"
       y="0"
       x="0"
       xlink:href="#lance" />
    <use
       height="100.5"
       width="100.5"
       id="use3189-0"
       transform="matrix(-4,0,0,-4,42,80)"
       y="0"
       x="0"
       xlink:href="#lance" />
    <use
       height="100.5"
       width="100.5"
       id="use3189-9"
       transform="matrix(-4,0,0,-4,42,80)"
       y="0"
       x="0"
       xlink:href="#lance" />
    <path
       style="font-size:72px;font-style:normal;font-variant:normal;font-weight:300;font-stretch:normal;line-height:100%;letter-spacing:0px;word-spacing:0px;fill:#000000;fill-opacity:1;stroke:none;font-family:Hiragino Kaku Gothic Pro;-inkscape-font-specification:Hiragino Kaku Gothic Pro Light"
       d="m 632.51661,380.59545 a 0.89583068,0.89583068 0 0 0 -0.81177,1.06369 c 0.24427,1.40454 0.30791,2.86516 0.30791,6.46613 l 0,5.31846 -3.66694,0 c -2.17521,0 -3.55757,-0.0792 -4.4787,-0.25192 a 0.89583068,0.89583068 0 0 0 -1.0637,0.86775 l 0,4.08682 a 0.89583068,0.89583068 0 0 0 1.03571,0.86774 c 1.07065,-0.17844 2.50782,-0.25192 4.42272,-0.25192 l 2.85517,0 c -0.69671,2.82938 -1.84074,6.46404 -3.16308,9.74118 -1.84454,4.38871 -3.92099,7.97329 -6.43814,11.05681 a 0.89583068,0.89583068 0 0 0 0.056,1.20365 c 1.0467,1.04671 1.63352,1.84058 2.51927,3.35903 a 0.89583068,0.89583068 0 0 0 1.48357,0.0839 c 1.90433,-2.62667 3.11582,-4.85218 4.67465,-8.22962 0.77488,-1.69327 1.33949,-3.15934 1.87546,-4.70264 -0.0243,0.97972 -0.11197,2.49108 -0.11197,3.30304 l 0,18.30671 c 0,3.33068 -0.11373,5.54817 -0.36389,7.36187 a 0.89583068,0.89583068 0 0 0 0.89574,1.0357 l 4.75862,0 a 0.89583068,0.89583068 0 0 0 0.89575,-1.0357 c -0.24953,-1.74665 -0.39189,-3.90135 -0.39189,-7.36187 l 0,-19.59434 c 0,-1.88917 -0.10054,-3.82479 -0.16795,-5.79432 0.96662,2.07303 2.00658,4.05704 3.41501,6.32617 a 0.89583068,0.89583068 0 0 0 1.53956,-0.028 c 0.88655,-1.58314 1.31417,-2.18192 2.23935,-3.1071 a 0.89583068,0.89583068 0 0 0 0.22393,-0.86775 0.89583068,0.89583068 0 0 0 0,-0.028 c 1.47879,-0.12474 2.89938,-0.19595 5.09453,-0.19595 l 24.18501,0 c 2.28857,0 4.17608,0.14408 6.15822,0.3359 a 0.89583068,0.89583068 0 0 0 0.97972,-0.89574 l 0,-4.25477 a 0.89583068,0.89583068 0 0 0 -0.97972,-0.89574 c -1.84584,0.19096 -3.80426,0.30791 -6.15822,0.30791 l -10.46897,0 0,-7.92171 8.50954,0 c 2.82413,0 4.2445,0.0576 5.93428,0.30791 a 0.89583068,0.89583068 0 0 0 1.0357,-0.89574 l 0,-4.31075 a 0.89583068,0.89583068 0 0 0 -1.06369,-0.89574 c -1.60656,0.30895 -2.95259,0.36389 -5.90629,0.36389 l -8.50954,0 0,-2.18337 c 0,-3.79498 0.0604,-5.39625 0.36389,-6.914 a 0.89583068,0.89583068 0 0 0 -0.86775,-1.09168 l -4.78661,0 a 0.89583068,0.89583068 0 0 0 -0.86775,1.06369 c 0.30988,1.73533 0.36389,3.27635 0.36389,6.94199 l 0,2.18337 -6.32617,0 c -2.82414,0 -4.23509,-0.0576 -5.76633,-0.36389 a 0.89583068,0.89583068 0 0 0 -1.0637,0.89574 l 0,4.31075 a 0.89583068,0.89583068 0 0 0 1.0357,0.89574 c 1.61712,-0.24879 3.09982,-0.30791 5.79433,-0.30791 l 6.32617,0 0,7.92171 -7.92171,0 c -2.28858,0 -4.32638,-0.11763 -6.10224,-0.30791 a 0.89583068,0.89583068 0 0 0 -1.0077,0.89574 l 0,2.04341 c -1.83599,-2.60289 -3.30603,-5.16766 -4.47871,-8.06167 l 0.67181,0 c 1.52294,0 2.70418,0.0684 4.17079,0.19595 a 0.89583068,0.89583068 0 0 0 0.97972,-0.89574 l 0,-4.00285 a 0.89583068,0.89583068 0 0 0 -1.0357,-0.86775 c -1.16958,0.18467 -2.26511,0.25193 -4.11481,0.25193 l -1.42759,0 0,-5.37445 c 0,-3.14798 0.0628,-4.90584 0.30791,-6.43814 a 0.89583068,0.89583068 0 0 0 -0.86775,-1.0357 l -4.64666,0 a 0.89583068,0.89583068 0 0 0 -0.0839,0 z m 25.92051,29.47548 a 0.89583068,0.89583068 0 0 0 -0.81177,1.00771 c 0.25359,1.83855 0.39189,3.45231 0.39189,6.71806 l 0,0.0839 -7.30589,0 c -2.88894,0 -4.37315,-0.0591 -5.99027,-0.30791 a 0.89583068,0.89583068 0 0 0 -1.0357,0.86774 l 0,4.25478 a 0.89583068,0.89583068 0 0 0 1.00771,0.89574 c 1.84234,-0.19059 3.25893,-0.25193 6.01826,-0.25193 l 7.30589,0 0,9.48926 -10.32902,0 c -2.41931,0 -4.52456,-0.11788 -6.29818,-0.30791 a 0.89583068,0.89583068 0 0 0 -0.97971,0.89574 l 0,4.39473 a 0.89583068,0.89583068 0 0 0 1.0077,0.86775 c 1.8275,-0.25207 3.72031,-0.3639 6.27019,-0.3639 l 27.15216,0 c 2.4846,0 4.44543,0.11221 6.27018,0.3639 a 0.89583068,0.89583068 0 0 0 1.00771,-0.86775 l 0,-4.39473 a 0.89583068,0.89583068 0 0 0 -0.97972,-0.89574 c -1.84374,0.19073 -3.87887,0.30791 -6.29817,0.30791 l -10.97283,0 0,-9.48926 8.70548,0 c 2.6945,0 4.079,0.0608 5.99027,0.25193 a 0.89583068,0.89583068 0 0 0 0.97972,-0.89574 l 0,-4.25478 a 0.89583068,0.89583068 0 0 0 -1.0357,-0.86774 c -1.61713,0.24879 -3.11016,0.30791 -5.93429,0.30791 l -8.70548,0 0,-0.0839 c 0,-3.40688 0.0622,-5.15335 0.36389,-6.66208 a 0.89583068,0.89583068 0 0 0 -0.86775,-1.06369 l -4.8426,0 a 0.89583068,0.89583068 0 0 0 -0.0839,0 z m -27.15216,38.51687 a 0.89583068,0.89583068 0 0 0 -0.72779,0.97971 c 0.19055,1.90539 0.25193,3.4802 0.25193,5.85031 l 0,21.97365 c 0,3.14798 -0.0677,4.32395 -0.19594,5.99027 a 0.89583068,0.89583068 0 0 0 0.95172,0.97972 c 1.52116,-0.12677 3.12365,-0.19595 5.03855,-0.19595 l 36.92133,0 c -0.41932,4.66693 -0.86485,7.7773 -1.87546,12.17648 a 0.89583068,0.89583068 0 0 0 0,0.028 c -0.31175,1.52756 -0.64598,2.23655 -1.00771,2.54726 -0.36173,0.31072 -1.01037,0.47587 -2.4353,0.47587 -1.9415,0 -4.02652,-0.17711 -6.5781,-0.55984 a 0.89583068,0.89583068 0 0 0 -0.97971,1.20365 c 0.69132,1.75976 0.91919,2.69932 0.97971,4.03084 a 0.89583068,0.89583068 0 0 0 0.83976,0.86775 c 2.45074,0.12898 3.71023,0.19594 5.34646,0.19594 2.68792,0 4.49314,-0.1648 5.90629,-0.89574 1.41315,-0.73095 2.21934,-2.03936 2.79919,-3.77891 a 0.89583068,0.89583068 0 0 0 0,-0.028 c 1.1252,-3.44183 1.84646,-7.42816 2.68722,-15.05964 0.58043,-5.03049 0.57081,-5.01189 0.6998,-5.85031 a 0.89583068,0.89583068 0 0 0 -1.00771,-1.00771 c -1.15523,0.18241 -2.45041,0.25193 -5.59838,0.25193 l -17.299,0 0,-4.84261 10.91684,0 c 3.01848,0 4.16395,0.055 5.93429,0.30792 a 0.89583068,0.89583068 0 0 0 1.00771,-0.89575 l 0,-4.11481 a 0.89583068,0.89583068 0 0 0 -1.0357,-0.89574 c -1.71199,0.25363 -2.62885,0.30791 -5.9063,0.30791 l -10.91684,0 0,-4.39473 10.83287,0 c 3.21272,0 4.37177,0.0557 6.07424,0.30791 a 0.89583068,0.89583068 0 0 0 1.00771,-0.89574 l 0,-4.11481 a 0.89583068,0.89583068 0 0 0 -1.00771,-0.89574 c -1.62735,0.25036 -2.91751,0.3359 -6.13022,0.3359 l -10.77689,0 0,-4.61866 13.99595,0 c 2.95371,0 4.11319,0.0819 6.01827,0.3359 a 0.89583068,0.89583068 0 0 0 1.0077,-0.89574 l 0,-4.31075 a 0.89583068,0.89583068 0 0 0 -1.0077,-0.89574 c -1.81578,0.25045 -3.52286,0.30791 -6.6061,0.30791 l -31.32294,0 c -3.01849,0 -4.85137,-0.0604 -6.52212,-0.30791 a 0.89583068,0.89583068 0 0 0 -0.27992,0 z m 5.29047,5.76633 13.82801,0 0,4.61866 -13.82801,0 0,-4.61866 z m 0,9.88114 13.82801,0 0,4.39473 -13.82801,0 0,-4.39473 z m 0,9.6852 13.82801,0 0,4.84261 -13.82801,0 0,-4.84261 z m 27.12416,10.97283 a 0.89583068,0.89583068 0 0 0 -0.22393,0.056 l -2.7712,1.14767 -0.11197,0.028 a 0.89583068,0.89583068 0 0 0 -0.22393,0.0839 0.89583068,0.89583068 0 0 0 -0.028,0 0.89583068,0.89583068 0 0 0 -0.13996,0.11197 0.89583068,0.89583068 0 0 0 -0.056,0.028 0.89583068,0.89583068 0 0 0 -0.056,0.0839 0.89583068,0.89583068 0 0 0 -0.056,0.056 0.89583068,0.89583068 0 0 0 0,0.028 0.89583068,0.89583068 0 0 0 -0.056,0.056 0.89583068,0.89583068 0 0 0 -0.028,0.0839 0.89583068,0.89583068 0 0 0 -0.028,0.0839 0.89583068,0.89583068 0 0 0 -0.028,0.0839 0.89583068,0.89583068 0 0 0 -0.028,0.19594 0.89583068,0.89583068 0 0 0 0.028,0.16795 0.89583068,0.89583068 0 0 0 0.028,0.0839 0.89583068,0.89583068 0 0 0 0.028,0.0839 0.89583068,0.89583068 0 0 0 0.0839,0.13996 0.89583068,0.89583068 0 0 0 0.11197,0.16795 c 2.20318,3.43757 2.92763,4.85599 4.56268,9.06938 a 0.89583068,0.89583068 0 0 0 1.28763,0.47586 l 3.27505,-1.81947 a 0.89583068,0.89583068 0 0 0 0.39189,-1.14767 c -1.75183,-3.82806 -2.72588,-5.4596 -5.12252,-8.95741 a 0.89583068,0.89583068 0 0 0 -0.83976,-0.39189 z m -32.38663,0.056 a 0.89583068,0.89583068 0 0 0 -0.0839,0.028 0.89583068,0.89583068 0 0 0 -0.16795,0.0839 0.89583068,0.89583068 0 0 0 -0.0839,0.028 0.89583068,0.89583068 0 0 0 -0.11197,0.11197 0.89583068,0.89583068 0 0 0 -0.0839,0.0839 0.89583068,0.89583068 0 0 0 -0.028,0.056 0.89583068,0.89583068 0 0 0 -0.028,0.028 0.89583068,0.89583068 0 0 0 -0.028,0.056 0.89583068,0.89583068 0 0 0 -0.056,0.13996 0.89583068,0.89583068 0 0 0 -0.028,0.11197 c -2.0894,6.42986 -3.72839,9.39322 -7.78175,14.07993 a 0.89583068,0.89583068 0 0 0 0.22394,1.37161 l 4.1428,2.32332 a 0.89583068,0.89583068 0 0 0 1.17566,-0.25192 c 3.45041,-4.94775 5.2419,-8.58643 7.64179,-15.5915 a 0.89583068,0.89583068 0 0 0 -0.50385,-1.11967 l -3.49899,-1.3996 a 0.89583068,0.89583068 0 0 0 -0.056,-0.028 l -0.028,-0.028 a 0.89583068,0.89583068 0 0 0 -0.25193,-0.0839 0.89583068,0.89583068 0 0 0 -0.0839,0 0.89583068,0.89583068 0 0 0 -0.028,0 0.89583068,0.89583068 0 0 0 -0.056,0 0.89583068,0.89583068 0 0 0 -0.028,0 0.89583068,0.89583068 0 0 0 -0.056,0 0.89583068,0.89583068 0 0 0 -0.11197,0 z m 22.33754,0.58783 a 0.89583068,0.89583068 0 0 0 -0.13996,0.028 l -3.1071,0.92374 -0.0839,0 a 0.89583068,0.89583068 0 0 0 -0.41988,0.13996 0.89583068,0.89583068 0 0 0 -0.13996,0.11196 0.89583068,0.89583068 0 0 0 -0.056,0.056 0.89583068,0.89583068 0 0 0 -0.11196,0.16795 0.89583068,0.89583068 0 0 0 -0.056,0.16795 0.89583068,0.89583068 0 0 0 -0.028,0.0839 0.89583068,0.89583068 0 0 0 0,0.3639 0.89583068,0.89583068 0 0 0 0.056,0.16795 0.89583068,0.89583068 0 0 0 0.028,0.056 0.89583068,0.89583068 0 0 0 0.056,0.0839 c 1.94429,3.90018 2.79568,6.30991 4.00284,11.39271 a 0.89583068,0.89583068 0 0 0 1.20366,0.61582 l 3.72292,-1.39959 a 0.89583068,0.89583068 0 0 0 0.53185,-1.09169 c -1.42668,-4.79882 -2.41599,-7.35951 -4.56268,-11.39271 a 0.89583068,0.89583068 0 0 0 -0.89575,-0.47586 z m -9.99311,0.44787 -3.49899,0.61582 -0.16795,0.028 a 0.89583068,0.89583068 0 0 0 -0.33591,0.13996 0.89583068,0.89583068 0 0 0 -0.0839,0.056 0.89583068,0.89583068 0 0 0 -0.056,0.056 0.89583068,0.89583068 0 0 0 -0.11197,0.11197 0.89583068,0.89583068 0 0 0 0,0.028 0.89583068,0.89583068 0 0 0 -0.0839,0.13996 0.89583068,0.89583068 0 0 0 -0.056,0.16795 0.89583068,0.89583068 0 0 0 -0.028,0.16795 0.89583068,0.89583068 0 0 0 0,0.11197 0.89583068,0.89583068 0 0 0 0.028,0.13996 0.89583068,0.89583068 0 0 0 0.028,0.11197 c 1.1261,4.34405 1.64182,7.78459 1.95944,13.18418 a 0.89583068,0.89583068 0 0 0 1.06369,0.83976 l 4.05883,-0.83976 a 0.89583068,0.89583068 0 0 0 0.72779,-0.95172 c -0.51819,-5.6353 -0.98331,-8.12847 -2.40731,-13.43612 a 0.89583068,0.89583068 0 0 0 -1.0357,-0.6718 z"
       id="path5703"
       inkscape:connector-curvature="0" />
    <path
       style="font-size:medium;font-style:normal;font-variant:normal;font-weight:normal;font-stretch:normal;text-indent:0;text-align:start;text-decoration:none;line-height:normal;letter-spacing:normal;word-spacing:normal;text-transform:none;direction:ltr;block-progression:tb;writing-mode:lr-tb;text-anchor:start;baseline-shift:baseline;color:#000000;fill:#000000;fill-opacity:1;fill-rule:evenodd;stroke:none;stroke-width:3.2pt;marker:none;visibility:visible;display:inline;overflow:visible;enable-background:accumulate;font-family:Sans;-inkscape-font-specification:Sans"
       d="m 615.7545,520.49329 0.96096,2.20587 8.8234,20.52967 0.96096,2.2277 1.44145,-1.94377 2.70818,-3.62545 c 6.56422,8.0134 10.65553,19.54211 12.82014,30.09565 2.73458,13.3324 2.64265,24.52642 2.64265,24.52642 l -0.0218,1.41961 0.0437,0 0,0.1092 1.4196,-0.0218 4.14962,-0.0437 0.0437,0 4.12778,0.0437 1.4196,0.0218 0,-0.1092 0.0437,0 -0.0219,-1.41961 c 0,0 -0.0919,-11.19402 2.64265,-24.52642 2.16462,-10.55354 6.25591,-22.08225 12.82015,-30.09565 l 2.70817,3.62545 1.44144,1.94377 0.96097,-2.2277 8.82339,-20.52967 0.96097,-2.20587 -2.40242,0.26208 -22.18952,2.59898 -2.42426,0.28392 1.46329,1.94377 3.80017,5.08874 c -7.06608,7.56206 -11.36134,17.20569 -14.19606,26.66675 -2.83889,-9.46579 -7.14773,-19.10169 -14.21789,-26.66675 l 3.822,-5.08874 1.4633,-1.94377 -2.42426,-0.28392 -22.21137,-2.59898 -2.40242,-0.26208 z"
       id="path4489"
       inkscape:connector-curvature="0" />
  </g>
</svg>
