<?xml version="1.0" encoding="UTF-8" standalone="no"?>
<!-- Created with Inkscape (http://www.inkscape.org/) -->

<svg
   xmlns:dc="http://purl.org/dc/elements/1.1/"
   xmlns:cc="http://creativecommons.org/ns#"
   xmlns:rdf="http://www.w3.org/1999/02/22-rdf-syntax-ns#"
   xmlns:svg="http://www.w3.org/2000/svg"
   xmlns="http://www.w3.org/2000/svg"
   xmlns:xlink="http://www.w3.org/1999/xlink"
   xmlns:sodipodi="http://sodipodi.sourceforge.net/DTD/sodipodi-0.dtd"
   xmlns:inkscape="http://www.inkscape.org/namespaces/inkscape"
   width="253.12502"
   height="281.25003"
   id="svg2"
   version="1.1"
   inkscape:version="0.48.4 r9939"
   inkscape:export-filename="shogi-king.png"
   inkscape:export-xdpi="300.16"
   inkscape:export-ydpi="300.16"
   sodipodi:docname="knight.svg">
  <defs
     id="defs4">
    <marker
       inkscape:stockid="TriangleOutL"
       orient="auto"
       refY="0"
       refX="0"
       id="TriangleOutL"
       style="overflow:visible">
      <path
         id="path4284"
         d="m 5.77,0 -8.65,5 0,-10 8.65,5 z"
         style="fill-rule:evenodd;stroke:#000000;stroke-width:1pt"
         transform="scale(0.8,0.8)"
         inkscape:connector-curvature="0" />
    </marker>
    <marker
       inkscape:stockid="Arrow2Mstart"
       orient="auto"
       refY="0"
       refX="0"
       id="Arrow2Mstart"
       style="overflow:visible">
      <path
         id="path4166"
         style="fill-rule:evenodd;stroke-width:0.625;stroke-linejoin:round"
         d="M 8.7185878,4.0337352 -2.2072895,0.01601326 8.7185884,-4.0017078 c -1.7454984,2.3720609 -1.7354408,5.6174519 -6e-7,8.035443 z"
         transform="scale(0.6,0.6)"
         inkscape:connector-curvature="0" />
    </marker>
    <marker
       inkscape:stockid="Arrow2Lend"
       orient="auto"
       refY="0"
       refX="0"
       id="Arrow2Lend"
       style="overflow:visible">
      <path
         id="path4163"
         style="fill-rule:evenodd;stroke-width:0.625;stroke-linejoin:round"
         d="M 8.7185878,4.0337352 -2.2072895,0.01601326 8.7185884,-4.0017078 c -1.7454984,2.3720609 -1.7354408,5.6174519 -6e-7,8.035443 z"
         transform="matrix(-1.1,0,0,-1.1,-1.1,0)"
         inkscape:connector-curvature="0" />
    </marker>
    <marker
       inkscape:stockid="Arrow2Lstart"
       orient="auto"
       refY="0"
       refX="0"
       id="Arrow2Lstart"
       style="overflow:visible">
      <path
         id="path4160"
         style="fill-rule:evenodd;stroke-width:0.625;stroke-linejoin:round"
         d="M 8.7185878,4.0337352 -2.2072895,0.01601326 8.7185884,-4.0017078 c -1.7454984,2.3720609 -1.7354408,5.6174519 -6e-7,8.035443 z"
         transform="matrix(1.1,0,0,1.1,1.1,0)"
         inkscape:connector-curvature="0" />
    </marker>
    <marker
       inkscape:stockid="TriangleInL"
       orient="auto"
       refY="0"
       refX="0"
       id="TriangleInL"
       style="overflow:visible">
      <path
         id="path4275"
         d="m 5.77,0 -8.65,5 0,-10 8.65,5 z"
         style="fill-rule:evenodd;stroke:#000000;stroke-width:1pt"
         transform="scale(-0.8,-0.8)"
         inkscape:connector-curvature="0" />
    </marker>
    <marker
       inkscape:stockid="Arrow1Lstart"
       orient="auto"
       refY="0"
       refX="0"
       id="Arrow1Lstart"
       style="overflow:visible">
      <path
         id="path4482"
         d="M 0,0 5,-5 -12.5,0 5,5 0,0 z"
         style="fill-rule:evenodd;stroke:#000000;stroke-width:1pt"
         transform="matrix(0.8,0,0,0.8,10,0)"
         inkscape:connector-curvature="0" />
    </marker>
  </defs>
  <sodipodi:namedview
     id="base"
     pagecolor="#ffffff"
     bordercolor="#666666"
     borderopacity="1.0"
     inkscape:pageopacity="0.0"
     inkscape:pageshadow="2"
     inkscape:zoom="0.49497475"
     inkscape:cx="-407.26274"
     inkscape:cy="230.95472"
     inkscape:document-units="px"
     inkscape:current-layer="layer1"
     showgrid="false"
     inkscape:window-width="1920"
     inkscape:window-height="1056"
     inkscape:window-x="1280"
     inkscape:window-y="24"
     inkscape:window-maximized="1"
     showguides="true"
     inkscape:guide-bbox="true"
     fit-margin-top="0"
     fit-margin-left="0"
     fit-margin-right="0"
     fit-margin-bottom="0" />
  <metadata
     id="metadata7">
    <rdf:RDF>
      <cc:Work
         rdf:about="">
        <dc:format>image/svg+xml</dc:format>
        <dc:type
           rdf:resource="http://purl.org/dc/dcmitype/StillImage" />
        <dc:title />
      </cc:Work>
    </rdf:RDF>
  </metadata>
  <g
     inkscape:label="Layer 1"
     inkscape:groupmode="layer"
     id="layer1"
     transform="translate(-525.15173,-350.59433)">
    <use
       height="100.5"
       width="100.5"
       id="use3189"
       transform="matrix(-4,0,0,-4,42,80)"
       y="0"
       x="0"
       xlink:href="#lance" />
    <use
       height="100.5"
       width="100.5"
       id="use3189-0"
       transform="matrix(-4,0,0,-4,42,80)"
       y="0"
       x="0"
       xlink:href="#lance" />
    <use
       height="100.5"
       width="100.5"
       id="use3189-9"
       transform="matrix(-4,0,0,-4,42,80)"
       y="0"
       x="0"
       xlink:href="#lance" />
    <g
       id="g5986"
       transform="translate(19.999969,20)">
      <g
         transform="matrix(0.89574111,0,0,0.89574111,412.66164,33.634088)"
         id="g5914">
        <path
           style="font-size:medium;font-style:normal;font-variant:normal;font-weight:normal;font-stretch:normal;text-indent:0;text-align:start;text-decoration:none;line-height:normal;letter-spacing:normal;word-spacing:normal;text-transform:none;direction:ltr;block-progression:tb;writing-mode:lr-tb;text-anchor:start;baseline-shift:baseline;color:#000000;fill:#000000;fill-opacity:1;fill-rule:evenodd;stroke:none;stroke-width:1.6pt;marker:none;visibility:visible;display:inline;overflow:visible;enable-background:accumulate;font-family:Sans;-inkscape-font-specification:Sans"
           d="m 209.38414,531.86981 0.56989,1.32111 5.23264,12.17496 0.5699,1.32111 0.85483,-1.16569 1.81329,-2.43499 c 10.69846,10.16391 16.5796,26.61957 19.58355,41.26534 3.32022,16.18775 3.21212,29.81569 3.21212,29.81569 l 0.0259,0 c 1e-5,7.8e-4 0,0.0518 0,0.0518 l 3.31574,-0.0259 3.28983,0.0259 c 0,0 -1e-5,-0.0511 0,-0.0518 l 0.0259,0 c 0,0 -0.10811,-13.62794 3.21211,-29.81569 3.00146,-14.63357 8.89794,-31.0735 19.58355,-41.23943 l 1.8133,2.40908 0.85484,1.16569 0.56988,-1.32111 5.23265,-12.17496 0.56989,-1.32111 -1.42473,0.15542 -13.15932,1.55426 -1.42473,0.15542 0.85484,1.16569 2.12414,2.84946 c -12.7629,11.65023 -18.90844,29.73839 -22.09625,45.28048 -0.014,0.0684 -0.012,0.13884 -0.0259,0.20723 -0.0143,-0.07 -0.0375,-0.13712 -0.0518,-0.20723 -3.18898,-15.54783 -9.32734,-33.63072 -22.09626,-45.28048 l 2.12414,-2.84946 0.85484,-1.16569 -1.42472,-0.15542 -13.15933,-1.55426 -1.42472,-0.15542 z"
           id="path5471"
           inkscape:connector-curvature="0" />
        <path
           style="font-size:72px;font-style:normal;font-variant:normal;font-weight:300;font-stretch:normal;line-height:100%;letter-spacing:0px;word-spacing:0px;fill:#000000;fill-opacity:1;stroke:none;font-family:Hiragino Kaku Gothic Pro;-inkscape-font-specification:Hiragino Kaku Gothic Pro Light"
           d="m 223.11692,365.0177 a 1.0001,1.0001 0 0 0 -0.90625,1.1875 c 0.2727,1.56802 0.34375,3.19865 0.34375,7.21875 l 0,5.9375 -4.09375,0 c -2.42839,0 -3.97165,-0.0884 -5,-0.28125 a 1.0001,1.0001 0 0 0 -1.1875,0.96875 l 0,4.5625 a 1.0001,1.0001 0 0 0 1.15625,0.96875 c 1.19527,-0.19921 2.79972,-0.28125 4.9375,-0.28125 l 3.1875,0 c -0.77781,3.15871 -2.05499,7.21642 -3.53125,10.875 -2.05923,4.89953 -4.37737,8.90133 -7.1875,12.34375 a 1.0001,1.0001 0 0 0 0.0625,1.34375 c 1.16853,1.16854 1.82365,2.05482 2.8125,3.75 a 1.0001,1.0001 0 0 0 1.65625,0.0937 c 2.12598,-2.9324 3.47848,-5.41694 5.21875,-9.1875 0.86507,-1.89035 1.4954,-3.52706 2.09375,-5.25 -0.0271,1.09376 -0.125,2.78103 -0.125,3.6875 l 0,20.4375 c 0,3.71835 -0.12697,6.19394 -0.40625,8.21875 a 1.0001,1.0001 0 0 0 1,1.15625 l 5.3125,0 a 1.0001,1.0001 0 0 0 1,-1.15625 c -0.27857,-1.94995 -0.4375,-4.35545 -0.4375,-8.21875 l 0,-21.875 c 0,-2.10906 -0.11224,-4.26998 -0.1875,-6.46875 1.07913,2.31432 2.24014,4.52926 3.8125,7.0625 a 1.0001,1.0001 0 0 0 1.71875,-0.0313 c 0.98974,-1.76741 1.46714,-2.43589 2.5,-3.46875 a 1.0001,1.0001 0 0 0 0.25,-0.96875 1.0001,1.0001 0 0 0 0,-0.0313 c 1.65091,-0.13925 3.23685,-0.21875 5.6875,-0.21875 l 27,0 c 2.55495,0 4.66215,0.16085 6.875,0.375 a 1.0001,1.0001 0 0 0 1.09375,-1 l 0,-4.75 a 1.0001,1.0001 0 0 0 -1.09375,-1 c -2.06069,0.21318 -4.24705,0.34375 -6.875,0.34375 l -11.6875,0 0,-8.84375 9.5,0 c 3.15284,0 4.73854,0.0643 6.625,0.34375 a 1.0001,1.0001 0 0 0 1.15625,-1 l 0,-4.8125 a 1.0001,1.0001 0 0 0 -1.1875,-1 c -1.79355,0.34491 -3.29625,0.40625 -6.59375,0.40625 l -9.5,0 0,-2.4375 c 0,-4.2367 0.0674,-6.02435 0.40625,-7.71875 a 1.0001,1.0001 0 0 0 -0.96875,-1.21875 l -5.34375,0 a 1.0001,1.0001 0 0 0 -0.96875,1.1875 c 0.34595,1.93731 0.40625,3.6577 0.40625,7.75 l 0,2.4375 -7.0625,0 c -3.15285,0 -4.72803,-0.0643 -6.4375,-0.40625 a 1.0001,1.0001 0 0 0 -1.1875,1 l 0,4.8125 a 1.0001,1.0001 0 0 0 1.15625,1 c 1.80534,-0.27775 3.46062,-0.34375 6.46875,-0.34375 l 7.0625,0 0,8.84375 -8.84375,0 c -2.55496,0 -4.82995,-0.13133 -6.8125,-0.34375 a 1.0001,1.0001 0 0 0 -1.125,1 l 0,2.28125 c -2.04968,-2.90585 -3.69083,-5.76915 -5,-9 l 0.75,0 c 1.70021,0 3.01894,0.0764 4.65625,0.21875 a 1.0001,1.0001 0 0 0 1.09375,-1 l 0,-4.46875 a 1.0001,1.0001 0 0 0 -1.15625,-0.96875 c -1.30571,0.20616 -2.52875,0.28125 -4.59375,0.28125 l -1.59375,0 0,-6 c 0,-3.51439 0.0701,-5.47685 0.34375,-7.1875 a 1.0001,1.0001 0 0 0 -0.96875,-1.15625 l -5.1875,0 a 1.0001,1.0001 0 0 0 -0.0937,0 z m 28.9375,32.90625 a 1.0001,1.0001 0 0 0 -0.90625,1.125 c 0.28311,2.05255 0.4375,3.85414 0.4375,7.5 l 0,0.0937 -8.15625,0 c -3.22519,0 -4.88216,-0.066 -6.6875,-0.34375 a 1.0001,1.0001 0 0 0 -1.15625,0.96875 l 0,4.75 a 1.0001,1.0001 0 0 0 1.125,1 c 2.05678,-0.21277 3.63825,-0.28125 6.71875,-0.28125 l 8.15625,0 0,10.59375 -11.53125,0 c -2.70091,0 -5.0512,-0.1316 -7.03125,-0.34375 a 1.0001,1.0001 0 0 0 -1.09375,1 l 0,4.90625 a 1.0001,1.0001 0 0 0 1.125,0.96875 c 2.04021,-0.28141 4.15333,-0.40625 7,-0.40625 l 30.3125,0 c 2.7738,0 4.96286,0.12527 7,0.40625 a 1.0001,1.0001 0 0 0 1.125,-0.96875 l 0,-4.90625 a 1.0001,1.0001 0 0 0 -1.09375,-1 c -2.05835,0.21293 -4.33035,0.34375 -7.03125,0.34375 l -12.25,0 0,-10.59375 9.71875,0 c 3.00812,0 4.55377,0.0679 6.6875,0.28125 a 1.0001,1.0001 0 0 0 1.09375,-1 l 0,-4.75 a 1.0001,1.0001 0 0 0 -1.15625,-0.96875 c -1.80535,0.27775 -3.47216,0.34375 -6.625,0.34375 l -9.71875,0 0,-0.0937 c 0,-3.80342 0.0694,-5.75316 0.40625,-7.4375 a 1.0001,1.0001 0 0 0 -0.96875,-1.1875 l -5.40625,0 a 1.0001,1.0001 0 0 0 -0.0937,0 z m -30.3125,43 a 1.0001,1.0001 0 0 0 -0.8125,1.09375 c 0.21272,2.12716 0.28125,3.88527 0.28125,6.53125 l 0,24.53125 c 0,3.51438 -0.0756,4.82723 -0.21875,6.6875 a 1.0001,1.0001 0 0 0 1.0625,1.09375 c 1.69821,-0.14152 3.48722,-0.21875 5.625,-0.21875 l 41.21875,0 c -0.46812,5.21013 -0.96551,8.68253 -2.09375,13.59375 a 1.0001,1.0001 0 0 0 0,0.0313 c -0.34803,1.70536 -0.72117,2.49687 -1.125,2.84375 -0.40383,0.34688 -1.12797,0.53125 -2.71875,0.53125 -2.16748,0 -4.49519,-0.19772 -7.34375,-0.625 a 1.0001,1.0001 0 0 0 -1.09375,1.34375 c 0.77179,1.96458 1.02618,3.0135 1.09375,4.5 a 1.0001,1.0001 0 0 0 0.9375,0.96875 c 2.73599,0.144 4.14208,0.21875 5.96875,0.21875 3.00078,0 5.01612,-0.18398 6.59375,-1 1.57763,-0.81602 2.47766,-2.27673 3.125,-4.21875 a 1.0001,1.0001 0 0 0 0,-0.0313 c 1.25617,-3.84244 2.06138,-8.29276 3,-16.8125 0.64799,-5.616 0.63725,-5.59524 0.78125,-6.53125 a 1.0001,1.0001 0 0 0 -1.125,-1.125 c -1.28969,0.20364 -2.73562,0.28125 -6.25,0.28125 l -19.3125,0 0,-5.40625 12.1875,0 c 3.36981,0 4.6486,0.0614 6.625,0.34375 a 1.0001,1.0001 0 0 0 1.125,-1 l 0,-4.59375 a 1.0001,1.0001 0 0 0 -1.15625,-1 c -1.91125,0.28315 -2.93483,0.34375 -6.59375,0.34375 l -12.1875,0 0,-4.90625 12.09375,0 c 3.58666,0 4.88062,0.0622 6.78125,0.34375 a 1.0001,1.0001 0 0 0 1.125,-1 l 0,-4.59375 a 1.0001,1.0001 0 0 0 -1.125,-1 c -1.81677,0.2795 -3.25709,0.375 -6.84375,0.375 l -12.03125,0 0,-5.15625 15.625,0 c 3.2975,0 4.59194,0.0914 6.71875,0.375 a 1.0001,1.0001 0 0 0 1.125,-1 l 0,-4.8125 a 1.0001,1.0001 0 0 0 -1.125,-1 c -2.02712,0.2796 -3.9329,0.34375 -7.375,0.34375 l -34.96875,0 c -3.36982,0 -5.41604,-0.0674 -7.28125,-0.34375 a 1.0001,1.0001 0 0 0 -0.3125,0 z m 5.90625,6.4375 15.4375,0 0,5.15625 -15.4375,0 0,-5.15625 z m 0,11.03125 15.4375,0 0,4.90625 -15.4375,0 0,-4.90625 z m 0,10.8125 15.4375,0 0,5.40625 -15.4375,0 0,-5.40625 z m 30.28125,12.25 a 1.0001,1.0001 0 0 0 -0.25,0.0625 l -3.09375,1.28125 -0.125,0.0313 a 1.0001,1.0001 0 0 0 -0.25,0.0937 1.0001,1.0001 0 0 0 -0.0313,0 1.0001,1.0001 0 0 0 -0.15625,0.125 1.0001,1.0001 0 0 0 -0.0625,0.0313 1.0001,1.0001 0 0 0 -0.0625,0.0937 1.0001,1.0001 0 0 0 -0.0625,0.0625 1.0001,1.0001 0 0 0 0,0.0313 1.0001,1.0001 0 0 0 -0.0625,0.0625 1.0001,1.0001 0 0 0 -0.0313,0.0937 1.0001,1.0001 0 0 0 -0.0313,0.0937 1.0001,1.0001 0 0 0 -0.0313,0.0937 1.0001,1.0001 0 0 0 -0.0313,0.21875 1.0001,1.0001 0 0 0 0.0313,0.1875 1.0001,1.0001 0 0 0 0.0313,0.0937 1.0001,1.0001 0 0 0 0.0313,0.0937 1.0001,1.0001 0 0 0 0.0937,0.15625 1.0001,1.0001 0 0 0 0.125,0.1875 c 2.45962,3.83768 3.26839,5.42119 5.09375,10.125 a 1.0001,1.0001 0 0 0 1.4375,0.53125 l 3.65625,-2.03125 a 1.0001,1.0001 0 0 0 0.4375,-1.28125 c -1.95573,-4.27363 -3.04315,-6.09507 -5.71875,-10 a 1.0001,1.0001 0 0 0 -0.9375,-0.4375 z m -36.15625,0.0625 a 1.0001,1.0001 0 0 0 -0.0937,0.0313 1.0001,1.0001 0 0 0 -0.1875,0.0937 1.0001,1.0001 0 0 0 -0.0937,0.0313 1.0001,1.0001 0 0 0 -0.125,0.125 1.0001,1.0001 0 0 0 -0.0937,0.0937 1.0001,1.0001 0 0 0 -0.0313,0.0625 1.0001,1.0001 0 0 0 -0.0313,0.0313 1.0001,1.0001 0 0 0 -0.0313,0.0625 1.0001,1.0001 0 0 0 -0.0625,0.15625 1.0001,1.0001 0 0 0 -0.0313,0.125 c -2.3326,7.17826 -4.16235,10.48653 -8.6875,15.71875 a 1.0001,1.0001 0 0 0 0.25,1.53125 l 4.625,2.59375 a 1.0001,1.0001 0 0 0 1.3125,-0.28125 c 3.85202,-5.52364 5.85203,-9.58584 8.53125,-17.40625 a 1.0001,1.0001 0 0 0 -0.5625,-1.25 l -3.90625,-1.5625 a 1.0001,1.0001 0 0 0 -0.0625,-0.0313 l -0.0313,-0.0313 a 1.0001,1.0001 0 0 0 -0.28125,-0.0937 1.0001,1.0001 0 0 0 -0.0937,0 1.0001,1.0001 0 0 0 -0.0313,0 1.0001,1.0001 0 0 0 -0.0625,0 1.0001,1.0001 0 0 0 -0.0313,0 1.0001,1.0001 0 0 0 -0.0625,0 1.0001,1.0001 0 0 0 -0.125,0 z m 24.9375,0.65625 a 1.0001,1.0001 0 0 0 -0.15625,0.0313 l -3.46875,1.03125 -0.0937,0 a 1.0001,1.0001 0 0 0 -0.46875,0.15625 1.0001,1.0001 0 0 0 -0.15625,0.125 1.0001,1.0001 0 0 0 -0.0625,0.0625 1.0001,1.0001 0 0 0 -0.125,0.1875 1.0001,1.0001 0 0 0 -0.0625,0.1875 1.0001,1.0001 0 0 0 -0.0313,0.0937 1.0001,1.0001 0 0 0 0,0.40625 1.0001,1.0001 0 0 0 0.0625,0.1875 1.0001,1.0001 0 0 0 0.0313,0.0625 1.0001,1.0001 0 0 0 0.0625,0.0937 c 2.17059,4.35413 3.12108,7.04434 4.46875,12.71875 a 1.0001,1.0001 0 0 0 1.34375,0.6875 l 4.15625,-1.5625 a 1.0001,1.0001 0 0 0 0.59375,-1.21875 c -1.59273,-5.35738 -2.69719,-8.21611 -5.09375,-12.71875 a 1.0001,1.0001 0 0 0 -1,-0.53125 z m -11.15625,0.5 -3.90625,0.6875 -0.1875,0.0313 a 1.0001,1.0001 0 0 0 -0.375,0.15625 1.0001,1.0001 0 0 0 -0.0937,0.0625 1.0001,1.0001 0 0 0 -0.0625,0.0625 1.0001,1.0001 0 0 0 -0.125,0.125 1.0001,1.0001 0 0 0 0,0.0313 1.0001,1.0001 0 0 0 -0.0937,0.15625 1.0001,1.0001 0 0 0 -0.0625,0.1875 1.0001,1.0001 0 0 0 -0.0313,0.1875 1.0001,1.0001 0 0 0 0,0.125 1.0001,1.0001 0 0 0 0.0313,0.15625 1.0001,1.0001 0 0 0 0.0313,0.125 c 1.25717,4.84968 1.83291,8.69068 2.1875,14.71875 a 1.0001,1.0001 0 0 0 1.1875,0.9375 l 4.53125,-0.9375 a 1.0001,1.0001 0 0 0 0.8125,-1.0625 c -0.5785,-6.29122 -1.09776,-9.07457 -2.6875,-15 a 1.0001,1.0001 0 0 0 -1.15625,-0.75 z"
           id="path5703"
           inkscape:connector-curvature="0" />
      </g>
      <path
         style="stroke:none"
         inkscape:connector-curvature="0"
         d="m 536.65179,611.84436 c -11.625,0 -19.78123,-2.3438 -24.46873,-7.0313 -4.6875,-4.6875 -7.0313,-10.4062 -7.0313,-17.1562 0,-21.75003 13.4063,-91.87503 40.21873,-210.37503 2.06253,-8.81253 6.0938,-15.25783 12.0938,-19.3359 6,-4.07813 12.93749,-7.19533 20.81249,-9.3516 l 53.4375,-18 53.4375,18 c 7.875,2.15627 14.8125,5.27347 20.8125,9.3516 6,4.07807 10.03127,10.52337 12.0938,19.3359 26.81247,118.5 40.2187,188.625 40.2187,210.37503 0,6.75 -2.34377,12.4687 -7.0313,17.1562 -4.68747,4.6875 -12.8437,7.0313 -24.4687,7.0313 z m 0,-15.75 190.12499,0 c 4.125,0 7.5,-0.6563 10.125,-1.9687 2.625,-1.3126 3.9375,-3.4688 3.9375,-6.4688 0,-19.125 -12.9375,-87.37503 -38.8125,-204.75003 -1.5,-6 -3.58593,-10.7578 -6.2578,-14.2734 -2.67187,-3.51567 -7.71093,-6.44537 -15.1172,-8.7891 l -48.9375,-16.3125 -48.9375,16.3125 c -7.40627,2.34373 -12.44533,5.27343 -15.11719,8.7891 -2.67187,3.5156 -4.7578,8.4609 -6.2578,14.8359 -25.875,117 -38.81253,185.06253 -38.81253,204.18753 0,3 1.31253,5.1562 3.93753,6.4688 2.625,1.3124 6,1.9687 10.125,1.9687 z"
         id="path5944"
         sodipodi:nodetypes="scscscccscscsssscscscccscscs" />
    </g>
  </g>
</svg>
