<!-- Created with Inkscape (http://www.inkscape.org/) -->
<svg xmlns:rdf="http://www.w3.org/1999/02/22-rdf-syntax-ns#" xmlns="http://www.w3.org/2000/svg" height="262.56" width="228.25" viewBox="0 0 228.25 262.56" version="1.1" xmlns:cc="http://creativecommons.org/ns#" xmlns:xlink="http://www.w3.org/1999/xlink" xmlns:dc="http://purl.org/dc/elements/1.1/">
<defs></defs>
<metadata>
<rdf:RDF>
<cc:Work rdf:about="">
<dc:format>image/svg+xml</dc:format>
<dc:type rdf:resource="http://purl.org/dc/dcmitype/StillImage"/>
<dc:title/>
</cc:Work>
</rdf:RDF>
</metadata>
<g transform="translate(-537.58923,-358.53183)">
<path stroke-linejoin="round" d="m556.65,616.09,190.12,0c4.125,0,7.5-0.6563,10.125-1.9687,2.625-1.3126,3.9375-3.4688,3.9375-6.4688,0-19.125-12.938-87.375-38.812-204.75-1.5-6-3.5859-10.758-6.2578-14.273-2.6719-3.5157-7.7109-6.4454-15.117-8.7891l-48.938-16.312-48.938,16.312c-7.4063,2.3437-12.445,5.2734-15.117,8.7891-2.6719,3.5156-4.7578,8.4609-6.2578,14.836-25.875,117-38.813,185.06-38.813,204.19,0,3,1.3125,5.1562,3.9375,6.4688,2.625,1.3124,6,1.9687,10.125,1.9687z" stroke="#000" stroke-linecap="round" stroke-miterlimit="4" stroke-dasharray="none" stroke-width="10" fill="#FFF"/>
<use xlink:href="#lance" transform="matrix(-4,0,0,-4,42,80)" height="100.5" width="100.5" y="0" x="0"/>
<use xlink:href="#lance" transform="matrix(-4,0,0,-4,42,80)" height="100.5" width="100.5" y="0" x="0"/>
<use xlink:href="#lance" transform="matrix(-4,0,0,-4,42,80)" height="100.5" width="100.5" y="0" x="0"/>
<path fill="#000" d="m632.52,380.6a0.89583,0.89583,0,0,0,-0.81177,1.0637c0.24427,1.4045,0.30791,2.8652,0.30791,6.4661v5.3185h-3.6669c-2.1752,0-3.5576-0.0792-4.4787-0.25192a0.89583,0.89583,0,0,0,-1.0637,0.86775v4.0868a0.89583,0.89583,0,0,0,1.0357,0.86774c1.0706-0.17844,2.5078-0.25192,4.4227-0.25192h2.8552c-0.69671,2.8294-1.8407,6.464-3.1631,9.7412-1.8445,4.3887-3.921,7.9733-6.4381,11.057a0.89583,0.89583,0,0,0,0.056,1.2036c1.0467,1.0467,1.6335,1.8406,2.5193,3.359a0.89583,0.89583,0,0,0,1.4836,0.0839c1.9043-2.6267,3.1158-4.8522,4.6746-8.2296,0.77488-1.6933,1.3395-3.1593,1.8755-4.7026-0.0243,0.97972-0.11197,2.4911-0.11197,3.303v18.307c0,3.3307-0.11373,5.5482-0.36389,7.3619a0.89583,0.89583,0,0,0,0.89574,1.0357h4.7586a0.89583,0.89583,0,0,0,0.89575,-1.0357c-0.24953-1.7466-0.39189-3.9014-0.39189-7.3619v-19.594c0-1.8892-0.10054-3.8248-0.16795-5.7943,0.96662,2.073,2.0066,4.057,3.415,6.3262a0.89583,0.89583,0,0,0,1.5396,-0.028c0.88655-1.5831,1.3142-2.1819,2.2394-3.1071a0.89583,0.89583,0,0,0,0.22393,-0.86775,0.89583,0.89583,0,0,0,0,-0.028c1.4788-0.12474,2.8994-0.19595,5.0945-0.19595h24.185c2.2886,0,4.1761,0.14408,6.1582,0.3359a0.89583,0.89583,0,0,0,0.97972,-0.89574v-4.2548a0.89583,0.89583,0,0,0,-0.97972,-0.89574c-1.8458,0.19096-3.8043,0.30791-6.1582,0.30791h-10.469v-7.9217h8.5095c2.8241,0,4.2445,0.0576,5.9343,0.30791a0.89583,0.89583,0,0,0,1.0357,-0.89574v-4.3108a0.89583,0.89583,0,0,0,-1.0637,-0.89574c-1.6066,0.30895-2.9526,0.36389-5.9063,0.36389h-8.5095v-2.1834c0-3.795,0.0604-5.3962,0.36389-6.914a0.89583,0.89583,0,0,0,-0.86775,-1.0917h-4.7866a0.89583,0.89583,0,0,0,-0.86775,1.0637c0.30988,1.7353,0.36389,3.2764,0.36389,6.942v2.1834h-6.3262c-2.8241,0-4.2351-0.0576-5.7663-0.36389a0.89583,0.89583,0,0,0,-1.0637,0.89574v4.3108a0.89583,0.89583,0,0,0,1.0357,0.89574c1.6171-0.24879,3.0998-0.30791,5.7943-0.30791h6.3262v7.9217h-7.9217c-2.2886,0-4.3264-0.11763-6.1022-0.30791a0.89583,0.89583,0,0,0,-1.0077,0.89574v2.0434c-1.836-2.6029-3.306-5.1677-4.4787-8.0617h0.67181c1.5229,0,2.7042,0.0684,4.1708,0.19595a0.89583,0.89583,0,0,0,0.97972,-0.89574v-4.0028a0.89583,0.89583,0,0,0,-1.0357,-0.86775c-1.1696,0.18467-2.2651,0.25193-4.1148,0.25193h-1.4276v-5.3744c0-3.148,0.0628-4.9058,0.30791-6.4381a0.89583,0.89583,0,0,0,-0.86775,-1.0357h-4.6467a0.89583,0.89583,0,0,0,-0.0839,0zm25.921,29.475a0.89583,0.89583,0,0,0,-0.81177,1.0077c0.25359,1.8386,0.39189,3.4523,0.39189,6.7181v0.0839h-7.3059c-2.8889,0-4.3732-0.0591-5.9903-0.30791a0.89583,0.89583,0,0,0,-1.0357,0.86774v4.2548a0.89583,0.89583,0,0,0,1.0077,0.89574c1.8423-0.19059,3.2589-0.25193,6.0183-0.25193h7.3059v9.4893h-10.329c-2.4193,0-4.5246-0.11788-6.2982-0.30791a0.89583,0.89583,0,0,0,-0.97971,0.89574v4.3947a0.89583,0.89583,0,0,0,1.0077,0.86775c1.8275-0.25207,3.7203-0.3639,6.2702-0.3639h27.152c2.4846,0,4.4454,0.11221,6.2702,0.3639a0.89583,0.89583,0,0,0,1.0077,-0.86775v-4.3947a0.89583,0.89583,0,0,0,-0.97972,-0.89574c-1.8437,0.19073-3.8789,0.30791-6.2982,0.30791h-10.973v-9.4893h8.7055c2.6945,0,4.079,0.0608,5.9903,0.25193a0.89583,0.89583,0,0,0,0.97972,-0.89574v-4.2548a0.89583,0.89583,0,0,0,-1.0357,-0.86774c-1.6171,0.24879-3.1102,0.30791-5.9343,0.30791h-8.7055v-0.0839c0-3.4069,0.0622-5.1534,0.36389-6.6621a0.89583,0.89583,0,0,0,-0.86775,-1.0637h-4.8426a0.89583,0.89583,0,0,0,-0.0839,0zm-27.152,38.517a0.89583,0.89583,0,0,0,-0.72779,0.97971c0.19055,1.9054,0.25193,3.4802,0.25193,5.8503v21.974c0,3.148-0.0677,4.324-0.19594,5.9903a0.89583,0.89583,0,0,0,0.95172,0.97972c1.5212-0.12677,3.1236-0.19595,5.0386-0.19595h36.921c-0.41932,4.6669-0.86485,7.7773-1.8755,12.176a0.89583,0.89583,0,0,0,0,0.028c-0.31175,1.5276-0.64598,2.2366-1.0077,2.5473-0.36173,0.31072-1.0104,0.47587-2.4353,0.47587-1.9415,0-4.0265-0.17711-6.5781-0.55984a0.89583,0.89583,0,0,0,-0.97971,1.2036c0.69132,1.7598,0.91919,2.6993,0.97971,4.0308a0.89583,0.89583,0,0,0,0.83976,0.86775c2.4507,0.12898,3.7102,0.19594,5.3465,0.19594,2.6879,0,4.4931-0.1648,5.9063-0.89574,1.4132-0.73095,2.2193-2.0394,2.7992-3.7789a0.89583,0.89583,0,0,0,0,-0.028c1.1252-3.4418,1.8465-7.4282,2.6872-15.06,0.58043-5.0305,0.57081-5.0119,0.6998-5.8503a0.89583,0.89583,0,0,0,-1.0077,-1.0077c-1.1552,0.18241-2.4504,0.25193-5.5984,0.25193h-17.299v-4.8426h10.917c3.0185,0,4.164,0.055,5.9343,0.30792a0.89583,0.89583,0,0,0,1.0077,-0.89575v-4.1148a0.89583,0.89583,0,0,0,-1.0357,-0.89574c-1.712,0.25363-2.6288,0.30791-5.9063,0.30791h-10.917v-4.3947h10.833c3.2127,0,4.3718,0.0557,6.0742,0.30791a0.89583,0.89583,0,0,0,1.0077,-0.89574v-4.1148a0.89583,0.89583,0,0,0,-1.0077,-0.89574c-1.6274,0.25036-2.9175,0.3359-6.1302,0.3359h-10.777v-4.6187h13.996c2.9537,0,4.1132,0.0819,6.0183,0.3359a0.89583,0.89583,0,0,0,1.0077,-0.89574v-4.3108a0.89583,0.89583,0,0,0,-1.0077,-0.89574c-1.8158,0.25045-3.5229,0.30791-6.6061,0.30791h-31.323c-3.0185,0-4.8514-0.0604-6.5221-0.30791a0.89583,0.89583,0,0,0,-0.27992,0zm5.2905,5.7663,13.828,0,0,4.6187-13.828,0,0-4.6187zm0,9.8811,13.828,0,0,4.3947-13.828,0,0-4.3947zm0,9.6852,13.828,0,0,4.8426-13.828,0,0-4.8426zm27.124,10.973a0.89583,0.89583,0,0,0,-0.22393,0.056l-2.7712,1.1477-0.11197,0.028a0.89583,0.89583,0,0,0,-0.22393,0.0839,0.89583,0.89583,0,0,0,-0.028,0,0.89583,0.89583,0,0,0,-0.13996,0.11197,0.89583,0.89583,0,0,0,-0.056,0.028,0.89583,0.89583,0,0,0,-0.056,0.0839,0.89583,0.89583,0,0,0,-0.056,0.056,0.89583,0.89583,0,0,0,0,0.028,0.89583,0.89583,0,0,0,-0.056,0.056,0.89583,0.89583,0,0,0,-0.028,0.0839,0.89583,0.89583,0,0,0,-0.028,0.0839,0.89583,0.89583,0,0,0,-0.028,0.0839,0.89583,0.89583,0,0,0,-0.028,0.19594,0.89583,0.89583,0,0,0,0.028,0.16795,0.89583,0.89583,0,0,0,0.028,0.0839,0.89583,0.89583,0,0,0,0.028,0.0839,0.89583,0.89583,0,0,0,0.0839,0.13996,0.89583,0.89583,0,0,0,0.11197,0.16795c2.2032,3.4376,2.9276,4.856,4.5627,9.0694a0.89583,0.89583,0,0,0,1.2876,0.47586l3.275-1.8195a0.89583,0.89583,0,0,0,0.39189,-1.1477c-1.7518-3.8281-2.7259-5.4596-5.1225-8.9574a0.89583,0.89583,0,0,0,-0.83976,-0.39189zm-32.387,0.056a0.89583,0.89583,0,0,0,-0.0839,0.028,0.89583,0.89583,0,0,0,-0.16795,0.0839,0.89583,0.89583,0,0,0,-0.0839,0.028,0.89583,0.89583,0,0,0,-0.11197,0.11197,0.89583,0.89583,0,0,0,-0.0839,0.0839,0.89583,0.89583,0,0,0,-0.028,0.056,0.89583,0.89583,0,0,0,-0.028,0.028,0.89583,0.89583,0,0,0,-0.028,0.056,0.89583,0.89583,0,0,0,-0.056,0.13996,0.89583,0.89583,0,0,0,-0.028,0.11197c-2.0894,6.4299-3.7284,9.3932-7.7818,14.08a0.89583,0.89583,0,0,0,0.22394,1.3716l4.1428,2.3233a0.89583,0.89583,0,0,0,1.1757,-0.25192c3.4504-4.9478,5.2419-8.5864,7.6418-15.592a0.89583,0.89583,0,0,0,-0.50385,-1.1197l-3.499-1.3996a0.89583,0.89583,0,0,0,-0.056,-0.028l-0.028-0.028a0.89583,0.89583,0,0,0,-0.25193,-0.0839,0.89583,0.89583,0,0,0,-0.0839,0,0.89583,0.89583,0,0,0,-0.028,0,0.89583,0.89583,0,0,0,-0.056,0,0.89583,0.89583,0,0,0,-0.028,0,0.89583,0.89583,0,0,0,-0.056,0,0.89583,0.89583,0,0,0,-0.11197,0zm22.338,0.58783a0.89583,0.89583,0,0,0,-0.13996,0.028l-3.1071,0.92374h-0.0839a0.89583,0.89583,0,0,0,-0.41988,0.13996,0.89583,0.89583,0,0,0,-0.13996,0.11196,0.89583,0.89583,0,0,0,-0.056,0.056,0.89583,0.89583,0,0,0,-0.11196,0.16795,0.89583,0.89583,0,0,0,-0.056,0.16795,0.89583,0.89583,0,0,0,-0.028,0.0839,0.89583,0.89583,0,0,0,0,0.3639,0.89583,0.89583,0,0,0,0.056,0.16795,0.89583,0.89583,0,0,0,0.028,0.056,0.89583,0.89583,0,0,0,0.056,0.0839c1.9443,3.9002,2.7957,6.3099,4.0028,11.393a0.89583,0.89583,0,0,0,1.2037,0.61582l3.7229-1.3996a0.89583,0.89583,0,0,0,0.53185,-1.0917c-1.4267-4.7988-2.416-7.3595-4.5627-11.393a0.89583,0.89583,0,0,0,-0.89575,-0.47586zm-9.9931,0.44787-3.499,0.61582-0.16795,0.028a0.89583,0.89583,0,0,0,-0.33591,0.13996,0.89583,0.89583,0,0,0,-0.0839,0.056,0.89583,0.89583,0,0,0,-0.056,0.056,0.89583,0.89583,0,0,0,-0.11197,0.11197,0.89583,0.89583,0,0,0,0,0.028,0.89583,0.89583,0,0,0,-0.0839,0.13996,0.89583,0.89583,0,0,0,-0.056,0.16795,0.89583,0.89583,0,0,0,-0.028,0.16795,0.89583,0.89583,0,0,0,0,0.11197,0.89583,0.89583,0,0,0,0.028,0.13996,0.89583,0.89583,0,0,0,0.028,0.11197c1.1261,4.344,1.6418,7.7846,1.9594,13.184a0.89583,0.89583,0,0,0,1.0637,0.83976l4.0588-0.83976a0.89583,0.89583,0,0,0,0.72779,-0.95172c-0.51819-5.6353-0.98331-8.1285-2.4073-13.436a0.89583,0.89583,0,0,0,-1.0357,-0.6718z"/>
<path fill-rule="evenodd" style="baseline-shift:baseline;block-progression:tb;color:#000000;direction:ltr;text-indent:0;text-align:start;enable-background:accumulate;text-transform:none;" fill="#000" d="m615.75,520.49,0.96096,2.2059,8.8234,20.53,0.96096,2.2277,1.4414-1.9438,2.7082-3.6254c6.5642,8.0134,10.656,19.542,12.82,30.096,2.7346,13.332,2.6426,24.526,2.6426,24.526l-0.0218,1.4196h0.0437v0.1092l1.4196-0.0218,4.1496-0.0437h0.0437l4.1278,0.0437,1.4196,0.0218v-0.1092h0.0437l-0.0219-1.4196s-0.0919-11.194,2.6426-24.526c2.1646-10.554,6.2559-22.082,12.82-30.096l2.7082,3.6254,1.4414,1.9438,0.96097-2.2277,8.8234-20.53,0.96097-2.2059-2.4024,0.26208-22.19,2.599-2.4243,0.28392,1.4633,1.9438,3.8002,5.0887c-7.0661,7.5621-11.361,17.206-14.196,26.667-2.8389-9.4658-7.1477-19.102-14.218-26.667l3.822-5.0887,1.4633-1.9438-2.4243-0.28392-22.211-2.599-2.4024-0.26208z"/>
</g>
</svg>
