<?xml version="1.0" encoding="UTF-8" standalone="no"?>
<!-- Created with Inkscape (http://www.inkscape.org/) -->

<svg
   xmlns:dc="http://purl.org/dc/elements/1.1/"
   xmlns:cc="http://creativecommons.org/ns#"
   xmlns:rdf="http://www.w3.org/1999/02/22-rdf-syntax-ns#"
   xmlns:svg="http://www.w3.org/2000/svg"
   xmlns="http://www.w3.org/2000/svg"
   xmlns:xlink="http://www.w3.org/1999/xlink"
   xmlns:sodipodi="http://sodipodi.sourceforge.net/DTD/sodipodi-0.dtd"
   xmlns:inkscape="http://www.inkscape.org/namespaces/inkscape"
   width="228.25002"
   height="262.56253"
   id="svg2"
   version="1.1"
   inkscape:version="0.48.4 r9939"
   inkscape:export-filename="shogi-king.png"
   inkscape:export-xdpi="300.16"
   inkscape:export-ydpi="300.16"
   sodipodi:docname="lance.svg">
  <defs
     id="defs4">
    <marker
       inkscape:stockid="TriangleOutL"
       orient="auto"
       refY="0"
       refX="0"
       id="TriangleOutL"
       style="overflow:visible">
      <path
         id="path4284"
         d="m 5.77,0 -8.65,5 0,-10 8.65,5 z"
         style="fill-rule:evenodd;stroke:#000000;stroke-width:1pt"
         transform="scale(0.8,0.8)"
         inkscape:connector-curvature="0" />
    </marker>
    <marker
       inkscape:stockid="Arrow2Mstart"
       orient="auto"
       refY="0"
       refX="0"
       id="Arrow2Mstart"
       style="overflow:visible">
      <path
         id="path4166"
         style="fill-rule:evenodd;stroke-width:0.625;stroke-linejoin:round"
         d="M 8.7185878,4.0337352 -2.2072895,0.01601326 8.7185884,-4.0017078 c -1.7454984,2.3720609 -1.7354408,5.6174519 -6e-7,8.035443 z"
         transform="scale(0.6,0.6)"
         inkscape:connector-curvature="0" />
    </marker>
    <marker
       inkscape:stockid="Arrow2Lend"
       orient="auto"
       refY="0"
       refX="0"
       id="Arrow2Lend"
       style="overflow:visible">
      <path
         id="path4163"
         style="fill-rule:evenodd;stroke-width:0.625;stroke-linejoin:round"
         d="M 8.7185878,4.0337352 -2.2072895,0.01601326 8.7185884,-4.0017078 c -1.7454984,2.3720609 -1.7354408,5.6174519 -6e-7,8.035443 z"
         transform="matrix(-1.1,0,0,-1.1,-1.1,0)"
         inkscape:connector-curvature="0" />
    </marker>
    <marker
       inkscape:stockid="Arrow2Lstart"
       orient="auto"
       refY="0"
       refX="0"
       id="Arrow2Lstart"
       style="overflow:visible">
      <path
         id="path4160"
         style="fill-rule:evenodd;stroke-width:0.625;stroke-linejoin:round"
         d="M 8.7185878,4.0337352 -2.2072895,0.01601326 8.7185884,-4.0017078 c -1.7454984,2.3720609 -1.7354408,5.6174519 -6e-7,8.035443 z"
         transform="matrix(1.1,0,0,1.1,1.1,0)"
         inkscape:connector-curvature="0" />
    </marker>
    <marker
       inkscape:stockid="TriangleInL"
       orient="auto"
       refY="0"
       refX="0"
       id="TriangleInL"
       style="overflow:visible">
      <path
         id="path4275"
         d="m 5.77,0 -8.65,5 0,-10 8.65,5 z"
         style="fill-rule:evenodd;stroke:#000000;stroke-width:1pt"
         transform="scale(-0.8,-0.8)"
         inkscape:connector-curvature="0" />
    </marker>
    <marker
       inkscape:stockid="Arrow1Lstart"
       orient="auto"
       refY="0"
       refX="0"
       id="Arrow1Lstart"
       style="overflow:visible">
      <path
         id="path4482"
         d="M 0,0 5,-5 -12.5,0 5,5 0,0 z"
         style="fill-rule:evenodd;stroke:#000000;stroke-width:1pt"
         transform="matrix(0.8,0,0,0.8,10,0)"
         inkscape:connector-curvature="0" />
    </marker>
  </defs>
  <sodipodi:namedview
     id="base"
     pagecolor="#ffffff"
     bordercolor="#666666"
     borderopacity="1.0"
     inkscape:pageopacity="0.0"
     inkscape:pageshadow="2"
     inkscape:zoom="0.7"
     inkscape:cx="117.07008"
     inkscape:cy="-96.75558"
     inkscape:document-units="px"
     inkscape:current-layer="layer1"
     showgrid="false"
     inkscape:window-width="1920"
     inkscape:window-height="1056"
     inkscape:window-x="1280"
     inkscape:window-y="24"
     inkscape:window-maximized="1"
     showguides="true"
     inkscape:guide-bbox="true"
     inkscape:object-paths="true"
     inkscape:snap-nodes="true"
     fit-margin-top="0"
     fit-margin-left="0"
     fit-margin-right="0"
     fit-margin-bottom="0" />
  <metadata
     id="metadata7">
    <rdf:RDF>
      <cc:Work
         rdf:about="">
        <dc:format>image/svg+xml</dc:format>
        <dc:type
           rdf:resource="http://purl.org/dc/dcmitype/StillImage" />
        <dc:title />
      </cc:Work>
    </rdf:RDF>
  </metadata>
  <g
     inkscape:label="Layer 1"
     inkscape:groupmode="layer"
     id="layer1"
     transform="translate(-277.58926,-358.53183)">
    <path
       style="fill:#ffffff;fill-opacity:1;stroke:#000000;stroke-width:10;stroke-linecap:round;stroke-linejoin:round;stroke-miterlimit:4;stroke-opacity:1;stroke-dasharray:none"
       d="m 296.65179,616.09436 190.12499,0 c 4.125,0 7.5,-0.6563 10.125,-1.9687 2.625,-1.3126 3.9375,-3.4688 3.9375,-6.4688 0,-19.125 -12.9375,-87.37503 -38.8125,-204.75003 -1.5,-6 -3.58593,-10.7578 -6.2578,-14.2734 -2.67187,-3.51567 -7.71093,-6.44537 -15.1172,-8.7891 l -48.9375,-16.3125 -48.9375,16.3125 c -7.40627,2.34373 -12.44533,5.27343 -15.11719,8.7891 -2.67187,3.5156 -4.7578,8.4609 -6.2578,14.8359 -25.875,117 -38.81253,185.06253 -38.81253,204.18753 0,3 1.31253,5.1562 3.93753,6.4688 2.625,1.3124 6,1.9687 10.125,1.9687 z"
       id="path5942"
       inkscape:connector-curvature="0" />
    <use
       height="100.5"
       width="100.5"
       id="use3189"
       transform="matrix(-4,0,0,-4,42,80)"
       y="0"
       x="0"
       xlink:href="#lance" />
    <use
       height="100.5"
       width="100.5"
       id="use3189-0"
       transform="matrix(-4,0,0,-4,42,80)"
       y="0"
       x="0"
       xlink:href="#lance" />
    <use
       height="100.5"
       width="100.5"
       id="use3189-9"
       transform="matrix(-4,0,0,-4,42,80)"
       y="0"
       x="0"
       xlink:href="#lance" />
    <path
       inkscape:connector-curvature="0"
       style="font-size:72px;font-style:normal;font-variant:normal;font-weight:300;font-stretch:normal;line-height:100%;letter-spacing:0px;word-spacing:0px;fill:#000000;fill-opacity:1;stroke:none;font-family:Hiragino Kaku Gothic Pro;-inkscape-font-specification:Hiragino Kaku Gothic Pro Light"
       d="m 410.53239,380.60078 a 0.89583068,0.89583068 0 0 0 -0.22393,0.084 c -0.88456,0.35382 -2.39823,0.77791 -5.01055,1.28763 -9.2762,1.85524 -20.96838,2.96714 -31.74283,2.96714 -1.03189,0 -2.70251,-0.0197 -5.40244,-0.084 a 0.89583068,0.89583068 0 0 0 -0.75578,1.3996 c 0.78242,1.14355 1.18471,2.14113 1.62353,3.58296 a 0.89583068,0.89583068 0 0 0 0.86775,0.61583 c 7.4177,-0.0613 11.37194,-0.26971 18.30671,-0.83976 l 0,4.73063 -17.49494,0 c -3.1358,0 -5.22034,-0.14194 -6.96999,-0.39188 a 0.89583068,0.89583068 0 0 0 -1.00771,0.89574 l 0,4.33874 a 0.89583068,0.89583068 0 0 0 1.00771,0.86775 c 1.88828,-0.25176 3.97328,-0.36389 6.914,-0.36389 l 12.56837,0 c -5.07546,4.61815 -12.70016,8.93082 -20.82598,11.44869 a 0.89583068,0.89583068 0 0 0 -0.41988,1.42759 c 1.54918,1.87192 1.48903,1.77439 2.32333,3.443 a 0.89583068,0.89583068 0 0 0 1.11967,0.44787 c 2.22367,-0.84443 4.24243,-1.76399 6.21421,-2.71521 0.1235,1.6207 0.19594,2.76197 0.19594,5.73834 l 0,14.24788 c 0,2.94072 -0.1394,4.64276 -0.39188,6.41015 a 0.89583068,0.89583068 0 0 0 0.89574,1.00771 l 4.28276,0 a 0.89583068,0.89583068 0 0 0 0.25193,0 0.89583068,0.89583068 0 0 0 0.41987,-0.13996 0.89583068,0.89583068 0 0 0 0.19595,-0.19595 0.89583068,0.89583068 0 0 0 0.056,-0.056 0.89583068,0.89583068 0 0 0 0.056,-0.0839 0.89583068,0.89583068 0 0 0 0.056,-0.16795 0.89583068,0.89583068 0 0 0 0.028,-0.16796 0.89583068,0.89583068 0 0 0 0,-0.0839 0.89583068,0.89583068 0 0 0 0,-0.19594 l 0,-2.63124 27.60002,0 0,2.82718 a 0.89583068,0.89583068 0 0 0 0.89574,0.89574 l 4.39473,0 a 0.89583068,0.89583068 0 0 0 0.89574,-1.0357 c -0.25115,-1.63248 -0.39189,-3.24636 -0.39189,-6.38215 l 0,-14.24788 c 0,-3.21904 0.0881,-4.40506 0.22394,-5.99027 2.15026,0.96201 4.3531,1.85988 6.85802,2.71521 a 0.89583068,0.89583068 0 0 0 1.09164,-0.47595 c 0.75725,-1.70381 1.22823,-2.42381 2.23935,-3.75091 a 0.89583068,0.89583068 0 0 0 -0.50385,-1.42759 c -8.08896,-2.05072 -16.53546,-6.31113 -22.00165,-10.86086 l 12.76432,0 c 3.1358,0 5.20907,0.11139 7.16592,0.36389 a 0.89583068,0.89583068 0 0 0 1.00771,-0.86775 l 0,-4.33874 a 0.89583068,0.89583068 0 0 0 -1.0357,-0.86775 c -1.67312,0.24787 -3.88117,0.36389 -7.08195,0.36389 l -17.94282,0 0,-5.23448 c 4.14684,-0.40288 13.14088,-1.64866 17.35499,-2.46329 0.0285,-0.004 0.0287,0.004 0.056,0 1.27176,-0.1817 1.34766,-0.20248 2.54727,-0.39189 a 0.89583068,0.89583068 0 0 0 0.55983,-1.42759 l -3.02312,-3.89087 a 0.89583068,0.89583068 0 0 0 -0.81177,-0.33591 z m -16.79514,21.24586 c 2.98703,3.00293 5.96088,5.45052 10.30102,7.9777 a 0.89583068,0.89583068 0 0 0 0.028,0 c 1.21365,0.70084 2.37763,1.23975 3.55497,1.84746 -1.23783,0.0598 -2.28804,0.13996 -4.1428,0.13996 l -23.98907,0 c -1.79517,0 -2.78449,-0.0868 -3.97485,-0.13996 1.22053,-0.68079 2.45142,-1.30943 3.66694,-2.0714 3.83946,-2.50631 6.51659,-4.85135 9.09737,-7.6138 -0.0197,0.43929 -0.0839,0.99205 -0.0839,1.37161 l 0,2.65923 c 0,2.04513 -0.0668,3.2453 -0.30791,4.45071 a 0.89583068,0.89583068 0 0 0 0.86775,1.09169 l 4.53469,0 a 0.89583068,0.89583068 0 0 0 0.86775,-1.09169 c -0.23938,-1.13702 -0.30792,-2.28454 -0.30792,-4.39473 l 0,-2.71521 c 0,-0.34877 -0.0872,-1.07583 -0.11196,-1.51157 z m -16.12334,15.25559 27.656,0 0,4.64666 -27.656,0 0,-4.64666 z m 0,9.93713 27.656,0 0,5.09453 -27.656,0 0,-5.09453 z m 10.83287,18.19474 a 0.89583068,0.89583068 0 0 0 -0.6998,1.0357 c 0.31113,1.80461 0.44559,3.41762 0.44787,5.99027 l -17.69089,0 c -2.87565,0 -4.669,-0.13695 -6.41015,-0.44787 a 0.89583068,0.89583068 0 0 0 -1.06369,0.89574 l 0,4.45072 a 0.89583068,0.89583068 0 0 0 1.0357,0.89574 c 1.82199,-0.25131 3.83229,-0.39189 6.38216,-0.39189 l 17.74687,0 0,3.75092 -11.4207,0 c -3.73031,0 -5.48924,-0.0622 -6.99798,-0.3639 a 0.89583068,0.89583068 0 0 0 -1.06369,0.95173 c 0.19229,2.05112 0.25193,3.15568 0.25193,6.88601 l 0,9.93713 c 0,3.66563 -0.0598,4.76084 -0.25193,6.74605 a 0.89583068,0.89583068 0 0 0 1.0357,0.97971 c 1.54426,-0.24708 3.48419,-0.39188 7.33388,-0.39188 l 11.11279,0 0,3.94686 -18.19474,0 c -3.07079,0 -4.80693,-0.11157 -6.41015,-0.41988 a 0.89583068,0.89583068 0 0 0 -1.06369,0.86775 l 0,4.53469 a 0.89583068,0.89583068 0 0 0 1.0357,0.86774 c 1.67947,-0.24881 3.75787,-0.36389 6.43814,-0.36389 l 18.19474,0 0,2.18337 c 0,3.34216 -0.0691,4.7328 -0.44787,6.94199 a 0.89583068,0.89583068 0 0 0 0.89574,1.06369 l 4.8426,0 a 0.89583068,0.89583068 0 0 0 0.86775,-1.06369 c -0.37595,-2.00509 -0.44787,-3.40572 -0.44787,-6.94199 l 0,-2.18337 19.17446,0 c 2.68028,0 4.64439,0.11077 6.60609,0.36389 a 0.89583068,0.89583068 0 0 0 1.00771,-0.86774 l 0,-4.53469 a 0.89583068,0.89583068 0 0 0 -1.09169,-0.86775 c -1.53125,0.30625 -3.25637,0.41988 -6.52211,0.41988 l -19.17446,0 0,-3.94686 12.20447,0 c 3.78487,0 5.67397,0.14421 7.22191,0.39188 a 0.89583068,0.89583068 0 0 0 1.0357,-0.97971 c -0.19245,-2.05285 -0.25192,-3.08042 -0.25192,-6.74605 l 0,-10.13308 c 0,-3.60096 0.0595,-4.63721 0.25192,-6.69006 a 0.89583068,0.89583068 0 0 0 -1.06369,-0.95173 c -1.58563,0.30493 -3.27828,0.3639 -7.13793,0.3639 l -12.26046,0 0,-3.75092 18.53064,0 c 2.54988,0 4.49253,0.13819 6.52212,0.39189 a 0.89583068,0.89583068 0 0 0 1.00771,-0.89574 l 0,-4.45072 a 0.89583068,0.89583068 0 0 0 -1.0637,-0.89574 c -1.60738,0.30911 -3.25636,0.44787 -6.52211,0.44787 l -18.47466,0 c 0.003,-2.50924 0.13573,-4.11745 0.44787,-5.99027 a 0.89583068,0.89583068 0 0 0 -0.86775,-1.0357 l -4.8426,0 a 0.89583068,0.89583068 0 0 0 -0.19594,0 z m -13.68805,21.4698 13.43612,0 0,4.39473 -13.43612,0 0,-4.39473 z m 19.14647,0 14.41583,0 0,4.39473 -14.41583,0 0,-4.39473 z m -19.14647,9.65721 13.43612,0 0,4.53469 -13.43612,0 0,-4.53469 z m 19.14647,0 14.41583,0 0,4.53469 -14.41583,0 0,-4.53469 z"
       id="path5698" />
    <path
       style="font-size:medium;font-style:normal;font-variant:normal;font-weight:normal;font-stretch:normal;text-indent:0;text-align:start;text-decoration:none;line-height:normal;letter-spacing:normal;word-spacing:normal;text-transform:none;direction:ltr;block-progression:tb;writing-mode:lr-tb;text-anchor:start;baseline-shift:baseline;color:#000000;fill:#000000;fill-opacity:1;fill-rule:evenodd;stroke:none;stroke-width:3.2pt;marker:none;visibility:visible;display:inline;overflow:visible;enable-background:accumulate;font-family:Sans;-inkscape-font-specification:Sans"
       d="m 391.71428,517.35924 -1.20121,2.09665 -11.18213,19.35033 -1.22305,2.09665 2.42426,0 5.59106,0 0,56.87161 0,1.39776 1.39776,0 8.3866,0 1.39777,0 0,-1.39776 0,-56.87161 5.59107,0 2.42424,0 -1.22304,-2.09665 -11.18213,-19.35033 -1.2012,-2.09665 z"
       id="path4485"
       inkscape:connector-curvature="0" />
  </g>
</svg>
