<!-- Created with Inkscape (http://www.inkscape.org/) -->
<svg xmlns:rdf="http://www.w3.org/1999/02/22-rdf-syntax-ns#" xmlns="http://www.w3.org/2000/svg" height="262.56" width="228.25" viewBox="0 0 228.25 262.56" version="1.1" xmlns:cc="http://creativecommons.org/ns#" xmlns:xlink="http://www.w3.org/1999/xlink" xmlns:dc="http://purl.org/dc/elements/1.1/">
<defs></defs>
<metadata>
<rdf:RDF>
<cc:Work rdf:about="">
<dc:format>image/svg+xml</dc:format>
<dc:type rdf:resource="http://purl.org/dc/dcmitype/StillImage"/>
<dc:title/>
</cc:Work>
</rdf:RDF>
</metadata>
<g transform="translate(-277.58926,-358.53183)">
<path stroke-linejoin="round" d="m296.65,616.09,190.12,0c4.125,0,7.5-0.6563,10.125-1.9687,2.625-1.3126,3.9375-3.4688,3.9375-6.4688,0-19.125-12.938-87.375-38.812-204.75-1.5-6-3.5859-10.758-6.2578-14.273-2.6719-3.5157-7.7109-6.4454-15.117-8.7891l-48.938-16.312-48.938,16.312c-7.4063,2.3437-12.445,5.2734-15.117,8.7891-2.6719,3.5156-4.7578,8.4609-6.2578,14.836-25.875,117-38.813,185.06-38.813,204.19,0,3,1.3125,5.1562,3.9375,6.4688,2.625,1.3124,6,1.9687,10.125,1.9687z" stroke="#000" stroke-linecap="round" stroke-miterlimit="4" stroke-dasharray="none" stroke-width="10" fill="#FFF"/>
<use xlink:href="#lance" transform="matrix(-4,0,0,-4,42,80)" height="100.5" width="100.5" y="0" x="0"/>
<use xlink:href="#lance" transform="matrix(-4,0,0,-4,42,80)" height="100.5" width="100.5" y="0" x="0"/>
<use xlink:href="#lance" transform="matrix(-4,0,0,-4,42,80)" height="100.5" width="100.5" y="0" x="0"/>
<path fill="#000" d="m410.53,380.6a0.89583,0.89583,0,0,0,-0.22393,0.084c-0.88456,0.35382-2.3982,0.77791-5.0106,1.2876-9.2762,1.8552-20.968,2.9671-31.743,2.9671-1.0319,0-2.7025-0.0197-5.4024-0.084a0.89583,0.89583,0,0,0,-0.75578,1.3996c0.78242,1.1436,1.1847,2.1411,1.6235,3.583a0.89583,0.89583,0,0,0,0.86775,0.61583c7.4177-0.0613,11.372-0.26971,18.307-0.83976v4.7306h-17.495c-3.1358,0-5.2203-0.14194-6.97-0.39188a0.89583,0.89583,0,0,0,-1.0077,0.89574v4.3387a0.89583,0.89583,0,0,0,1.0077,0.86775c1.8883-0.25176,3.9733-0.36389,6.914-0.36389h12.568c-5.0755,4.6182-12.7,8.9308-20.826,11.449a0.89583,0.89583,0,0,0,-0.41988,1.4276c1.5492,1.8719,1.489,1.7744,2.3233,3.443a0.89583,0.89583,0,0,0,1.1197,0.44787c2.2237-0.84443,4.2424-1.764,6.2142-2.7152,0.1235,1.6207,0.19594,2.762,0.19594,5.7383v14.248c0,2.9407-0.1394,4.6428-0.39188,6.4102a0.89583,0.89583,0,0,0,0.89574,1.0077h4.2828a0.89583,0.89583,0,0,0,0.25193,0,0.89583,0.89583,0,0,0,0.41987,-0.13996,0.89583,0.89583,0,0,0,0.19595,-0.19595,0.89583,0.89583,0,0,0,0.056,-0.056,0.89583,0.89583,0,0,0,0.056,-0.0839,0.89583,0.89583,0,0,0,0.056,-0.16795,0.89583,0.89583,0,0,0,0.028,-0.16796,0.89583,0.89583,0,0,0,0,-0.0839,0.89583,0.89583,0,0,0,0,-0.19594v-2.6312h27.6v2.8272a0.89583,0.89583,0,0,0,0.89574,0.89574h4.3947a0.89583,0.89583,0,0,0,0.89574,-1.0357c-0.25115-1.6325-0.39189-3.2464-0.39189-6.3822v-14.248c0-3.219,0.0881-4.4051,0.22394-5.9903,2.1503,0.96201,4.3531,1.8599,6.858,2.7152a0.89583,0.89583,0,0,0,1.0916,-0.47595c0.75725-1.7038,1.2282-2.4238,2.2394-3.7509a0.89583,0.89583,0,0,0,-0.50385,-1.4276c-8.089-2.0507-16.535-6.3111-22.002-10.861h12.764c3.1358,0,5.2091,0.11139,7.1659,0.36389a0.89583,0.89583,0,0,0,1.0077,-0.86775v-4.3387a0.89583,0.89583,0,0,0,-1.0357,-0.86775c-1.6731,0.24787-3.8812,0.36389-7.082,0.36389h-17.943v-5.2345c4.1468-0.40288,13.141-1.6487,17.355-2.4633,0.0285-0.004,0.0287,0.004,0.056,0,1.2718-0.1817,1.3477-0.20248,2.5473-0.39189a0.89583,0.89583,0,0,0,0.55983,-1.4276l-3.0231-3.8909a0.89583,0.89583,0,0,0,-0.81177,-0.33591zm-16.795,21.246c2.987,3.0029,5.9609,5.4505,10.301,7.9777a0.89583,0.89583,0,0,0,0.028,0c1.2136,0.70084,2.3776,1.2398,3.555,1.8475-1.2378,0.0598-2.288,0.13996-4.1428,0.13996h-23.989c-1.7952,0-2.7845-0.0868-3.9748-0.13996,1.2205-0.68079,2.4514-1.3094,3.6669-2.0714,3.8395-2.5063,6.5166-4.8514,9.0974-7.6138-0.0197,0.43929-0.0839,0.99205-0.0839,1.3716v2.6592c0,2.0451-0.0668,3.2453-0.30791,4.4507a0.89583,0.89583,0,0,0,0.86775,1.0917h4.5347a0.89583,0.89583,0,0,0,0.86775,-1.0917c-0.23938-1.137-0.30792-2.2845-0.30792-4.3947v-2.7152c0-0.34877-0.0872-1.0758-0.11196-1.5116zm-16.123,15.256,27.656,0,0,4.6467-27.656,0,0-4.6467zm0,9.9371,27.656,0,0,5.0945-27.656,0,0-5.0945zm10.833,18.195a0.89583,0.89583,0,0,0,-0.6998,1.0357c0.31113,1.8046,0.44559,3.4176,0.44787,5.9903h-17.691c-2.8756,0-4.669-0.13695-6.4102-0.44787a0.89583,0.89583,0,0,0,-1.0637,0.89574v4.4507a0.89583,0.89583,0,0,0,1.0357,0.89574c1.822-0.25131,3.8323-0.39189,6.3822-0.39189h17.747v3.7509h-11.421c-3.7303,0-5.4892-0.0622-6.998-0.3639a0.89583,0.89583,0,0,0,-1.0637,0.95173c0.19229,2.0511,0.25193,3.1557,0.25193,6.886v9.9371c0,3.6656-0.0598,4.7608-0.25193,6.746a0.89583,0.89583,0,0,0,1.0357,0.97971c1.5443-0.24708,3.4842-0.39188,7.3339-0.39188h11.113v3.9469h-18.195c-3.0708,0-4.8069-0.11157-6.4102-0.41988a0.89583,0.89583,0,0,0,-1.0637,0.86775v4.5347a0.89583,0.89583,0,0,0,1.0357,0.86774c1.6795-0.24881,3.7579-0.36389,6.4381-0.36389h18.195v2.1834c0,3.3422-0.0691,4.7328-0.44787,6.942a0.89583,0.89583,0,0,0,0.89574,1.0637h4.8426a0.89583,0.89583,0,0,0,0.86775,-1.0637c-0.37595-2.0051-0.44787-3.4057-0.44787-6.942v-2.1834h19.174c2.6803,0,4.6444,0.11077,6.6061,0.36389a0.89583,0.89583,0,0,0,1.0077,-0.86774v-4.5347a0.89583,0.89583,0,0,0,-1.0917,-0.86775c-1.5312,0.30625-3.2564,0.41988-6.5221,0.41988h-19.174v-3.9469h12.204c3.7849,0,5.674,0.14421,7.2219,0.39188a0.89583,0.89583,0,0,0,1.0357,-0.97971c-0.19245-2.0528-0.25192-3.0804-0.25192-6.746v-10.133c0-3.601,0.0595-4.6372,0.25192-6.6901a0.89583,0.89583,0,0,0,-1.0637,-0.95173c-1.5856,0.30493-3.2783,0.3639-7.1379,0.3639h-12.26v-3.7509h18.531c2.5499,0,4.4925,0.13819,6.5221,0.39189a0.89583,0.89583,0,0,0,1.0077,-0.89574v-4.4507a0.89583,0.89583,0,0,0,-1.0637,-0.89574c-1.6074,0.30911-3.2564,0.44787-6.5221,0.44787h-18.475c0.003-2.5092,0.13573-4.1174,0.44787-5.9903a0.89583,0.89583,0,0,0,-0.86775,-1.0357h-4.8426a0.89583,0.89583,0,0,0,-0.19594,0zm-13.688,21.47,13.436,0,0,4.3947-13.436,0,0-4.3947zm19.146,0,14.416,0,0,4.3947-14.416,0,0-4.3947zm-19.146,9.6572,13.436,0,0,4.5347-13.436,0,0-4.5347zm19.146,0,14.416,0,0,4.5347-14.416,0,0-4.5347z"/>
<path fill-rule="evenodd" style="baseline-shift:baseline;block-progression:tb;color:#000000;direction:ltr;text-indent:0;text-align:start;enable-background:accumulate;text-transform:none;" fill="#000" d="m391.71,517.36-1.2012,2.0966-11.182,19.35-1.223,2.0966,2.4243,0,5.5911,0,0,56.872,0,1.3978,1.3978,0,8.3866,0,1.3978,0,0-1.3978,0-56.872,5.5911,0,2.4242,0-1.223-2.0966-11.182-19.35-1.2012-2.0966z"/>
</g>
</svg>
