<?xml version="1.0" encoding="UTF-8" standalone="no"?>
<!-- Created with Inkscape (http://www.inkscape.org/) -->

<svg
   xmlns:dc="http://purl.org/dc/elements/1.1/"
   xmlns:cc="http://creativecommons.org/ns#"
   xmlns:rdf="http://www.w3.org/1999/02/22-rdf-syntax-ns#"
   xmlns:svg="http://www.w3.org/2000/svg"
   xmlns="http://www.w3.org/2000/svg"
   xmlns:xlink="http://www.w3.org/1999/xlink"
   xmlns:sodipodi="http://sodipodi.sourceforge.net/DTD/sodipodi-0.dtd"
   xmlns:inkscape="http://www.inkscape.org/namespaces/inkscape"
   width="253.12503"
   height="281.25003"
   id="svg2"
   version="1.1"
   inkscape:version="0.48.4 r9939"
   inkscape:export-filename="shogi-king.png"
   inkscape:export-xdpi="300.16"
   inkscape:export-ydpi="300.16"
   sodipodi:docname="pawn.svg">
  <defs
     id="defs4">
    <marker
       inkscape:stockid="TriangleOutL"
       orient="auto"
       refY="0"
       refX="0"
       id="TriangleOutL"
       style="overflow:visible">
      <path
         id="path4284"
         d="m 5.77,0 -8.65,5 0,-10 8.65,5 z"
         style="fill-rule:evenodd;stroke:#000000;stroke-width:1pt"
         transform="scale(0.8,0.8)"
         inkscape:connector-curvature="0" />
    </marker>
    <marker
       inkscape:stockid="Arrow2Mstart"
       orient="auto"
       refY="0"
       refX="0"
       id="Arrow2Mstart"
       style="overflow:visible">
      <path
         id="path4166"
         style="fill-rule:evenodd;stroke-width:0.625;stroke-linejoin:round"
         d="M 8.7185878,4.0337352 -2.2072895,0.01601326 8.7185884,-4.0017078 c -1.7454984,2.3720609 -1.7354408,5.6174519 -6e-7,8.035443 z"
         transform="scale(0.6,0.6)"
         inkscape:connector-curvature="0" />
    </marker>
    <marker
       inkscape:stockid="Arrow2Lend"
       orient="auto"
       refY="0"
       refX="0"
       id="Arrow2Lend"
       style="overflow:visible">
      <path
         id="path4163"
         style="fill-rule:evenodd;stroke-width:0.625;stroke-linejoin:round"
         d="M 8.7185878,4.0337352 -2.2072895,0.01601326 8.7185884,-4.0017078 c -1.7454984,2.3720609 -1.7354408,5.6174519 -6e-7,8.035443 z"
         transform="matrix(-1.1,0,0,-1.1,-1.1,0)"
         inkscape:connector-curvature="0" />
    </marker>
    <marker
       inkscape:stockid="Arrow2Lstart"
       orient="auto"
       refY="0"
       refX="0"
       id="Arrow2Lstart"
       style="overflow:visible">
      <path
         id="path4160"
         style="fill-rule:evenodd;stroke-width:0.625;stroke-linejoin:round"
         d="M 8.7185878,4.0337352 -2.2072895,0.01601326 8.7185884,-4.0017078 c -1.7454984,2.3720609 -1.7354408,5.6174519 -6e-7,8.035443 z"
         transform="matrix(1.1,0,0,1.1,1.1,0)"
         inkscape:connector-curvature="0" />
    </marker>
    <marker
       inkscape:stockid="TriangleInL"
       orient="auto"
       refY="0"
       refX="0"
       id="TriangleInL"
       style="overflow:visible">
      <path
         id="path4275"
         d="m 5.77,0 -8.65,5 0,-10 8.65,5 z"
         style="fill-rule:evenodd;stroke:#000000;stroke-width:1pt"
         transform="scale(-0.8,-0.8)"
         inkscape:connector-curvature="0" />
    </marker>
    <marker
       inkscape:stockid="Arrow1Lstart"
       orient="auto"
       refY="0"
       refX="0"
       id="Arrow1Lstart"
       style="overflow:visible">
      <path
         id="path4482"
         d="M 0,0 5,-5 -12.5,0 5,5 0,0 z"
         style="fill-rule:evenodd;stroke:#000000;stroke-width:1pt"
         transform="matrix(0.8,0,0,0.8,10,0)"
         inkscape:connector-curvature="0" />
    </marker>
  </defs>
  <sodipodi:namedview
     id="base"
     pagecolor="#ffffff"
     bordercolor="#666666"
     borderopacity="1.0"
     inkscape:pageopacity="0.0"
     inkscape:pageshadow="2"
     inkscape:zoom="0.49497475"
     inkscape:cx="112.73723"
     inkscape:cy="311.76692"
     inkscape:document-units="px"
     inkscape:current-layer="layer1"
     showgrid="false"
     inkscape:window-width="1920"
     inkscape:window-height="1056"
     inkscape:window-x="1280"
     inkscape:window-y="24"
     inkscape:window-maximized="1"
     showguides="true"
     inkscape:guide-bbox="true"
     fit-margin-top="0"
     fit-margin-left="0"
     fit-margin-right="0"
     fit-margin-bottom="0" />
  <metadata
     id="metadata7">
    <rdf:RDF>
      <cc:Work
         rdf:about="">
        <dc:format>image/svg+xml</dc:format>
        <dc:type
           rdf:resource="http://purl.org/dc/dcmitype/StillImage" />
        <dc:title />
      </cc:Work>
    </rdf:RDF>
  </metadata>
  <g
     inkscape:label="Layer 1"
     inkscape:groupmode="layer"
     id="layer1"
     transform="translate(-5.15176,-350.59433)">
    <use
       height="100.5"
       width="100.5"
       id="use3189"
       transform="matrix(-4,0,0,-4,42,80)"
       y="0"
       x="0"
       xlink:href="#lance" />
    <use
       height="100.5"
       width="100.5"
       id="use3189-0"
       transform="matrix(-4,0,0,-4,42,80)"
       y="0"
       x="0"
       xlink:href="#lance" />
    <use
       height="100.5"
       width="100.5"
       id="use3189-9"
       transform="matrix(-4,0,0,-4,42,80)"
       y="0"
       x="0"
       xlink:href="#lance" />
    <g
       id="g5998"
       transform="translate(-19.999997,20)">
      <g
         transform="matrix(0.89574111,0,0,0.89574111,110.06511,33.438011)"
         id="g5906">
        <path
           style="font-size:medium;font-style:normal;font-variant:normal;font-weight:normal;font-stretch:normal;text-indent:0;text-align:start;text-decoration:none;line-height:normal;letter-spacing:normal;word-spacing:normal;text-transform:none;direction:ltr;block-progression:tb;writing-mode:lr-tb;text-anchor:start;baseline-shift:baseline;color:#000000;fill:#000000;fill-opacity:1;fill-rule:evenodd;stroke:none;stroke-width:1.6pt;marker:none;visibility:visible;display:inline;overflow:visible;enable-background:accumulate;font-family:Sans;-inkscape-font-specification:Sans"
           d="m 46.496869,530.00471 -0.725317,1.2434 -6.631467,11.47555 -0.699412,1.2434 1.424729,0 3.315733,0 0,38.41587 6.631467,0 0,-38.41587 3.315733,0 1.424729,0 -0.699413,-1.2434 -6.631466,-11.47555 -0.725316,-1.2434 z"
           id="path5414"
           inkscape:connector-curvature="0" />
        <path
           inkscape:connector-curvature="0"
           style="font-size:72px;font-style:normal;font-variant:normal;font-weight:300;font-stretch:normal;line-height:100%;letter-spacing:0px;word-spacing:0px;fill:#000000;fill-opacity:1;stroke:none;font-family:Hiragino Kaku Gothic Pro;-inkscape-font-specification:Hiragino Kaku Gothic Pro Light"
           d="M 44.25,56.96875 A 1.0001,1.0001 0 0 0 43.34375,58.125 c 0.281443,1.89974 0.4375,3.68458 0.4375,6.53125 l 0,14.5625 -11.25,0 0,-9.15625 c 0,-2.71846 0.05368,-4.06406 0.40625,-6.25 a 1.0001,1.0001 0 0 0 -0.96875,-1.15625 l -5.34375,0 a 1.0001,1.0001 0 0 0 -1,1.15625 c 0.282815,1.9797 0.4375,3.69504 0.4375,6.25 l 0,9.15625 -3.75,0 c -3.355627,0 -5.463504,-0.15456 -7.65625,-0.4375 a 1.0001,1.0001 0 0 0 -1.125,1 l 0,5.03125 a 1.0001,1.0001 0 0 0 1.125,1 c 2.190039,-0.28259 4.37324,-0.40625 7.65625,-0.40625 l 21.3125,0 0,15.40625 c 0,0.20705 -0.02453,0.29175 -0.03125,0.3125 -0.115624,0.059 -0.758655,0.1875 -1.90625,0.1875 -2.389173,0 -4.784167,-0.2136 -7.90625,-0.78125 a 1.0001,1.0001 0 0 0 -1.09375,1.375 c 0.627291,1.60308 0.884265,2.59804 1.09375,4.34375 a 1.0001,1.0001 0 0 0 0.90625,0.875 c 2.628653,0.21905 5.232763,0.3125 7.34375,0.3125 2.679961,0 4.670495,-0.31904 6.125,-1.28125 1.454505,-0.96221 2.15625,-2.63312 2.15625,-4.5625 l 0,-16.1875 20.46875,0 c 2.992251,0 5.215945,0.12569 7.25,0.40625 a 1.0001,1.0001 0 0 0 1.15625,-1 l 0,-5.03125 a 1.0001,1.0001 0 0 0 -1.15625,-1 c -2.043302,0.28184 -4.039633,0.4375 -7.25,0.4375 l -20.46875,0 0,-7.5625 15.0625,0 c 3.297504,0 4.731458,0.0632 6.625,0.34375 a 1.0001,1.0001 0 0 0 1.125,-1 l 0,-4.8125 a 1.0001,1.0001 0 0 0 -1.125,-1 c -1.899738,0.28144 -3.705523,0.4375 -6.625,0.4375 l -15.0625,0 0,-1.09375 c 0,-2.93574 0.06042,-4.50751 0.40625,-6.375 A 1.0001,1.0001 0 0 0 49.75,56.96875 l -5.40625,0 a 1.0001,1.0001 0 0 0 -0.09375,0 z m 17.5625,29.4375 a 1.0001,1.0001 0 0 0 -0.5,0.15625 l -3.65625,2.28125 A 1.0001,1.0001 0 0 0 57.5625,88.875 L 57.5,88.9375 a 1.0001,1.0001 0 0 0 -0.3125,0.25 1.0001,1.0001 0 0 0 0,0.03125 1.0001,1.0001 0 0 0 -0.03125,0.0625 1.0001,1.0001 0 0 0 -0.125,0.28125 1.0001,1.0001 0 0 0 0,0.09375 1.0001,1.0001 0 0 0 0,0.03125 A 1.0001,1.0001 0 0 0 57,89.75 a 1.0001,1.0001 0 0 0 0,0.03125 1.0001,1.0001 0 0 0 0,0.09375 1.0001,1.0001 0 0 0 0.03125,0.09375 1.0001,1.0001 0 0 0 0.09375,0.28125 1.0001,1.0001 0 0 0 0.15625,0.21875 1.0001,1.0001 0 0 0 0.09375,0.09375 1.0001,1.0001 0 0 0 0.0625,0.0625 c 0.0052,0.006 0.02603,-0.006 0.03125,0 a 1.0001,1.0001 0 0 0 0.0625,0.0625 c 5.465475,5.99579 11.295675,10.83308 17.84375,14.71875 a 1.0001,1.0001 0 0 0 1.28125,-0.25 c 1.517246,-1.95075 1.501641,-1.97944 3.21875,-3.625 a 1.0001,1.0001 0 0 0 -0.25,-1.625 C 72.982434,96.65563 66.956773,91.98872 62.59375,86.78125 a 1.0001,1.0001 0 0 0 -0.78125,-0.375 z M 31,86.46875 A 1.0001,1.0001 0 0 0 30.84375,86.5 a 1.0001,1.0001 0 0 0 -0.1875,0.03125 1.0001,1.0001 0 0 0 -0.03125,0.03125 1.0001,1.0001 0 0 0 -0.03125,0 1.0001,1.0001 0 0 0 -0.15625,0.09375 1.0001,1.0001 0 0 0 -0.03125,0.03125 1.0001,1.0001 0 0 0 -0.03125,0.03125 1.0001,1.0001 0 0 0 -0.0625,0.03125 1.0001,1.0001 0 0 0 0,0.03125 1.0001,1.0001 0 0 0 -0.125,0.125 1.0001,1.0001 0 0 0 0,0.03125 1.0001,1.0001 0 0 0 -0.09375,0.125 1.0001,1.0001 0 0 0 -0.03125,0.09375 c -3.426929,6.20405 -9.50194,11.87234 -16.6875,15.5 a 1.0001,1.0001 0 0 0 -0.1875,1.6875 c 1.239328,0.96392 2.18318,1.90275 3.375,3.375 a 1.0001,1.0001 0 0 0 1.3125,0.1875 c 7.45491,-4.67759 13.554332,-10.52775 18.03125,-17.5 A 1.0001,1.0001 0 0 0 35.5625,89 L 31.65625,86.71875 31.53125,86.625 A 1.0001,1.0001 0 0 0 31.5,86.59375 a 1.0001,1.0001 0 0 0 -0.0625,0 1.0001,1.0001 0 0 0 -0.03125,-0.03125 1.0001,1.0001 0 0 0 -0.0625,-0.03125 1.0001,1.0001 0 0 0 -0.03125,0 A 1.0001,1.0001 0 0 0 31.25,86.5 a 1.0001,1.0001 0 0 0 -0.03125,0 1.0001,1.0001 0 0 0 -0.0625,0 1.0001,1.0001 0 0 0 -0.03125,-0.03125 1.0001,1.0001 0 0 0 -0.125,0 z m 30.96875,10.8125 a 1.0001,1.0001 0 0 0 -0.1875,0.0625 1.0001,1.0001 0 0 0 -0.0625,0.03125 1.0001,1.0001 0 0 0 -0.15625,0.09375 1.0001,1.0001 0 0 0 -0.09375,0.0625 1.0001,1.0001 0 0 0 -0.03125,0 1.0001,1.0001 0 0 0 -0.0625,0.09375 1.0001,1.0001 0 0 0 -0.0625,0.0625 1.0001,1.0001 0 0 0 -0.03125,0.0625 1.0001,1.0001 0 0 0 -0.03125,0.03125 1.0001,1.0001 0 0 0 0,0.03125 1.0001,1.0001 0 0 0 -0.09375,0.15625 c -1.840639,3.30376 -5.847922,7.0582 -11.21875,10.40625 -8.968321,5.57871 -20.08126,8.64772 -32.15625,8.71875 A 1.0001,1.0001 0 0 0 16.9375,118.625 c 1.199425,1.83442 1.551529,2.61517 2.1875,4.59375 a 1.0001,1.0001 0 0 0 1.03125,0.6875 c 15.867132,-1.01904 29.191096,-5.96978 39.59375,-14.6875 1.66986,-1.37945 2.159755,-1.87851 7.34375,-7.0625 a 1.0001,1.0001 0 0 0 -0.125,-1.5 l -4.0625,-3 A 1.0001,1.0001 0 0 0 62.875,97.625 1.0001,1.0001 0 0 0 62.75,97.5 a 1.0001,1.0001 0 0 0 -0.03125,0 1.0001,1.0001 0 0 0 -0.03125,-0.0625 1.0001,1.0001 0 0 0 -0.03125,0 1.0001,1.0001 0 0 0 -0.0625,-0.03125 A 1.0001,1.0001 0 0 0 62.5625,97.375 1.0001,1.0001 0 0 0 62.5,97.34375 a 1.0001,1.0001 0 0 0 -0.03125,0 1.0001,1.0001 0 0 0 -0.0625,-0.03125 1.0001,1.0001 0 0 0 -0.03125,0 1.0001,1.0001 0 0 0 -0.0625,-0.03125 1.0001,1.0001 0 0 0 -0.03125,0 1.0001,1.0001 0 0 0 -0.0625,0 1.0001,1.0001 0 0 0 -0.0625,0 1.0001,1.0001 0 0 0 -0.03125,0 1.0001,1.0001 0 0 0 -0.0625,0 1.0001,1.0001 0 0 0 -0.09375,0 z m 3.9375,31.03125 A 1.0001,1.0001 0 0 0 65.5,128.46875 c -2.632533,1.56002 -8.991503,3.42246 -16.3125,4.84375 -7.320997,1.42129 -15.688699,2.47828 -22.59375,2.65625 a 1.0001,1.0001 0 0 0 -0.96875,1.0625 c 0.141032,1.55135 0.21875,3.17652 0.21875,5.75 l 0,27.3125 -4.3125,0 c -3.137694,0 -5.109865,-0.15524 -7.15625,-0.4375 a 1.0001,1.0001 0 0 0 -1.125,1 l 0,5.09375 a 1.0001,1.0001 0 0 0 1.125,1 c 2.037137,-0.28098 4.236773,-0.40625 7.15625,-0.40625 l 49.65625,0 c 2.919477,0 4.960797,0.12297 7.15625,0.40625 a 1.0001,1.0001 0 0 0 1.125,-1 l 0,-5.09375 a 1.0001,1.0001 0 0 0 -1.125,-1 c -2.046385,0.28226 -4.018556,0.4375 -7.15625,0.4375 l -10,0 0,-14.9375 7.9375,0 c 2.86333,0 4.507156,0.066 6.3125,0.34375 a 1.0001,1.0001 0 0 0 1.15625,-0.96875 l 0,-4.90625 a 1.0001,1.0001 0 0 0 -1.15625,-1 C 73.624538,148.90392 72.133124,149 69.125,149 l -36.53125,0 0,-7.09375 c 10.989583,-0.73015 23.742862,-3.10826 33.78125,-6.21875 1.87372,-0.57653 2.959337,-0.92123 3.46875,-1.125 A 1.0001,1.0001 0 0 0 70.25,133.03125 l -3.46875,-4.34375 a 1.0001,1.0001 0 0 0 -0.875,-0.375 z m -33.3125,26.84375 21.90625,0 0,14.9375 -21.90625,0 0,-14.9375 z M 55.75,177.21875 a 1.0001,1.0001 0 0 0 -0.375,0.15625 l -3.6875,2.59375 -0.03125,0 a 1.0001,1.0001 0 0 0 -0.09375,0.0625 l -0.03125,0.0313 a 1.0001,1.0001 0 0 0 -0.0625,0.0313 1.0001,1.0001 0 0 0 0,0.0313 1.0001,1.0001 0 0 0 -0.0625,0.0313 1.0001,1.0001 0 0 0 0,0.0313 1.0001,1.0001 0 0 0 -0.09375,0.0625 1.0001,1.0001 0 0 0 0,0.0313 1.0001,1.0001 0 0 0 -0.03125,0.0313 1.0001,1.0001 0 0 0 0,0.0313 1.0001,1.0001 0 0 0 -0.09375,0.15625 1.0001,1.0001 0 0 0 0,0.0313 1.0001,1.0001 0 0 0 -0.03125,0.0625 1.0001,1.0001 0 0 0 0,0.0313 1.0001,1.0001 0 0 0 -0.03125,0.0625 1.0001,1.0001 0 0 0 0,0.0313 1.0001,1.0001 0 0 0 0,0.0625 1.0001,1.0001 0 0 0 -0.03125,0.0313 1.0001,1.0001 0 0 0 0,0.0625 1.0001,1.0001 0 0 0 0,0.0313 1.0001,1.0001 0 0 0 0.03125,0.0625 1.0001,1.0001 0 0 0 0,0.0313 1.0001,1.0001 0 0 0 0,0.0625 1.0001,1.0001 0 0 0 0,0.0313 1.0001,1.0001 0 0 0 0.03125,0.0625 1.0001,1.0001 0 0 0 0,0.0313 1.0001,1.0001 0 0 0 0.03125,0.0625 1.0001,1.0001 0 0 0 0.15625,0.28125 1.0001,1.0001 0 0 0 0.0625,0.0313 1.0001,1.0001 0 0 0 0.1875,0.1875 c 3.8317,3.95957 5.940741,5.87731 9.4375,8.375 3.707637,2.61716 6.269095,4.02323 11.90625,6.625 a 1.0001,1.0001 0 0 0 1.25,-0.34375 c 1.371268,-2.02082 1.371451,-2.07514 3.09375,-4.15625 a 1.0001,1.0001 0 0 0 -0.4375,-1.59375 c -7.542915,-2.53781 -14.388215,-6.9721 -20.1875,-13.125 A 1.0001,1.0001 0 0 0 55.75,177.21875 z m -21.1875,1.4375 C 29.450505,184.12824 22.153743,188.73 14.59375,191.25 c 1.799998,1.584 2.545001,2.469 3.625,4.125 8.855991,-3.96 13.012008,-6.78101 20.5,-14.125 l -4.15625,-2.59375 z"
           transform="translate(0,308.2677)"
           id="path5693" />
      </g>
      <path
         style="stroke:none"
         inkscape:connector-curvature="0"
         d="m 56.651787,611.84436 c -11.625,0 -19.78123,-2.3438 -24.46873,-7.0313 -4.6875,-4.6875 -7.0313,-10.4062 -7.0313,-17.1562 0,-21.75003 13.4063,-91.87503 40.21873,-210.37503 2.06253,-8.81253 6.0938,-15.25783 12.0938,-19.3359 6,-4.07813 12.93749,-7.19533 20.81249,-9.3516 l 53.437503,-18 53.4375,18 c 7.875,2.15627 14.8125,5.27347 20.8125,9.3516 6,4.07807 10.03127,10.52337 12.0938,19.3359 26.81247,118.5 40.2187,188.625 40.2187,210.37503 0,6.75 -2.34377,12.4687 -7.0313,17.1562 -4.68747,4.6875 -12.8437,7.0313 -24.4687,7.0313 z m 0,-15.75 190.124993,0 c 4.125,0 7.5,-0.6563 10.125,-1.9687 2.625,-1.3126 3.9375,-3.4688 3.9375,-6.4688 0,-19.125 -12.9375,-87.37503 -38.8125,-204.75003 -1.5,-6 -3.58593,-10.7578 -6.2578,-14.2734 -2.67187,-3.51567 -7.71093,-6.44537 -15.1172,-8.7891 l -48.9375,-16.3125 -48.9375,16.3125 c -7.406273,2.34373 -12.445333,5.27343 -15.117193,8.7891 -2.67187,3.5156 -4.7578,8.4609 -6.2578,14.8359 -25.875,117 -38.81253,185.06253 -38.81253,204.18753 0,3 1.31253,5.1562 3.93753,6.4688 2.625,1.3124 6,1.9687 10.125,1.9687 z"
         id="path5940"
         sodipodi:nodetypes="scscscccscscsssscscscccscscs" />
    </g>
  </g>
</svg>
