<?xml version="1.0" encoding="UTF-8" standalone="no"?>
<!-- Created with Inkscape (http://www.inkscape.org/) -->

<svg
   xmlns:dc="http://purl.org/dc/elements/1.1/"
   xmlns:cc="http://creativecommons.org/ns#"
   xmlns:rdf="http://www.w3.org/1999/02/22-rdf-syntax-ns#"
   xmlns:svg="http://www.w3.org/2000/svg"
   xmlns="http://www.w3.org/2000/svg"
   xmlns:xlink="http://www.w3.org/1999/xlink"
   xmlns:sodipodi="http://sodipodi.sourceforge.net/DTD/sodipodi-0.dtd"
   xmlns:inkscape="http://www.inkscape.org/namespaces/inkscape"
   width="228.25002"
   height="262.56253"
   id="svg2"
   version="1.1"
   inkscape:version="0.48.4 r9939"
   inkscape:export-filename="shogi-king.png"
   inkscape:export-xdpi="300.16"
   inkscape:export-ydpi="300.16"
   sodipodi:docname="pawn.svg">
  <defs
     id="defs4">
    <marker
       inkscape:stockid="TriangleOutL"
       orient="auto"
       refY="0"
       refX="0"
       id="TriangleOutL"
       style="overflow:visible">
      <path
         id="path4284"
         d="m 5.77,0 -8.65,5 0,-10 8.65,5 z"
         style="fill-rule:evenodd;stroke:#000000;stroke-width:1pt"
         transform="scale(0.8,0.8)"
         inkscape:connector-curvature="0" />
    </marker>
    <marker
       inkscape:stockid="Arrow2Mstart"
       orient="auto"
       refY="0"
       refX="0"
       id="Arrow2Mstart"
       style="overflow:visible">
      <path
         id="path4166"
         style="fill-rule:evenodd;stroke-width:0.625;stroke-linejoin:round"
         d="M 8.7185878,4.0337352 -2.2072895,0.01601326 8.7185884,-4.0017078 c -1.7454984,2.3720609 -1.7354408,5.6174519 -6e-7,8.035443 z"
         transform="scale(0.6,0.6)"
         inkscape:connector-curvature="0" />
    </marker>
    <marker
       inkscape:stockid="Arrow2Lend"
       orient="auto"
       refY="0"
       refX="0"
       id="Arrow2Lend"
       style="overflow:visible">
      <path
         id="path4163"
         style="fill-rule:evenodd;stroke-width:0.625;stroke-linejoin:round"
         d="M 8.7185878,4.0337352 -2.2072895,0.01601326 8.7185884,-4.0017078 c -1.7454984,2.3720609 -1.7354408,5.6174519 -6e-7,8.035443 z"
         transform="matrix(-1.1,0,0,-1.1,-1.1,0)"
         inkscape:connector-curvature="0" />
    </marker>
    <marker
       inkscape:stockid="Arrow2Lstart"
       orient="auto"
       refY="0"
       refX="0"
       id="Arrow2Lstart"
       style="overflow:visible">
      <path
         id="path4160"
         style="fill-rule:evenodd;stroke-width:0.625;stroke-linejoin:round"
         d="M 8.7185878,4.0337352 -2.2072895,0.01601326 8.7185884,-4.0017078 c -1.7454984,2.3720609 -1.7354408,5.6174519 -6e-7,8.035443 z"
         transform="matrix(1.1,0,0,1.1,1.1,0)"
         inkscape:connector-curvature="0" />
    </marker>
    <marker
       inkscape:stockid="TriangleInL"
       orient="auto"
       refY="0"
       refX="0"
       id="TriangleInL"
       style="overflow:visible">
      <path
         id="path4275"
         d="m 5.77,0 -8.65,5 0,-10 8.65,5 z"
         style="fill-rule:evenodd;stroke:#000000;stroke-width:1pt"
         transform="scale(-0.8,-0.8)"
         inkscape:connector-curvature="0" />
    </marker>
    <marker
       inkscape:stockid="Arrow1Lstart"
       orient="auto"
       refY="0"
       refX="0"
       id="Arrow1Lstart"
       style="overflow:visible">
      <path
         id="path4482"
         d="M 0,0 5,-5 -12.5,0 5,5 0,0 z"
         style="fill-rule:evenodd;stroke:#000000;stroke-width:1pt"
         transform="matrix(0.8,0,0,0.8,10,0)"
         inkscape:connector-curvature="0" />
    </marker>
  </defs>
  <sodipodi:namedview
     id="base"
     pagecolor="#ffffff"
     bordercolor="#666666"
     borderopacity="1.0"
     inkscape:pageopacity="0.0"
     inkscape:pageshadow="2"
     inkscape:zoom="0.7"
     inkscape:cx="377.07008"
     inkscape:cy="-39.612722"
     inkscape:document-units="px"
     inkscape:current-layer="layer1"
     showgrid="false"
     inkscape:window-width="1920"
     inkscape:window-height="1056"
     inkscape:window-x="1280"
     inkscape:window-y="24"
     inkscape:window-maximized="1"
     showguides="true"
     inkscape:guide-bbox="true"
     inkscape:object-paths="true"
     inkscape:snap-nodes="true"
     fit-margin-top="0"
     fit-margin-left="0"
     fit-margin-right="0"
     fit-margin-bottom="0" />
  <metadata
     id="metadata7">
    <rdf:RDF>
      <cc:Work
         rdf:about="">
        <dc:format>image/svg+xml</dc:format>
        <dc:type
           rdf:resource="http://purl.org/dc/dcmitype/StillImage" />
        <dc:title />
      </cc:Work>
    </rdf:RDF>
  </metadata>
  <g
     inkscape:label="Layer 1"
     inkscape:groupmode="layer"
     id="layer1"
     transform="translate(-17.58926,-358.53183)">
    <path
       style="fill:#ffffff;fill-opacity:1;stroke:#000000;stroke-width:10;stroke-linecap:round;stroke-linejoin:round;stroke-miterlimit:4;stroke-opacity:1;stroke-dasharray:none"
       d="m 36.65179,616.09436 190.12499,0 c 4.125,0 7.5,-0.6563 10.125,-1.9687 2.625,-1.3126 3.9375,-3.4688 3.9375,-6.4688 0,-19.125 -12.9375,-87.37503 -38.8125,-204.75003 -1.5,-6 -3.58593,-10.7578 -6.2578,-14.2734 -2.67187,-3.51567 -7.71093,-6.44537 -15.1172,-8.7891 l -48.9375,-16.3125 -48.937497,16.3125 c -7.406273,2.34373 -12.445333,5.27343 -15.117193,8.7891 -2.67187,3.5156 -4.7578,8.4609 -6.2578,14.8359 -25.875,117 -38.81253,185.06253 -38.81253,204.18753 0,3 1.31253,5.1562 3.93753,6.4688 2.625,1.3124 6,1.9687 10.125,1.9687 z"
       id="path5940"
       inkscape:connector-curvature="0" />
    <use
       height="100.5"
       width="100.5"
       id="use3189"
       transform="matrix(-4,0,0,-4,42,80)"
       y="0"
       x="0"
       xlink:href="#lance" />
    <use
       height="100.5"
       width="100.5"
       id="use3189-0"
       transform="matrix(-4,0,0,-4,42,80)"
       y="0"
       x="0"
       xlink:href="#lance" />
    <use
       height="100.5"
       width="100.5"
       id="use3189-9"
       transform="matrix(-4,0,0,-4,42,80)"
       y="0"
       x="0"
       xlink:href="#lance" />
    <path
       inkscape:connector-curvature="0"
       style="font-size:72px;font-style:normal;font-variant:normal;font-weight:300;font-stretch:normal;line-height:100%;letter-spacing:0px;word-spacing:0px;fill:#000000;fill-opacity:1;stroke:none;font-family:Hiragino Kaku Gothic Pro;-inkscape-font-specification:Hiragino Kaku Gothic Pro Light"
       d="m 129.70166,380.59531 a 0.89583068,0.89583068 0 0 0 -0.81177,1.0357 c 0.2521,1.70168 0.39189,3.30043 0.39189,5.85031 l 0,13.04423 -10.07709,0 0,-8.20163 c 0,-2.43503 0.0481,-3.64034 0.3639,-5.59838 a 0.89583068,0.89583068 0 0 0 -0.86775,-1.0357 l -4.78662,0 a 0.89583068,0.89583068 0 0 0 -0.89574,1.0357 c 0.25333,1.7733 0.39189,3.3098 0.39189,5.59838 l 0,8.20163 -3.35903,0 c -3.00578,0 -4.89389,-0.13844 -6.85802,-0.39189 a 0.89583068,0.89583068 0 0 0 -1.00771,0.89575 l 0,4.50669 a 0.89583068,0.89583068 0 0 0 1.00771,0.89574 c 1.96171,-0.25312 3.91729,-0.36389 6.85802,-0.36389 l 19.09048,0 0,13.80001 c 0,0.18546 -0.022,0.26133 -0.028,0.27992 -0.10357,0.0529 -0.67956,0.16795 -1.70751,0.16795 -2.14008,0 -4.28537,-0.19133 -7.08195,-0.6998 a 0.89583068,0.89583068 0 0 0 -0.97972,1.23165 c 0.56189,1.43594 0.79207,2.32717 0.97972,3.89087 a 0.89583068,0.89583068 0 0 0 0.81176,0.78378 c 2.3546,0.19621 4.6872,0.27992 6.5781,0.27992 2.40055,0 4.18356,-0.28578 5.48642,-1.14767 1.30286,-0.86189 1.93144,-2.3586 1.93144,-4.08682 l 0,-14.49981 18.3347,0 c 2.68028,0 4.67213,0.11258 6.49412,0.36389 a 0.89583068,0.89583068 0 0 0 1.0357,-0.89574 l 0,-4.50669 a 0.89583068,0.89583068 0 0 0 -1.0357,-0.89575 c -1.83027,0.25246 -3.61846,0.39189 -6.49412,0.39189 l -18.3347,0 0,-6.77404 13.4921,0 c 2.95371,0 4.23816,0.0566 5.93428,0.30791 a 0.89583068,0.89583068 0 0 0 1.00771,-0.89574 l 0,-4.31076 a 0.89583068,0.89583068 0 0 0 -1.00771,-0.89574 c -1.70167,0.2521 -3.31919,0.39189 -5.93428,0.39189 l -13.4921,0 0,-0.97972 c 0,-2.62966 0.0541,-4.03756 0.36389,-5.71035 a 0.89583068,0.89583068 0 0 0 -0.86775,-1.06369 l -4.8426,0 a 0.89583068,0.89583068 0 0 0 -0.084,0 z m 15.73145,26.36838 a 0.89583068,0.89583068 0 0 0 -0.44787,0.13996 l -3.27505,2.04341 a 0.89583068,0.89583068 0 0 0 -0.084,0.028 l -0.056,0.056 a 0.89583068,0.89583068 0 0 0 -0.27992,0.22394 0.89583068,0.89583068 0 0 0 0,0.028 0.89583068,0.89583068 0 0 0 -0.028,0.056 0.89583068,0.89583068 0 0 0 -0.11197,0.25192 0.89583068,0.89583068 0 0 0 0,0.084 0.89583068,0.89583068 0 0 0 0,0.028 0.89583068,0.89583068 0 0 0 -0.028,0.056 0.89583068,0.89583068 0 0 0 0,0.028 0.89583068,0.89583068 0 0 0 0,0.084 0.89583068,0.89583068 0 0 0 0.028,0.084 0.89583068,0.89583068 0 0 0 0.084,0.25193 0.89583068,0.89583068 0 0 0 0.13996,0.19594 0.89583068,0.89583068 0 0 0 0.084,0.084 0.89583068,0.89583068 0 0 0 0.056,0.056 c 0.005,0.005 0.0233,-0.005 0.028,0 a 0.89583068,0.89583068 0 0 0 0.056,0.056 c 4.89565,5.37068 10.118,9.70364 15.98338,13.18419 a 0.89583068,0.89583068 0 0 0 1.14767,-0.22393 c 1.35906,-1.74737 1.34508,-1.77307 2.88316,-3.24707 a 0.89583068,0.89583068 0 0 0 -0.22393,-1.45557 c -5.95002,-2.91172 -11.34745,-7.09206 -15.25559,-11.75661 a 0.89583068,0.89583068 0 0 0 -0.6998,-0.3359 z m -27.60002,0.056 a 0.89583068,0.89583068 0 0 0 -0.13996,0.028 0.89583068,0.89583068 0 0 0 -0.16795,0.028 0.89583068,0.89583068 0 0 0 -0.028,0.028 0.89583068,0.89583068 0 0 0 -0.028,0 0.89583068,0.89583068 0 0 0 -0.13996,0.084 0.89583068,0.89583068 0 0 0 -0.028,0.028 0.89583068,0.89583068 0 0 0 -0.028,0.028 0.89583068,0.89583068 0 0 0 -0.056,0.028 0.89583068,0.89583068 0 0 0 0,0.028 0.89583068,0.89583068 0 0 0 -0.11197,0.11197 0.89583068,0.89583068 0 0 0 0,0.028 0.89583068,0.89583068 0 0 0 -0.084,0.11197 0.89583068,0.89583068 0 0 0 -0.028,0.084 c -3.06964,5.55722 -8.51128,10.63454 -14.94768,13.88398 a 0.89583068,0.89583068 0 0 0 -0.16795,1.51157 c 1.11012,0.86342 1.95556,1.70437 3.02313,3.02312 a 0.89583068,0.89583068 0 0 0 1.17566,0.16795 c 6.67766,-4.18991 12.14117,-9.43013 16.15133,-15.67547 a 0.89583068,0.89583068 0 0 0 -0.30791,-1.25963 l -3.49899,-2.04341 -0.11197,-0.084 a 0.89583068,0.89583068 0 0 0 -0.028,-0.028 0.89583068,0.89583068 0 0 0 -0.056,0 0.89583068,0.89583068 0 0 0 -0.028,-0.028 0.89583068,0.89583068 0 0 0 -0.056,-0.028 0.89583068,0.89583068 0 0 0 -0.028,0 0.89583068,0.89583068 0 0 0 -0.056,-0.028 0.89583068,0.89583068 0 0 0 -0.028,0 0.89583068,0.89583068 0 0 0 -0.056,0 0.89583068,0.89583068 0 0 0 -0.028,-0.028 0.89583068,0.89583068 0 0 0 -0.11197,0 z m 27.73998,9.6852 a 0.89583068,0.89583068 0 0 0 -0.16795,0.056 0.89583068,0.89583068 0 0 0 -0.056,0.028 0.89583068,0.89583068 0 0 0 -0.13995,0.084 0.89583068,0.89583068 0 0 0 -0.084,0.056 0.89583068,0.89583068 0 0 0 -0.028,0 0.89583068,0.89583068 0 0 0 -0.056,0.084 0.89583068,0.89583068 0 0 0 -0.056,0.056 0.89583068,0.89583068 0 0 0 -0.028,0.056 0.89583068,0.89583068 0 0 0 -0.028,0.028 0.89583068,0.89583068 0 0 0 0,0.028 0.89583068,0.89583068 0 0 0 -0.084,0.13996 c -1.64874,2.95931 -5.23822,6.32232 -10.0491,9.3213 -8.03329,4.99708 -17.98761,7.74612 -28.80367,7.80975 a 0.89583068,0.89583068 0 0 0 -0.75578,1.3716 c 1.07437,1.64316 1.38977,2.34251 1.95943,4.11481 a 0.89583068,0.89583068 0 0 0 0.92373,0.61582 c 14.21285,-0.91279 26.14767,-5.34738 35.46575,-13.1562 1.49577,-1.23563 1.93459,-1.68265 6.5781,-6.32617 a 0.89583068,0.89583068 0 0 0 -0.11196,-1.34361 l -3.63895,-2.68722 a 0.89583068,0.89583068 0 0 0 -0.028,-0.028 0.89583068,0.89583068 0 0 0 -0.11197,-0.11197 0.89583068,0.89583068 0 0 0 -0.028,0 0.89583068,0.89583068 0 0 0 -0.028,-0.056 0.89583068,0.89583068 0 0 0 -0.028,0 0.89583068,0.89583068 0 0 0 -0.056,-0.028 0.89583068,0.89583068 0 0 0 -0.028,-0.028 0.89583068,0.89583068 0 0 0 -0.056,-0.028 0.89583068,0.89583068 0 0 0 -0.028,0 0.89583068,0.89583068 0 0 0 -0.056,-0.028 0.89583068,0.89583068 0 0 0 -0.028,0 0.89583068,0.89583068 0 0 0 -0.056,-0.028 0.89583068,0.89583068 0 0 0 -0.028,0 0.89583068,0.89583068 0 0 0 -0.056,0 0.89583068,0.89583068 0 0 0 -0.056,0 0.89583068,0.89583068 0 0 0 -0.028,0 0.89583068,0.89583068 0 0 0 -0.056,0 0.89583068,0.89583068 0 0 0 -0.084,0 z m 3.52698,27.79597 a 0.89583068,0.89583068 0 0 0 -0.36389,0.13996 c -2.35807,1.39737 -8.05406,3.06564 -14.61178,4.33875 -6.55772,1.2731 -14.05301,2.21989 -20.23815,2.37931 a 0.89583068,0.89583068 0 0 0 -0.86775,0.95172 c 0.12633,1.38961 0.19594,2.84534 0.19594,5.15052 l 0,24.46492 -3.86288,0 c -2.81056,0 -4.57712,-0.13905 -6.41015,-0.39188 a 0.89583068,0.89583068 0 0 0 -1.00771,0.89574 l 0,4.56268 a 0.89583068,0.89583068 0 0 0 1.00771,0.89574 c 1.82475,-0.25168 3.79505,-0.36389 6.41015,-0.36389 l 44.47914,0 c 2.6151,0 4.44359,0.11015 6.41015,0.36389 a 0.89583068,0.89583068 0 0 0 1.00771,-0.89574 l 0,-4.56268 a 0.89583068,0.89583068 0 0 0 -1.00771,-0.89574 c -1.83303,0.25283 -3.59959,0.39188 -6.41015,0.39188 l -8.95741,0 0,-13.38013 7.10995,0 c 2.5648,0 4.03724,0.0591 5.65436,0.30791 a 0.89583068,0.89583068 0 0 0 1.0357,-0.86775 l 0,-4.39473 a 0.89583068,0.89583068 0 0 0 -1.0357,-0.89574 c -1.62394,0.24984 -2.95986,0.33591 -5.65436,0.33591 l -32.72255,0 0,-6.35417 c 9.84383,-0.65402 21.26746,-2.78419 30.25926,-5.57039 1.67837,-0.51642 2.6508,-0.82518 3.1071,-1.00771 a 0.89583068,0.89583068 0 0 0 0.3639,-1.3716 l -3.10711,-3.89088 a 0.89583068,0.89583068 0 0 0 -0.78377,-0.3359 z m -29.83938,24.04505 19.62233,0 0,13.38013 -19.62233,0 0,-13.38013 z m 20.74201,19.76229 a 0.89583068,0.89583068 0 0 0 -0.3359,0.13996 l -3.30305,2.32333 -0.028,0 a 0.89583068,0.89583068 0 0 0 -0.084,0.056 l -0.028,0.028 a 0.89583068,0.89583068 0 0 0 -0.056,0.028 0.89583068,0.89583068 0 0 0 0,0.028 0.89583068,0.89583068 0 0 0 -0.056,0.028 0.89583068,0.89583068 0 0 0 0,0.028 0.89583068,0.89583068 0 0 0 -0.084,0.056 0.89583068,0.89583068 0 0 0 0,0.028 0.89583068,0.89583068 0 0 0 -0.028,0.028 0.89583068,0.89583068 0 0 0 0,0.028 0.89583068,0.89583068 0 0 0 -0.084,0.13996 0.89583068,0.89583068 0 0 0 0,0.028 0.89583068,0.89583068 0 0 0 -0.028,0.056 0.89583068,0.89583068 0 0 0 0,0.028 0.89583068,0.89583068 0 0 0 -0.028,0.056 0.89583068,0.89583068 0 0 0 0,0.028 0.89583068,0.89583068 0 0 0 0,0.056 0.89583068,0.89583068 0 0 0 -0.028,0.028 0.89583068,0.89583068 0 0 0 0,0.056 0.89583068,0.89583068 0 0 0 0,0.028 0.89583068,0.89583068 0 0 0 0.028,0.056 0.89583068,0.89583068 0 0 0 0,0.028 0.89583068,0.89583068 0 0 0 0,0.056 0.89583068,0.89583068 0 0 0 0,0.028 0.89583068,0.89583068 0 0 0 0.028,0.056 0.89583068,0.89583068 0 0 0 0,0.028 0.89583068,0.89583068 0 0 0 0.028,0.056 0.89583068,0.89583068 0 0 0 0.13996,0.25193 0.89583068,0.89583068 0 0 0 0.056,0.028 0.89583068,0.89583068 0 0 0 0.16796,0.16795 c 3.43221,3.54675 5.32136,5.26455 8.45355,7.50183 3.32109,2.3443 5.61549,3.60377 10.66492,5.93428 a 0.89583068,0.89583068 0 0 0 1.11968,-0.30791 c 1.2283,-1.81013 1.22846,-1.85878 2.7712,-3.72292 a 0.89583068,0.89583068 0 0 0 -0.39189,-1.42759 c -6.7565,-2.27322 -12.88812,-6.24519 -18.08277,-11.7566 a 0.89583068,0.89583068 0 0 0 -0.81177,-0.28068 z m -18.97851,1.28763 c -4.57903,4.90148 -11.11504,9.02347 -17.88684,11.28074 1.61234,1.41885 2.27967,2.21158 3.24707,3.69493 7.93267,-3.54714 11.65539,-6.07403 18.36269,-12.65234 l -3.72292,-2.32333 z"
       id="path5693" />
    <path
       style="font-size:medium;font-style:normal;font-variant:normal;font-weight:normal;font-stretch:normal;text-indent:0;text-align:start;text-decoration:none;line-height:normal;letter-spacing:normal;word-spacing:normal;text-transform:none;direction:ltr;block-progression:tb;writing-mode:lr-tb;text-anchor:start;baseline-shift:baseline;color:#000000;fill:#000000;fill-opacity:1;fill-rule:evenodd;stroke:none;stroke-width:3.2pt;marker:none;visibility:visible;display:inline;overflow:visible;enable-background:accumulate;font-family:Sans;-inkscape-font-specification:Sans"
       d="m 131.71428,545.75137 -1.20121,2.09665 -11.18213,19.35033 -1.22305,2.09664 2.42426,0 5.59106,0 0,28.47948 0,1.39777 1.39776,0 8.3866,0 1.39777,0 0,-1.39777 0,-28.47948 5.59107,0 2.42424,0 -1.22304,-2.09664 -11.18213,-19.35033 -1.2012,-2.09665 z"
       id="path4477"
       inkscape:connector-curvature="0" />
  </g>
</svg>
