<!-- Created with Inkscape (http://www.inkscape.org/) -->
<svg xmlns:rdf="http://www.w3.org/1999/02/22-rdf-syntax-ns#" xmlns="http://www.w3.org/2000/svg" height="262.56" width="228.25" version="1.1" xmlns:cc="http://creativecommons.org/ns#" xmlns:xlink="http://www.w3.org/1999/xlink" xmlns:dc="http://purl.org/dc/elements/1.1/">
<defs></defs>
<metadata>
<rdf:RDF>
<cc:Work rdf:about="">
<dc:format>image/svg+xml</dc:format>
<dc:type rdf:resource="http://purl.org/dc/dcmitype/StillImage"/>
<dc:title/>
</cc:Work>
</rdf:RDF>
</metadata>
<g transform="translate(-17.58926,-358.53183)">
<path stroke-linejoin="round" d="m36.652,616.09,190.12,0c4.125,0,7.5-0.6563,10.125-1.9687,2.625-1.3126,3.9375-3.4688,3.9375-6.4688,0-19.125-12.938-87.375-38.812-204.75-1.5-6-3.5859-10.758-6.2578-14.273-2.6719-3.5157-7.7109-6.4454-15.117-8.7891l-48.938-16.312-48.937,16.312c-7.4063,2.3437-12.445,5.2734-15.117,8.7891-2.6719,3.5156-4.7578,8.4609-6.2578,14.836-25.875,117-38.813,185.06-38.813,204.19,0,3,1.3125,5.1562,3.9375,6.4688,2.625,1.3124,6,1.9687,10.125,1.9687z" stroke="#000" stroke-linecap="round" stroke-miterlimit="4" stroke-dasharray="none" stroke-width="10" fill="#FFF"/>
<use xlink:href="#lance" transform="matrix(-4,0,0,-4,42,80)" height="100.5" width="100.5" y="0" x="0"/>
<use xlink:href="#lance" transform="matrix(-4,0,0,-4,42,80)" height="100.5" width="100.5" y="0" x="0"/>
<use xlink:href="#lance" transform="matrix(-4,0,0,-4,42,80)" height="100.5" width="100.5" y="0" x="0"/>
<path fill="#000" d="m129.7,380.6a0.89583,0.89583,0,0,0,-0.81177,1.0357c0.2521,1.7017,0.39189,3.3004,0.39189,5.8503v13.044h-10.077v-8.2016c0-2.435,0.0481-3.6403,0.3639-5.5984a0.89583,0.89583,0,0,0,-0.86775,-1.0357h-4.7866a0.89583,0.89583,0,0,0,-0.89574,1.0357c0.25333,1.7733,0.39189,3.3098,0.39189,5.5984v8.2016h-3.359c-3.0058,0-4.8939-0.13844-6.858-0.39189a0.89583,0.89583,0,0,0,-1.0077,0.89575v4.5067a0.89583,0.89583,0,0,0,1.0077,0.89574c1.9617-0.25312,3.9173-0.36389,6.858-0.36389h19.09v13.8c0,0.18546-0.022,0.26133-0.028,0.27992-0.10357,0.0529-0.67956,0.16795-1.7075,0.16795-2.1401,0-4.2854-0.19133-7.082-0.6998a0.89583,0.89583,0,0,0,-0.97972,1.2316c0.56189,1.4359,0.79207,2.3272,0.97972,3.8909a0.89583,0.89583,0,0,0,0.81176,0.78378c2.3546,0.19621,4.6872,0.27992,6.5781,0.27992,2.4006,0,4.1836-0.28578,5.4864-1.1477,1.3029-0.86189,1.9314-2.3586,1.9314-4.0868v-14.5h18.335c2.6803,0,4.6721,0.11258,6.4941,0.36389a0.89583,0.89583,0,0,0,1.0357,-0.89574v-4.5067a0.89583,0.89583,0,0,0,-1.0357,-0.89575c-1.8303,0.25246-3.6185,0.39189-6.4941,0.39189h-18.335v-6.774h13.492c2.9537,0,4.2382,0.0566,5.9343,0.30791a0.89583,0.89583,0,0,0,1.0077,-0.89574v-4.3108a0.89583,0.89583,0,0,0,-1.0077,-0.89574c-1.7017,0.2521-3.3192,0.39189-5.9343,0.39189h-13.492v-0.97972c0-2.6297,0.0541-4.0376,0.36389-5.7104a0.89583,0.89583,0,0,0,-0.86775,-1.0637h-4.8426a0.89583,0.89583,0,0,0,-0.084,0zm15.731,26.368a0.89583,0.89583,0,0,0,-0.44787,0.13996l-3.275,2.0434a0.89583,0.89583,0,0,0,-0.084,0.028l-0.056,0.056a0.89583,0.89583,0,0,0,-0.27992,0.22394,0.89583,0.89583,0,0,0,0,0.028,0.89583,0.89583,0,0,0,-0.028,0.056,0.89583,0.89583,0,0,0,-0.11197,0.25192,0.89583,0.89583,0,0,0,0,0.084,0.89583,0.89583,0,0,0,0,0.028,0.89583,0.89583,0,0,0,-0.028,0.056,0.89583,0.89583,0,0,0,0,0.028,0.89583,0.89583,0,0,0,0,0.084,0.89583,0.89583,0,0,0,0.028,0.084,0.89583,0.89583,0,0,0,0.084,0.25193,0.89583,0.89583,0,0,0,0.13996,0.19594,0.89583,0.89583,0,0,0,0.084,0.084,0.89583,0.89583,0,0,0,0.056,0.056c0.005,0.005,0.0233-0.005,0.028,0a0.89583,0.89583,0,0,0,0.056,0.056c4.8956,5.3707,10.118,9.7036,15.983,13.184a0.89583,0.89583,0,0,0,1.1477,-0.22393c1.3591-1.7474,1.3451-1.7731,2.8832-3.2471a0.89583,0.89583,0,0,0,-0.22393,-1.4556c-5.95-2.9117-11.347-7.0921-15.256-11.757a0.89583,0.89583,0,0,0,-0.6998,-0.3359zm-27.6,0.056a0.89583,0.89583,0,0,0,-0.13996,0.028,0.89583,0.89583,0,0,0,-0.16795,0.028,0.89583,0.89583,0,0,0,-0.028,0.028,0.89583,0.89583,0,0,0,-0.028,0,0.89583,0.89583,0,0,0,-0.13996,0.084,0.89583,0.89583,0,0,0,-0.028,0.028,0.89583,0.89583,0,0,0,-0.028,0.028,0.89583,0.89583,0,0,0,-0.056,0.028,0.89583,0.89583,0,0,0,0,0.028,0.89583,0.89583,0,0,0,-0.11197,0.11197,0.89583,0.89583,0,0,0,0,0.028,0.89583,0.89583,0,0,0,-0.084,0.11197,0.89583,0.89583,0,0,0,-0.028,0.084c-3.0696,5.5572-8.5113,10.635-14.948,13.884a0.89583,0.89583,0,0,0,-0.16795,1.5116c1.1101,0.86342,1.9556,1.7044,3.0231,3.0231a0.89583,0.89583,0,0,0,1.1757,0.16795c6.6777-4.1899,12.141-9.4301,16.151-15.675a0.89583,0.89583,0,0,0,-0.30791,-1.2596l-3.499-2.0434-0.11197-0.084a0.89583,0.89583,0,0,0,-0.028,-0.028,0.89583,0.89583,0,0,0,-0.056,0,0.89583,0.89583,0,0,0,-0.028,-0.028,0.89583,0.89583,0,0,0,-0.056,-0.028,0.89583,0.89583,0,0,0,-0.028,0,0.89583,0.89583,0,0,0,-0.056,-0.028,0.89583,0.89583,0,0,0,-0.028,0,0.89583,0.89583,0,0,0,-0.056,0,0.89583,0.89583,0,0,0,-0.028,-0.028,0.89583,0.89583,0,0,0,-0.11197,0zm27.74,9.6852a0.89583,0.89583,0,0,0,-0.16795,0.056,0.89583,0.89583,0,0,0,-0.056,0.028,0.89583,0.89583,0,0,0,-0.13995,0.084,0.89583,0.89583,0,0,0,-0.084,0.056,0.89583,0.89583,0,0,0,-0.028,0,0.89583,0.89583,0,0,0,-0.056,0.084,0.89583,0.89583,0,0,0,-0.056,0.056,0.89583,0.89583,0,0,0,-0.028,0.056,0.89583,0.89583,0,0,0,-0.028,0.028,0.89583,0.89583,0,0,0,0,0.028,0.89583,0.89583,0,0,0,-0.084,0.13996c-1.6487,2.9593-5.2382,6.3223-10.049,9.3213-8.0333,4.9971-17.988,7.7461-28.804,7.8098a0.89583,0.89583,0,0,0,-0.75578,1.3716c1.0744,1.6432,1.3898,2.3425,1.9594,4.1148a0.89583,0.89583,0,0,0,0.92373,0.61582c14.213-0.91279,26.148-5.3474,35.466-13.156,1.4958-1.2356,1.9346-1.6826,6.5781-6.3262a0.89583,0.89583,0,0,0,-0.11196,-1.3436l-3.639-2.6872a0.89583,0.89583,0,0,0,-0.028,-0.028,0.89583,0.89583,0,0,0,-0.11197,-0.11197,0.89583,0.89583,0,0,0,-0.028,0,0.89583,0.89583,0,0,0,-0.028,-0.056,0.89583,0.89583,0,0,0,-0.028,0,0.89583,0.89583,0,0,0,-0.056,-0.028,0.89583,0.89583,0,0,0,-0.028,-0.028,0.89583,0.89583,0,0,0,-0.056,-0.028,0.89583,0.89583,0,0,0,-0.028,0,0.89583,0.89583,0,0,0,-0.056,-0.028,0.89583,0.89583,0,0,0,-0.028,0,0.89583,0.89583,0,0,0,-0.056,-0.028,0.89583,0.89583,0,0,0,-0.028,0,0.89583,0.89583,0,0,0,-0.056,0,0.89583,0.89583,0,0,0,-0.056,0,0.89583,0.89583,0,0,0,-0.028,0,0.89583,0.89583,0,0,0,-0.056,0,0.89583,0.89583,0,0,0,-0.084,0zm3.527,27.796a0.89583,0.89583,0,0,0,-0.36389,0.13996c-2.3581,1.3974-8.0541,3.0656-14.612,4.3388-6.5577,1.2731-14.053,2.2199-20.238,2.3793a0.89583,0.89583,0,0,0,-0.86775,0.95172c0.12633,1.3896,0.19594,2.8453,0.19594,5.1505v24.465h-3.8629c-2.8106,0-4.5771-0.13905-6.4102-0.39188a0.89583,0.89583,0,0,0,-1.0077,0.89574v4.5627a0.89583,0.89583,0,0,0,1.0077,0.89574c1.8248-0.25168,3.795-0.36389,6.4102-0.36389h44.479c2.6151,0,4.4436,0.11015,6.4102,0.36389a0.89583,0.89583,0,0,0,1.0077,-0.89574v-4.5627a0.89583,0.89583,0,0,0,-1.0077,-0.89574c-1.833,0.25283-3.5996,0.39188-6.4102,0.39188h-8.9574v-13.38h7.11c2.5648,0,4.0372,0.0591,5.6544,0.30791a0.89583,0.89583,0,0,0,1.0357,-0.86775v-4.3947a0.89583,0.89583,0,0,0,-1.0357,-0.89574c-1.6239,0.24984-2.9599,0.33591-5.6544,0.33591h-32.723v-6.3542c9.8438-0.65402,21.267-2.7842,30.259-5.5704,1.6784-0.51642,2.6508-0.82518,3.1071-1.0077a0.89583,0.89583,0,0,0,0.3639,-1.3716l-3.1071-3.8909a0.89583,0.89583,0,0,0,-0.78377,-0.3359zm-29.839,24.045,19.622,0,0,13.38-19.622,0,0-13.38zm20.742,19.762a0.89583,0.89583,0,0,0,-0.3359,0.13996l-3.303,2.3233h-0.028a0.89583,0.89583,0,0,0,-0.084,0.056l-0.028,0.028a0.89583,0.89583,0,0,0,-0.056,0.028,0.89583,0.89583,0,0,0,0,0.028,0.89583,0.89583,0,0,0,-0.056,0.028,0.89583,0.89583,0,0,0,0,0.028,0.89583,0.89583,0,0,0,-0.084,0.056,0.89583,0.89583,0,0,0,0,0.028,0.89583,0.89583,0,0,0,-0.028,0.028,0.89583,0.89583,0,0,0,0,0.028,0.89583,0.89583,0,0,0,-0.084,0.13996,0.89583,0.89583,0,0,0,0,0.028,0.89583,0.89583,0,0,0,-0.028,0.056,0.89583,0.89583,0,0,0,0,0.028,0.89583,0.89583,0,0,0,-0.028,0.056,0.89583,0.89583,0,0,0,0,0.028,0.89583,0.89583,0,0,0,0,0.056,0.89583,0.89583,0,0,0,-0.028,0.028,0.89583,0.89583,0,0,0,0,0.056,0.89583,0.89583,0,0,0,0,0.028,0.89583,0.89583,0,0,0,0.028,0.056,0.89583,0.89583,0,0,0,0,0.028,0.89583,0.89583,0,0,0,0,0.056,0.89583,0.89583,0,0,0,0,0.028,0.89583,0.89583,0,0,0,0.028,0.056,0.89583,0.89583,0,0,0,0,0.028,0.89583,0.89583,0,0,0,0.028,0.056,0.89583,0.89583,0,0,0,0.13996,0.25193,0.89583,0.89583,0,0,0,0.056,0.028,0.89583,0.89583,0,0,0,0.16796,0.16795c3.4322,3.5468,5.3214,5.2646,8.4536,7.5018,3.3211,2.3443,5.6155,3.6038,10.665,5.9343a0.89583,0.89583,0,0,0,1.1197,-0.30791c1.2283-1.8101,1.2285-1.8588,2.7712-3.7229a0.89583,0.89583,0,0,0,-0.39189,-1.4276c-6.7565-2.2732-12.888-6.2452-18.083-11.757a0.89583,0.89583,0,0,0,-0.81177,-0.28068zm-18.979,1.2876c-4.579,4.9015-11.115,9.0235-17.887,11.281,1.6123,1.4188,2.2797,2.2116,3.2471,3.6949,7.9327-3.5471,11.655-6.074,18.363-12.652l-3.7229-2.3233z"/>
<path fill-rule="evenodd" style="baseline-shift:baseline;block-progression:tb;color:#000000;direction:ltr;text-indent:0;text-align:start;enable-background:accumulate;text-transform:none;" fill="#000" d="m131.71,545.75-1.2012,2.0966-11.182,19.35-1.223,2.0966,2.4243,0,5.5911,0,0,28.479,0,1.3978,1.3978,0,8.3866,0,1.3978,0,0-1.3978,0-28.479,5.5911,0,2.4242,0-1.223-2.0966-11.182-19.35-1.2012-2.0966z"/>
</g>
</svg>
