<!-- Created with Inkscape (http://www.inkscape.org/) -->
<svg xmlns:rdf="http://www.w3.org/1999/02/22-rdf-syntax-ns#" xmlns="http://www.w3.org/2000/svg" height="262.56" width="228.25" version="1.1" xmlns:cc="http://creativecommons.org/ns#" xmlns:xlink="http://www.w3.org/1999/xlink" viewBox="0 0 228.25 262.56" xmlns:dc="http://purl.org/dc/elements/1.1/">
<metadata>
<rdf:RDF>
<cc:Work rdf:about="">
<dc:format>image/svg+xml</dc:format>
<dc:type rdf:resource="http://purl.org/dc/dcmitype/StillImage"/>
<dc:title/>
</cc:Work>
</rdf:RDF>
</metadata>
<path stroke-linejoin="round" d="m19.061,257.56,190.12,0c4.125,0,7.5-0.6563,10.125-1.9687,2.625-1.3126,3.9375-3.4688,3.9375-6.4688,0-19.125-12.938-87.375-38.813-204.75-1.5-6-3.5859-10.758-6.2578-14.273-2.6719-3.5157-7.7109-6.4454-15.117-8.7891l-48.938-16.312-48.938,16.312c-7.4063,2.3437-12.445,5.2734-15.117,8.7891-2.6719,3.5156-4.7578,8.4609-6.2578,14.836-25.875,117-38.813,185.06-38.813,204.19,0,3,1.3125,5.1562,3.9375,6.4688,2.625,1.3124,6,1.9687,10.125,1.9687z" stroke="#000" stroke-linecap="round" stroke-miterlimit="4" stroke-dasharray="none" stroke-width="10" fill="#000"/>
<use xlink:href="#lance" transform="matrix(-4,0,0,-4,-235.58924,-658.53183)" height="100.5" width="100.5" y="0" x="0"/>
<use xlink:href="#lance" transform="matrix(-4,0,0,-4,-235.58924,-658.53183)" height="100.5" width="100.5" y="0" x="0"/>
<use xlink:href="#lance" transform="matrix(-4,0,0,-4,-235.58924,-658.53183)" height="100.5" width="100.5" y="0" x="0"/>
</svg>
