<!-- Created with Inkscape (http://www.inkscape.org/) -->
<svg xmlns:rdf="http://www.w3.org/1999/02/22-rdf-syntax-ns#" xmlns="http://www.w3.org/2000/svg" height="262.56" width="228.25" viewBox="0 0 228.25 262.56" version="1.1" xmlns:cc="http://creativecommons.org/ns#" xmlns:xlink="http://www.w3.org/1999/xlink" xmlns:dc="http://purl.org/dc/elements/1.1/">
<defs></defs>
<metadata>
<rdf:RDF>
<cc:Work rdf:about="">
<dc:format>image/svg+xml</dc:format>
<dc:type rdf:resource="http://purl.org/dc/dcmitype/StillImage"/>
<dc:title/>
</cc:Work>
</rdf:RDF>
</metadata>
<g transform="translate(-537.58924,-738.53183)">
<path stroke-linejoin="round" d="m556.65,996.09,190.12,0c4.125,0,7.5-0.6563,10.125-1.9687,2.625-1.3126,3.9375-3.4688,3.9375-6.4688,0-19.125-12.938-87.375-38.813-204.75-1.5-6-3.5859-10.758-6.2578-14.273-2.6719-3.5157-7.7109-6.4454-15.117-8.7891l-48.938-16.312-48.938,16.312c-7.4063,2.3437-12.445,5.2734-15.117,8.7891-2.6719,3.5156-4.7578,8.4609-6.2578,14.836-25.875,117-38.813,185.06-38.813,204.19,0,3,1.3125,5.1562,3.9375,6.4688,2.625,1.3124,6,1.9687,10.125,1.9687z" stroke="#000" stroke-linecap="round" stroke-miterlimit="4" stroke-dasharray="none" stroke-width="10" fill="#FFF"/>
<use xlink:href="#lance" transform="matrix(-4,0,0,-4,42,80)" height="100.5" width="100.5" y="0" x="0"/>
<use xlink:href="#lance" transform="matrix(-4,0,0,-4,42,80)" height="100.5" width="100.5" y="0" x="0"/>
<use xlink:href="#lance" transform="matrix(-4,0,0,-4,42,80)" height="100.5" width="100.5" y="0" x="0"/>
<path fill="#000" d="m624.68,760.6a0.89583,0.89583,0,0,0,-0.75579,0.89574v4.5627a0.89583,0.89583,0,0,0,1.0357,0.89574c2.0143-0.31474,3.4966-0.39189,6.774-0.39189h8.7055c-2.6654,2.2232-4.2211,3.177-7.9497,4.7306a0.89583,0.89583,0,0,0,-0.028,0c-3.5026,1.5284-6.1185,2.3418-9.8811,3.1071a0.89583,0.89583,0,0,0,-0.47586,1.5116c1.1207,1.183,1.3312,1.5906,2.0994,3.1911a0.89583,0.89583,0,0,0,1.0637,0.47586c3.0962-0.88462,4.9116-1.5757,7.1659-2.4633-0.0009,3.1643-0.0159,5.6715-0.056,7.1939h-3.9469-0.056c-3.3307,0-5.1539-0.11719-6.6341-0.36389a0.89583,0.89583,0,0,0,-1.0357,0.89574v4.4507a0.89583,0.89583,0,0,0,1.0357,0.86775c1.7437-0.2491,3.9538-0.36389,6.6341-0.36389h3.639c-0.52215,7.0887-1.386,10.956-3.415,15.2-0.004,0.008,0.004,0.0199,0,0.028-1.9648,3.9257-3.3033,5.6684-7.4458,9.2373a0.89583,0.89583,0,0,0,0.0839,1.4276c1.5956,1.085,1.8824,1.3478,3.2191,2.9392a0.89583,0.89583,0,0,0,1.3436,0.028c5.0677-5.2626,7.5649-8.8254,9.3493-13.716a0.89583,0.89583,0,0,0,0,-0.028c1.3832-4.0238,2.1904-8.6255,2.6032-15.116h8.7615v21.61c0,2.9407-0.14179,4.6725-0.39189,6.2982a0.89583,0.89583,0,0,0,0.89574,1.0357h4.7586a0.89583,0.89583,0,0,0,0.89574,-1.0077c-0.25315-1.8986-0.39189-3.7019-0.39189-6.3822v-21.554h7.3339c0.27428,5.9395,0.78142,9.4135,1.9034,12.904a0.89583,0.89583,0,0,0,0,0.028c1.1939,3.6482,3.1028,7.1386,5.4584,9.7692,0.009,0.0104,0.019,0.0176,0.028,0.028,3.0626,3.5188,6.495,5.8223,9.4053,5.8223,1.6224,0,3.0905-0.68426,4.0588-2.1274,0.96828-1.4431,1.5859-3.5304,2.2394-6.6341a0.89583,0.89583,0,0,0,-0.58783,-1.0357c-1.3676-0.43515-1.9751-0.74651-3.2191-1.6795a0.89583,0.89583,0,0,0,-0.16795,-0.0839l1.5396-2.2953a0.89583,0.89583,0,0,0,-0.22393,-1.2316c-3.0506-2.3035-4.8017-3.4297-8.2016-5.2345,1.737-1.609,3.1732-3.0746,4.8146-5.1505a0.89583,0.89583,0,0,0,-0.16795,-1.2876l-0.72779-0.53185c1.2245-0.15628,2.3387-0.6881,3.1911-1.7635,0.98823-1.2468,1.7629-3.0199,2.5193-5.4864a0.89583,0.89583,0,0,0,-0.55984,-1.1197c-1.212-0.42421-2.0115-0.86805-3.1351-1.6795a0.89583,0.89583,0,0,0,-0.11196,-0.056l2.1274-3.1631a0.89583,0.89583,0,0,0,-0.19594,-1.2036c-3.3906-2.5892-4.9392-3.5859-8.1456-5.2345,2.4369-2.0472,4.6203-4.186,6.5781-6.6621a0.89583,0.89583,0,0,0,-0.16795,-1.2876l-2.9392-2.0994-0.16795-0.13996a0.89583,0.89583,0,0,0,-0.028,-0.028,0.89583,0.89583,0,0,0,-0.056,-0.028,0.89583,0.89583,0,0,0,-0.0839,-0.056,0.89583,0.89583,0,0,0,-0.056,-0.028,0.89583,0.89583,0,0,0,-0.11197,-0.028,0.89583,0.89583,0,0,0,-0.16795,-0.028,0.89583,0.89583,0,0,0,-0.028,0,0.89583,0.89583,0,0,0,-0.30791,0.056,0.89583,0.89583,0,0,0,-0.25193,0.13996,0.89583,0.89583,0,0,0,0,0.028,0.89583,0.89583,0,0,0,-0.056,0.028,0.89583,0.89583,0,0,0,-0.028,0.028,0.89583,0.89583,0,0,0,-0.028,0.028,0.89583,0.89583,0,0,0,-0.056,0.0839,0.89583,0.89583,0,0,0,-0.11197,0.13996c-2.1014,2.9482-3.6286,4.5875-6.4941,6.83a0.89583,0.89583,0,0,0,-0.0839,1.3156l2.4633,2.5193a0.89583,0.89583,0,0,0,0.028,0.028l-1.3716,1.8195h-0.028a0.89583,0.89583,0,0,0,-0.056,0.056v0.028a0.89583,0.89583,0,0,0,-0.056,0.056,0.89583,0.89583,0,0,0,0,0.028,0.89583,0.89583,0,0,0,-0.028,0.028,0.89583,0.89583,0,0,0,-0.028,0.056,0.89583,0.89583,0,0,0,-0.028,0.028,0.89583,0.89583,0,0,0,0,0.056,0.89583,0.89583,0,0,0,-0.028,0.028,0.89583,0.89583,0,0,0,0,0.056,0.89583,0.89583,0,0,0,0,0.028,0.89583,0.89583,0,0,0,0,0.056,0.89583,0.89583,0,0,0,-0.028,0.056,0.89583,0.89583,0,0,0,0,0.028,0.89583,0.89583,0,0,0,0,0.056,0.89583,0.89583,0,0,0,0,0.028,0.89583,0.89583,0,0,0,0,0.056,0.89583,0.89583,0,0,0,0,0.028,0.89583,0.89583,0,0,0,0.028,0.056,0.89583,0.89583,0,0,0,0,0.028,0.89583,0.89583,0,0,0,0,0.056,0.89583,0.89583,0,0,0,0.028,0.028,0.89583,0.89583,0,0,0,0.028,0.056,0.89583,0.89583,0,0,0,0.028,0.056,0.89583,0.89583,0,0,0,0,0.028,0.89583,0.89583,0,0,0,0.028,0.028,0.89583,0.89583,0,0,0,0.028,0.056,0.89583,0.89583,0,0,0,0,0.028,0.89583,0.89583,0,0,0,0.056,0.028,0.89583,0.89583,0,0,0,0,0.028,0.89583,0.89583,0,0,0,0.056,0.056,0.89583,0.89583,0,0,0,0.028,0.028,0.89583,0.89583,0,0,0,0.028,0.028,0.89583,0.89583,0,0,0,0.028,0.028,0.89583,0.89583,0,0,0,0.056,0.028,0.89583,0.89583,0,0,0,0.028,0,0.89583,0.89583,0,0,0,0.028,0.028,0.89583,0.89583,0,0,0,0.056,0.028c3.7969,2.0906,5.3176,3.1157,8.1736,5.6544a0.89583,0.89583,0,0,0,0.16795,0.11196,0.89583,0.89583,0,0,0,-0.13996,0.30792c-0.34759,1.58-0.68691,2.6465-0.97972,3.2191-0.14641,0.2863-0.27108,0.44988-0.3359,0.50385-0.0648,0.0539-0.0329,0.028-0.056,0.028-0.0915,0-0.86369-0.2785-1.6795-0.92374-0.81582-0.64524-1.7469-1.5854-2.5753-2.6592-2.9998-3.8569-4.5907-9.3963-4.5907-16.683,0-1.26,0.0728-2.2759,0.30791-3.275a0.89583,0.89583,0,0,0,-0.97972,-1.0917c-2.5562,0.25561-4.188,0.30791-6.2982,0.30791h-27.264c-3.2658,0-5.029-0.10984-6.998-0.3639a0.89583,0.89583,0,0,0,-0.25193,0zm17.327,5.9623,18.727,0c0.32224,6.5517,1.3292,11.156,3.611,15.34,1.3452,2.5222,3.2037,4.784,5.1225,6.4661,0.79143,0.69382,1.5835,1.2393,2.3793,1.7075-1.4849,2.1568-2.7627,3.5416-5.4304,5.7943a0.89583,0.89583,0,0,0,-0.056,1.3156l2.3793,2.5193a0.89583,0.89583,0,0,0,0.27992,0.19594l-0.61582,0.83976a0.89583,0.89583,0,0,0,-0.056,0.056l-0.028,0.028a0.89583,0.89583,0,0,0,-0.0839,0.0839v0.028a0.89583,0.89583,0,0,0,-0.056,0.056,0.89583,0.89583,0,0,0,-0.13996,0.41988,0.89583,0.89583,0,0,0,0,0.028,0.89583,0.89583,0,0,0,0,0.056,0.89583,0.89583,0,0,0,0,0.028,0.89583,0.89583,0,0,0,0,0.056,0.89583,0.89583,0,0,0,0,0.028,0.89583,0.89583,0,0,0,0.028,0.056,0.89583,0.89583,0,0,0,0,0.028,0.89583,0.89583,0,0,0,0.028,0.056,0.89583,0.89583,0,0,0,0,0.028,0.89583,0.89583,0,0,0,0.028,0.056,0.89583,0.89583,0,0,0,0,0.028,0.89583,0.89583,0,0,0,0.028,0.056,0.89583,0.89583,0,0,0,0,0.028,0.89583,0.89583,0,0,0,0.056,0.056,0.89583,0.89583,0,0,0,0,0.028,0.89583,0.89583,0,0,0,0.056,0.028,0.89583,0.89583,0,0,0,0.028,0.056,0.89583,0.89583,0,0,0,0.028,0.028,0.89583,0.89583,0,0,0,0.028,0,0.89583,0.89583,0,0,0,0.056,0.056,0.89583,0.89583,0,0,0,0.0839,0.056,0.89583,0.89583,0,0,0,0.028,0,0.89583,0.89583,0,0,0,0.13996,0.0839,0.89583,0.89583,0,0,0,0.0839,0.028c3.7658,1.9577,5.4314,3.1484,7.9777,5.5704a0.89583,0.89583,0,0,0,0.61582,0.22393c-0.2012,1.343-0.42207,2.561-0.67181,3.1911-0.15115,0.38131-0.30216,0.63332-0.39189,0.72779-0.0897,0.0945-0.0548,0.028-0.028,0.028-0.13155,0-0.71818-0.13619-1.3996-0.53185-0.67617-0.39261-1.4968-1.0028-2.3233-1.7355-2.3752-2.1316-4.311-5.2139-5.6264-9.0974-0.91884-2.879-1.7075-8.0947-1.7075-12.176,0-1.6768-0.004-2.7481,0.056-3.527a0.89583,0.89583,0,0,0,-0.95173,-0.97971c-2.1856,0.19285-3.1796,0.25192-5.0945,0.25192h-6.914v-10.889c0-2.6945,0.0638-4.0651,0.25193-5.5704a0.89583,0.89583,0,0,0,-0.86775,-1.0077h-4.5347a0.89583,0.89583,0,0,0,-0.86775,1.0357c0.18482,1.2321,0.25193,2.4592,0.25193,5.5424v10.889h-8.4816c0.0946-2.6364,0.13973-4.2228,0.13996-9.8252,2.3494-1.2197,3.884-2.0795,7.026-4.2548a0.89583,0.89583,0,0,0,0,-1.4836l-3.1911-2.1834zm5.6544,56.46a0.89583,0.89583,0,0,0,-0.69979,1.0357c0.31113,1.8046,0.44559,3.4176,0.44787,5.9903h-17.691c-2.8757,0-4.669-0.13695-6.4102-0.44788a0.89583,0.89583,0,0,0,-1.0637,0.89575v4.4507a0.89583,0.89583,0,0,0,1.0357,0.89574c1.822-0.25131,3.8323-0.39189,6.3822-0.39189h17.747v3.7509h-11.421c-3.7303,0-5.4893-0.0622-6.998-0.3639a0.89583,0.89583,0,0,0,-1.0637,0.95173c0.19229,2.0511,0.25192,3.1557,0.25192,6.886v9.9371c0,3.6656-0.0598,4.7608-0.25192,6.746a0.89583,0.89583,0,0,0,1.0357,0.97971c1.5442-0.24708,3.4842-0.39188,7.3339-0.39188h11.113v3.9469h-18.195c-3.0708,0-4.807-0.11158-6.4102-0.41988a0.89583,0.89583,0,0,0,-1.0637,0.86775v4.5347a0.89583,0.89583,0,0,0,1.0357,0.86775c1.6795-0.24881,3.7578-0.3639,6.4381-0.3639h18.195v2.1834c0,3.3422-0.0692,4.7328-0.44787,6.942a0.89583,0.89583,0,0,0,0.89574,1.0637h4.8426a0.89583,0.89583,0,0,0,0.86775,-1.0637c-0.37595-2.0051-0.44787-3.4057-0.44787-6.942v-2.1834h19.174c2.6803,0,4.6444,0.11077,6.6061,0.3639a0.89583,0.89583,0,0,0,1.0077,-0.86775v-4.5347a0.89583,0.89583,0,0,0,-1.0917,-0.86775c-1.5312,0.30625-3.2564,0.41988-6.5221,0.41988h-19.174v-3.9469h12.204c3.7848,0,5.674,0.14421,7.2219,0.39188a0.89583,0.89583,0,0,0,1.0357,-0.97971c-0.19246-2.0528-0.25192-3.0804-0.25192-6.746v-10.133c0-3.601,0.0595-4.6372,0.25192-6.6901a0.89583,0.89583,0,0,0,-1.0637,-0.95173c-1.5856,0.30493-3.2783,0.3639-7.1379,0.3639h-12.26v-3.7509h18.531c2.5499,0,4.4925,0.13819,6.5221,0.39189a0.89583,0.89583,0,0,0,1.0077,-0.89574v-4.4507a0.89583,0.89583,0,0,0,-1.0637,-0.89575c-1.6074,0.30912-3.2564,0.44788-6.5221,0.44788h-18.475c0.003-2.5092,0.13573-4.1175,0.44787-5.9903a0.89583,0.89583,0,0,0,-0.86775,-1.0357h-4.8426a0.89583,0.89583,0,0,0,-0.19595,0zm-13.688,21.47,13.436,0,0,4.3947-13.436,0,0-4.3947zm19.146,0,14.416,0,0,4.3947-14.416,0,0-4.3947zm-19.146,9.6572,13.436,0,0,4.5347-13.436,0,0-4.5347zm19.146,0,14.416,0,0,4.5347-14.416,0,0-4.5347z"/>
<path fill-rule="evenodd" style="baseline-shift:baseline;block-progression:tb;color:#000000;direction:ltr;text-indent:0;text-align:start;enable-background:accumulate;text-transform:none;" fill="#000" d="m650.58,888.97-1.2012,2.0966-11.182,19.35-1.223,2.0967,2.4242,0,5.5911,0,0,16.118-15.528,0,0-5.5911,0-2.4243-2.0966,1.223-19.35,11.182-2.0966,1.2012,2.0966,1.2012,19.35,11.182,2.0966,1.223,0-2.4242,0-5.5911,15.528,0,0,17.21-5.5911,0-2.4242,0,1.223,2.0966,11.182,19.328,1.2012,2.0967,1.2012-2.0967,11.182-19.328,1.223-2.0966-2.4242,0-5.5911,0,0-17.21,17.8,0,0,5.5911,0,2.4242,2.0966-1.223,19.35-11.182,2.0966-1.2012-2.0966-1.2012-19.35-11.182-2.0966-1.223,0,2.4243,0,5.5911-17.8,0,0-16.118,5.5911,0,2.4242,0-1.223-2.0967-11.182-19.35-1.2012-2.0966z"/>
</g>
</svg>
