<?xml version="1.0" encoding="UTF-8" standalone="no"?>
<!-- Created with Inkscape (http://www.inkscape.org/) -->

<svg
   xmlns:dc="http://purl.org/dc/elements/1.1/"
   xmlns:cc="http://creativecommons.org/ns#"
   xmlns:rdf="http://www.w3.org/1999/02/22-rdf-syntax-ns#"
   xmlns:svg="http://www.w3.org/2000/svg"
   xmlns="http://www.w3.org/2000/svg"
   xmlns:xlink="http://www.w3.org/1999/xlink"
   xmlns:sodipodi="http://sodipodi.sourceforge.net/DTD/sodipodi-0.dtd"
   xmlns:inkscape="http://www.inkscape.org/namespaces/inkscape"
   width="253.12505"
   height="281.25006"
   id="svg2"
   version="1.1"
   inkscape:version="0.48.4 r9939"
   inkscape:export-filename="shogi-king.png"
   inkscape:export-xdpi="300.16"
   inkscape:export-ydpi="300.16"
   sodipodi:docname="rook.svg">
  <defs
     id="defs4">
    <marker
       inkscape:stockid="TriangleOutL"
       orient="auto"
       refY="0"
       refX="0"
       id="TriangleOutL"
       style="overflow:visible">
      <path
         id="path4284"
         d="m 5.77,0 -8.65,5 0,-10 8.65,5 z"
         style="fill-rule:evenodd;stroke:#000000;stroke-width:1pt"
         transform="scale(0.8,0.8)"
         inkscape:connector-curvature="0" />
    </marker>
    <marker
       inkscape:stockid="Arrow2Mstart"
       orient="auto"
       refY="0"
       refX="0"
       id="Arrow2Mstart"
       style="overflow:visible">
      <path
         id="path4166"
         style="fill-rule:evenodd;stroke-width:0.625;stroke-linejoin:round"
         d="M 8.7185878,4.0337352 -2.2072895,0.01601326 8.7185884,-4.0017078 c -1.7454984,2.3720609 -1.7354408,5.6174519 -6e-7,8.035443 z"
         transform="scale(0.6,0.6)"
         inkscape:connector-curvature="0" />
    </marker>
    <marker
       inkscape:stockid="Arrow2Lend"
       orient="auto"
       refY="0"
       refX="0"
       id="Arrow2Lend"
       style="overflow:visible">
      <path
         id="path4163"
         style="fill-rule:evenodd;stroke-width:0.625;stroke-linejoin:round"
         d="M 8.7185878,4.0337352 -2.2072895,0.01601326 8.7185884,-4.0017078 c -1.7454984,2.3720609 -1.7354408,5.6174519 -6e-7,8.035443 z"
         transform="matrix(-1.1,0,0,-1.1,-1.1,0)"
         inkscape:connector-curvature="0" />
    </marker>
    <marker
       inkscape:stockid="Arrow2Lstart"
       orient="auto"
       refY="0"
       refX="0"
       id="Arrow2Lstart"
       style="overflow:visible">
      <path
         id="path4160"
         style="fill-rule:evenodd;stroke-width:0.625;stroke-linejoin:round"
         d="M 8.7185878,4.0337352 -2.2072895,0.01601326 8.7185884,-4.0017078 c -1.7454984,2.3720609 -1.7354408,5.6174519 -6e-7,8.035443 z"
         transform="matrix(1.1,0,0,1.1,1.1,0)"
         inkscape:connector-curvature="0" />
    </marker>
    <marker
       inkscape:stockid="TriangleInL"
       orient="auto"
       refY="0"
       refX="0"
       id="TriangleInL"
       style="overflow:visible">
      <path
         id="path4275"
         d="m 5.77,0 -8.65,5 0,-10 8.65,5 z"
         style="fill-rule:evenodd;stroke:#000000;stroke-width:1pt"
         transform="scale(-0.8,-0.8)"
         inkscape:connector-curvature="0" />
    </marker>
    <marker
       inkscape:stockid="Arrow1Lstart"
       orient="auto"
       refY="0"
       refX="0"
       id="Arrow1Lstart"
       style="overflow:visible">
      <path
         id="path4482"
         d="M 0,0 5,-5 -12.5,0 5,5 0,0 z"
         style="fill-rule:evenodd;stroke:#000000;stroke-width:1pt"
         transform="matrix(0.8,0,0,0.8,10,0)"
         inkscape:connector-curvature="0" />
    </marker>
  </defs>
  <sodipodi:namedview
     id="base"
     pagecolor="#ffffff"
     bordercolor="#666666"
     borderopacity="1.0"
     inkscape:pageopacity="0.0"
     inkscape:pageshadow="2"
     inkscape:zoom="0.49497475"
     inkscape:cx="-407.26275"
     inkscape:cy="610.95476"
     inkscape:document-units="px"
     inkscape:current-layer="layer1"
     showgrid="false"
     inkscape:window-width="1920"
     inkscape:window-height="1056"
     inkscape:window-x="1280"
     inkscape:window-y="24"
     inkscape:window-maximized="1"
     showguides="true"
     inkscape:guide-bbox="true"
     fit-margin-top="0"
     fit-margin-left="0"
     fit-margin-right="0"
     fit-margin-bottom="0" />
  <metadata
     id="metadata7">
    <rdf:RDF>
      <cc:Work
         rdf:about="">
        <dc:format>image/svg+xml</dc:format>
        <dc:type
           rdf:resource="http://purl.org/dc/dcmitype/StillImage" />
        <dc:title />
      </cc:Work>
    </rdf:RDF>
  </metadata>
  <g
     inkscape:label="Layer 1"
     inkscape:groupmode="layer"
     id="layer1"
     transform="translate(-525.15174,-730.59433)">
    <use
       height="100.5"
       width="100.5"
       id="use3189"
       transform="matrix(-4,0,0,-4,42,80)"
       y="0"
       x="0"
       xlink:href="#lance" />
    <use
       height="100.5"
       width="100.5"
       id="use3189-0"
       transform="matrix(-4,0,0,-4,42,80)"
       y="0"
       x="0"
       xlink:href="#lance" />
    <use
       height="100.5"
       width="100.5"
       id="use3189-9"
       transform="matrix(-4,0,0,-4,42,80)"
       y="0"
       x="0"
       xlink:href="#lance" />
    <g
       id="g5968"
       transform="translate(-1.5258789e-5,-20)">
      <g
         transform="matrix(0.89574111,0,0,0.89574111,-21.348188,451.62529)"
         id="g5930">
        <path
           style="font-size:medium;font-style:normal;font-variant:normal;font-weight:normal;font-stretch:normal;text-indent:0;text-align:start;text-decoration:none;line-height:normal;letter-spacing:normal;word-spacing:normal;text-transform:none;direction:ltr;block-progression:tb;writing-mode:lr-tb;text-anchor:start;baseline-shift:baseline;color:#000000;fill:#000000;fill-opacity:1;fill-rule:evenodd;stroke:none;stroke-width:1.6pt;marker:none;visibility:visible;display:inline;overflow:visible;enable-background:accumulate;font-family:Sans;-inkscape-font-specification:Sans"
           d="m 750.05589,528.04895 -0.72532,1.2434 -6.63147,11.47555 -0.72531,1.24339 1.45063,0 3.31573,0 0,27.09576 -26.37044,0 0,-3.31573 0,-1.45064 -1.2434,0.72532 -11.47555,6.63147 -1.2434,0.72531 1.2434,0.72532 11.47555,6.63147 1.2434,0.69941 0,-1.42472 0,-3.31574 26.37044,0 0,28.36506 -3.31573,0 -1.45063,0 0.72531,1.2434 6.63147,11.47554 0.72532,1.2175 0.6994,-1.2175 6.63148,-11.47554 0.72531,-1.2434 -1.42473,0 -3.31573,0 0,-28.36506 29.06448,0 0,3.31574 0,1.42472 1.24339,-0.69941 11.47554,-6.63147 1.24341,-0.72532 -1.24341,-0.72531 -11.47554,-6.63147 -1.24339,-0.72532 0,1.45064 0,3.31573 -29.06448,0 0,-27.09576 3.31573,0 1.42473,0 -0.72531,-1.24339 -6.63148,-11.47555 -0.6994,-1.2434 z"
           id="path5583"
           inkscape:connector-curvature="0" />
        <path
           style="font-size:72px;font-style:normal;font-variant:normal;font-weight:300;font-stretch:normal;line-height:100%;letter-spacing:0px;word-spacing:0px;fill:#000000;fill-opacity:1;stroke:none;font-family:Hiragino Kaku Gothic Pro;-inkscape-font-specification:Hiragino Kaku Gothic Pro Light"
           d="m 721.22004,367.2677 a 1.0001,1.0001 0 0 0 -0.84375,1 l 0,5.09375 a 1.0001,1.0001 0 0 0 1.15625,1 c 2.24873,-0.35137 3.90357,-0.4375 7.5625,-0.4375 l 9.71875,0 c -2.9756,2.48201 -4.7124,3.54683 -8.875,5.28125 a 1.0001,1.0001 0 0 0 -0.0313,0 c -3.91028,1.70631 -6.83066,2.61439 -11.03125,3.46875 a 1.0001,1.0001 0 0 0 -0.53125,1.6875 c 1.25115,1.32067 1.48613,1.77579 2.34375,3.5625 a 1.0001,1.0001 0 0 0 1.1875,0.53125 c 3.45655,-0.98759 5.48325,-1.75914 8,-2.75 -0.001,3.53257 -0.0177,6.33165 -0.0625,8.03125 l -4.40625,0 -0.0625,0 c -3.71836,0 -5.7538,-0.13084 -7.40625,-0.40625 a 1.0001,1.0001 0 0 0 -1.15625,1 l 0,4.96875 a 1.0001,1.0001 0 0 0 1.15625,0.96875 c 1.94669,-0.2781 4.414,-0.40625 7.40625,-0.40625 l 4.0625,0 c -0.58293,7.91374 -1.54738,12.23095 -3.8125,16.96875 -0.004,0.009 0.004,0.0222 0,0.0313 -2.19352,4.38262 -3.68783,6.32816 -8.3125,10.3125 a 1.0001,1.0001 0 0 0 0.0937,1.59375 c 1.78129,1.21129 2.10146,1.50472 3.59375,3.28125 a 1.0001,1.0001 0 0 0 1.5,0.0313 c 5.65757,-5.87518 8.44537,-9.85259 10.4375,-15.3125 a 1.0001,1.0001 0 0 0 0,-0.0313 c 1.54417,-4.49216 2.44539,-9.62946 2.90625,-16.875 l 9.78125,0 0,24.125 c 0,3.283 -0.15829,5.21638 -0.4375,7.03125 a 1.0001,1.0001 0 0 0 1,1.15625 l 5.3125,0 a 1.0001,1.0001 0 0 0 1,-1.125 c -0.28261,-2.1196 -0.4375,-4.13275 -0.4375,-7.125 l 0,-24.0625 8.1875,0 c 0.3062,6.63083 0.87237,10.50917 2.125,14.40625 a 1.0001,1.0001 0 0 0 0,0.0313 c 1.33291,4.07279 3.4639,7.96947 6.09375,10.90625 0.0101,0.0116 0.0212,0.0197 0.0313,0.0313 3.41901,3.92838 7.25099,6.5 10.5,6.5 1.81127,0 3.45026,-0.76391 4.53125,-2.375 1.08099,-1.61109 1.77053,-3.94126 2.5,-7.40625 a 1.0001,1.0001 0 0 0 -0.65625,-1.15625 c -1.52679,-0.4858 -2.20496,-0.8334 -3.59375,-1.875 a 1.0001,1.0001 0 0 0 -0.1875,-0.0937 l 1.71875,-2.5625 a 1.0001,1.0001 0 0 0 -0.25,-1.375 c -3.40564,-2.57161 -5.3606,-3.8289 -9.15625,-5.84375 1.93922,-1.79626 3.54256,-3.4325 5.375,-5.75 a 1.0001,1.0001 0 0 0 -0.1875,-1.4375 l -0.8125,-0.59375 c 1.36698,-0.17448 2.61095,-0.7682 3.5625,-1.96875 1.10325,-1.39195 1.96806,-3.37141 2.8125,-6.125 a 1.0001,1.0001 0 0 0 -0.625,-1.25 c -1.35311,-0.47359 -2.24567,-0.96909 -3.5,-1.875 a 1.0001,1.0001 0 0 0 -0.125,-0.0625 l 2.375,-3.53125 a 1.0001,1.0001 0 0 0 -0.21875,-1.34375 c -3.78529,-2.89059 -5.51405,-4.00326 -9.09375,-5.84375 2.72053,-2.28544 5.15803,-4.6732 7.34375,-7.4375 a 1.0001,1.0001 0 0 0 -0.1875,-1.4375 l -3.28125,-2.34375 -0.1875,-0.15625 a 1.0001,1.0001 0 0 0 -0.0313,-0.0313 1.0001,1.0001 0 0 0 -0.0625,-0.0313 1.0001,1.0001 0 0 0 -0.0937,-0.0625 1.0001,1.0001 0 0 0 -0.0625,-0.0313 1.0001,1.0001 0 0 0 -0.125,-0.0313 1.0001,1.0001 0 0 0 -0.1875,-0.0313 1.0001,1.0001 0 0 0 -0.0313,0 1.0001,1.0001 0 0 0 -0.34375,0.0625 1.0001,1.0001 0 0 0 -0.28125,0.15625 1.0001,1.0001 0 0 0 0,0.0313 1.0001,1.0001 0 0 0 -0.0625,0.0313 1.0001,1.0001 0 0 0 -0.0313,0.0313 1.0001,1.0001 0 0 0 -0.0313,0.0313 1.0001,1.0001 0 0 0 -0.0625,0.0937 1.0001,1.0001 0 0 0 -0.125,0.15625 c -2.346,3.2914 -4.05099,5.12142 -7.25,7.625 a 1.0001,1.0001 0 0 0 -0.0937,1.46875 l 2.75,2.8125 a 1.0001,1.0001 0 0 0 0.0313,0.0313 l -1.53125,2.03125 -0.0313,0 a 1.0001,1.0001 0 0 0 -0.0625,0.0625 l 0,0.0313 a 1.0001,1.0001 0 0 0 -0.0625,0.0625 1.0001,1.0001 0 0 0 0,0.0313 1.0001,1.0001 0 0 0 -0.0313,0.0313 1.0001,1.0001 0 0 0 -0.0313,0.0625 1.0001,1.0001 0 0 0 -0.0313,0.0313 1.0001,1.0001 0 0 0 0,0.0625 1.0001,1.0001 0 0 0 -0.0313,0.0313 1.0001,1.0001 0 0 0 0,0.0625 1.0001,1.0001 0 0 0 0,0.0313 1.0001,1.0001 0 0 0 0,0.0625 1.0001,1.0001 0 0 0 -0.0313,0.0625 1.0001,1.0001 0 0 0 0,0.0313 1.0001,1.0001 0 0 0 0,0.0625 1.0001,1.0001 0 0 0 0,0.0313 1.0001,1.0001 0 0 0 0,0.0625 1.0001,1.0001 0 0 0 0,0.0313 1.0001,1.0001 0 0 0 0.0313,0.0625 1.0001,1.0001 0 0 0 0,0.0313 1.0001,1.0001 0 0 0 0,0.0625 1.0001,1.0001 0 0 0 0.0313,0.0313 1.0001,1.0001 0 0 0 0.0313,0.0625 1.0001,1.0001 0 0 0 0.0313,0.0625 1.0001,1.0001 0 0 0 0,0.0313 1.0001,1.0001 0 0 0 0.0313,0.0313 1.0001,1.0001 0 0 0 0.0313,0.0625 1.0001,1.0001 0 0 0 0,0.0313 1.0001,1.0001 0 0 0 0.0625,0.0313 1.0001,1.0001 0 0 0 0,0.0313 1.0001,1.0001 0 0 0 0.0625,0.0625 1.0001,1.0001 0 0 0 0.0313,0.0313 1.0001,1.0001 0 0 0 0.0313,0.0313 1.0001,1.0001 0 0 0 0.0313,0.0313 1.0001,1.0001 0 0 0 0.0625,0.0313 1.0001,1.0001 0 0 0 0.0313,0 1.0001,1.0001 0 0 0 0.0313,0.0313 1.0001,1.0001 0 0 0 0.0625,0.0313 c 4.23887,2.33399 5.93653,3.4783 9.125,6.3125 a 1.0001,1.0001 0 0 0 0.1875,0.125 1.0001,1.0001 0 0 0 -0.15625,0.34375 c -0.38805,1.76385 -0.76686,2.9545 -1.09375,3.59375 -0.16345,0.31963 -0.30263,0.50225 -0.375,0.5625 -0.0724,0.0602 -0.0367,0.0313 -0.0625,0.0313 -0.1022,0 -0.96422,-0.31091 -1.875,-1.03125 -0.91078,-0.72034 -1.95021,-1.76994 -2.875,-2.96875 -3.34899,-4.30584 -5.125,-10.48994 -5.125,-18.625 0,-1.40667 0.0813,-2.54076 0.34375,-3.65625 a 1.0001,1.0001 0 0 0 -1.09375,-1.21875 c -2.85373,0.28537 -4.67546,0.34375 -7.03125,0.34375 l -30.4375,0 c -3.64586,0 -5.61435,-0.12262 -7.8125,-0.40625 a 1.0001,1.0001 0 0 0 -0.28125,0 z m 19.34375,6.65625 20.90625,0 c 0.35975,7.31425 1.48391,12.45488 4.03125,17.125 1.50176,2.81581 3.57662,5.34085 5.71875,7.21875 0.88355,0.77457 1.76777,1.38356 2.65625,1.90625 -1.65774,2.40788 -3.08428,3.9538 -6.0625,6.46875 a 1.0001,1.0001 0 0 0 -0.0625,1.46875 l 2.65625,2.8125 a 1.0001,1.0001 0 0 0 0.3125,0.21875 l -0.6875,0.9375 a 1.0001,1.0001 0 0 0 -0.0625,0.0625 l -0.0313,0.0313 a 1.0001,1.0001 0 0 0 -0.0937,0.0937 l 0,0.0313 a 1.0001,1.0001 0 0 0 -0.0625,0.0625 1.0001,1.0001 0 0 0 -0.15625,0.46875 1.0001,1.0001 0 0 0 0,0.0313 1.0001,1.0001 0 0 0 0,0.0625 1.0001,1.0001 0 0 0 0,0.0313 1.0001,1.0001 0 0 0 0,0.0625 1.0001,1.0001 0 0 0 0,0.0313 1.0001,1.0001 0 0 0 0.0313,0.0625 1.0001,1.0001 0 0 0 0,0.0313 1.0001,1.0001 0 0 0 0.0313,0.0625 1.0001,1.0001 0 0 0 0,0.0313 1.0001,1.0001 0 0 0 0.0313,0.0625 1.0001,1.0001 0 0 0 0,0.0313 1.0001,1.0001 0 0 0 0.0313,0.0625 1.0001,1.0001 0 0 0 0,0.0313 1.0001,1.0001 0 0 0 0.0625,0.0625 1.0001,1.0001 0 0 0 0,0.0313 1.0001,1.0001 0 0 0 0.0625,0.0313 1.0001,1.0001 0 0 0 0.0313,0.0625 1.0001,1.0001 0 0 0 0.0313,0.0313 1.0001,1.0001 0 0 0 0.0313,0 1.0001,1.0001 0 0 0 0.0625,0.0625 1.0001,1.0001 0 0 0 0.0937,0.0625 1.0001,1.0001 0 0 0 0.0313,0 1.0001,1.0001 0 0 0 0.15625,0.0937 1.0001,1.0001 0 0 0 0.0937,0.0313 c 4.20407,2.18558 6.06364,3.5148 8.90625,6.21875 a 1.0001,1.0001 0 0 0 0.6875,0.25 c -0.22461,1.49929 -0.47119,2.85913 -0.75,3.5625 -0.16874,0.42569 -0.33733,0.70703 -0.4375,0.8125 -0.10017,0.10547 -0.0612,0.0313 -0.0313,0.0313 -0.14686,0 -0.80177,-0.15204 -1.5625,-0.59375 -0.75487,-0.43831 -1.67105,-1.1195 -2.59375,-1.9375 -2.65171,-2.37974 -4.81278,-5.82076 -6.28125,-10.15625 -1.02579,-3.21413 -1.90625,-9.03684 -1.90625,-13.59375 0,-1.872 -0.004,-3.06797 0.0625,-3.9375 a 1.0001,1.0001 0 0 0 -1.0625,-1.09375 c -2.44002,0.2153 -3.54973,0.28125 -5.6875,0.28125 l -7.71875,0 0,-12.15625 c 0,-3.00813 0.0712,-4.53824 0.28125,-6.21875 a 1.0001,1.0001 0 0 0 -0.96875,-1.125 l -5.0625,0 a 1.0001,1.0001 0 0 0 -0.96875,1.15625 c 0.20633,1.37552 0.28125,2.74539 0.28125,6.1875 l 0,12.15625 -9.46875,0 c 0.10564,-2.94328 0.15599,-4.71437 0.15625,-10.96875 2.62287,-1.36163 4.33602,-2.32157 7.84375,-4.75 a 1.0001,1.0001 0 0 0 0,-1.65625 l -3.5625,-2.4375 z m 6.3125,63.03125 a 1.0001,1.0001 0 0 0 -0.78125,1.15625 c 0.34735,2.01465 0.49746,3.81541 0.5,6.6875 l -19.75,0 c -3.21037,0 -5.21246,-0.15289 -7.15625,-0.5 a 1.0001,1.0001 0 0 0 -1.1875,1 l 0,4.96875 a 1.0001,1.0001 0 0 0 1.15625,1 c 2.03405,-0.28056 4.27833,-0.4375 7.125,-0.4375 l 19.8125,0 0,4.1875 -12.75,0 c -4.16451,0 -6.12817,-0.0694 -7.8125,-0.40625 a 1.0001,1.0001 0 0 0 -1.1875,1.0625 c 0.21467,2.28986 0.28125,3.52299 0.28125,7.6875 l 0,11.09375 c 0,4.09229 -0.0668,5.31498 -0.28125,7.53125 a 1.0001,1.0001 0 0 0 1.15625,1.09375 c 1.72399,-0.27584 3.88972,-0.4375 8.1875,-0.4375 l 12.40625,0 0,4.40625 -20.3125,0 c -3.42822,0 -5.36645,-0.12456 -7.15625,-0.46875 a 1.0001,1.0001 0 0 0 -1.1875,0.96875 l 0,5.0625 a 1.0001,1.0001 0 0 0 1.15625,0.96875 c 1.87494,-0.27777 4.19525,-0.40625 7.1875,-0.40625 l 20.3125,0 0,2.4375 c 0,3.73117 -0.0772,5.28367 -0.5,7.75 a 1.0001,1.0001 0 0 0 1,1.1875 l 5.40625,0 a 1.0001,1.0001 0 0 0 0.96875,-1.1875 c -0.41971,-2.23847 -0.5,-3.80213 -0.5,-7.75 l 0,-2.4375 21.40625,0 c 2.99224,0 5.18496,0.12366 7.375,0.40625 a 1.0001,1.0001 0 0 0 1.125,-0.96875 l 0,-5.0625 a 1.0001,1.0001 0 0 0 -1.21875,-0.96875 c -1.70948,0.3419 -3.6354,0.46875 -7.28125,0.46875 l -21.40625,0 0,-4.40625 13.625,0 c 4.22539,0 6.33439,0.161 8.0625,0.4375 a 1.0001,1.0001 0 0 0 1.15625,-1.09375 c -0.21486,-2.29179 -0.28125,-3.43896 -0.28125,-7.53125 l 0,-11.3125 c 0,-4.0201 0.0664,-5.17696 0.28125,-7.46875 a 1.0001,1.0001 0 0 0 -1.1875,-1.0625 c -1.7702,0.34042 -3.65987,0.40625 -7.96875,0.40625 l -13.6875,0 0,-4.1875 20.6875,0 c 2.84666,0 5.01541,0.15427 7.28125,0.4375 a 1.0001,1.0001 0 0 0 1.125,-1 l 0,-4.96875 a 1.0001,1.0001 0 0 0 -1.1875,-1 c -1.79448,0.34509 -3.6354,0.5 -7.28125,0.5 l -20.625,0 c 0.003,-2.8013 0.15153,-4.5967 0.5,-6.6875 a 1.0001,1.0001 0 0 0 -0.96875,-1.15625 l -5.40625,0 a 1.0001,1.0001 0 0 0 -0.21875,0 z m -15.28125,23.96875 15,0 0,4.90625 -15,0 0,-4.90625 z m 21.375,0 16.09375,0 0,4.90625 -16.09375,0 0,-4.90625 z m -21.375,10.78125 15,0 0,5.0625 -15,0 0,-5.0625 z m 21.375,0 16.09375,0 0,5.0625 -16.09375,0 0,-5.0625 z"
           id="path5723"
           inkscape:connector-curvature="0" />
      </g>
      <path
         sodipodi:nodetypes="scscscccscscsssscscscccscscs"
         id="path5950"
         d="m 556.65179,1031.8444 c -11.625,0 -19.78123,-2.3438 -24.46873,-7.0313 -4.6875,-4.6875 -7.0313,-10.4062 -7.0313,-17.1562 0,-21.75007 13.4063,-91.87507 40.21873,-210.37507 2.06253,-8.81253 6.0938,-15.25783 12.0938,-19.3359 6,-4.07813 12.93749,-7.19533 20.81249,-9.3516 l 53.4375,-18 53.4375,18 c 7.875,2.15627 14.8125,5.27347 20.8125,9.3516 6,4.07807 10.03127,10.52337 12.0938,19.3359 26.81242,118.5 40.21872,188.625 40.21872,210.37507 0,6.75 -2.3438,12.4687 -7.0313,17.1562 -4.6875,4.6875 -12.84372,7.0313 -24.46872,7.0313 z m 0,-15.75 190.12499,0 c 4.125,0 7.5,-0.6563 10.125,-1.9687 2.625,-1.3126 3.93752,-3.4688 3.93752,-6.4688 0,-19.12504 -12.93752,-87.37507 -38.81252,-204.75007 -1.5,-6 -3.58593,-10.7578 -6.2578,-14.2734 -2.67187,-3.51567 -7.71093,-6.44537 -15.1172,-8.7891 l -48.9375,-16.3125 -48.9375,16.3125 c -7.40627,2.34373 -12.44533,5.27343 -15.11719,8.7891 -2.67187,3.5156 -4.7578,8.4609 -6.2578,14.8359 -25.875,117 -38.81253,185.06253 -38.81253,204.18757 0,3 1.31253,5.1562 3.93753,6.4688 2.625,1.3124 6,1.9687 10.125,1.9687 z"
         inkscape:connector-curvature="0"
         style="stroke:none" />
    </g>
  </g>
</svg>
