<?xml version="1.0" encoding="UTF-8" standalone="no"?>
<!-- Created with Inkscape (http://www.inkscape.org/) -->

<svg
   xmlns:dc="http://purl.org/dc/elements/1.1/"
   xmlns:cc="http://creativecommons.org/ns#"
   xmlns:rdf="http://www.w3.org/1999/02/22-rdf-syntax-ns#"
   xmlns:svg="http://www.w3.org/2000/svg"
   xmlns="http://www.w3.org/2000/svg"
   xmlns:xlink="http://www.w3.org/1999/xlink"
   xmlns:sodipodi="http://sodipodi.sourceforge.net/DTD/sodipodi-0.dtd"
   xmlns:inkscape="http://www.inkscape.org/namespaces/inkscape"
   width="228.25005"
   height="262.56256"
   id="svg2"
   version="1.1"
   inkscape:version="0.48.4 r9939"
   inkscape:export-filename="shogi-king.png"
   inkscape:export-xdpi="300.16"
   inkscape:export-ydpi="300.16"
   sodipodi:docname="rook.svg">
  <defs
     id="defs4">
    <marker
       inkscape:stockid="TriangleOutL"
       orient="auto"
       refY="0"
       refX="0"
       id="TriangleOutL"
       style="overflow:visible">
      <path
         id="path4284"
         d="m 5.77,0 -8.65,5 0,-10 8.65,5 z"
         style="fill-rule:evenodd;stroke:#000000;stroke-width:1pt"
         transform="scale(0.8,0.8)"
         inkscape:connector-curvature="0" />
    </marker>
    <marker
       inkscape:stockid="Arrow2Mstart"
       orient="auto"
       refY="0"
       refX="0"
       id="Arrow2Mstart"
       style="overflow:visible">
      <path
         id="path4166"
         style="fill-rule:evenodd;stroke-width:0.625;stroke-linejoin:round"
         d="M 8.7185878,4.0337352 -2.2072895,0.01601326 8.7185884,-4.0017078 c -1.7454984,2.3720609 -1.7354408,5.6174519 -6e-7,8.035443 z"
         transform="scale(0.6,0.6)"
         inkscape:connector-curvature="0" />
    </marker>
    <marker
       inkscape:stockid="Arrow2Lend"
       orient="auto"
       refY="0"
       refX="0"
       id="Arrow2Lend"
       style="overflow:visible">
      <path
         id="path4163"
         style="fill-rule:evenodd;stroke-width:0.625;stroke-linejoin:round"
         d="M 8.7185878,4.0337352 -2.2072895,0.01601326 8.7185884,-4.0017078 c -1.7454984,2.3720609 -1.7354408,5.6174519 -6e-7,8.035443 z"
         transform="matrix(-1.1,0,0,-1.1,-1.1,0)"
         inkscape:connector-curvature="0" />
    </marker>
    <marker
       inkscape:stockid="Arrow2Lstart"
       orient="auto"
       refY="0"
       refX="0"
       id="Arrow2Lstart"
       style="overflow:visible">
      <path
         id="path4160"
         style="fill-rule:evenodd;stroke-width:0.625;stroke-linejoin:round"
         d="M 8.7185878,4.0337352 -2.2072895,0.01601326 8.7185884,-4.0017078 c -1.7454984,2.3720609 -1.7354408,5.6174519 -6e-7,8.035443 z"
         transform="matrix(1.1,0,0,1.1,1.1,0)"
         inkscape:connector-curvature="0" />
    </marker>
    <marker
       inkscape:stockid="TriangleInL"
       orient="auto"
       refY="0"
       refX="0"
       id="TriangleInL"
       style="overflow:visible">
      <path
         id="path4275"
         d="m 5.77,0 -8.65,5 0,-10 8.65,5 z"
         style="fill-rule:evenodd;stroke:#000000;stroke-width:1pt"
         transform="scale(-0.8,-0.8)"
         inkscape:connector-curvature="0" />
    </marker>
    <marker
       inkscape:stockid="Arrow1Lstart"
       orient="auto"
       refY="0"
       refX="0"
       id="Arrow1Lstart"
       style="overflow:visible">
      <path
         id="path4482"
         d="M 0,0 5,-5 -12.5,0 5,5 0,0 z"
         style="fill-rule:evenodd;stroke:#000000;stroke-width:1pt"
         transform="matrix(0.8,0,0,0.8,10,0)"
         inkscape:connector-curvature="0" />
    </marker>
  </defs>
  <sodipodi:namedview
     id="base"
     pagecolor="#ffffff"
     bordercolor="#666666"
     borderopacity="1.0"
     inkscape:pageopacity="0.0"
     inkscape:pageshadow="2"
     inkscape:zoom="0.49497475"
     inkscape:cx="-504.91614"
     inkscape:cy="725.09607"
     inkscape:document-units="px"
     inkscape:current-layer="layer1"
     showgrid="false"
     inkscape:window-width="1920"
     inkscape:window-height="1056"
     inkscape:window-x="1280"
     inkscape:window-y="24"
     inkscape:window-maximized="1"
     showguides="true"
     inkscape:guide-bbox="true"
     inkscape:object-paths="true"
     inkscape:snap-nodes="true"
     fit-margin-top="0"
     fit-margin-left="0"
     fit-margin-right="0"
     fit-margin-bottom="0" />
  <metadata
     id="metadata7">
    <rdf:RDF>
      <cc:Work
         rdf:about="">
        <dc:format>image/svg+xml</dc:format>
        <dc:type
           rdf:resource="http://purl.org/dc/dcmitype/StillImage" />
        <dc:title />
      </cc:Work>
    </rdf:RDF>
  </metadata>
  <g
     inkscape:label="Layer 1"
     inkscape:groupmode="layer"
     id="layer1"
     transform="translate(-537.58924,-738.53183)">
    <path
       style="fill:#ffffff;fill-opacity:1;stroke:#000000;stroke-width:10;stroke-linecap:round;stroke-linejoin:round;stroke-miterlimit:4;stroke-opacity:1;stroke-dasharray:none"
       d="m 556.65177,996.0944 190.12499,0 c 4.125,0 7.5,-0.6563 10.125,-1.9687 2.625,-1.3126 3.93752,-3.4688 3.93752,-6.4688 0,-19.12504 -12.93752,-87.37507 -38.81252,-204.75007 -1.5,-6 -3.58593,-10.7578 -6.2578,-14.2734 -2.67187,-3.51567 -7.71093,-6.44537 -15.1172,-8.7891 l -48.9375,-16.3125 -48.9375,16.3125 c -7.40627,2.34373 -12.44533,5.27343 -15.11719,8.7891 -2.67187,3.5156 -4.7578,8.4609 -6.2578,14.8359 -25.875,117 -38.81253,185.06253 -38.81253,204.18757 0,3 1.31253,5.1562 3.93753,6.4688 2.625,1.3124 6,1.9687 10.125,1.9687 z"
       id="path5950"
       inkscape:connector-curvature="0" />
    <use
       height="100.5"
       width="100.5"
       id="use3189"
       transform="matrix(-4,0,0,-4,42,80)"
       y="0"
       x="0"
       xlink:href="#lance" />
    <use
       height="100.5"
       width="100.5"
       id="use3189-0"
       transform="matrix(-4,0,0,-4,42,80)"
       y="0"
       x="0"
       xlink:href="#lance" />
    <use
       height="100.5"
       width="100.5"
       id="use3189-9"
       transform="matrix(-4,0,0,-4,42,80)"
       y="0"
       x="0"
       xlink:href="#lance" />
    <path
       style="font-size:72px;font-style:normal;font-variant:normal;font-weight:300;font-stretch:normal;line-height:100%;letter-spacing:0px;word-spacing:0px;fill:#000000;fill-opacity:1;stroke:none;font-family:Hiragino Kaku Gothic Pro;-inkscape-font-specification:Hiragino Kaku Gothic Pro Light"
       d="m 624.67824,760.60207 a 0.89583068,0.89583068 0 0 0 -0.75579,0.89574 l 0,4.56268 a 0.89583068,0.89583068 0 0 0 1.03571,0.89574 c 2.01428,-0.31474 3.49658,-0.39189 6.77404,-0.39189 l 8.70548,0 c -2.66537,2.22324 -4.22109,3.17705 -7.9497,4.73064 a 0.89583068,0.89583068 0 0 0 -0.028,0 c -3.5026,1.52841 -6.1185,2.34181 -9.88114,3.1071 a 0.89583068,0.89583068 0 0 0 -0.47586,1.51156 c 1.1207,1.18298 1.33118,1.59065 2.09939,3.19108 a 0.89583068,0.89583068 0 0 0 1.06369,0.47586 c 3.09618,-0.88462 4.91157,-1.57573 7.16593,-2.46329 -9e-4,3.16427 -0.0159,5.67152 -0.056,7.19392 l -3.94686,0 -0.056,0 c -3.33068,0 -5.15391,-0.11719 -6.63408,-0.36389 a 0.89583068,0.89583068 0 0 0 -1.0357,0.89574 l 0,4.45071 a 0.89583068,0.89583068 0 0 0 1.0357,0.86775 c 1.74373,-0.2491 3.9538,-0.36389 6.63408,-0.36389 l 3.63895,0 c -0.52215,7.08866 -1.38605,10.95576 -3.41501,15.19961 -0.004,0.008 0.004,0.0199 0,0.028 -1.96483,3.9257 -3.30334,5.6684 -7.44585,9.23733 a 0.89583068,0.89583068 0 0 0 0.0839,1.42759 c 1.59558,1.085 1.88237,1.34784 3.21907,2.93915 a 0.89583068,0.89583068 0 0 0 1.34361,0.028 c 5.06772,-5.26264 7.56487,-8.82537 9.3493,-13.71604 a 0.89583068,0.89583068 0 0 0 0,-0.028 c 1.38318,-4.02382 2.19044,-8.62551 2.60325,-15.11564 l 8.76147,0 0,21.60976 c 0,2.94072 -0.14179,4.67252 -0.39189,6.29818 a 0.89583068,0.89583068 0 0 0 0.89574,1.0357 l 4.75863,0 a 0.89583068,0.89583068 0 0 0 0.89574,-1.00771 c -0.25315,-1.89861 -0.39189,-3.70187 -0.39189,-6.38216 l 0,-21.55377 7.33388,0 c 0.27428,5.93951 0.78142,9.4135 1.90345,12.90427 a 0.89583068,0.89583068 0 0 0 0,0.028 c 1.19394,3.64817 3.10276,7.13858 5.45842,9.76918 0.009,0.0104 0.019,0.0176 0.028,0.028 3.06255,3.51882 6.49501,5.82232 9.40528,5.82232 1.62243,0 3.09054,-0.68426 4.05883,-2.12738 0.96828,-1.44312 1.58593,-3.53035 2.23935,-6.63409 a 0.89583068,0.89583068 0 0 0 -0.58783,-1.0357 c -1.36761,-0.43515 -1.97507,-0.74651 -3.21907,-1.67951 a 0.89583068,0.89583068 0 0 0 -0.16795,-0.0839 l 1.53955,-2.29534 a 0.89583068,0.89583068 0 0 0 -0.22393,-1.23164 c -3.05057,-2.3035 -4.80171,-3.42971 -8.20163,-5.23449 1.73704,-1.60898 3.17322,-3.07463 4.81461,-5.15051 a 0.89583068,0.89583068 0 0 0 -0.16795,-1.28763 l -0.72779,-0.53185 c 1.22446,-0.15628 2.33873,-0.6881 3.19107,-1.76349 0.98823,-1.24682 1.76288,-3.01991 2.51928,-5.48641 a 0.89583068,0.89583068 0 0 0 -0.55984,-1.11968 c -1.21204,-0.42421 -2.01154,-0.86805 -3.1351,-1.67951 a 0.89583068,0.89583068 0 0 0 -0.11196,-0.056 l 2.12738,-3.16308 a 0.89583068,0.89583068 0 0 0 -0.19594,-1.20365 c -3.39064,-2.58922 -4.93916,-3.58589 -8.14565,-5.23449 2.43689,-2.04716 4.62026,-4.18598 6.5781,-6.66207 a 0.89583068,0.89583068 0 0 0 -0.16795,-1.28763 l -2.93915,-2.0994 -0.16795,-0.13996 a 0.89583068,0.89583068 0 0 0 -0.028,-0.028 0.89583068,0.89583068 0 0 0 -0.056,-0.028 0.89583068,0.89583068 0 0 0 -0.0839,-0.056 0.89583068,0.89583068 0 0 0 -0.056,-0.028 0.89583068,0.89583068 0 0 0 -0.11197,-0.028 0.89583068,0.89583068 0 0 0 -0.16795,-0.028 0.89583068,0.89583068 0 0 0 -0.028,0 0.89583068,0.89583068 0 0 0 -0.30791,0.056 0.89583068,0.89583068 0 0 0 -0.25193,0.13996 0.89583068,0.89583068 0 0 0 0,0.028 0.89583068,0.89583068 0 0 0 -0.056,0.028 0.89583068,0.89583068 0 0 0 -0.028,0.028 0.89583068,0.89583068 0 0 0 -0.028,0.028 0.89583068,0.89583068 0 0 0 -0.056,0.0839 0.89583068,0.89583068 0 0 0 -0.11197,0.13996 c -2.10141,2.94824 -3.62864,4.58746 -6.49412,6.83002 a 0.89583068,0.89583068 0 0 0 -0.0839,1.31562 l 2.46328,2.51928 a 0.89583068,0.89583068 0 0 0 0.028,0.028 l -1.3716,1.81948 -0.028,0 a 0.89583068,0.89583068 0 0 0 -0.056,0.056 l 0,0.028 a 0.89583068,0.89583068 0 0 0 -0.056,0.056 0.89583068,0.89583068 0 0 0 0,0.028 0.89583068,0.89583068 0 0 0 -0.028,0.028 0.89583068,0.89583068 0 0 0 -0.028,0.056 0.89583068,0.89583068 0 0 0 -0.028,0.028 0.89583068,0.89583068 0 0 0 0,0.056 0.89583068,0.89583068 0 0 0 -0.028,0.028 0.89583068,0.89583068 0 0 0 0,0.056 0.89583068,0.89583068 0 0 0 0,0.028 0.89583068,0.89583068 0 0 0 0,0.056 0.89583068,0.89583068 0 0 0 -0.028,0.056 0.89583068,0.89583068 0 0 0 0,0.028 0.89583068,0.89583068 0 0 0 0,0.056 0.89583068,0.89583068 0 0 0 0,0.028 0.89583068,0.89583068 0 0 0 0,0.056 0.89583068,0.89583068 0 0 0 0,0.028 0.89583068,0.89583068 0 0 0 0.028,0.056 0.89583068,0.89583068 0 0 0 0,0.028 0.89583068,0.89583068 0 0 0 0,0.056 0.89583068,0.89583068 0 0 0 0.028,0.028 0.89583068,0.89583068 0 0 0 0.028,0.056 0.89583068,0.89583068 0 0 0 0.028,0.056 0.89583068,0.89583068 0 0 0 0,0.028 0.89583068,0.89583068 0 0 0 0.028,0.028 0.89583068,0.89583068 0 0 0 0.028,0.056 0.89583068,0.89583068 0 0 0 0,0.028 0.89583068,0.89583068 0 0 0 0.056,0.028 0.89583068,0.89583068 0 0 0 0,0.028 0.89583068,0.89583068 0 0 0 0.056,0.056 0.89583068,0.89583068 0 0 0 0.028,0.028 0.89583068,0.89583068 0 0 0 0.028,0.028 0.89583068,0.89583068 0 0 0 0.028,0.028 0.89583068,0.89583068 0 0 0 0.056,0.028 0.89583068,0.89583068 0 0 0 0.028,0 0.89583068,0.89583068 0 0 0 0.028,0.028 0.89583068,0.89583068 0 0 0 0.056,0.028 c 3.79693,2.09065 5.31759,3.11566 8.17364,5.65437 a 0.89583068,0.89583068 0 0 0 0.16795,0.11196 0.89583068,0.89583068 0 0 0 -0.13996,0.30792 c -0.34759,1.57995 -0.68691,2.64646 -0.97972,3.21907 -0.14641,0.2863 -0.27108,0.44988 -0.3359,0.50385 -0.0648,0.0539 -0.0329,0.028 -0.056,0.028 -0.0915,0 -0.86369,-0.2785 -1.67951,-0.92374 -0.81582,-0.64524 -1.74688,-1.5854 -2.57526,-2.65923 -2.99982,-3.85692 -4.59067,-9.39627 -4.59067,-16.68318 0,-1.26001 0.0728,-2.27586 0.30791,-3.27505 a 0.89583068,0.89583068 0 0 0 -0.97972,-1.09168 c -2.5562,0.25561 -4.188,0.30791 -6.29817,0.30791 l -27.26412,0 c -3.26575,0 -5.02901,-0.10984 -6.99798,-0.3639 a 0.89583068,0.89583068 0 0 0 -0.25193,0 z m 17.32699,5.96227 18.72659,0 c 0.32224,6.55168 1.3292,11.15635 3.61095,15.33957 1.34519,2.52224 3.20373,4.78402 5.12252,6.46613 0.79143,0.69382 1.58347,1.23931 2.37931,1.70751 -1.4849,2.15684 -2.76271,3.54158 -5.43043,5.79432 a 0.89583068,0.89583068 0 0 0 -0.056,1.31562 l 2.37931,2.51928 a 0.89583068,0.89583068 0 0 0 0.27992,0.19594 l -0.61582,0.83976 a 0.89583068,0.89583068 0 0 0 -0.056,0.056 l -0.028,0.028 a 0.89583068,0.89583068 0 0 0 -0.0839,0.0839 l 0,0.028 a 0.89583068,0.89583068 0 0 0 -0.056,0.056 0.89583068,0.89583068 0 0 0 -0.13996,0.41988 0.89583068,0.89583068 0 0 0 0,0.028 0.89583068,0.89583068 0 0 0 0,0.056 0.89583068,0.89583068 0 0 0 0,0.028 0.89583068,0.89583068 0 0 0 0,0.056 0.89583068,0.89583068 0 0 0 0,0.028 0.89583068,0.89583068 0 0 0 0.028,0.056 0.89583068,0.89583068 0 0 0 0,0.028 0.89583068,0.89583068 0 0 0 0.028,0.056 0.89583068,0.89583068 0 0 0 0,0.028 0.89583068,0.89583068 0 0 0 0.028,0.056 0.89583068,0.89583068 0 0 0 0,0.028 0.89583068,0.89583068 0 0 0 0.028,0.056 0.89583068,0.89583068 0 0 0 0,0.028 0.89583068,0.89583068 0 0 0 0.056,0.056 0.89583068,0.89583068 0 0 0 0,0.028 0.89583068,0.89583068 0 0 0 0.056,0.028 0.89583068,0.89583068 0 0 0 0.028,0.056 0.89583068,0.89583068 0 0 0 0.028,0.028 0.89583068,0.89583068 0 0 0 0.028,0 0.89583068,0.89583068 0 0 0 0.056,0.056 0.89583068,0.89583068 0 0 0 0.0839,0.056 0.89583068,0.89583068 0 0 0 0.028,0 0.89583068,0.89583068 0 0 0 0.13996,0.0839 0.89583068,0.89583068 0 0 0 0.0839,0.028 c 3.76576,1.95771 5.43145,3.14835 7.9777,5.57039 a 0.89583068,0.89583068 0 0 0 0.61582,0.22393 c -0.2012,1.34298 -0.42207,2.56104 -0.67181,3.19108 -0.15115,0.38131 -0.30216,0.63332 -0.39189,0.72779 -0.0897,0.0945 -0.0548,0.028 -0.028,0.028 -0.13155,0 -0.71818,-0.13619 -1.3996,-0.53185 -0.67617,-0.39261 -1.49683,-1.00278 -2.32333,-1.7355 -2.37524,-2.13163 -4.311,-5.21389 -5.62637,-9.09737 -0.91884,-2.87903 -1.70751,-8.09467 -1.70751,-12.17648 0,-1.67682 -0.004,-2.7481 0.056,-3.52698 a 0.89583068,0.89583068 0 0 0 -0.95173,-0.97971 c -2.18562,0.19285 -3.17964,0.25192 -5.09453,0.25192 l -6.914,0 0,-10.88885 c 0,-2.69451 0.0638,-4.06509 0.25193,-5.57039 a 0.89583068,0.89583068 0 0 0 -0.86775,-1.00771 l -4.53469,0 a 0.89583068,0.89583068 0 0 0 -0.86775,1.0357 c 0.18482,1.23211 0.25193,2.45916 0.25193,5.5424 l 0,10.88885 -8.48155,0 c 0.0946,-2.63641 0.13973,-4.22285 0.13996,-9.82516 2.34941,-1.21967 3.88395,-2.07952 7.02597,-4.25477 a 0.89583068,0.89583068 0 0 0 0,-1.48357 l -3.19108,-2.18337 z m 5.65436,56.45969 a 0.89583068,0.89583068 0 0 0 -0.69979,1.0357 c 0.31113,1.8046 0.44559,3.41762 0.44787,5.99027 l -17.69089,0 c -2.87566,0 -4.66901,-0.13695 -6.41015,-0.44788 a 0.89583068,0.89583068 0 0 0 -1.06369,0.89575 l 0,4.45071 a 0.89583068,0.89583068 0 0 0 1.0357,0.89574 c 1.82198,-0.25131 3.83228,-0.39189 6.38216,-0.39189 l 17.74687,0 0,3.75092 -11.4207,0 c -3.73033,0 -5.48926,-0.0622 -6.99798,-0.3639 a 0.89583068,0.89583068 0 0 0 -1.06369,0.95173 c 0.19229,2.05112 0.25192,3.15569 0.25192,6.88601 l 0,9.93713 c 0,3.66563 -0.0598,4.76084 -0.25192,6.74605 a 0.89583068,0.89583068 0 0 0 1.0357,0.97971 c 1.54425,-0.24708 3.48418,-0.39188 7.33388,-0.39188 l 11.11279,0 0,3.94686 -18.19474,0 c -3.0708,0 -4.80695,-0.11158 -6.41015,-0.41988 a 0.89583068,0.89583068 0 0 0 -1.06369,0.86775 l 0,4.53469 a 0.89583068,0.89583068 0 0 0 1.0357,0.86775 c 1.67946,-0.24881 3.75785,-0.3639 6.43814,-0.3639 l 18.19474,0 0,2.18337 c 0,3.34216 -0.0692,4.7328 -0.44787,6.94199 a 0.89583068,0.89583068 0 0 0 0.89574,1.0637 l 4.8426,0 a 0.89583068,0.89583068 0 0 0 0.86775,-1.0637 c -0.37595,-2.00509 -0.44787,-3.40572 -0.44787,-6.94199 l 0,-2.18337 19.17445,0 c 2.68028,0 4.64439,0.11077 6.6061,0.3639 a 0.89583068,0.89583068 0 0 0 1.0077,-0.86775 l 0,-4.53469 a 0.89583068,0.89583068 0 0 0 -1.09168,-0.86775 c -1.53125,0.30625 -3.25638,0.41988 -6.52212,0.41988 l -19.17445,0 0,-3.94686 12.20447,0 c 3.78485,0 5.67397,0.14421 7.22191,0.39188 a 0.89583068,0.89583068 0 0 0 1.0357,-0.97971 c -0.19246,-2.05285 -0.25192,-3.08042 -0.25192,-6.74605 l 0,-10.13307 c 0,-3.60097 0.0595,-4.63722 0.25192,-6.69007 a 0.89583068,0.89583068 0 0 0 -1.06369,-0.95173 c -1.58564,0.30493 -3.2783,0.3639 -7.13794,0.3639 l -12.26045,0 0,-3.75092 18.53064,0 c 2.54987,0 4.49251,0.13819 6.52212,0.39189 a 0.89583068,0.89583068 0 0 0 1.0077,-0.89574 l 0,-4.45071 a 0.89583068,0.89583068 0 0 0 -1.06369,-0.89575 c -1.60739,0.30912 -3.25638,0.44788 -6.52211,0.44788 l -18.47466,0 c 0.003,-2.50924 0.13573,-4.11746 0.44787,-5.99027 a 0.89583068,0.89583068 0 0 0 -0.86775,-1.0357 l -4.8426,0 a 0.89583068,0.89583068 0 0 0 -0.19595,0 z m -13.68804,21.46979 13.43612,0 0,4.39473 -13.43612,0 0,-4.39473 z m 19.14647,0 14.41583,0 0,4.39473 -14.41583,0 0,-4.39473 z m -19.14647,9.65721 13.43612,0 0,4.53469 -13.43612,0 0,-4.53469 z m 19.14647,0 14.41583,0 0,4.53469 -14.41583,0 0,-4.53469 z"
       id="path5723"
       inkscape:connector-curvature="0" />
    <path
       style="font-size:medium;font-style:normal;font-variant:normal;font-weight:normal;font-stretch:normal;text-indent:0;text-align:start;text-decoration:none;line-height:normal;letter-spacing:normal;word-spacing:normal;text-transform:none;direction:ltr;block-progression:tb;writing-mode:lr-tb;text-anchor:start;baseline-shift:baseline;color:#000000;fill:#000000;fill-opacity:1;fill-rule:evenodd;stroke:none;stroke-width:3.2pt;marker:none;visibility:visible;display:inline;overflow:visible;enable-background:accumulate;font-family:Sans;-inkscape-font-specification:Sans"
       d="m 650.57857,888.96698 -1.2012,2.09664 -11.18213,19.35032 -1.22304,2.09666 2.42425,0 5.59107,0 0,16.11798 -15.52832,0 0,-5.59106 0,-2.42428 -2.09664,1.22304 -19.35032,11.18213 -2.09665,1.20124 2.09665,1.20117 19.35032,11.18213 2.09664,1.22304 0,-2.42421 0,-5.59107 15.52832,0 0,17.21 -5.59107,0 -2.42425,0 1.22304,2.09665 11.18213,19.32844 1.2012,2.0967 1.20121,-2.0967 11.18213,-19.32844 1.22304,-2.09665 -2.42425,0 -5.59106,0 0,-17.21 17.79968,0 0,5.59107 0,2.42421 2.09664,-1.22304 19.35032,-11.18213 2.09665,-1.20117 -2.09665,-1.20124 -19.35032,-11.18213 -2.09664,-1.22304 0,2.42428 0,5.59106 -17.79968,0 0,-16.11798 5.59106,0 2.42425,0 -1.22304,-2.09666 -11.18213,-19.35032 -1.20121,-2.09664 z"
       id="path4501"
       inkscape:connector-curvature="0" />
  </g>
</svg>
