<?xml version="1.0" encoding="UTF-8" standalone="no"?>
<!-- Created with Inkscape (http://www.inkscape.org/) -->

<svg
   xmlns:dc="http://purl.org/dc/elements/1.1/"
   xmlns:cc="http://creativecommons.org/ns#"
   xmlns:rdf="http://www.w3.org/1999/02/22-rdf-syntax-ns#"
   xmlns:svg="http://www.w3.org/2000/svg"
   xmlns="http://www.w3.org/2000/svg"
   xmlns:xlink="http://www.w3.org/1999/xlink"
   xmlns:sodipodi="http://sodipodi.sourceforge.net/DTD/sodipodi-0.dtd"
   xmlns:inkscape="http://www.inkscape.org/namespaces/inkscape"
   width="253.12505"
   height="281.25003"
   id="svg2"
   version="1.1"
   inkscape:version="0.48.4 r9939"
   inkscape:export-filename="shogi-king.png"
   inkscape:export-xdpi="300.16"
   inkscape:export-ydpi="300.16"
   sodipodi:docname="silver-general.svg">
  <defs
     id="defs4">
    <marker
       inkscape:stockid="TriangleOutL"
       orient="auto"
       refY="0"
       refX="0"
       id="TriangleOutL"
       style="overflow:visible">
      <path
         id="path4284"
         d="m 5.77,0 -8.65,5 0,-10 8.65,5 z"
         style="fill-rule:evenodd;stroke:#000000;stroke-width:1pt"
         transform="scale(0.8,0.8)"
         inkscape:connector-curvature="0" />
    </marker>
    <marker
       inkscape:stockid="Arrow2Mstart"
       orient="auto"
       refY="0"
       refX="0"
       id="Arrow2Mstart"
       style="overflow:visible">
      <path
         id="path4166"
         style="fill-rule:evenodd;stroke-width:0.625;stroke-linejoin:round"
         d="M 8.7185878,4.0337352 -2.2072895,0.01601326 8.7185884,-4.0017078 c -1.7454984,2.3720609 -1.7354408,5.6174519 -6e-7,8.035443 z"
         transform="scale(0.6,0.6)"
         inkscape:connector-curvature="0" />
    </marker>
    <marker
       inkscape:stockid="Arrow2Lend"
       orient="auto"
       refY="0"
       refX="0"
       id="Arrow2Lend"
       style="overflow:visible">
      <path
         id="path4163"
         style="fill-rule:evenodd;stroke-width:0.625;stroke-linejoin:round"
         d="M 8.7185878,4.0337352 -2.2072895,0.01601326 8.7185884,-4.0017078 c -1.7454984,2.3720609 -1.7354408,5.6174519 -6e-7,8.035443 z"
         transform="matrix(-1.1,0,0,-1.1,-1.1,0)"
         inkscape:connector-curvature="0" />
    </marker>
    <marker
       inkscape:stockid="Arrow2Lstart"
       orient="auto"
       refY="0"
       refX="0"
       id="Arrow2Lstart"
       style="overflow:visible">
      <path
         id="path4160"
         style="fill-rule:evenodd;stroke-width:0.625;stroke-linejoin:round"
         d="M 8.7185878,4.0337352 -2.2072895,0.01601326 8.7185884,-4.0017078 c -1.7454984,2.3720609 -1.7354408,5.6174519 -6e-7,8.035443 z"
         transform="matrix(1.1,0,0,1.1,1.1,0)"
         inkscape:connector-curvature="0" />
    </marker>
    <marker
       inkscape:stockid="TriangleInL"
       orient="auto"
       refY="0"
       refX="0"
       id="TriangleInL"
       style="overflow:visible">
      <path
         id="path4275"
         d="m 5.77,0 -8.65,5 0,-10 8.65,5 z"
         style="fill-rule:evenodd;stroke:#000000;stroke-width:1pt"
         transform="scale(-0.8,-0.8)"
         inkscape:connector-curvature="0" />
    </marker>
    <marker
       inkscape:stockid="Arrow1Lstart"
       orient="auto"
       refY="0"
       refX="0"
       id="Arrow1Lstart"
       style="overflow:visible">
      <path
         id="path4482"
         d="M 0,0 5,-5 -12.5,0 5,5 0,0 z"
         style="fill-rule:evenodd;stroke:#000000;stroke-width:1pt"
         transform="matrix(0.8,0,0,0.8,10,0)"
         inkscape:connector-curvature="0" />
    </marker>
  </defs>
  <sodipodi:namedview
     id="base"
     pagecolor="#ffffff"
     bordercolor="#666666"
     borderopacity="1.0"
     inkscape:pageopacity="0.0"
     inkscape:pageshadow="2"
     inkscape:zoom="0.49497475"
     inkscape:cx="-667.26274"
     inkscape:cy="313.21123"
     inkscape:document-units="px"
     inkscape:current-layer="layer1"
     showgrid="false"
     inkscape:window-width="1920"
     inkscape:window-height="1056"
     inkscape:window-x="1280"
     inkscape:window-y="24"
     inkscape:window-maximized="1"
     showguides="true"
     inkscape:guide-bbox="true"
     fit-margin-top="0"
     fit-margin-left="0"
     fit-margin-right="0"
     fit-margin-bottom="0" />
  <metadata
     id="metadata7">
    <rdf:RDF>
      <cc:Work
         rdf:about="">
        <dc:format>image/svg+xml</dc:format>
        <dc:type
           rdf:resource="http://purl.org/dc/dcmitype/StillImage" />
        <dc:title />
      </cc:Work>
    </rdf:RDF>
  </metadata>
  <g
     inkscape:label="Layer 1"
     inkscape:groupmode="layer"
     id="layer1"
     transform="translate(-785.15173,-350.59433)">
    <use
       height="100.5"
       width="100.5"
       id="use3189"
       transform="matrix(-4,0,0,-4,42,80)"
       y="0"
       x="0"
       xlink:href="#lance" />
    <use
       height="100.5"
       width="100.5"
       id="use3189-0"
       transform="matrix(-4,0,0,-4,42,80)"
       y="0"
       x="0"
       xlink:href="#lance" />
    <use
       height="100.5"
       width="100.5"
       id="use3189-9"
       transform="matrix(-4,0,0,-4,42,80)"
       y="0"
       x="0"
       xlink:href="#lance" />
    <g
       id="g5980"
       transform="translate(39.999969,20)">
      <g
         transform="matrix(0.89574111,0,0,0.89574111,562.09868,32.402534)"
         id="g5918">
        <path
           style="font-size:medium;font-style:normal;font-variant:normal;font-weight:normal;font-stretch:normal;text-indent:0;text-align:start;text-decoration:none;line-height:normal;letter-spacing:normal;word-spacing:normal;text-transform:none;direction:ltr;block-progression:tb;writing-mode:lr-tb;text-anchor:start;baseline-shift:baseline;color:#000000;fill:#000000;fill-opacity:1;stroke:none;stroke-width:8;marker:none;visibility:visible;display:inline;overflow:visible;enable-background:accumulate;font-family:Sans;-inkscape-font-specification:Sans"
           d="m 306.55066,529.25349 -4.68865,4.68865 39.11529,39.08939 -39.11529,39.11529 4.68865,4.68865 39.08939,-39.08939 39.11529,39.08939 4.68865,-4.68865 -39.08938,-39.11529 39.08938,-39.08939 -4.68865,-4.68865 -35.79956,35.79956 0,-33.44228 -6.63146,0 0,33.41638 -35.77366,-35.77366 z"
           id="path5136"
           inkscape:connector-curvature="0" />
        <path
           style="font-size:72px;font-style:normal;font-variant:normal;font-weight:300;font-stretch:normal;line-height:100%;letter-spacing:0px;word-spacing:0px;fill:#000000;fill-opacity:1;stroke:none;font-family:Hiragino Kaku Gothic Pro;-inkscape-font-specification:Hiragino Kaku Gothic Pro Light"
           d="m 326.78382,366.3927 a 1.0001,1.0001 0 0 0 -0.84375,0.65625 c -2.5265,6.80749 -6.5842,11.9941 -13.375,16.875 a 1.0001,1.0001 0 0 0 -0.15625,1.5 c 1.26587,1.33621 1.80303,2.0748 2.5625,3.59375 a 1.0001,1.0001 0 0 0 1.5625,0.3125 c 1.21553,-1.04189 1.81237,-1.63753 2.53125,-2.3125 l 0,1.6875 a 1.0001,1.0001 0 0 0 1.15625,1 c 1.28434,-0.20279 2.79978,-0.28125 4.5,-0.28125 l 1.3125,0 0,5.5625 -4.46875,0 c -2.93574,0 -4.73353,-0.0984 -6.53125,-0.375 a 1.0001,1.0001 0 0 0 -1.15625,1 l 0,4.53125 a 1.0001,1.0001 0 0 0 1.125,1 c 1.87229,-0.27738 3.77159,-0.34375 6.5625,-0.34375 l 4.46875,0 0,20.125 c -5.81392,1.43094 -9.75938,2.21727 -12.0625,2.28125 a 1.0001,1.0001 0 0 0 -0.9375,1.21875 l 1.15625,4.84375 a 1.0001,1.0001 0 0 0 1.25,0.71875 c 0.66856,-0.20057 1.04815,-0.29161 1.75,-0.5 0.0299,-0.008 0.0328,0.008 0.0625,0 14.02361,-3.57739 14.51954,-3.70653 24.4375,-7.15625 a 1.0001,1.0001 0 0 0 0.65625,-0.96875 l -0.125,-4.03125 a 1.0001,1.0001 0 0 0 -1.34375,-0.90625 c -1.30937,0.46332 -1.83371,0.58064 -2.78125,0.90625 a 1.0001,1.0001 0 0 0 0,-0.0937 c 0.006,-0.0133 0.0256,-0.0179 0.0313,-0.0313 a 1.0001,1.0001 0 0 0 0.0625,-0.21875 c 1.60347,-3.80045 2.5093,-6.70021 3.78125,-12 a 1.0001,1.0001 0 0 0 -0.59375,-1.15625 l -3.53125,-1.4375 a 1.0001,1.0001 0 0 0 -1.34375,0.75 c -0.85541,4.91858 -1.7603,7.96497 -3.46875,12.09375 a 1.0001,1.0001 0 0 0 0.5625,1.34375 l 3.03125,1.125 a 1.0001,1.0001 0 0 0 0.0937,0.0625 c -1.37894,0.45993 -3.06054,1.05395 -4.5,1.46875 l 0,-18.4375 3.15625,0 c 2.86332,0 4.60471,0.0666 6.40625,0.34375 a 1.0001,1.0001 0 0 0 1.15625,-1 l 0,-4.53125 a 1.0001,1.0001 0 0 0 -1.15625,-1 c -1.71887,0.27502 -3.54293,0.375 -6.40625,0.375 l -3.15625,0 0,-5.5625 1.9375,0 c 1.9193,0 3.2283,0.0728 4.6875,0.28125 a 1.0001,1.0001 0 0 0 1.125,-1 l 0,-3.28125 a 1.0001,1.0001 0 0 0 1.3125,-0.40625 c 0.91531,-1.61941 1.31716,-2.12124 2.59375,-3.46875 a 1.0001,1.0001 0 0 0 0.0937,-0.125 l 0,42.15625 c -3.14141,0.75762 -5.18594,1.21865 -7.125,1.34375 a 1.0001,1.0001 0 0 0 -0.90625,1.28125 l 1.28125,4.65625 a 1.0001,1.0001 0 0 0 1.34375,0.6875 c 0.64528,-0.25811 1.39731,-0.47741 3.84375,-1.125 8.16161,-2.09458 13.32896,-3.7718 19.6875,-6.15625 a 1.0001,1.0001 0 0 0 0.625,-1 l -0.1875,-4.15625 a 1.0001,1.0001 0 0 0 -1.375,-0.875 c -4.1651,1.66604 -6.89708,2.48825 -10.875,3.625 l 0,-21.78125 5.03125,0 c 1.18738,6.31606 2.52158,10.43019 5.03125,15.03125 3.52889,6.39613 8.10163,11.13779 15.59375,16.375 a 1.0001,1.0001 0 0 0 1.4375,-0.3125 c 1.12909,-1.97592 1.72335,-2.76129 2.96875,-3.9375 a 1.0001,1.0001 0 0 0 -0.15625,-1.59375 c -6.19105,-3.70117 -9.85469,-6.96423 -13.03125,-11.46875 4.78423,-3.39264 6.64643,-4.82472 11.5625,-9 a 1.0001,1.0001 0 0 0 0.0625,-1.46875 l -3.09375,-3.125 a 1.0001,1.0001 0 0 0 -0.0625,-0.0937 1.0001,1.0001 0 0 0 -0.1875,-0.21875 1.0001,1.0001 0 0 0 -0.0313,-0.0313 1.0001,1.0001 0 0 0 -0.0625,-0.0625 1.0001,1.0001 0 0 0 -0.0625,-0.0313 1.0001,1.0001 0 0 0 -0.0313,0 1.0001,1.0001 0 0 0 -0.0625,-0.0313 1.0001,1.0001 0 0 0 -0.0313,-0.0313 1.0001,1.0001 0 0 0 -0.0313,-0.0313 1.0001,1.0001 0 0 0 -0.0625,0 1.0001,1.0001 0 0 0 -0.0313,-0.0313 1.0001,1.0001 0 0 0 0.28125,-0.875 c -0.19932,-1.32877 -0.1875,-2.96126 -0.1875,-7.28125 l 0,-14.8125 c 0,-4.464 0.009,-5.85987 0.21875,-7.75 a 1.0001,1.0001 0 0 0 -1.1875,-1.09375 c -1.39306,0.26534 -3.22584,0.34375 -6.8125,0.34375 l -15.625,0 c -3.15285,0 -4.96331,-0.0697 -6.9375,-0.28125 a 1.0001,1.0001 0 0 0 -1.09375,1.0625 c 0.14407,2.37722 0.28125,4.63244 0.28125,7.40625 l 0,3.53125 a 1.0001,1.0001 0 0 0 -0.1875,-0.1875 c -5.6283,-4.41715 -7.97428,-7.23567 -10.8125,-13.125 a 1.0001,1.0001 0 0 0 -0.90625,-0.5625 l -5.1875,0 a 1.0001,1.0001 0 0 0 -0.0937,0 z m 2.90625,6.53125 c 2.36852,4.09443 4.79663,7.16199 8.4375,10.65625 -1.17208,0.14256 -2.1586,0.21875 -3.96875,0.21875 l -9.28125,0 c -1.21077,0 -1.85354,-0.0951 -2.65625,-0.15625 2.97416,-3.24224 5.35424,-6.56771 7.46875,-10.71875 z m 20.59375,1.59375 18.65625,0 0,6.625 -18.65625,0 0,-6.625 z m 0,12.53125 18.65625,0 0,7.125 -18.65625,0 0,-7.125 z m 11.21875,13.03125 6.65625,0 c 2.86053,0 4.42194,0.0536 5.9375,0.1875 a 1.0001,1.0001 0 0 0 -0.0313,0.0313 1.0001,1.0001 0 0 0 -0.0937,0.0937 1.0001,1.0001 0 0 0 -0.0625,0.0625 c -2.10674,2.72742 -5.0668,5.26132 -9.71875,8.46875 -1.26091,-2.76096 -1.9845,-5.13092 -2.6875,-8.84375 z m -41.75,2.59375 a 1.0001,1.0001 0 0 0 -0.15625,0.0625 l -3.6875,1.21875 a 1.0001,1.0001 0 0 0 -0.625,1.28125 c 1.8556,5.20997 2.55598,8.32414 3.34375,14.125 a 1.0001,1.0001 0 0 0 1.34375,0.8125 l 3.5625,-1.375 a 1.0001,1.0001 0 0 0 0.1875,-0.0625 1.0001,1.0001 0 0 0 0.1875,-0.0937 1.0001,1.0001 0 0 0 0.375,-0.4375 1.0001,1.0001 0 0 0 0.0313,-0.0937 1.0001,1.0001 0 0 0 0.0313,-0.125 1.0001,1.0001 0 0 0 0.0313,-0.1875 1.0001,1.0001 0 0 0 -0.0313,-0.15625 c -0.002,-0.0125 0.002,-0.0188 0,-0.0313 a 1.0001,1.0001 0 0 0 -0.0313,-0.1875 1.0001,1.0001 0 0 0 0,-0.0313 c -0.91255,-5.70782 -1.55258,-8.21174 -3.46875,-14.03125 a 1.0001,1.0001 0 0 0 -1.09375,-0.6875 z m 52.125,34.5625 a 1.0001,1.0001 0 0 0 -0.125,0.0313 1.0001,1.0001 0 0 0 -0.0625,0 1.0001,1.0001 0 0 0 -0.0937,0.0625 1.0001,1.0001 0 0 0 -0.15625,0.0937 c -2.51241,1.47225 -8.24038,3.05335 -15.125,4.1875 -6.93868,1.14305 -15.09354,1.89732 -22.59375,1.96875 a 1.0001,1.0001 0 0 0 -0.875,1.46875 c 0.91511,1.68945 1.23535,2.47264 1.65625,4.15625 a 1.0001,1.0001 0 0 0 1,0.75 c 6.79406,-0.36139 12.66802,-0.92151 18.03125,-1.71875 7.23362,-1.15738 15.23031,-2.83105 20.15625,-4.375 l 0,0.0313 c 1.51199,-0.432 1.5395,-0.4715 2.1875,-0.6875 a 1.0001,1.0001 0 0 0 0.4375,-1.59375 l -3.40625,-3.875 0,-0.0313 a 1.0001,1.0001 0 0 0 -0.125,-0.125 1.0001,1.0001 0 0 0 -0.25,-0.21875 1.0001,1.0001 0 0 0 -0.15625,-0.0625 1.0001,1.0001 0 0 0 -0.0313,-0.0313 1.0001,1.0001 0 0 0 -0.0625,0 1.0001,1.0001 0 0 0 -0.0313,0 1.0001,1.0001 0 0 0 -0.15625,-0.0313 1.0001,1.0001 0 0 0 -0.0313,0 1.0001,1.0001 0 0 0 -0.0625,0 1.0001,1.0001 0 0 0 -0.0313,0 1.0001,1.0001 0 0 0 -0.0937,0 z m -46.65625,0.28125 a 1.0001,1.0001 0 0 0 -0.90625,1.125 c 0.28338,2.12537 0.4375,4.00775 0.4375,7 l 0,26.9375 c -4.49812,3.09604 -10.82445,6.34695 -13.375,7.03125 a 1.0001,1.0001 0 0 0 -0.65625,1.375 l 2.0625,4.8125 a 1.0001,1.0001 0 0 0 1.5,0.40625 c 0.70208,-0.49146 1.31668,-0.88519 2.28125,-1.4375 0.008,-0.004 0.0231,0.004 0.0313,0 2.91961,-1.5824 5.72946,-3.36878 8.15625,-5 l 0,15.84375 c 0,3.35562 -0.15779,5.75336 -0.4375,7.78125 a 1.0001,1.0001 0 0 0 1,1.15625 l 5.40625,0 a 1.0001,1.0001 0 0 0 0.96875,-1.15625 c -0.34341,-2.06047 -0.40625,-4.48375 -0.40625,-7.78125 l 0,-49.96875 c 0,-3.0805 0.0629,-4.89338 0.34375,-7 a 1.0001,1.0001 0 0 0 -1,-1.125 l -5.3125,0 a 1.0001,1.0001 0 0 0 -0.0937,0 z m 45.78125,9.375 a 1.0001,1.0001 0 0 0 -0.78125,0.65625 c -2.56392,6.90832 -5.02843,11.11269 -10.53125,17.6875 a 1.0001,1.0001 0 0 0 0.34375,1.5625 l 2.625,1.21875 c 0.14027,1.183 0.19458,2.43275 0.25,4.0625 l -22.34375,0 c -3.00813,0 -4.71895,-0.0603 -6.65625,-0.40625 a 1.0001,1.0001 0 0 0 -1.1875,0.96875 l 0,5.0625 a 1.0001,1.0001 0 0 0 1.15625,0.96875 c 1.80343,-0.27745 3.98659,-0.40625 6.6875,-0.40625 l 22.40625,0 0,18.0625 c 0,0.58139 -0.0356,0.57759 -0.21875,0.6875 -0.18319,0.10991 -0.81011,0.28125 -1.9375,0.28125 -2.94463,0 -6.43862,-0.37522 -10.34375,-1.15625 a 1.0001,1.0001 0 0 0 -1.125,1.34375 c 0.62875,1.6767 0.81888,2.50961 1.03125,4.5625 a 1.0001,1.0001 0 0 0 0.90625,0.90625 c 3.9065,0.36171 6.68906,0.5 9.53125,0.5 2.95916,0 5.05162,-0.29516 6.5625,-1.34375 1.51088,-1.04859 2.125,-2.82512 2.125,-4.96875 l 0,-18.875 1.3125,0 c 2.7738,0 5.01215,0.12674 6.96875,0.40625 a 1.0001,1.0001 0 0 0 1.15625,-0.96875 l 0,-5.0625 a 1.0001,1.0001 0 0 0 -1.15625,-0.96875 c -1.9632,0.28046 -4.04928,0.40625 -6.96875,0.40625 l -1.25,0 c 0.022,-1.89116 0.0444,-3.1318 0.21875,-4.46875 a 1.0001,1.0001 0 0 0 -1,-1.15625 l -2.1875,0 c 3.70307,-4.81435 5.93021,-8.27718 10,-16.09375 a 1.0001,1.0001 0 0 0 -0.46875,-1.375 l -4.5625,-2 a 1.0001,1.0001 0 0 0 -0.5625,-0.0937 z m -53.875,0.9375 a 1.0001,1.0001 0 0 0 -0.15625,0.0625 l -3.9375,1.5 -0.0313,0 a 1.0001,1.0001 0 0 0 -0.3125,0.125 1.0001,1.0001 0 0 0 -0.0625,0.0313 1.0001,1.0001 0 0 0 -0.0625,0 1.0001,1.0001 0 0 0 -0.0313,0.0313 1.0001,1.0001 0 0 0 -0.0937,0.0937 1.0001,1.0001 0 0 0 -0.0625,0.0625 1.0001,1.0001 0 0 0 -0.0625,0.0625 1.0001,1.0001 0 0 0 0,0.0313 1.0001,1.0001 0 0 0 -0.0625,0.0625 1.0001,1.0001 0 0 0 0,0.0313 1.0001,1.0001 0 0 0 -0.0313,0.0625 1.0001,1.0001 0 0 0 -0.0313,0.0937 1.0001,1.0001 0 0 0 -0.0313,0.0937 1.0001,1.0001 0 0 0 0,0.0313 1.0001,1.0001 0 0 0 -0.0313,0.0625 1.0001,1.0001 0 0 0 0,0.0313 1.0001,1.0001 0 0 0 0,0.0625 1.0001,1.0001 0 0 0 0,0.0313 1.0001,1.0001 0 0 0 0,0.0625 1.0001,1.0001 0 0 0 0,0.0313 1.0001,1.0001 0 0 0 0.0313,0.1875 1.0001,1.0001 0 0 0 0.0313,0.0937 1.0001,1.0001 0 0 0 0.0313,0.0625 1.0001,1.0001 0 0 0 0.0625,0.125 c 2.2385,4.91796 3.42459,8.67112 4.84375,15.625 a 1.0001,1.0001 0 0 0 1.3125,0.75 l 4.1875,-1.5 a 1.0001,1.0001 0 0 0 0.625,-1.1875 c -1.37527,-5.7906 -2.68497,-10.11052 -5,-16.1875 a 1.0001,1.0001 0 0 0 -1.125,-0.625 z m 35.0625,1.28125 a 1.0001,1.0001 0 0 0 -0.21875,0.0625 l -4.09375,1.4375 a 1.0001,1.0001 0 0 0 -0.53125,1.4375 c 2.56532,4.56058 3.85609,7.7375 5.5,13.3125 a 1.0001,1.0001 0 0 0 1.3125,0.65625 l 3.96875,-1.5 a 1.0001,1.0001 0 0 0 0.25,-0.0937 1.0001,1.0001 0 0 0 0.21875,-0.0937 1.0001,1.0001 0 0 0 0,-0.0313 1.0001,1.0001 0 0 0 0.0625,-0.0313 1.0001,1.0001 0 0 0 0.0313,-0.0313 1.0001,1.0001 0 0 0 0.0625,-0.0313 1.0001,1.0001 0 0 0 0,-0.0313 1.0001,1.0001 0 0 0 0.0625,-0.0625 1.0001,1.0001 0 0 0 0,-0.0313 1.0001,1.0001 0 0 0 0,-0.0313 1.0001,1.0001 0 0 0 0.0625,-0.0625 1.0001,1.0001 0 0 0 0.0313,-0.0313 1.0001,1.0001 0 0 0 0,-0.0313 1.0001,1.0001 0 0 0 0.0313,-0.0313 1.0001,1.0001 0 0 0 0.0313,-0.15625 1.0001,1.0001 0 0 0 0.0313,-0.0937 1.0001,1.0001 0 0 0 0,-0.125 1.0001,1.0001 0 0 0 0,-0.0625 1.0001,1.0001 0 0 0 0,-0.0313 1.0001,1.0001 0 0 0 -0.0313,-0.15625 1.0001,1.0001 0 0 0 0,-0.0313 1.0001,1.0001 0 0 0 -0.0313,-0.0313 1.0001,1.0001 0 0 0 -0.0937,-0.25 c -1.83666,-5.47719 -3.29983,-8.95669 -5.65625,-13.3125 a 1.0001,1.0001 0 0 0 -1,-0.53125 z m -13.28125,2.09375 a 1.0001,1.0001 0 0 0 -0.21875,0.0625 l -3.9375,1.53125 a 1.0001,1.0001 0 0 0 -0.5,1.4375 c 2.84972,4.55956 4.09721,7.39451 6.03125,13.125 a 1.0001,1.0001 0 0 0 1.34375,0.59375 l 3.90625,-1.78125 0.21875,-0.0937 a 1.0001,1.0001 0 0 0 0.0625,-0.0313 1.0001,1.0001 0 0 0 0.0625,-0.0313 1.0001,1.0001 0 0 0 0.15625,-0.125 1.0001,1.0001 0 0 0 0.0937,-0.125 1.0001,1.0001 0 0 0 0.0313,-0.0313 1.0001,1.0001 0 0 0 0.0313,-0.0625 1.0001,1.0001 0 0 0 0.0625,-0.0937 1.0001,1.0001 0 0 0 0.0313,-0.0625 1.0001,1.0001 0 0 0 0,-0.0625 1.0001,1.0001 0 0 0 0.0313,-0.0313 1.0001,1.0001 0 0 0 0,-0.0625 1.0001,1.0001 0 0 0 0,-0.0313 1.0001,1.0001 0 0 0 0,-0.0625 1.0001,1.0001 0 0 0 0,-0.21875 1.0001,1.0001 0 0 0 0,-0.0313 1.0001,1.0001 0 0 0 0,-0.0625 1.0001,1.0001 0 0 0 0,-0.0313 1.0001,1.0001 0 0 0 -0.0313,-0.0625 1.0001,1.0001 0 0 0 0,-0.0313 1.0001,1.0001 0 0 0 -0.0313,-0.0313 1.0001,1.0001 0 0 0 -0.0625,-0.15625 1.0001,1.0001 0 0 0 -0.0625,-0.0937 c -2.11541,-5.26075 -3.79615,-8.71107 -6.21875,-12.84375 a 1.0001,1.0001 0 0 0 -1,-0.5 z m 4.8125,27.21875 a 1.0001,1.0001 0 0 0 -0.4375,0.1875 l -3.375,2.53125 a 1.0001,1.0001 0 0 0 -0.0937,1.53125 c 4.21569,3.92988 6.57379,6.63561 9.78125,11.625 a 1.0001,1.0001 0 0 0 1.4375,0.25 l 3.75,-2.84375 0.0937,-0.0625 a 1.0001,1.0001 0 0 0 0.125,-0.125 1.0001,1.0001 0 0 0 0.15625,-0.15625 1.0001,1.0001 0 0 0 0.0313,-0.0625 1.0001,1.0001 0 0 0 0.0625,-0.0937 1.0001,1.0001 0 0 0 0.0625,-0.1875 1.0001,1.0001 0 0 0 0,-0.0937 1.0001,1.0001 0 0 0 0.0313,-0.0937 1.0001,1.0001 0 0 0 0,-0.0313 1.0001,1.0001 0 0 0 0,-0.0625 1.0001,1.0001 0 0 0 -0.0313,-0.125 1.0001,1.0001 0 0 0 -0.0625,-0.1875 1.0001,1.0001 0 0 0 -0.0313,-0.0937 1.0001,1.0001 0 0 0 -0.0625,-0.0937 1.0001,1.0001 0 0 0 -0.0313,-0.0313 c -0.005,-0.007 0.005,-0.0243 0,-0.0313 a 1.0001,1.0001 0 0 0 -0.21875,-0.21875 c -3.24485,-4.20533 -6.02469,-7.21416 -10.34375,-11.25 a 1.0001,1.0001 0 0 0 -0.84375,-0.28125 z"
           id="path5708"
           inkscape:connector-curvature="0" />
      </g>
      <path
         sodipodi:nodetypes="scscscccscscsssscscscccscscs"
         id="path5946"
         d="m 776.65179,611.84436 c -11.625,0 -19.78123,-2.3438 -24.46873,-7.0313 -4.6875,-4.6875 -7.0313,-10.4062 -7.0313,-17.1562 0,-21.75003 13.4063,-91.87503 40.21873,-210.37503 2.06253,-8.81253 6.0938,-15.25783 12.0938,-19.3359 6,-4.07813 12.93749,-7.19533 20.81249,-9.3516 l 53.4375,-18 53.4375,18 c 7.875,2.15627 14.8125,5.27347 20.8125,9.3516 6,4.07807 10.03127,10.52337 12.0938,19.3359 26.81242,118.5 40.21872,188.625 40.21872,210.37503 0,6.75 -2.3438,12.4687 -7.0313,17.1562 -4.6875,4.6875 -12.84372,7.0313 -24.46872,7.0313 z m 0,-15.75 190.12499,0 c 4.125,0 7.5,-0.6563 10.125,-1.9687 2.625,-1.3126 3.93752,-3.4688 3.93752,-6.4688 0,-19.125 -12.93752,-87.37503 -38.81252,-204.75003 -1.5,-6 -3.58593,-10.7578 -6.2578,-14.2734 -2.67187,-3.51567 -7.71093,-6.44537 -15.1172,-8.7891 l -48.9375,-16.3125 -48.9375,16.3125 c -7.40627,2.34373 -12.44533,5.27343 -15.11719,8.7891 -2.67187,3.5156 -4.7578,8.4609 -6.2578,14.8359 -25.875,117 -38.81253,185.06253 -38.81253,204.18753 0,3 1.31253,5.1562 3.93753,6.4688 2.625,1.3124 6,1.9687 10.125,1.9687 z"
         inkscape:connector-curvature="0"
         style="stroke:none" />
    </g>
  </g>
</svg>
