<?xml version="1.0" encoding="UTF-8" standalone="no"?>
<!-- Created with Inkscape (http://www.inkscape.org/) -->

<svg
   xmlns:dc="http://purl.org/dc/elements/1.1/"
   xmlns:cc="http://creativecommons.org/ns#"
   xmlns:rdf="http://www.w3.org/1999/02/22-rdf-syntax-ns#"
   xmlns:svg="http://www.w3.org/2000/svg"
   xmlns="http://www.w3.org/2000/svg"
   xmlns:xlink="http://www.w3.org/1999/xlink"
   xmlns:sodipodi="http://sodipodi.sourceforge.net/DTD/sodipodi-0.dtd"
   xmlns:inkscape="http://www.inkscape.org/namespaces/inkscape"
   width="228.25008"
   height="262.56253"
   id="svg2"
   version="1.1"
   inkscape:version="0.48.4 r9939"
   inkscape:export-filename="shogi-king.png"
   inkscape:export-xdpi="300.16"
   inkscape:export-ydpi="300.16"
   sodipodi:docname="silver-general.svg">
  <defs
     id="defs4">
    <marker
       inkscape:stockid="TriangleOutL"
       orient="auto"
       refY="0"
       refX="0"
       id="TriangleOutL"
       style="overflow:visible">
      <path
         id="path4284"
         d="m 5.77,0 -8.65,5 0,-10 8.65,5 z"
         style="fill-rule:evenodd;stroke:#000000;stroke-width:1pt"
         transform="scale(0.8,0.8)"
         inkscape:connector-curvature="0" />
    </marker>
    <marker
       inkscape:stockid="Arrow2Mstart"
       orient="auto"
       refY="0"
       refX="0"
       id="Arrow2Mstart"
       style="overflow:visible">
      <path
         id="path4166"
         style="fill-rule:evenodd;stroke-width:0.625;stroke-linejoin:round"
         d="M 8.7185878,4.0337352 -2.2072895,0.01601326 8.7185884,-4.0017078 c -1.7454984,2.3720609 -1.7354408,5.6174519 -6e-7,8.035443 z"
         transform="scale(0.6,0.6)"
         inkscape:connector-curvature="0" />
    </marker>
    <marker
       inkscape:stockid="Arrow2Lend"
       orient="auto"
       refY="0"
       refX="0"
       id="Arrow2Lend"
       style="overflow:visible">
      <path
         id="path4163"
         style="fill-rule:evenodd;stroke-width:0.625;stroke-linejoin:round"
         d="M 8.7185878,4.0337352 -2.2072895,0.01601326 8.7185884,-4.0017078 c -1.7454984,2.3720609 -1.7354408,5.6174519 -6e-7,8.035443 z"
         transform="matrix(-1.1,0,0,-1.1,-1.1,0)"
         inkscape:connector-curvature="0" />
    </marker>
    <marker
       inkscape:stockid="Arrow2Lstart"
       orient="auto"
       refY="0"
       refX="0"
       id="Arrow2Lstart"
       style="overflow:visible">
      <path
         id="path4160"
         style="fill-rule:evenodd;stroke-width:0.625;stroke-linejoin:round"
         d="M 8.7185878,4.0337352 -2.2072895,0.01601326 8.7185884,-4.0017078 c -1.7454984,2.3720609 -1.7354408,5.6174519 -6e-7,8.035443 z"
         transform="matrix(1.1,0,0,1.1,1.1,0)"
         inkscape:connector-curvature="0" />
    </marker>
    <marker
       inkscape:stockid="TriangleInL"
       orient="auto"
       refY="0"
       refX="0"
       id="TriangleInL"
       style="overflow:visible">
      <path
         id="path4275"
         d="m 5.77,0 -8.65,5 0,-10 8.65,5 z"
         style="fill-rule:evenodd;stroke:#000000;stroke-width:1pt"
         transform="scale(-0.8,-0.8)"
         inkscape:connector-curvature="0" />
    </marker>
    <marker
       inkscape:stockid="Arrow1Lstart"
       orient="auto"
       refY="0"
       refX="0"
       id="Arrow1Lstart"
       style="overflow:visible">
      <path
         id="path4482"
         d="M 0,0 5,-5 -12.5,0 5,5 0,0 z"
         style="fill-rule:evenodd;stroke:#000000;stroke-width:1pt"
         transform="matrix(0.8,0,0,0.8,10,0)"
         inkscape:connector-curvature="0" />
    </marker>
  </defs>
  <sodipodi:namedview
     id="base"
     pagecolor="#ffffff"
     bordercolor="#666666"
     borderopacity="1.0"
     inkscape:pageopacity="0.0"
     inkscape:pageshadow="2"
     inkscape:zoom="0.49497475"
     inkscape:cx="-732.37078"
     inkscape:cy="549.61766"
     inkscape:document-units="px"
     inkscape:current-layer="layer1"
     showgrid="false"
     inkscape:window-width="1920"
     inkscape:window-height="1056"
     inkscape:window-x="1280"
     inkscape:window-y="24"
     inkscape:window-maximized="1"
     showguides="true"
     inkscape:guide-bbox="true"
     inkscape:object-paths="true"
     inkscape:snap-nodes="true"
     fit-margin-top="0"
     fit-margin-left="0"
     fit-margin-right="0"
     fit-margin-bottom="0" />
  <metadata
     id="metadata7">
    <rdf:RDF>
      <cc:Work
         rdf:about="">
        <dc:format>image/svg+xml</dc:format>
        <dc:type
           rdf:resource="http://purl.org/dc/dcmitype/StillImage" />
        <dc:title />
      </cc:Work>
    </rdf:RDF>
  </metadata>
  <g
     inkscape:label="Layer 1"
     inkscape:groupmode="layer"
     id="layer1"
     transform="translate(-797.58923,-358.53183)">
    <path
       style="fill:#ffffff;fill-opacity:1;stroke:#000000;stroke-width:10;stroke-linecap:round;stroke-linejoin:round;stroke-miterlimit:4;stroke-opacity:1;stroke-dasharray:none"
       d="m 816.65176,616.09436 190.12494,0 c 4.125,0 7.5,-0.6563 10.125,-1.9687 2.625,-1.3126 3.9376,-3.4688 3.9376,-6.4688 0,-19.125 -12.9376,-87.37503 -38.81255,-204.75003 -1.5,-6 -3.58593,-10.7578 -6.2578,-14.2734 -2.67187,-3.51567 -7.71093,-6.44537 -15.1172,-8.7891 l -48.9375,-16.3125 -48.9375,16.3125 c -7.40627,2.34373 -12.44533,5.27343 -15.11719,8.7891 -2.67187,3.5156 -4.7578,8.4609 -6.2578,14.8359 -25.875,117 -38.81253,185.06253 -38.81253,204.18753 0,3 1.31253,5.1562 3.93753,6.4688 2.625,1.3124 6,1.9687 10.125,1.9687 z"
       id="path5946"
       inkscape:connector-curvature="0" />
    <use
       height="100.5"
       width="100.5"
       id="use3189"
       transform="matrix(-4,0,0,-4,42,80)"
       y="0"
       x="0"
       xlink:href="#lance" />
    <use
       height="100.5"
       width="100.5"
       id="use3189-0"
       transform="matrix(-4,0,0,-4,42,80)"
       y="0"
       x="0"
       xlink:href="#lance" />
    <use
       height="100.5"
       width="100.5"
       id="use3189-9"
       transform="matrix(-4,0,0,-4,42,80)"
       y="0"
       x="0"
       xlink:href="#lance" />
    <path
       style="font-size:72px;font-style:normal;font-variant:normal;font-weight:300;font-stretch:normal;line-height:100%;letter-spacing:0px;word-spacing:0px;fill:#000000;fill-opacity:1;stroke:none;font-family:Hiragino Kaku Gothic Pro;-inkscape-font-specification:Hiragino Kaku Gothic Pro Light"
       d="m 894.81235,380.59554 a 0.89583068,0.89583068 0 0 0 -0.75578,0.58783 c -2.26309,6.09775 -5.89774,10.74361 -11.98054,15.11563 a 0.89583068,0.89583068 0 0 0 -0.13996,1.34361 c 1.13389,1.1969 1.61505,1.85848 2.29534,3.21907 a 0.89583068,0.89583068 0 0 0 1.3996,0.27992 c 1.0888,-0.93326 1.62341,-1.4668 2.26734,-2.0714 l 0,1.51156 a 0.89583068,0.89583068 0 0 0 1.0357,0.89574 c 1.15044,-0.18164 2.50788,-0.25192 4.03084,-0.25192 l 1.17566,0 0,4.98256 -4.00285,0 c -2.62966,0 -4.24001,-0.0882 -5.85031,-0.33591 a 0.89583068,0.89583068 0 0 0 -1.0357,0.89574 l 0,4.05883 a 0.89583068,0.89583068 0 0 0 1.00771,0.89574 c 1.67709,-0.24846 3.37837,-0.30791 5.8783,-0.30791 l 4.00285,0 0,18.02679 c -5.20777,1.28175 -8.74188,1.9861 -10.80488,2.04341 a 0.89583068,0.89583068 0 0 0 -0.83976,1.09168 l 1.0357,4.33875 a 0.89583068,0.89583068 0 0 0 1.11968,0.64381 c 0.59886,-0.17965 0.93887,-0.2612 1.56755,-0.44787 0.0268,-0.007 0.0294,0.007 0.056,0 12.56152,-3.20441 13.00575,-3.32009 21.88967,-6.41014 a 0.89583068,0.89583068 0 0 0 0.58783,-0.86775 l -0.11196,-3.61096 a 0.89583068,0.89583068 0 0 0 -1.20366,-0.81176 c -1.17285,0.41501 -1.64253,0.5201 -2.49128,0.81176 a 0.89583068,0.89583068 0 0 0 0,-0.0839 c 0.005,-0.0119 0.0229,-0.016 0.028,-0.028 a 0.89583068,0.89583068 0 0 0 0.056,-0.19594 c 1.4363,-3.40422 2.24769,-6.00165 3.38702,-10.74889 a 0.89583068,0.89583068 0 0 0 -0.53184,-1.0357 l -3.16309,-1.28763 a 0.89583068,0.89583068 0 0 0 -1.20365,0.6718 c -0.76623,4.40578 -1.57677,7.13455 -3.1071,10.83287 a 0.89583068,0.89583068 0 0 0 0.50385,1.20365 l 2.71522,1.00771 a 0.89583068,0.89583068 0 0 0 0.0839,0.056 c -1.23517,0.41198 -2.74145,0.94406 -4.03084,1.31562 l 0,-16.51523 2.82719,0 c 2.56479,0 4.12462,0.0597 5.73834,0.30791 a 0.89583068,0.89583068 0 0 0 1.0357,-0.89574 l 0,-4.05883 a 0.89583068,0.89583068 0 0 0 -1.0357,-0.89574 c -1.53966,0.24635 -3.17355,0.33591 -5.73834,0.33591 l -2.82719,0 0,-4.98256 1.7355,0 c 1.7192,0 2.89172,0.0652 4.19879,0.25192 a 0.89583068,0.89583068 0 0 0 1.00771,-0.89574 l 0,-2.93915 a 0.89583068,0.89583068 0 0 0 1.17566,-0.36389 c 0.81988,-1.45058 1.17983,-1.90009 2.32333,-3.10711 a 0.89583068,0.89583068 0 0 0 0.0839,-0.11196 l 0,37.76108 c -2.81389,0.67863 -4.64526,1.0916 -6.38216,1.20365 a 0.89583068,0.89583068 0 0 0 -0.81176,1.14767 l 1.14766,4.1708 a 0.89583068,0.89583068 0 0 0 1.20366,0.61582 c 0.578,-0.2312 1.25162,-0.42764 3.443,-1.00771 7.31069,-1.8762 11.9393,-3.37856 17.6349,-5.51441 a 0.89583068,0.89583068 0 0 0 0.55984,-0.89574 l -0.16795,-3.72292 a 0.89583068,0.89583068 0 0 0 -1.23164,-0.78377 c -3.73085,1.49234 -6.178,2.22882 -9.74119,3.24706 l 0,-19.51036 4.5067,0 c 1.06359,5.65755 2.25868,9.34275 4.5067,13.4641 3.16097,5.72928 7.25696,9.97658 13.96796,14.66777 a 0.89583068,0.89583068 0 0 0 1.28763,-0.27992 c 1.01137,-1.76992 1.54367,-2.4734 2.65923,-3.52698 a 0.89583068,0.89583068 0 0 0 -0.13996,-1.42759 c -5.54558,-3.31529 -8.82725,-6.23815 -11.67263,-10.27303 4.28544,-3.03893 5.95348,-4.3217 10.35701,-8.06167 a 0.89583068,0.89583068 0 0 0 0.056,-1.31562 l -2.77119,-2.79919 a 0.89583068,0.89583068 0 0 0 -0.056,-0.0839 0.89583068,0.89583068 0 0 0 -0.16795,-0.19595 0.89583068,0.89583068 0 0 0 -0.028,-0.028 0.89583068,0.89583068 0 0 0 -0.056,-0.056 0.89583068,0.89583068 0 0 0 -0.056,-0.028 0.89583068,0.89583068 0 0 0 -0.028,0 0.89583068,0.89583068 0 0 0 -0.056,-0.028 0.89583068,0.89583068 0 0 0 -0.028,-0.028 0.89583068,0.89583068 0 0 0 -0.028,-0.028 0.89583068,0.89583068 0 0 0 -0.056,0 0.89583068,0.89583068 0 0 0 -0.028,-0.028 0.89583068,0.89583068 0 0 0 0.25193,-0.78377 c -0.17854,-1.19024 -0.16795,-2.65253 -0.16795,-6.52212 l 0,-13.26816 c 0,-3.99859 0.008,-5.24893 0.19594,-6.942 a 0.89583068,0.89583068 0 0 0 -1.06369,-0.97972 c -1.24782,0.23768 -2.88952,0.30792 -6.10224,0.30792 l -13.99595,0 c -2.82414,0 -4.44584,-0.0624 -6.21421,-0.25193 a 0.89583068,0.89583068 0 0 0 -0.97971,0.95172 c 0.12905,2.12938 0.25192,4.14947 0.25192,6.63409 l 0,3.16308 a 0.89583068,0.89583068 0 0 0 -0.16795,-0.16795 c -5.0415,-3.95662 -7.14289,-6.48129 -9.6852,-11.7566 a 0.89583068,0.89583068 0 0 0 -0.81176,-0.50386 l -4.64666,0 a 0.89583068,0.89583068 0 0 0 -0.0839,0 z m 2.60325,5.85031 c 2.12158,3.66755 4.29654,6.41529 7.55781,9.54524 -1.04988,0.12769 -1.93354,0.19594 -3.55497,0.19594 l -8.31359,0 c -1.08454,0 -1.6603,-0.0852 -2.37932,-0.13996 2.66408,-2.90421 4.79602,-5.88297 6.69007,-9.60122 z m 18.44667,1.42758 16.71117,0 0,5.93429 -16.71117,0 0,-5.93429 z m 0,11.22476 16.71117,0 0,6.38216 -16.71117,0 0,-6.38216 z m 10.04909,11.67263 5.96228,0 c 2.56229,0 3.96091,0.048 5.31846,0.16795 a 0.89583068,0.89583068 0 0 0 -0.028,0.028 0.89583068,0.89583068 0 0 0 -0.0839,0.0839 0.89583068,0.89583068 0 0 0 -0.056,0.056 c -1.88709,2.44306 -4.53854,4.71278 -8.70548,7.58581 -1.12945,-2.47311 -1.7776,-4.59598 -2.40731,-7.92171 z m -37.39719,2.32332 a 0.89583068,0.89583068 0 0 0 -0.13996,0.056 l -3.30304,1.09168 a 0.89583068,0.89583068 0 0 0 -0.55984,1.14767 c 1.66214,4.66679 2.2895,7.45628 2.99513,12.65234 a 0.89583068,0.89583068 0 0 0 1.20366,0.72779 l 3.19107,-1.23164 a 0.89583068,0.89583068 0 0 0 0.16795,-0.056 0.89583068,0.89583068 0 0 0 0.16796,-0.0839 0.89583068,0.89583068 0 0 0 0.3359,-0.39189 0.89583068,0.89583068 0 0 0 0.028,-0.0839 0.89583068,0.89583068 0 0 0 0.028,-0.11197 0.89583068,0.89583068 0 0 0 0.028,-0.16795 0.89583068,0.89583068 0 0 0 -0.028,-0.13996 c -0.002,-0.0112 0.002,-0.0168 0,-0.028 a 0.89583068,0.89583068 0 0 0 -0.028,-0.16795 0.89583068,0.89583068 0 0 0 0,-0.028 c -0.81741,-5.11272 -1.39071,-7.35559 -3.10711,-12.56836 a 0.89583068,0.89583068 0 0 0 -0.97971,-0.61583 z m 46.69051,30.95906 a 0.89583068,0.89583068 0 0 0 -0.11197,0.028 0.89583068,0.89583068 0 0 0 -0.056,0 0.89583068,0.89583068 0 0 0 -0.0839,0.056 0.89583068,0.89583068 0 0 0 -0.13995,0.0839 c -2.25047,1.31875 -7.38125,2.73501 -13.54809,3.75091 -6.21526,1.02388 -13.5199,1.69951 -20.23815,1.76349 a 0.89583068,0.89583068 0 0 0 -0.78377,1.31562 c 0.8197,1.51331 1.10655,2.21485 1.48357,3.72293 a 0.89583068,0.89583068 0 0 0 0.89574,0.6718 c 6.08572,-0.32371 11.34727,-0.82543 16.15133,-1.53955 6.47945,-1.03671 13.64242,-2.53589 18.05478,-3.91887 l 0,0.028 c 1.35435,-0.38696 1.379,-0.42234 1.95944,-0.61582 a 0.89583068,0.89583068 0 0 0 0.39188,-1.42759 l -3.05111,-3.471 0,-0.028 a 0.89583068,0.89583068 0 0 0 -0.11197,-0.11197 0.89583068,0.89583068 0 0 0 -0.22394,-0.19595 0.89583068,0.89583068 0 0 0 -0.13996,-0.056 0.89583068,0.89583068 0 0 0 -0.028,-0.028 0.89583068,0.89583068 0 0 0 -0.056,0 0.89583068,0.89583068 0 0 0 -0.028,0 0.89583068,0.89583068 0 0 0 -0.13996,-0.028 0.89583068,0.89583068 0 0 0 -0.028,0 0.89583068,0.89583068 0 0 0 -0.056,0 0.89583068,0.89583068 0 0 0 -0.028,0 0.89583068,0.89583068 0 0 0 -0.0839,0 z m -41.79192,0.25192 a 0.89583068,0.89583068 0 0 0 -0.81177,1.00771 c 0.25384,1.90378 0.39189,3.58991 0.39189,6.27019 l 0,24.12903 c -4.02915,2.77325 -9.69591,5.68522 -11.98054,6.29818 a 0.89583068,0.89583068 0 0 0 -0.58783,1.23164 l 1.84747,4.31075 a 0.89583068,0.89583068 0 0 0 1.34361,0.3639 c 0.62888,-0.44022 1.1794,-0.7929 2.04341,-1.28763 0.007,-0.004 0.0207,0.004 0.028,0 2.61522,-1.41742 5.13212,-3.01755 7.30589,-4.4787 l 0,14.19189 c 0,3.00577 -0.14134,5.15353 -0.39188,6.96999 a 0.89583068,0.89583068 0 0 0 0.89574,1.0357 l 4.8426,0 a 0.89583068,0.89583068 0 0 0 0.86775,-1.0357 c -0.30761,-1.84565 -0.3639,-4.01628 -0.3639,-6.96999 l 0,-44.75906 c 0,-2.75933 0.0563,-4.3832 0.30791,-6.27019 a 0.89583068,0.89583068 0 0 0 -0.89574,-1.00771 l -4.75862,0 a 0.89583068,0.89583068 0 0 0 -0.0839,0 z m 41.00814,8.39758 a 0.89583068,0.89583068 0 0 0 -0.69979,0.58783 c -2.29661,6.18806 -4.50418,9.95409 -9.43328,15.84342 a 0.89583068,0.89583068 0 0 0 0.30791,1.39959 l 2.35132,1.09169 c 0.12565,1.05966 0.1743,2.17911 0.22394,3.63895 l -20.01422,0 c -2.6945,0 -4.22695,-0.054 -5.96227,-0.3639 a 0.89583068,0.89583068 0 0 0 -1.0637,0.86775 l 0,4.53469 a 0.89583068,0.89583068 0 0 0 1.03571,0.86775 c 1.6154,-0.24852 3.57095,-0.3639 5.99026,-0.3639 l 20.0702,0 0,16.17933 c 0,0.52077 -0.0319,0.51737 -0.19594,0.61582 -0.16409,0.0985 -0.72565,0.25193 -1.7355,0.25193 -2.63762,0 -5.76734,-0.3361 -9.26532,-1.0357 a 0.89583068,0.89583068 0 0 0 -1.00771,1.20365 c 0.5632,1.50189 0.7335,2.24796 0.92373,4.08682 a 0.89583068,0.89583068 0 0 0 0.81177,0.81176 c 3.49921,0.324 5.99166,0.44787 8.53753,0.44787 2.65064,0 4.52495,-0.26438 5.8783,-1.20365 1.35336,-0.93926 1.90345,-2.53057 1.90345,-4.45071 l 0,-16.90712 1.17566,0 c 2.48461,0 4.48959,0.11353 6.2422,0.3639 a 0.89583068,0.89583068 0 0 0 1.0357,-0.86775 l 0,-4.53469 a 0.89583068,0.89583068 0 0 0 -1.0357,-0.86775 c -1.75852,0.25122 -3.62711,0.3639 -6.2422,0.3639 l -1.11967,0 c 0.0197,-1.69399 0.0398,-2.80529 0.19594,-4.00285 a 0.89583068,0.89583068 0 0 0 -0.89574,-1.0357 l -1.95944,0 c 3.317,-4.31241 5.31194,-7.41421 8.95742,-14.41583 a 0.89583068,0.89583068 0 0 0 -0.41988,-1.23164 l -4.08682,-1.79149 a 0.89583068,0.89583068 0 0 0 -0.50386,-0.0839 z m -48.25805,0.83975 a 0.89583068,0.89583068 0 0 0 -0.13996,0.056 l -3.52698,1.34361 -0.028,0 a 0.89583068,0.89583068 0 0 0 -0.27991,0.11197 0.89583068,0.89583068 0 0 0 -0.056,0.028 0.89583068,0.89583068 0 0 0 -0.056,0 0.89583068,0.89583068 0 0 0 -0.028,0.028 0.89583068,0.89583068 0 0 0 -0.0839,0.0839 0.89583068,0.89583068 0 0 0 -0.056,0.056 0.89583068,0.89583068 0 0 0 -0.056,0.056 0.89583068,0.89583068 0 0 0 0,0.028 0.89583068,0.89583068 0 0 0 -0.056,0.056 0.89583068,0.89583068 0 0 0 0,0.028 0.89583068,0.89583068 0 0 0 -0.028,0.056 0.89583068,0.89583068 0 0 0 -0.028,0.0839 0.89583068,0.89583068 0 0 0 -0.028,0.0839 0.89583068,0.89583068 0 0 0 0,0.028 0.89583068,0.89583068 0 0 0 -0.028,0.056 0.89583068,0.89583068 0 0 0 0,0.028 0.89583068,0.89583068 0 0 0 0,0.056 0.89583068,0.89583068 0 0 0 0,0.028 0.89583068,0.89583068 0 0 0 0,0.056 0.89583068,0.89583068 0 0 0 0,0.028 0.89583068,0.89583068 0 0 0 0.028,0.16795 0.89583068,0.89583068 0 0 0 0.028,0.0839 0.89583068,0.89583068 0 0 0 0.028,0.056 0.89583068,0.89583068 0 0 0 0.056,0.11196 c 2.00511,4.40522 3.06754,7.76708 4.33874,13.99596 a 0.89583068,0.89583068 0 0 0 1.17566,0.67181 l 3.75092,-1.34362 a 0.89583068,0.89583068 0 0 0 0.55984,-1.06369 c -1.23189,-5.18688 -2.40504,-9.05641 -4.47871,-14.49981 a 0.89583068,0.89583068 0 0 0 -1.00771,-0.55984 z m 31.40692,1.14767 a 0.89583068,0.89583068 0 0 0 -0.19594,0.056 l -3.66694,1.28762 a 0.89583068,0.89583068 0 0 0 -0.47586,1.28763 c 2.29786,4.0851 3.45406,6.9308 4.92657,11.92456 a 0.89583068,0.89583068 0 0 0 1.17566,0.58783 l 3.55498,-1.34362 a 0.89583068,0.89583068 0 0 0 0.22393,-0.0839 0.89583068,0.89583068 0 0 0 0.19595,-0.0839 0.89583068,0.89583068 0 0 0 0,-0.028 0.89583068,0.89583068 0 0 0 0.056,-0.028 0.89583068,0.89583068 0 0 0 0.028,-0.028 0.89583068,0.89583068 0 0 0 0.056,-0.028 0.89583068,0.89583068 0 0 0 0,-0.028 0.89583068,0.89583068 0 0 0 0.056,-0.056 0.89583068,0.89583068 0 0 0 0,-0.028 0.89583068,0.89583068 0 0 0 0,-0.028 0.89583068,0.89583068 0 0 0 0.056,-0.056 0.89583068,0.89583068 0 0 0 0.028,-0.028 0.89583068,0.89583068 0 0 0 0,-0.028 0.89583068,0.89583068 0 0 0 0.028,-0.028 0.89583068,0.89583068 0 0 0 0.028,-0.13996 0.89583068,0.89583068 0 0 0 0.028,-0.0839 0.89583068,0.89583068 0 0 0 0,-0.11197 0.89583068,0.89583068 0 0 0 0,-0.056 0.89583068,0.89583068 0 0 0 0,-0.028 0.89583068,0.89583068 0 0 0 -0.028,-0.13996 0.89583068,0.89583068 0 0 0 0,-0.028 0.89583068,0.89583068 0 0 0 -0.028,-0.028 0.89583068,0.89583068 0 0 0 -0.0839,-0.22394 c -1.64517,-4.90614 -2.95579,-8.02287 -5.06654,-11.92455 a 0.89583068,0.89583068 0 0 0 -0.89574,-0.47587 z m -11.89656,1.87546 a 0.89583068,0.89583068 0 0 0 -0.19594,0.056 l -3.52698,1.37161 a 0.89583068,0.89583068 0 0 0 -0.44787,1.28763 c 2.55261,4.08418 3.67004,6.62356 5.40244,11.7566 a 0.89583068,0.89583068 0 0 0 1.20365,0.53184 l 3.49899,-1.59553 0.19594,-0.0839 a 0.89583068,0.89583068 0 0 0 0.056,-0.028 0.89583068,0.89583068 0 0 0 0.056,-0.028 0.89583068,0.89583068 0 0 0 0.13996,-0.11197 0.89583068,0.89583068 0 0 0 0.0839,-0.11196 0.89583068,0.89583068 0 0 0 0.028,-0.028 0.89583068,0.89583068 0 0 0 0.028,-0.056 0.89583068,0.89583068 0 0 0 0.056,-0.0839 0.89583068,0.89583068 0 0 0 0.028,-0.056 0.89583068,0.89583068 0 0 0 0,-0.056 0.89583068,0.89583068 0 0 0 0.028,-0.028 0.89583068,0.89583068 0 0 0 0,-0.056 0.89583068,0.89583068 0 0 0 0,-0.028 0.89583068,0.89583068 0 0 0 0,-0.056 0.89583068,0.89583068 0 0 0 0,-0.19595 0.89583068,0.89583068 0 0 0 0,-0.028 0.89583068,0.89583068 0 0 0 0,-0.056 0.89583068,0.89583068 0 0 0 0,-0.028 0.89583068,0.89583068 0 0 0 -0.028,-0.056 0.89583068,0.89583068 0 0 0 0,-0.028 0.89583068,0.89583068 0 0 0 -0.028,-0.028 0.89583068,0.89583068 0 0 0 -0.056,-0.13996 0.89583068,0.89583068 0 0 0 -0.056,-0.0839 c -1.89486,-4.71227 -3.40037,-7.80287 -5.57039,-11.50468 a 0.89583068,0.89583068 0 0 0 -0.89574,-0.44787 z m 4.31076,24.38095 a 0.89583068,0.89583068 0 0 0 -0.39189,0.16796 l -3.02313,2.26734 a 0.89583068,0.89583068 0 0 0 -0.0839,1.3716 c 3.77617,3.52016 5.88842,5.94379 8.76147,10.41299 a 0.89583068,0.89583068 0 0 0 1.28763,0.22394 l 3.35903,-2.54726 0.0839,-0.056 a 0.89583068,0.89583068 0 0 0 0.11197,-0.11197 0.89583068,0.89583068 0 0 0 0.13996,-0.13996 0.89583068,0.89583068 0 0 0 0.028,-0.056 0.89583068,0.89583068 0 0 0 0.056,-0.0839 0.89583068,0.89583068 0 0 0 0.056,-0.16795 0.89583068,0.89583068 0 0 0 0,-0.0839 0.89583068,0.89583068 0 0 0 0.028,-0.0839 0.89583068,0.89583068 0 0 0 0,-0.028 0.89583068,0.89583068 0 0 0 0,-0.056 0.89583068,0.89583068 0 0 0 -0.028,-0.11197 0.89583068,0.89583068 0 0 0 -0.056,-0.16795 0.89583068,0.89583068 0 0 0 -0.028,-0.0839 0.89583068,0.89583068 0 0 0 -0.056,-0.0839 0.89583068,0.89583068 0 0 0 -0.028,-0.028 c -0.004,-0.006 0.004,-0.0218 0,-0.028 a 0.89583068,0.89583068 0 0 0 -0.19594,-0.19594 c -2.90655,-3.76689 -5.39657,-6.46202 -9.26533,-10.07709 a 0.89583068,0.89583068 0 0 0 -0.75578,-0.25193 z"
       id="path5708"
       inkscape:connector-curvature="0" />
    <path
       style="font-size:medium;font-style:normal;font-variant:normal;font-weight:normal;font-stretch:normal;text-indent:0;text-align:start;text-decoration:none;line-height:normal;letter-spacing:normal;word-spacing:normal;text-transform:none;direction:ltr;block-progression:tb;writing-mode:lr-tb;text-anchor:start;baseline-shift:baseline;color:#000000;fill:#000000;fill-opacity:1;fill-rule:nonzero;stroke:none;stroke-width:4;marker:none;visibility:visible;display:inline;overflow:visible;enable-background:accumulate;font-family:Sans;-inkscape-font-specification:Sans"
       d="m 879.72945,518.37481 -0.9828,1.00464 -5.91867,5.91867 -1.00465,0.98281 1.00465,0.9828 31.01293,30.99108 -31.01293,31.01294 -1.00465,0.98281 1.00465,0.9828 5.91867,5.91866 0.9828,1.00465 0.9828,-1.00465 30.9911,-30.99109 31.01293,30.99109 0.9828,0.98281 0.9828,-0.98281 5.91867,-5.91866 0.98281,-0.9828 -0.98281,-0.98281 -30.99109,-31.01294 30.99109,-30.99108 1.00466,-0.9828 -1.00466,-0.98281 -5.91867,-5.91867 -0.9828,-1.00464 -0.9828,1.00464 -25.77131,25.77131 0,-21.81826 0,-1.39775 -1.39776,0 -8.3866,0 -1.39776,0 0,1.39775 0,21.09754 -25.0506,-25.0506 -0.9828,-1.00464 z"
       id="path4493"
       inkscape:connector-curvature="0" />
  </g>
</svg>
