<!-- Created with Inkscape (http://www.inkscape.org/) -->
<svg xmlns:rdf="http://www.w3.org/1999/02/22-rdf-syntax-ns#" xmlns="http://www.w3.org/2000/svg" height="262.56" width="228.25" viewBox="0 0 228.25 262.56" version="1.1" xmlns:cc="http://creativecommons.org/ns#" xmlns:xlink="http://www.w3.org/1999/xlink" xmlns:dc="http://purl.org/dc/elements/1.1/">
<defs></defs>
<metadata>
<rdf:RDF>
<cc:Work rdf:about="">
<dc:format>image/svg+xml</dc:format>
<dc:type rdf:resource="http://purl.org/dc/dcmitype/StillImage"/>
<dc:title/>
</cc:Work>
</rdf:RDF>
</metadata>
<g transform="translate(-797.58923,-358.53183)">
<path stroke-linejoin="round" d="m816.65,616.09,190.12,0c4.125,0,7.5-0.6563,10.125-1.9687,2.625-1.3126,3.9376-3.4688,3.9376-6.4688,0-19.125-12.938-87.375-38.813-204.75-1.5-6-3.5859-10.758-6.2578-14.273-2.6719-3.5157-7.7109-6.4454-15.117-8.7891l-48.938-16.312-48.938,16.312c-7.4063,2.3437-12.445,5.2734-15.117,8.7891-2.6719,3.5156-4.7578,8.4609-6.2578,14.836-25.875,117-38.813,185.06-38.813,204.19,0,3,1.3125,5.1562,3.9375,6.4688,2.625,1.3124,6,1.9687,10.125,1.9687z" stroke="#000" stroke-linecap="round" stroke-miterlimit="4" stroke-dasharray="none" stroke-width="10" fill="#FFF"/>
<use xlink:href="#lance" transform="matrix(-4,0,0,-4,42,80)" height="100.5" width="100.5" y="0" x="0"/>
<use xlink:href="#lance" transform="matrix(-4,0,0,-4,42,80)" height="100.5" width="100.5" y="0" x="0"/>
<use xlink:href="#lance" transform="matrix(-4,0,0,-4,42,80)" height="100.5" width="100.5" y="0" x="0"/>
<path fill="#000" d="m894.81,380.6a0.89583,0.89583,0,0,0,-0.75578,0.58783c-2.2631,6.0978-5.8977,10.744-11.981,15.116a0.89583,0.89583,0,0,0,-0.13996,1.3436c1.1339,1.1969,1.615,1.8585,2.2953,3.2191a0.89583,0.89583,0,0,0,1.3996,0.27992c1.0888-0.93326,1.6234-1.4668,2.2673-2.0714v1.5116a0.89583,0.89583,0,0,0,1.0357,0.89574c1.1504-0.18164,2.5079-0.25192,4.0308-0.25192h1.1757v4.9826h-4.0028c-2.6297,0-4.24-0.0882-5.8503-0.33591a0.89583,0.89583,0,0,0,-1.0357,0.89574v4.0588a0.89583,0.89583,0,0,0,1.0077,0.89574c1.6771-0.24846,3.3784-0.30791,5.8783-0.30791h4.0028v18.027c-5.2078,1.2818-8.7419,1.9861-10.805,2.0434a0.89583,0.89583,0,0,0,-0.83976,1.0917l1.0357,4.3388a0.89583,0.89583,0,0,0,1.1197,0.64381c0.59886-0.17965,0.93887-0.2612,1.5676-0.44787,0.0268-0.007,0.0294,0.007,0.056,0,12.562-3.2044,13.006-3.3201,21.89-6.4101a0.89583,0.89583,0,0,0,0.58783,-0.86775l-0.11196-3.611a0.89583,0.89583,0,0,0,-1.2037,-0.81176c-1.1728,0.41501-1.6425,0.5201-2.4913,0.81176a0.89583,0.89583,0,0,0,0,-0.0839c0.005-0.0119,0.0229-0.016,0.028-0.028a0.89583,0.89583,0,0,0,0.056,-0.19594c1.4363-3.4042,2.2477-6.0016,3.387-10.749a0.89583,0.89583,0,0,0,-0.53184,-1.0357l-3.1631-1.2876a0.89583,0.89583,0,0,0,-1.2036,0.6718c-0.76623,4.4058-1.5768,7.1346-3.1071,10.833a0.89583,0.89583,0,0,0,0.50385,1.2036l2.7152,1.0077a0.89583,0.89583,0,0,0,0.0839,0.056c-1.2352,0.41198-2.7414,0.94406-4.0308,1.3156v-16.515h2.8272c2.5648,0,4.1246,0.0597,5.7383,0.30791a0.89583,0.89583,0,0,0,1.0357,-0.89574v-4.0588a0.89583,0.89583,0,0,0,-1.0357,-0.89574c-1.5397,0.24635-3.1736,0.33591-5.7383,0.33591h-2.8272v-4.9826h1.7355c1.7192,0,2.8917,0.0652,4.1988,0.25192a0.89583,0.89583,0,0,0,1.0077,-0.89574v-2.9392a0.89583,0.89583,0,0,0,1.1757,-0.36389c0.81988-1.4506,1.1798-1.9001,2.3233-3.1071a0.89583,0.89583,0,0,0,0.0839,-0.11196v37.761c-2.8139,0.67863-4.6453,1.0916-6.3822,1.2036a0.89583,0.89583,0,0,0,-0.81176,1.1477l1.1477,4.1708a0.89583,0.89583,0,0,0,1.2037,0.61582c0.578-0.2312,1.2516-0.42764,3.443-1.0077,7.3107-1.8762,11.939-3.3786,17.635-5.5144a0.89583,0.89583,0,0,0,0.55984,-0.89574l-0.16795-3.7229a0.89583,0.89583,0,0,0,-1.2316,-0.78377c-3.7308,1.4923-6.178,2.2288-9.7412,3.2471v-19.51h4.5067c1.0636,5.6576,2.2587,9.3428,4.5067,13.464,3.161,5.7293,7.257,9.9766,13.968,14.668a0.89583,0.89583,0,0,0,1.2876,-0.27992c1.0114-1.7699,1.5437-2.4734,2.6592-3.527a0.89583,0.89583,0,0,0,-0.13996,-1.4276c-5.5456-3.3153-8.8272-6.2382-11.673-10.273,4.2854-3.0389,5.9535-4.3217,10.357-8.0617a0.89583,0.89583,0,0,0,0.056,-1.3156l-2.7712-2.7992a0.89583,0.89583,0,0,0,-0.056,-0.0839,0.89583,0.89583,0,0,0,-0.16795,-0.19595,0.89583,0.89583,0,0,0,-0.028,-0.028,0.89583,0.89583,0,0,0,-0.056,-0.056,0.89583,0.89583,0,0,0,-0.056,-0.028,0.89583,0.89583,0,0,0,-0.028,0,0.89583,0.89583,0,0,0,-0.056,-0.028,0.89583,0.89583,0,0,0,-0.028,-0.028,0.89583,0.89583,0,0,0,-0.028,-0.028,0.89583,0.89583,0,0,0,-0.056,0,0.89583,0.89583,0,0,0,-0.028,-0.028,0.89583,0.89583,0,0,0,0.25193,-0.78377c-0.17854-1.1902-0.16795-2.6525-0.16795-6.5221v-13.268c0-3.9986,0.008-5.2489,0.19594-6.942a0.89583,0.89583,0,0,0,-1.0637,-0.97972c-1.2478,0.23768-2.8895,0.30792-6.1022,0.30792h-13.996c-2.8241,0-4.4458-0.0624-6.2142-0.25193a0.89583,0.89583,0,0,0,-0.97971,0.95172c0.12905,2.1294,0.25192,4.1495,0.25192,6.6341v3.1631a0.89583,0.89583,0,0,0,-0.16795,-0.16795c-5.0415-3.9566-7.1429-6.4813-9.6852-11.757a0.89583,0.89583,0,0,0,-0.81176,-0.50386h-4.6467a0.89583,0.89583,0,0,0,-0.0839,0zm2.6032,5.8503c2.1216,3.6676,4.2965,6.4153,7.5578,9.5452-1.0499,0.12769-1.9335,0.19594-3.555,0.19594h-8.3136c-1.0845,0-1.6603-0.0852-2.3793-0.13996,2.6641-2.9042,4.796-5.883,6.6901-9.6012zm18.447,1.4276,16.711,0,0,5.9343-16.711,0,0-5.9343zm0,11.225,16.711,0,0,6.3822-16.711,0,0-6.3822zm10.049,11.673,5.9623,0c2.5623,0,3.9609,0.048,5.3185,0.16795a0.89583,0.89583,0,0,0,-0.028,0.028,0.89583,0.89583,0,0,0,-0.0839,0.0839,0.89583,0.89583,0,0,0,-0.056,0.056c-1.8871,2.4431-4.5385,4.7128-8.7055,7.5858-1.1294-2.4731-1.7776-4.596-2.4073-7.9217zm-37.397,2.3233a0.89583,0.89583,0,0,0,-0.13996,0.056l-3.303,1.0917a0.89583,0.89583,0,0,0,-0.55984,1.1477c1.6621,4.6668,2.2895,7.4563,2.9951,12.652a0.89583,0.89583,0,0,0,1.2037,0.72779l3.1911-1.2316a0.89583,0.89583,0,0,0,0.16795,-0.056,0.89583,0.89583,0,0,0,0.16796,-0.0839,0.89583,0.89583,0,0,0,0.3359,-0.39189,0.89583,0.89583,0,0,0,0.028,-0.0839,0.89583,0.89583,0,0,0,0.028,-0.11197,0.89583,0.89583,0,0,0,0.028,-0.16795,0.89583,0.89583,0,0,0,-0.028,-0.13996c-0.002-0.0112,0.002-0.0168,0-0.028a0.89583,0.89583,0,0,0,-0.028,-0.16795,0.89583,0.89583,0,0,0,0,-0.028c-0.81741-5.1127-1.3907-7.3556-3.1071-12.568a0.89583,0.89583,0,0,0,-0.97971,-0.61583zm46.691,30.959a0.89583,0.89583,0,0,0,-0.11197,0.028,0.89583,0.89583,0,0,0,-0.056,0,0.89583,0.89583,0,0,0,-0.0839,0.056,0.89583,0.89583,0,0,0,-0.13995,0.0839c-2.2505,1.3188-7.3812,2.735-13.548,3.7509-6.2153,1.0239-13.52,1.6995-20.238,1.7635a0.89583,0.89583,0,0,0,-0.78377,1.3156c0.8197,1.5133,1.1066,2.2148,1.4836,3.7229a0.89583,0.89583,0,0,0,0.89574,0.6718c6.0857-0.32371,11.347-0.82543,16.151-1.5396,6.4794-1.0367,13.642-2.5359,18.055-3.9189v0.028c1.3544-0.38696,1.379-0.42234,1.9594-0.61582a0.89583,0.89583,0,0,0,0.39188,-1.4276l-3.0511-3.471v-0.028a0.89583,0.89583,0,0,0,-0.11197,-0.11197,0.89583,0.89583,0,0,0,-0.22394,-0.19595,0.89583,0.89583,0,0,0,-0.13996,-0.056,0.89583,0.89583,0,0,0,-0.028,-0.028,0.89583,0.89583,0,0,0,-0.056,0,0.89583,0.89583,0,0,0,-0.028,0,0.89583,0.89583,0,0,0,-0.13996,-0.028,0.89583,0.89583,0,0,0,-0.028,0,0.89583,0.89583,0,0,0,-0.056,0,0.89583,0.89583,0,0,0,-0.028,0,0.89583,0.89583,0,0,0,-0.0839,0zm-41.792,0.25192a0.89583,0.89583,0,0,0,-0.81177,1.0077c0.25384,1.9038,0.39189,3.5899,0.39189,6.2702v24.129c-4.0292,2.7732-9.6959,5.6852-11.981,6.2982a0.89583,0.89583,0,0,0,-0.58783,1.2316l1.8475,4.3108a0.89583,0.89583,0,0,0,1.3436,0.3639c0.62888-0.44022,1.1794-0.7929,2.0434-1.2876,0.007-0.004,0.0207,0.004,0.028,0,2.6152-1.4174,5.1321-3.0176,7.3059-4.4787v14.192c0,3.0058-0.14134,5.1535-0.39188,6.97a0.89583,0.89583,0,0,0,0.89574,1.0357h4.8426a0.89583,0.89583,0,0,0,0.86775,-1.0357c-0.30761-1.8456-0.3639-4.0163-0.3639-6.97v-44.759c0-2.7593,0.0563-4.3832,0.30791-6.2702a0.89583,0.89583,0,0,0,-0.89574,-1.0077h-4.7586a0.89583,0.89583,0,0,0,-0.0839,0zm41.008,8.3976a0.89583,0.89583,0,0,0,-0.69979,0.58783c-2.2966,6.1881-4.5042,9.9541-9.4333,15.843a0.89583,0.89583,0,0,0,0.30791,1.3996l2.3513,1.0917c0.12565,1.0597,0.1743,2.1791,0.22394,3.639h-20.014c-2.6945,0-4.227-0.054-5.9623-0.3639a0.89583,0.89583,0,0,0,-1.0637,0.86775v4.5347a0.89583,0.89583,0,0,0,1.0357,0.86775c1.6154-0.24852,3.571-0.3639,5.9903-0.3639h20.07v16.179c0,0.52077-0.0319,0.51737-0.19594,0.61582-0.16409,0.0985-0.72565,0.25193-1.7355,0.25193-2.6376,0-5.7673-0.3361-9.2653-1.0357a0.89583,0.89583,0,0,0,-1.0077,1.2036c0.5632,1.5019,0.7335,2.248,0.92373,4.0868a0.89583,0.89583,0,0,0,0.81177,0.81176c3.4992,0.324,5.9917,0.44787,8.5375,0.44787,2.6506,0,4.525-0.26438,5.8783-1.2036,1.3534-0.93926,1.9034-2.5306,1.9034-4.4507v-16.907h1.1757c2.4846,0,4.4896,0.11353,6.2422,0.3639a0.89583,0.89583,0,0,0,1.0357,-0.86775v-4.5347a0.89583,0.89583,0,0,0,-1.0357,-0.86775c-1.7585,0.25122-3.6271,0.3639-6.2422,0.3639h-1.1197c0.0197-1.694,0.0398-2.8053,0.19594-4.0028a0.89583,0.89583,0,0,0,-0.89574,-1.0357h-1.9594c3.317-4.3124,5.3119-7.4142,8.9574-14.416a0.89583,0.89583,0,0,0,-0.41988,-1.2316l-4.0868-1.7915a0.89583,0.89583,0,0,0,-0.50386,-0.0839zm-48.258,0.83975a0.89583,0.89583,0,0,0,-0.13996,0.056l-3.527,1.3436h-0.028a0.89583,0.89583,0,0,0,-0.27991,0.11197,0.89583,0.89583,0,0,0,-0.056,0.028,0.89583,0.89583,0,0,0,-0.056,0,0.89583,0.89583,0,0,0,-0.028,0.028,0.89583,0.89583,0,0,0,-0.0839,0.0839,0.89583,0.89583,0,0,0,-0.056,0.056,0.89583,0.89583,0,0,0,-0.056,0.056,0.89583,0.89583,0,0,0,0,0.028,0.89583,0.89583,0,0,0,-0.056,0.056,0.89583,0.89583,0,0,0,0,0.028,0.89583,0.89583,0,0,0,-0.028,0.056,0.89583,0.89583,0,0,0,-0.028,0.0839,0.89583,0.89583,0,0,0,-0.028,0.0839,0.89583,0.89583,0,0,0,0,0.028,0.89583,0.89583,0,0,0,-0.028,0.056,0.89583,0.89583,0,0,0,0,0.028,0.89583,0.89583,0,0,0,0,0.056,0.89583,0.89583,0,0,0,0,0.028,0.89583,0.89583,0,0,0,0,0.056,0.89583,0.89583,0,0,0,0,0.028,0.89583,0.89583,0,0,0,0.028,0.16795,0.89583,0.89583,0,0,0,0.028,0.0839,0.89583,0.89583,0,0,0,0.028,0.056,0.89583,0.89583,0,0,0,0.056,0.11196c2.0051,4.4052,3.0675,7.7671,4.3387,13.996a0.89583,0.89583,0,0,0,1.1757,0.67181l3.7509-1.3436a0.89583,0.89583,0,0,0,0.55984,-1.0637c-1.2319-5.1869-2.405-9.0564-4.4787-14.5a0.89583,0.89583,0,0,0,-1.0077,-0.55984zm31.407,1.1477a0.89583,0.89583,0,0,0,-0.19594,0.056l-3.6669,1.2876a0.89583,0.89583,0,0,0,-0.47586,1.2876c2.2979,4.0851,3.4541,6.9308,4.9266,11.925a0.89583,0.89583,0,0,0,1.1757,0.58783l3.555-1.3436a0.89583,0.89583,0,0,0,0.22393,-0.0839,0.89583,0.89583,0,0,0,0.19595,-0.0839,0.89583,0.89583,0,0,0,0,-0.028,0.89583,0.89583,0,0,0,0.056,-0.028,0.89583,0.89583,0,0,0,0.028,-0.028,0.89583,0.89583,0,0,0,0.056,-0.028,0.89583,0.89583,0,0,0,0,-0.028,0.89583,0.89583,0,0,0,0.056,-0.056,0.89583,0.89583,0,0,0,0,-0.028,0.89583,0.89583,0,0,0,0,-0.028,0.89583,0.89583,0,0,0,0.056,-0.056,0.89583,0.89583,0,0,0,0.028,-0.028,0.89583,0.89583,0,0,0,0,-0.028,0.89583,0.89583,0,0,0,0.028,-0.028,0.89583,0.89583,0,0,0,0.028,-0.13996,0.89583,0.89583,0,0,0,0.028,-0.0839,0.89583,0.89583,0,0,0,0,-0.11197,0.89583,0.89583,0,0,0,0,-0.056,0.89583,0.89583,0,0,0,0,-0.028,0.89583,0.89583,0,0,0,-0.028,-0.13996,0.89583,0.89583,0,0,0,0,-0.028,0.89583,0.89583,0,0,0,-0.028,-0.028,0.89583,0.89583,0,0,0,-0.0839,-0.22394c-1.6452-4.9061-2.9558-8.0229-5.0665-11.925a0.89583,0.89583,0,0,0,-0.89574,-0.47587zm-11.897,1.8755a0.89583,0.89583,0,0,0,-0.19594,0.056l-3.527,1.3716a0.89583,0.89583,0,0,0,-0.44787,1.2876c2.5526,4.0842,3.67,6.6236,5.4024,11.757a0.89583,0.89583,0,0,0,1.2036,0.53184l3.499-1.5955,0.19594-0.0839a0.89583,0.89583,0,0,0,0.056,-0.028,0.89583,0.89583,0,0,0,0.056,-0.028,0.89583,0.89583,0,0,0,0.13996,-0.11197,0.89583,0.89583,0,0,0,0.0839,-0.11196,0.89583,0.89583,0,0,0,0.028,-0.028,0.89583,0.89583,0,0,0,0.028,-0.056,0.89583,0.89583,0,0,0,0.056,-0.0839,0.89583,0.89583,0,0,0,0.028,-0.056,0.89583,0.89583,0,0,0,0,-0.056,0.89583,0.89583,0,0,0,0.028,-0.028,0.89583,0.89583,0,0,0,0,-0.056,0.89583,0.89583,0,0,0,0,-0.028,0.89583,0.89583,0,0,0,0,-0.056,0.89583,0.89583,0,0,0,0,-0.19595,0.89583,0.89583,0,0,0,0,-0.028,0.89583,0.89583,0,0,0,0,-0.056,0.89583,0.89583,0,0,0,0,-0.028,0.89583,0.89583,0,0,0,-0.028,-0.056,0.89583,0.89583,0,0,0,0,-0.028,0.89583,0.89583,0,0,0,-0.028,-0.028,0.89583,0.89583,0,0,0,-0.056,-0.13996,0.89583,0.89583,0,0,0,-0.056,-0.0839c-1.8949-4.7123-3.4004-7.8029-5.5704-11.505a0.89583,0.89583,0,0,0,-0.89574,-0.44787zm4.3108,24.381a0.89583,0.89583,0,0,0,-0.39189,0.16796l-3.0231,2.2673a0.89583,0.89583,0,0,0,-0.0839,1.3716c3.7762,3.5202,5.8884,5.9438,8.7615,10.413a0.89583,0.89583,0,0,0,1.2876,0.22394l3.359-2.5473,0.0839-0.056a0.89583,0.89583,0,0,0,0.11197,-0.11197,0.89583,0.89583,0,0,0,0.13996,-0.13996,0.89583,0.89583,0,0,0,0.028,-0.056,0.89583,0.89583,0,0,0,0.056,-0.0839,0.89583,0.89583,0,0,0,0.056,-0.16795,0.89583,0.89583,0,0,0,0,-0.0839,0.89583,0.89583,0,0,0,0.028,-0.0839,0.89583,0.89583,0,0,0,0,-0.028,0.89583,0.89583,0,0,0,0,-0.056,0.89583,0.89583,0,0,0,-0.028,-0.11197,0.89583,0.89583,0,0,0,-0.056,-0.16795,0.89583,0.89583,0,0,0,-0.028,-0.0839,0.89583,0.89583,0,0,0,-0.056,-0.0839,0.89583,0.89583,0,0,0,-0.028,-0.028c-0.004-0.006,0.004-0.0218,0-0.028a0.89583,0.89583,0,0,0,-0.19594,-0.19594c-2.9066-3.7669-5.3966-6.462-9.2653-10.077a0.89583,0.89583,0,0,0,-0.75578,-0.25193z"/>
<path fill-rule="nonzero" style="baseline-shift:baseline;block-progression:tb;color:#000000;direction:ltr;text-indent:0;text-align:start;enable-background:accumulate;text-transform:none;" fill="#000" d="m879.73,518.37-0.9828,1.0046-5.9187,5.9187-1.0046,0.98281,1.0046,0.9828,31.013,30.991-31.013,31.013-1.0046,0.98281,1.0046,0.9828,5.9187,5.9187,0.9828,1.0046,0.9828-1.0046,30.991-30.991,31.013,30.991,0.9828,0.98281,0.9828-0.98281,5.9187-5.9187,0.98281-0.9828-0.98281-0.98281-30.991-31.013,30.991-30.991,1.0047-0.9828-1.0047-0.98281-5.9187-5.9187-0.9828-1.0046-0.9828,1.0046-25.771,25.771,0-21.818,0-1.3978-1.3978,0-8.3866,0-1.3978,0,0,1.3978,0,21.098-25.051-25.051-0.9828-1.0046z"/>
</g>
</svg>
